<?xml version="1.0" encoding="UTF-8" standalone="no"?>
<!-- Created with Inkscape (http://www.inkscape.org/) -->

<svg
   xmlns:dc="http://purl.org/dc/elements/1.1/"
   xmlns:cc="http://creativecommons.org/ns#"
   xmlns:rdf="http://www.w3.org/1999/02/22-rdf-syntax-ns#"
   xmlns:svg="http://www.w3.org/2000/svg"
   xmlns="http://www.w3.org/2000/svg"
   xmlns:sodipodi="http://sodipodi.sourceforge.net/DTD/sodipodi-0.dtd"
   xmlns:inkscape="http://www.inkscape.org/namespaces/inkscape"
   id="svg2"
   version="1.1"
   inkscape:version="0.48.3.1 r9886"
   width="557.9875"
   height="204.85"
   xml:space="preserve"
   sodipodi:docname="Deskmag Coworking Vektor.eps"><metadata
     id="metadata8"><rdf:RDF><cc:Work
         rdf:about=""><dc:format>image/svg+xml</dc:format><dc:type
           rdf:resource="http://purl.org/dc/dcmitype/StillImage" /><dc:title></dc:title></cc:Work></rdf:RDF></metadata><defs
     id="defs6"><clipPath
       clipPathUnits="userSpaceOnUse"
       id="clipPath18"><path
         d="M 0,1638.82 0,0 l 4463.94,0 0,1638.82 -4463.94,0 z"
         id="path20" /></clipPath></defs><sodipodi:namedview
     pagecolor="#ffffff"
     bordercolor="#666666"
     borderopacity="1"
     objecttolerance="10"
     gridtolerance="10"
     guidetolerance="10"
     inkscape:pageopacity="0"
     inkscape:pageshadow="2"
     inkscape:window-width="640"
     inkscape:window-height="480"
     id="namedview4"
     showgrid="false"
     inkscape:zoom="0.64696791"
     inkscape:cx="278.99374"
     inkscape:cy="102.425"
     inkscape:window-x="65"
     inkscape:window-y="24"
     inkscape:window-maximized="0"
     inkscape:current-layer="g10" /><g
     id="g10"
     inkscape:groupmode="layer"
     inkscape:label="ink_ext_XXXXXX"
     transform="matrix(1.25,0,0,-1.25,0,204.85)"><g
       id="g12"
       transform="scale(0.1,0.1)"><g
         id="g14"><g
           id="g16"
           clip-path="url(#clipPath18)"><path
             d="m 411.582,899.645 0,250.795 c -38.398,32.4 -86.394,58.79 -153.594,58.79 -100.797,0 -171.5896,-82.79 -171.5896,-195.58 -1.2031,-114.005 70.7926,-190.802 167.9926,-190.802 65.996,0 116.394,33.605 157.191,76.797 z M 0,1012.45 c 0,145.19 99.5938,268.79 253.188,268.79 63.597,0 118.8,-24.01 158.394,-61.2 l 0,346.78 -95.996,0 0,72 178.793,0 0,-806.363 82.801,0 0,-72 -163.196,0 0,72 C 370.785,784.449 317.988,750.855 242.387,750.855 106.797,750.855 0,856.453 0,1012.45"
             style="fill:#231f20;fill-opacity:1;fill-rule:nonzero;stroke:none"
             id="path22" /><path
             d="m 743.98,1058.04 313.19,0 c -6,90 -57.6,152.4 -154.791,152.4 -78,0 -146.399,-55.2 -158.399,-152.4 z m -1.199,-65.993 c 12,-112.793 86.399,-167.996 196.793,-167.996 68.396,0 119.996,21.601 179.996,56.394 l -7.2,-80.39 c -52.8,-32.403 -118.8,-49.2 -183.597,-49.2 -163.191,0 -272.386,108 -272.386,263.985 0,141.6 94.797,266.4 250.785,266.4 152.398,0 233.998,-114 233.998,-241.19 0,-19.2 -1.2,-34.8 -4.8,-48.003 l -393.589,0"
             style="fill:#231f20;fill-opacity:1;fill-rule:nonzero;stroke:none"
             id="path24" /><path
             d="m 1589.96,1114.44 c -31.21,0 -55.2,21.6 -55.2,52.8 0,8.4 1.2,19.2 6,28.8 -18,12 -51.6,18 -90,18 -70.8,0 -111.59,-37.2 -111.59,-74.4 0,-44.4 46.79,-60 130.79,-81.6 103.19,-25.2 189.59,-54 189.59,-153.591 0,-97.195 -94.79,-153.594 -203.99,-153.594 -74.4,0 -149.99,24.004 -184.79,58.801 -18,17.996 -27.6,38.399 -27.6,63.594 0,30 21.6,56.395 51.6,56.395 32.39,0 55.2,-21.59 55.2,-52.793 0,-10.801 -3.61,-20.399 -8.41,-31.2 16.8,-13.195 58.8,-28.8 114,-28.8 69.6,0 124.8,30 124.8,79.199 0,46.797 -48,64.797 -121.2,82.793 -123.6,31.206 -200.4,59.996 -200.4,154.796 0,76.8 72.01,147.6 194.4,147.6 68.4,0 129.59,-21.6 160.79,-52.81 18,-17.99 26.4,-37.19 26.4,-58.79 0,-32.4 -21.6,-55.2 -50.39,-55.2"
             style="fill:#231f20;fill-opacity:1;fill-rule:nonzero;stroke:none"
             id="path26" /><path
             d="m 1735.18,832.457 81.6,0 0,734.363 -81.6,0 0,72 164.4,0 0,-621.58 213.59,184.8 -99.6,0 0,69.6 289.19,0 0,-73.2 -91.19,0 -160.8,-137.99 158.4,-227.993 93.59,0 0,-72 -141.59,0 -170.4,254.383 -91.19,-76.797 0,-106.785 82.79,0 0,-70.801 -247.19,0 0,72"
             style="fill:#231f20;fill-opacity:1;fill-rule:nonzero;stroke:none"
             id="path28" /><path
             d="m 2375.97,800.055 87.59,0 0,419.985 -87.59,0 0,39.6 129.59,0 0,-100.8 c 45.6,56.39 117.59,109.2 193.18,109.2 62.4,0 103.2,-24 124.8,-63.6 7.21,-14.4 12,-30 15.61,-45.6 55.2,62.4 126,109.2 196.78,109.2 69.61,0 109.2,-27.6 129.61,-73.2 13.18,-27.6 17.99,-61.2 17.99,-98.4 l 0,-296.385 87.59,0 0,-39.598 -218.4,0 0,39.598 86.41,0 0,290.385 c 0,33.6 -4.8,61.2 -13.2,80.4 -15.61,37.2 -46.8,56.4 -96,56.4 -68.4,0 -131.99,-46.8 -184.78,-106.8 l 0,-320.385 87.59,0 0,-39.598 -218.39,0 0,39.598 86.4,0 0,290.385 c 0,32.4 -3.61,60 -12.01,80.4 -15.59,37.2 -46.8,56.4 -96,56.4 -70.8,0 -134.39,-49.2 -184.78,-108 l 0,-319.185 86.39,0 0,-39.598 -218.38,0 0,39.598"
             style="fill:#231f20;fill-opacity:1;fill-rule:nonzero;stroke:none"
             id="path30" /><path
             d="m 3694.76,878.055 0,104.394 c -45.61,14.403 -103.21,25.191 -157.19,25.191 -98.4,0 -144.01,-51.589 -144.01,-110.386 0,-56.399 40.81,-106.797 128.4,-106.797 70.8,0 130.8,39.598 172.8,87.598 z m -345.59,16.797 c 0,89.988 77.99,149.988 186,149.988 57.59,0 123.59,-14.39 159.59,-28.79 l 0,91.19 c 0,31.2 -8.4,57.6 -25.2,78 -22.81,26.4 -62.4,44.4 -117.6,44.4 -57.59,0 -91.19,-19.2 -110.39,-38.4 7.19,-7.2 11.99,-19.2 11.99,-32.4 0,-18 -14.39,-36 -35.99,-36 -24.01,0 -38.4,18 -38.4,40.8 0,46.8 63.59,104.4 176.39,104.4 65.99,0 117.59,-19.2 147.59,-54 22.8,-25.2 34.81,-58.8 34.81,-99.6 l 0,-314.385 86.39,0 0,-39.598 -128.4,0 0,75.594 c -40.8,-44.395 -106.8,-83.992 -179.98,-83.992 -105.61,0 -166.8,63.593 -166.8,142.793"
             style="fill:#231f20;fill-opacity:1;fill-rule:nonzero;stroke:none"
             id="path32" /><path
             d="m 3951.55,1012.45 c 0,-121.204 80.39,-214.798 196.8,-214.798 79.2,0 139.18,40.801 184.78,93.594 l 0,262.794 c -43.2,40.8 -101.99,74.39 -178.78,74.39 -120,0 -202.8,-95.99 -202.8,-215.98 z m 425.98,-283.196 c 0,-60 -15.59,-105.594 -44.4,-139.184 -40.8,-48 -106.79,-69.601 -185.99,-69.601 -79.2,0 -135.59,25.191 -163.18,55.191 -14.42,14.41 -21.61,32.399 -21.61,48 0,27.598 19.2,45.594 43.21,45.594 20.39,0 34.78,-16.797 34.78,-37.195 0,-13.2 -7.19,-26.399 -17.99,-34.797 15.59,-18 61.19,-37.192 129.59,-37.192 62.41,0 114.01,16.789 147.6,56.391 21.6,26.398 33.59,61.203 33.59,109.199 l 0,121.192 c -44.39,-47.997 -104.39,-87.598 -187.18,-87.598 -135.61,0 -240,108 -240,251.996 0,137.99 100.8,256.79 249.59,256.79 72.01,0 134.39,-32.4 178.79,-74.4 l 0,66 129.61,0 0,-39.6 -86.41,0 0,-490.786"
             style="fill:#231f20;fill-opacity:1;fill-rule:nonzero;stroke:none"
             id="path34" /><path
             d="m 666.582,79.7891 26.699,0 0,158.6989 -49.504,0 0,-31.797 -21.297,0 0,50.7 164.098,0 0,-50.7 -21.301,0 0,31.797 -49.5,0 0,-158.6989 26.7,0 0,-19.7891 -75.895,0 0,19.7891"
             style="fill:#231f20;fill-opacity:1;fill-rule:nonzero;stroke:none"
             id="path36" /><path
             d="m 808.48,261.59 0,18 41.098,0 0,-114.899 c 12.297,14.11 29.098,25.5 47.399,25.5 14.996,0 25.796,-5.101 32.398,-13.8 5.699,-7.5 8.398,-17.7 8.398,-29.403 l 0,-68.9997 20.7,0 0,-17.9883 -61.496,0 0,17.9883 20.097,0 0,64.8007 c 0,9.313 -1.801,15.609 -5.695,20.109 -4.199,5.391 -11.106,8.09 -19.801,8.09 -15.898,0 -30.601,-9.898 -42,-22.5 l 0,-70.4997 20.102,0 0,-17.9883 -61.2,0 0,17.9883 20.399,0 0,183.6017 -20.399,0"
             style="fill:#231f20;fill-opacity:1;fill-rule:nonzero;stroke:none"
             id="path38" /><path
             d="m 997.484,134.391 78.296,0 c -1.5,22.5 -14.4,38.109 -38.7,38.109 -19.5,0 -36.6,-13.809 -39.596,-38.109 z m -0.3,-16.493 c 3.006,-28.2066 21.596,-41.9996 49.196,-41.9996 17.1,0 30,5.4024 45,14.1016 l -1.8,-20.1016 c -13.2,-8.1093 -29.7,-12.3086 -45.9,-12.3086 -40.79,0 -68.094,27.0118 -68.094,66.0002 0,35.398 23.699,66.601 62.694,66.601 38.1,0 58.5,-28.492 58.5,-60.3 0,-4.801 -0.3,-8.692 -1.2,-11.993 l -98.396,0"
             style="fill:#231f20;fill-opacity:1;fill-rule:nonzero;stroke:none"
             id="path40" /><path
             d="m 1193.68,157.789 c 0,60.902 46.8,103.199 100.2,103.199 41.39,0 73.79,-24.898 73.79,-48.597 0,-11.09 -7.5,-19.5 -17.4,-19.5 -9.3,0 -16.5,6.898 -16.5,15.898 0,5.699 3.6,10.5 7.5,12 -5.4,8.699 -22.5,19.801 -47.7,19.801 -44.99,0 -77.09,-38.102 -77.09,-82.5 0,-42.289 31.8,-81.3009 78.3,-81.3009 23.7,0 43.49,9.0117 61.19,25.4999 l 13.2,-15.8984 c -19.79,-19.789 -47.09,-30 -74.39,-30 -60.9,0 -101.1,47.0974 -101.1,101.3984"
             style="fill:#231f20;fill-opacity:1;fill-rule:nonzero;stroke:none"
             id="path42" /><path
             d="m 1502.68,123.891 c 0,28.211 -18,48.3 -44.1,48.3 -26.1,0 -44.1,-20.089 -44.1,-48.3 0,-28.4926 18,-48.3012 44.1,-48.3012 26.1,0 44.1,19.8086 44.1,48.3012 z m -109.8,0 c 0,36 26.1,66.3 65.7,66.3 39.6,0 65.7,-30 65.7,-66.3 0,-36.3012 -26.1,-66.3012 -65.7,-66.3012 -39.9,0 -65.7,29.6993 -65.7,66.3012"
             style="fill:#231f20;fill-opacity:1;fill-rule:nonzero;stroke:none"
             id="path44" /><path
             d="m 1557.28,169.488 -18.9,0 0,18.301 59.1,0 0,-17.699 -20.4,0 23.1,-80.6994 35.69,84.0074 11.1,0 35.4,-84.0074 23.1,80.6994 -21.6,0 0,17.699 59.1,0 0,-18.301 -19.2,0 -34.8,-114.8864 -11.4,0 -36.9,87.0004 -37.19,-87.0004 -11.1,0 -35.1,114.8864"
             style="fill:#231f20;fill-opacity:1;fill-rule:nonzero;stroke:none"
             id="path46" /><path
             d="m 1866.87,123.891 c 0,28.211 -18,48.3 -44.1,48.3 -26.1,0 -44.09,-20.089 -44.09,-48.3 0,-28.4926 17.99,-48.3012 44.09,-48.3012 26.1,0 44.1,19.8086 44.1,48.3012 z m -109.79,0 c 0,36 26.09,66.3 65.69,66.3 39.6,0 65.7,-30 65.7,-66.3 0,-36.3012 -26.1,-66.3012 -65.7,-66.3012 -39.89,0 -65.69,29.6993 -65.69,66.3012"
             style="fill:#231f20;fill-opacity:1;fill-rule:nonzero;stroke:none"
             id="path48" /><path
             d="m 2012.37,173.398 c 0,-8.109 -6.3,-15.308 -14.4,-15.308 -7.8,0 -13.2,5.101 -15.3,10.801 -9.6,-2.7 -21.3,-14.102 -27.6,-27 l 0,-63.9027 24,0 0,-17.9883 -65.1,0 0,17.9883 20.41,0 0,91.4997 -20.41,0 0,18.301 40.2,0 0,-29.098 c 9.9,17.7 25.2,31.5 39,31.5 12.6,0 19.2,-8.089 19.2,-16.793"
             style="fill:#231f20;fill-opacity:1;fill-rule:nonzero;stroke:none"
             id="path50" /><path
             d="m 2024.97,77.9883 20.4,0 0,183.6017 -20.4,0 0,18 41.09,0 0,-155.391 53.4,46.192 -24.89,0 0,17.398 72.3,0 0,-18.301 -22.81,0 -40.19,-34.488 39.59,-57.0117 23.41,0 0,-17.9883 -35.41,0 -42.59,63.59 -22.81,-19.199 0,-26.6996 20.71,0 0,-17.6914 -61.8,0 0,17.9883"
             style="fill:#231f20;fill-opacity:1;fill-rule:nonzero;stroke:none"
             id="path52" /><path
             d="m 2198.36,236.988 c 0,9 7.81,16.801 16.81,16.801 8.69,0 16.19,-7.801 16.19,-16.801 0,-9 -7.8,-16.5 -16.5,-16.5 -9,0 -16.5,7.5 -16.5,16.5 z m -12.59,-158.9997 21.59,0 0,91.4997 -21.59,0 0,18.301 42.3,0 0,-109.8007 21.59,0 0,-17.9883 -63.89,0 0,17.9883"
             style="fill:#231f20;fill-opacity:1;fill-rule:nonzero;stroke:none"
             id="path54" /><path
             d="m 2312.36,164.09 c 12.01,14.101 29.7,26.101 48,26.101 16.5,0 27.6,-6.3 33.9,-16.5 4.2,-7.203 6.3,-16.191 6.3,-26.703 l 0,-68.9997 20.4,0 0,-17.9883 -61.2,0 0,17.9883 20.1,0 0,64.8007 c 0,6.902 -0.9,12.609 -3.3,17.102 -3.6,7.5 -10.8,11.097 -21.3,11.097 -15.9,0 -30.6,-9.898 -42,-22.5 l 0,-70.4997 20.1,0 0,-17.9883 -61.2,0 0,17.9883 20.41,0 0,91.4997 -20.41,0 0,18.301 40.2,0 0,-23.699"
             style="fill:#231f20;fill-opacity:1;fill-rule:nonzero;stroke:none"
             id="path56" /><path
             d="m 2460.86,124.789 c 0,-26.9882 17.7,-45.8984 42.3,-45.8984 16.21,0 29.1,7.8086 39.3,18.6094 l 0,60 c -9.3,8.09 -21.6,14.391 -38.09,14.391 -26.11,0 -43.51,-20.403 -43.51,-47.102 z m 102.29,-68.9882 c 0,-15.9024 -4.19,-28.211 -11.69,-37.1992 C 2540.66,5.39844 2522.66,0 2502.86,0 c -20.1,0 -35.7,6.30078 -43.49,13.8008 -4.51,4.5 -6.61,9.5976 -6.61,14.6992 0,8.6914 6.3,15.6016 15,15.6016 7.5,0 12.6,-5.7032 12.6,-12.9024 0,-3 -0.9,-6 -2.69,-8.3984 3.89,-2.4024 12.29,-5.1016 25.19,-5.1016 12.6,0 24.6,3.3008 32.1,12.6016 4.8,6 7.5,13.8008 7.5,24.5976 l 0,24.8907 C 2531.96,69 2519.37,60.8984 2499.86,60.8984 c -33.3,0 -60.59,26.3907 -60.59,63.6016 0,34.488 25.19,65.691 63.29,65.691 17.1,0 30.6,-6.902 40.8,-16.5 l 0,14.098 40.5,0 0,-18.301 -20.71,0 0,-113.6872"
             style="fill:#231f20;fill-opacity:1;fill-rule:nonzero;stroke:none"
             id="path58" /><path
             d="m 2673.55,79.7891 25.81,0 7.19,157.8009 -26.39,0 0,19.801 47.99,0 64.51,-134.09 64.79,134.09 47.7,0 0,-19.801 -26.4,0 7.2,-157.8009 25.5,0 0,-19.7891 -72.6,0 0,19.7891 25.2,0 -5.1,137.9999 -63.6,-129.8906 -5.99,0 -63.61,129.8906 -4.79,-137.9999 24.89,0 0,-19.7891 -72.3,0 0,19.7891"
             style="fill:#231f20;fill-opacity:1;fill-rule:nonzero;stroke:none"
             id="path60" /><path
             d="m 3022.46,92.1016 0,21.2964 c -9.6,2.692 -22.21,5.09 -34.5,5.09 -20.4,0 -30.6,-9.597 -30.6,-22.7888 0,-12.3008 9.3,-21.3086 26.7,-21.3086 15.3,0 28.5,7.8008 38.4,17.711 z m -86.1,2.0976 c 0,23.3908 20.7,38.6988 49.2,38.6988 13.8,0 30.3,-3.609 36.9,-6.007 l 0,17.711 c 0,7.187 -2.1,13.488 -5.7,17.988 -5.71,6.301 -15,10.199 -27.9,10.199 -10.2,0 -15.6,-2.699 -19.8,-5.398 0.9,-2.102 1.8,-4.801 1.8,-7.5 0,-7.5 -5.4,-13.192 -13.5,-13.192 -7.8,0 -13.2,5.992 -13.2,13.789 0,14.703 16.8,29.703 47.4,29.703 18.9,0 32.7,-5.703 41.1,-15 6.6,-7.203 9.6,-16.793 9.6,-27.601 l 0,-69.6017 20.7,0 0,-17.9883 -39.9,0 0,16.1992 c -10.5,-10.2109 -27.01,-18.6094 -44.4,-18.6094 -24.6,0 -42.3,14.6993 -42.3,36.6094"
             style="fill:#231f20;fill-opacity:1;fill-rule:nonzero;stroke:none"
             id="path62" /><path
             d="m 3102.56,124.789 c 0,-26.9882 17.7,-45.8984 42.3,-45.8984 16.2,0 29.1,7.8086 39.3,18.6094 l 0,60 c -9.3,8.09 -21.6,14.391 -38.1,14.391 -26.1,0 -43.5,-20.403 -43.5,-47.102 z m 102.29,-68.9882 c 0,-15.9024 -4.2,-28.211 -11.7,-37.1992 C 3182.36,5.39844 3164.36,0 3144.56,0 c -20.1,0 -35.7,6.30078 -43.5,13.8008 -4.5,4.5 -6.6,9.5976 -6.6,14.6992 0,8.6914 6.3,15.6016 15,15.6016 7.5,0 12.6,-5.7032 12.6,-12.9024 0,-3 -0.9,-6 -2.69,-8.3984 3.89,-2.4024 12.29,-5.1016 25.19,-5.1016 12.6,0 24.6,3.3008 32.1,12.6016 4.8,6 7.5,13.8008 7.5,24.5976 l 0,24.8907 c -10.5,-10.7891 -23.1,-18.8907 -42.6,-18.8907 -33.3,0 -60.59,26.3907 -60.59,63.6016 0,34.488 25.19,65.691 63.29,65.691 17.1,0 30.6,-6.902 40.8,-16.5 l 0,14.098 40.5,0 0,-18.301 -20.71,0 0,-113.6872"
             style="fill:#231f20;fill-opacity:1;fill-rule:nonzero;stroke:none"
             id="path64" /><path
             d="m 3331.46,92.1016 0,21.2964 c -9.59,2.692 -22.2,5.09 -34.5,5.09 -20.4,0 -30.59,-9.597 -30.59,-22.7888 0,-12.3008 9.29,-21.3086 26.7,-21.3086 15.29,0 28.49,7.8008 38.39,17.711 z m -86.1,2.0976 c 0,23.3908 20.7,38.6988 49.2,38.6988 13.8,0 30.3,-3.609 36.9,-6.007 l 0,17.711 c 0,7.187 -2.09,13.488 -5.7,17.988 -5.7,6.301 -15,10.199 -27.9,10.199 -10.19,0 -15.59,-2.699 -19.79,-5.398 0.89,-2.102 1.79,-4.801 1.79,-7.5 0,-7.5 -5.4,-13.192 -13.49,-13.192 -7.81,0 -13.21,5.992 -13.21,13.789 0,14.703 16.8,29.703 47.41,29.703 18.89,0 32.69,-5.703 41.09,-15 6.6,-7.203 9.6,-16.793 9.6,-27.601 l 0,-69.6017 20.7,0 0,-17.9883 -39.9,0 0,16.1992 c -10.5,-10.2109 -27,-18.6094 -44.39,-18.6094 -24.6,0 -42.31,14.6993 -42.31,36.6094"
             style="fill:#231f20;fill-opacity:1;fill-rule:nonzero;stroke:none"
             id="path66" /><path
             d="m 3385.17,69.2891 81.89,101.4019 -58.5,0 0,-24.89 -18.3,0 0,41.988 106.8,0 0,-9.301 -81.9,-101.3864 64.8,0 0,24.8984 18.3,0 0,-42 -113.09,0 0,9.2891"
             style="fill:#231f20;fill-opacity:1;fill-rule:nonzero;stroke:none"
             id="path68" /><path
             d="m 3534.56,236.988 c 0,9 7.8,16.801 16.8,16.801 8.7,0 16.2,-7.801 16.2,-16.801 0,-9 -7.8,-16.5 -16.5,-16.5 -9,0 -16.5,7.5 -16.5,16.5 z m -12.6,-158.9997 21.6,0 0,91.4997 -21.6,0 0,18.301 42.3,0 0,-109.8007 21.6,0 0,-17.9883 -63.9,0 0,17.9883"
             style="fill:#231f20;fill-opacity:1;fill-rule:nonzero;stroke:none"
             id="path70" /><path
             d="m 3648.56,164.09 c 12.01,14.101 29.7,26.101 48,26.101 16.5,0 27.6,-6.3 33.9,-16.5 4.2,-7.203 6.3,-16.191 6.3,-26.703 l 0,-68.9997 20.4,0 0,-17.9883 -61.2,0 0,17.9883 20.09,0 0,64.8007 c 0,6.902 -0.89,12.609 -3.29,17.102 -3.6,7.5 -10.8,11.097 -21.3,11.097 -15.9,0 -30.6,-9.898 -42,-22.5 l 0,-70.4997 20.1,0 0,-17.9883 -61.2,0 0,17.9883 20.4,0 0,91.4997 -20.4,0 0,18.301 40.2,0 0,-23.699"
             style="fill:#231f20;fill-opacity:1;fill-rule:nonzero;stroke:none"
             id="path72" /><path
             d="m 3796.46,134.391 78.31,0 c -1.51,22.5 -14.41,38.109 -38.71,38.109 -19.5,0 -36.6,-13.809 -39.6,-38.109 z m -0.3,-16.493 c 3,-28.2066 21.6,-41.9996 49.2,-41.9996 17.1,0 30,5.4024 45,14.1016 l -1.8,-20.1016 c -13.2,-8.1093 -29.7,-12.3086 -45.89,-12.3086 -40.8,0 -68.11,27.0118 -68.11,66.0002 0,35.398 23.7,66.601 62.71,66.601 38.09,0 58.49,-28.492 58.49,-60.3 0,-4.801 -0.3,-8.692 -1.2,-11.993 l -98.4,0"
             style="fill:#231f20;fill-opacity:1;fill-rule:nonzero;stroke:none"
             id="path74" /></g></g></g></g></svg>