<?xml version="1.0" encoding="UTF-8" standalone="no"?>
<!-- Created with Inkscape (http://www.inkscape.org/) -->

<svg
   xmlns:dc="http://purl.org/dc/elements/1.1/"
   xmlns:cc="http://creativecommons.org/ns#"
   xmlns:rdf="http://www.w3.org/1999/02/22-rdf-syntax-ns#"
   xmlns:svg="http://www.w3.org/2000/svg"
   xmlns="http://www.w3.org/2000/svg"
   xmlns:sodipodi="http://sodipodi.sourceforge.net/DTD/sodipodi-0.dtd"
   xmlns:inkscape="http://www.inkscape.org/namespaces/inkscape"
   id="svg2"
   version="1.1"
   inkscape:version="0.48.3.1 r9886"
   width="250"
   height="160"
   xml:space="preserve"
   sodipodi:docname="fing.svg"><metadata
     id="metadata8"><rdf:RDF><cc:Work
         rdf:about=""><dc:format>image/svg+xml</dc:format><dc:type
           rdf:resource="http://purl.org/dc/dcmitype/StillImage" /><dc:title></dc:title></cc:Work></rdf:RDF></metadata><defs
     id="defs6"><clipPath
       clipPathUnits="userSpaceOnUse"
       id="clipPath18"><path
         d="M 0,0 0,10 10,10 10,0 0,0"
         id="path20"
         inkscape:connector-curvature="0" /></clipPath></defs><sodipodi:namedview
     pagecolor="#ffffff"
     bordercolor="#666666"
     borderopacity="1"
     objecttolerance="10"
     gridtolerance="10"
     guidetolerance="10"
     inkscape:pageopacity="0"
     inkscape:pageshadow="2"
     inkscape:window-width="1535"
     inkscape:window-height="875"
     id="namedview4"
     showgrid="false"
     inkscape:zoom="1.9024586"
     inkscape:cx="-69.874973"
     inkscape:cy="130.17305"
     inkscape:window-x="65"
     inkscape:window-y="24"
     inkscape:window-maximized="1"
     inkscape:current-layer="g22" /><g
     id="g10"
     inkscape:groupmode="layer"
     inkscape:label="ink_ext_XXXXXX"
     transform="matrix(1.25,0,0,-1.25,0,159.99999)"><g
       id="g12"
       transform="scale(0.1,0.1)"><g
         id="g14"><g
           id="g16"
           clip-path="url(#clipPath18)" /></g><g
         id="g22"
         transform="scale(1984.8,1984.8)"><path
           style="fill:#14ab49;fill-opacity:1"
           d="m 0.10357788,0.21521251 c -1.7027e-4,0.10759516 -1.3407e-4,0.19625888 8.043e-5,0.1970305 2.1451e-4,7.7162e-4 0.003751,0.001788 0.00786,0.002259 0.007323,8.3902e-4 0.019293,0.004559 0.0222823,0.006925 8.3132e-4,6.5803e-4 0.001511,8.1144e-4 0.001511,3.4091e-4 0,-7.6826e-4 0.008805,0.005715 0.0151479,0.0111539 0.004093,0.00351 0.008598,0.0101083 0.0132538,0.0194147 0.006956,0.0139043 0.008296,0.0312623 0.003828,0.0495816 -0.001575,0.006455 -0.009814,0.0206377 -0.0155835,0.0268241 -0.003408,0.003654 -0.005767,0.005828 -0.005242,0.004831 5.2473e-4,-9.9758e-4 -3.2996e-4,-3.6575e-4 -0.001899,0.001404 -0.004336,0.00489 -0.0195931,0.0115259 -0.0306647,0.0133373 l -0.009674,0.001583 0,0.0374849 0,0.0374849 0.2503023,3.2859e-4 c 0.25990585,3.4119e-4 0.26496822,2.6411e-4 0.2960682,-0.004508 0.0114629,-0.001759 0.0310177,-0.00649 0.0310177,-0.007504 0,-5.1533e-4 7.6709e-4,-6.426e-4 0.001705,-2.8283e-4 9.3755e-4,3.5977e-4 0.00338,-2.1246e-4 0.005429,-0.001272 0.002048,-0.001059 0.004138,-0.00193 0.004644,-0.001936 0.003599,-4.027e-5 0.0153336,-0.004219 0.0223527,-0.007959 0.001812,-9.659e-4 0.003599,-0.001695 0.003971,-0.001621 3.7175e-4,7.461e-5 0.007323,-0.003124 0.0154471,-0.007108 0.0232978,-0.0114251 0.0512098,-0.0300846 0.0635895,-0.0425105 0.003077,-0.003089 0.009429,-0.009112 0.0141137,-0.0133846 0.00934,-0.008518 0.0236117,-0.0243209 0.0295054,-0.0326715 0.0151927,-0.0215262 0.0213228,-0.0315115 0.0300625,-0.048969 0.0239432,-0.0478265 0.0352253,-0.1060855 0.030409,-0.15702753 -0.002701,-0.0285641 -0.0101663,-0.0611563 -0.019263,-0.0840944 -0.006086,-0.0153452 -0.018021,-0.0402988 -0.019568,-0.0409109 -5.6024e-4,-2.2169e-4 -0.001019,-0.001129 -0.001019,-0.002015 0,-8.8674e-4 -4.081e-4,-0.001794 -9.0689e-4,-0.002015 -4.9879e-4,-2.2168e-4 -0.001886,-0.002308 -0.003082,-0.004635 -0.001196,-0.002328 -0.005277,-0.008517 -0.009069,-0.0137542 -0.003791,-0.005237 -0.007448,-0.0104626 -0.008126,-0.011612 -0.005114,-0.008674 -0.0369202,-0.0410265 -0.0525768,-0.0534794 -0.006318,-0.005025 -0.0158404,-0.0119167 -0.0211608,-0.0153144 -0.00532,-0.003398 -0.0103027,-0.006701 -0.0110717,-0.007341 -0.007161,-0.00596 -0.0471513,-0.0240467 -0.0654095,-0.0295842 -0.003492,-0.001059 -0.008933,-0.002702 -0.0120919,-0.003651 -0.003159,-9.4891e-4 -0.0114571,-0.002815 -0.0184401,-0.004148 -0.006983,-0.001332 -0.0159613,-0.003124 -0.0199516,-0.003981 -0.005766,-0.001239 -0.0616569,-0.001637 -0.27236273,-0.001939 L 0.10388725,0.01958495 0.10357768,0.21521251 z M 0.6430175,0.06211035 c 0.008894,0.001304 0.0170555,0.002826 0.0181379,0.003384 0.001082,5.5728e-4 0.004045,0.001388 0.006583,0.001847 0.005811,0.00105 0.0330194,0.0100117 0.0370838,0.0122148 0.001673,9.0666e-4 0.005218,0.002598 0.007878,0.003758 0.0104521,0.00456 0.0296591,0.0159396 0.0423216,0.0250752 0.0135724,0.009792 0.0165011,0.0121961 0.0252508,0.0207275 0.002738,0.00267 0.006611,0.006111 0.008607,0.007647 0.001995,0.001536 0.002811,0.002398 0.001814,0.001916 -9.9758e-4,-4.8186e-4 0.001643,0.002471 0.005867,0.006561 0.004224,0.00409 0.007314,0.007437 0.006866,0.007437 -4.4788e-4,0 8.489e-5,8.9927e-4 0.001184,0.001998 0.002151,0.002151 0.0113042,0.0142405 0.0132892,0.0175523 6.6505e-4,0.00111 0.003537,0.005463 0.006382,0.009674 0.0123391,0.018262 0.0268542,0.0523571 0.0336315,0.0789983 0.001692,0.006652 0.005473,0.0335434 0.006534,0.046471 0.001253,0.0152762 8.0167e-4,0.0270653 -0.001901,0.0496024 -5.9582e-4,0.004969 -0.004115,0.0226994 -0.006491,0.0327053 -0.004832,0.0203467 -0.0185161,0.0524845 -0.0299421,0.070322 -0.005677,0.008862 -0.0151111,0.0219965 -0.018321,0.0255063 -0.001673,0.001829 -0.002692,0.003325 -0.002265,0.003325 4.2673e-4,0 -4.237e-4,0.001256 -0.00189,0.00279 -0.001466,0.001534 -0.005456,0.005752 -0.008867,0.009371 -0.0216222,0.0229457 -0.0432666,0.039716 -0.0687635,0.0532787 -0.0147468,0.007844 -0.0179254,0.009267 -0.0350712,0.015698 -0.0106836,0.004007 -0.0380512,0.0113379 -0.0465426,0.0124671 -0.050781,0.006753 -0.0978268,0.001823 -0.13967357,-0.0146365 -0.0124633,-0.004902 -0.0336615,-0.0150448 -0.0342604,-0.0163923 -2.217e-4,-4.9879e-4 -9.239e-4,-9.0689e-4 -0.00156,-9.0689e-4 -0.001139,0 -0.002087,-5.8627e-4 -0.013349,-0.008253 -0.003101,-0.002111 -0.006146,-0.003839 -0.006765,-0.003839 -6.1951e-4,0 -0.002163,-0.001159 -0.00343,-0.002575 -0.001267,-0.001416 -0.004231,-0.0038 -0.006586,-0.005297 -0.002355,-0.001497 -0.006436,-0.00477 -0.009069,-0.007273 -0.0143936,-0.0136856 -0.0258142,-0.0250124 -0.0259552,-0.0257421 -8.815e-5,-4.5598e-4 -0.002843,-0.00364 -0.006122,-0.007076 -0.003279,-0.003436 -0.005962,-0.006665 -0.005962,-0.007177 0,-5.118e-4 -0.001021,-0.002054 -0.002269,-0.003427 -0.003377,-0.003715 -0.0170779,-0.0244708 -0.0170779,-0.0258714 0,-6.6649e-4 -4.2561e-4,-0.001393 -9.4579e-4,-0.001615 -0.001199,-5.1112e-4 -0.0101183,-0.019002 -0.0156504,-0.0324466 -0.007386,-0.0179496 -0.0127789,-0.0386611 -0.0170028,-0.0652962 -4.7459e-4,-0.002993 -8.466e-4,-0.0182285 -8.2667e-4,-0.0338573 3.918e-5,-0.0307723 0.001145,-0.0400517 0.007856,-0.0659009 0.004455,-0.0171601 0.009101,-0.0298241 0.0169236,-0.0461221 0.003465,-0.007221 0.006191,-0.0133395 0.006057,-0.0135977 -1.3435e-4,-2.5816e-4 2.2696e-4,-8.023e-4 8.0291e-4,-0.001209 5.7595e-4,-4.0688e-4 0.003105,-0.004237 0.00562,-0.00851 0.007734,-0.013142 0.0217785,-0.0313363 0.035861,-0.0464564 0.006371,-0.006841 0.0260991,-0.0242625 0.0303347,-0.0267888 0.001115,-6.6506e-4 0.005433,-0.003658 0.009594,-0.006651 0.008441,-0.00607 0.0139647,-0.009613 0.0211349,-0.0135565 0.007008,-0.003855 0.0320634,-0.0154641 0.0333741,-0.0154641 6.1278e-4,0 0.003421,-0.001004 0.00624,-0.002231 0.016126,-0.007019 0.0508074,-0.0141097 0.0740497,-0.0151388 0.0158919,-7.0361e-4 0.0410929,6.0797e-4 0.0572824,0.002981 z M 0.6860227,0.1965731 c -3.4044e-4,8.8717e-4 -4.6282e-4,0.00729 -2.7195e-4,0.0142278 l 3.4704e-4,0.0126148 0.0181378,2.6999e-4 c 0.009976,1.485e-4 0.0184099,2.8452e-4 0.0187425,3.0229e-4 3.3252e-4,1.777e-5 4.9219e-4,0.004793 3.5481e-4,0.0106127 l -2.498e-4,0.0105804 -0.0251432,6.0459e-4 -0.0251432,6.046e-4 -3.1298e-4,0.0637524 -3.1296e-4,0.0637524 0.0393628,3.347e-4 c 0.0385008,3.2738e-4 0.0393757,2.8174e-4 0.039952,-0.002084 3.2406e-4,-0.00133 4.3603e-4,-0.0415961 2.4882e-4,-0.08948 L 0.751394,0.19560407 0.7190178,0.19528196 c -0.0260987,-2.5965e-4 -0.0324962,-9.67e-6 -0.0329952,0.001291 z m 0.0369554,0.11329962 0,0.0362757 -0.007255,1.2092e-4 c -0.00399,6.651e-5 -0.008752,1.7553e-4 -0.0105804,2.4227e-4 l -0.003325,1.2136e-4 -3.2131e-4,-0.0349918 c -1.7673e-4,-0.0192455 -5.78e-5,-0.0356785 2.6435e-4,-0.036518 4.0821e-4,-0.001064 0.003711,-0.001526 0.0109017,-0.001526 l 0.0103161,0 0,0.0362757 z M 0.43482632,0.24655332 c -0.001379,0.001379 -0.001024,0.17793075 3.5833e-4,0.17839398 6.6161e-4,2.2168e-4 0.0183637,2.52e-4 0.039338,6.735e-5 l 0.038135,-3.3567e-4 -3.416e-4,-0.01357 -3.4158e-4,-0.01357 -0.0250907,-3.2683e-4 -0.0250907,-3.2683e-4 0,-0.0107288 c 0,-0.007476 4.5824e-4,-0.0108998 0.001511,-0.0112927 8.3132e-4,-3.1017e-4 0.009288,-5.0441e-4 0.018793,-4.3167e-4 0.0202137,1.5471e-4 0.018689,0.001498 0.0181395,-0.0159829 l -3.545e-4,-0.0112784 -0.0187424,-2.0892e-4 -0.0187424,-2.0892e-4 -6.046e-4,-0.0501814 -6.0459e-4,-0.0501814 -0.0127588,-3.4077e-4 c -0.007017,-1.8743e-4 -0.0131389,3.929e-5 -0.0136034,5.0383e-4 z m 0.0870232,3.845e-5 c -4.4337e-4,4.4339e-4 -8.0613e-4,0.0292826 -8.0613e-4,0.0640871 0,0.0554212 2.2529e-4,0.0632872 0.001814,0.0633313 0.0136559,3.7932e-4 0.0252742,-8.888e-5 0.0258639,-0.001042 4.0603e-4,-6.5643e-4 5.9262e-4,-0.029541 4.1465e-4,-0.0641878 l -3.2357e-4,-0.0629943 -0.0130783,0 c -0.007193,0 -0.013441,3.6276e-4 -0.0138844,8.0614e-4 z m 0.0499798,0.0632414 0,0.0641267 0.0393094,0 0.0393093,0 -3.1298e-4,-0.0637848 -3.1299e-4,-0.0637848 -0.0133011,0 -0.0133011,0 -6.0459e-4,0.0501814 -6.046e-4,0.0501814 -0.0108827,0 -0.0108827,0 -6.046e-4,-0.0501814 -6.0459e-4,-0.0501814 -0.0136034,-3.419e-4 -0.0136034,-3.419e-4 0,0.0641267 z m -0.0492666,0.0887845 c -0.001201,0.001947 -0.001681,0.0230675 -5.6155e-4,0.0246934 7.8112e-4,0.001135 0.004686,0.0016 0.0136712,0.001631 l 0.0125777,4.257e-5 3.545e-4,-0.0113042 c 5.3615e-4,-0.0170962 0.001312,-0.016141 -0.0131177,-0.016141 -0.006742,0 -0.0125583,4.8537e-4 -0.0129241,0.001079 z"
           id="path3770"
           inkscape:connector-curvature="0" /></g></g></g></svg>