<?xml version="1.0" encoding="UTF-8" standalone="no"?>
<!-- Created with Inkscape (http://www.inkscape.org/) -->

<svg
   xmlns:dc="http://purl.org/dc/elements/1.1/"
   xmlns:cc="http://creativecommons.org/ns#"
   xmlns:rdf="http://www.w3.org/1999/02/22-rdf-syntax-ns#"
   xmlns:svg="http://www.w3.org/2000/svg"
   xmlns="http://www.w3.org/2000/svg"
   xmlns:sodipodi="http://sodipodi.sourceforge.net/DTD/sodipodi-0.dtd"
   xmlns:inkscape="http://www.inkscape.org/namespaces/inkscape"
   id="svg2"
   version="1.1"
   inkscape:version="0.48.3.1 r9886"
   width="418.2875"
   height="84.375"
   xml:space="preserve"
   sodipodi:docname="meshlabs.eps"><metadata
     id="metadata8"><rdf:RDF><cc:Work
         rdf:about=""><dc:format>image/svg+xml</dc:format><dc:type
           rdf:resource="http://purl.org/dc/dcmitype/StillImage" /><dc:title></dc:title></cc:Work></rdf:RDF></metadata><defs
     id="defs6"><clipPath
       clipPathUnits="userSpaceOnUse"
       id="clipPath18"><path
         d="m 2068.21,296.465 179.33,0 0,179.336 -179.33,0 0,-179.336"
         id="path20" /></clipPath><clipPath
       clipPathUnits="userSpaceOnUse"
       id="clipPath28"><path
         d="m 2178.48,259.902 179.31,0 0,179.336 -179.31,0 0,-179.336"
         id="path30" /></clipPath><clipPath
       clipPathUnits="userSpaceOnUse"
       id="clipPath40"><path
         d="m 2162.43,383.594 179.33,0 0,179.316 -179.33,0.012 0,-179.328"
         id="path42" /></clipPath><clipPath
       clipPathUnits="userSpaceOnUse"
       id="clipPath56"><path
         d="m 1989.59,95.1875 157.71,0 0,157.7035 -157.71,0 0,-157.7035"
         id="path58" /></clipPath><clipPath
       clipPathUnits="userSpaceOnUse"
       id="clipPath66"><path
         d="m 990.254,93.0859 219.976,0 0,169.3241 -219.976,0 0,-169.3241"
         id="path68" /></clipPath><clipPath
       clipPathUnits="userSpaceOnUse"
       id="clipPath76"><path
         d="m 1222.99,88.6523 176.38,0 0,173.7577 -176.38,0 0,-173.7577"
         id="path78" /></clipPath><clipPath
       clipPathUnits="userSpaceOnUse"
       id="clipPath86"><path
         d="m 1402.26,88.6523 144.01,0 0,173.7577 -144.01,0 0,-173.7577"
         id="path88" /></clipPath><clipPath
       clipPathUnits="userSpaceOnUse"
       id="clipPath96"><path
         d="m 1559.37,93.0859 150.51,-0.0117 0,373.4808 -150.51,0 0,-373.4691"
         id="path98" /></clipPath><clipPath
       clipPathUnits="userSpaceOnUse"
       id="clipPath106"><path
         d="m 0,0 3346,0 0,674.973 -3346,0 L 0,0 z"
         id="path108" /></clipPath><clipPath
       clipPathUnits="userSpaceOnUse"
       id="clipPath122"><path
         d="m 1116.25,62.5 6.82,0 0,1.3672 -6.82,0 0,-1.3672"
         id="path124" /></clipPath><clipPath
       clipPathUnits="userSpaceOnUse"
       id="clipPath132"><path
         d="m 1383.65,62.5 6.82,0 0,1.3594 -6.82,0 0,-1.3594"
         id="path134" /></clipPath></defs><sodipodi:namedview
     pagecolor="#ffffff"
     bordercolor="#666666"
     borderopacity="1"
     objecttolerance="10"
     gridtolerance="10"
     guidetolerance="10"
     inkscape:pageopacity="0"
     inkscape:pageshadow="2"
     inkscape:window-width="640"
     inkscape:window-height="480"
     id="namedview4"
     showgrid="false"
     inkscape:zoom="0.86304275"
     inkscape:cx="209.14375"
     inkscape:cy="42.1875"
     inkscape:window-x="65"
     inkscape:window-y="24"
     inkscape:window-maximized="0"
     inkscape:current-layer="g10" /><g
     id="g10"
     inkscape:groupmode="layer"
     inkscape:label="ink_ext_XXXXXX"
     transform="matrix(1.25,0,0,-1.25,0,84.375)"><g
       id="g12"
       transform="scale(0.1,0.1)"><g
         id="g14"><g
           id="g16"
           clip-path="url(#clipPath18)"><path
             d="m 2157.92,296.477 c -8.87,0 -17.89,1.328 -26.81,4.121 -47.25,14.773 -73.55,65.078 -58.78,112.324 12.01,38.32 47.36,62.867 85.52,62.867 1.53,0 3.07,-0.039 4.61,-0.117 -0.01,-0.524 -0.02,-1.051 -0.03,-1.574 l 0,-1.754 c 0.27,-26.985 12.8,-52.489 33.79,-69.215 -5.87,-7.879 -10.53,-16.871 -13.63,-26.781 -2.69,-8.594 -4.02,-17.286 -4.11,-25.848 l 0,-1.898 c 0.17,-16.254 4.8,-31.973 13.04,-45.559 -10.55,-4.273 -21.95,-6.566 -33.6,-6.566"
             style="fill:#b8d031;fill-opacity:1;fill-rule:nonzero;stroke:none"
             id="path22" /></g></g><g
         id="g24"><g
           id="g26"
           clip-path="url(#clipPath28)"><path
             d="m 2268.16,259.906 c -8.88,0 -17.9,1.328 -26.81,4.117 -21.66,6.789 -38.92,21.032 -49.83,39.02 23.97,9.723 43.58,29.695 51.92,56.312 2.53,8.094 3.85,16.274 4.07,24.348 1.13,-0.055 2.25,-0.094 3.37,-0.109 l 2.5,0 c 27.82,0.39 54.05,13.828 70.64,36.105 28.09,-22.39 41.04,-60.547 29.65,-96.906 -11.99,-38.332 -47.36,-62.887 -85.51,-62.887"
             style="fill:#3fa09e;fill-opacity:1;fill-rule:nonzero;stroke:none"
             id="path32" /><path
             d="m 2191.52,303.043 c -8.24,13.586 -12.87,29.305 -13.04,45.559 l 0,1.898 c 0.09,8.562 1.42,17.254 4.11,25.848 3.1,9.91 7.76,18.902 13.63,26.781 8.42,-6.711 18.21,-12.012 29.1,-15.422 7.37,-2.309 14.82,-3.617 22.19,-4.004 -0.22,-8.074 -1.54,-16.254 -4.07,-24.348 -8.34,-26.617 -27.95,-46.589 -51.92,-56.312"
             style="fill:#2e8038;fill-opacity:1;fill-rule:nonzero;stroke:none"
             id="path34" /></g></g><g
         id="g36"><g
           id="g38"
           clip-path="url(#clipPath40)"><path
             d="m 2324.02,419.699 c -8.42,6.715 -18.21,12.012 -29.1,15.418 -8.68,2.719 -17.45,4.051 -26.09,4.121 l -1.47,0 c -11.4,-0.093 -22.54,-2.379 -32.87,-6.566 -10.92,17.988 -28.17,32.226 -49.82,39 -7.38,2.308 -14.83,3.617 -22.21,4 0.22,8.074 1.55,16.258 4.08,24.348 12.01,38.339 47.38,62.89 85.52,62.89 8.87,0 17.89,-1.328 26.81,-4.121 38.06,-11.906 62.53,-46.844 62.89,-84.668 l 0,-1.703 c -0.09,-8.594 -1.41,-17.32 -4.11,-25.941 -3.11,-9.911 -7.77,-18.895 -13.63,-26.778"
             style="fill:#f25529;fill-opacity:1;fill-rule:nonzero;stroke:none"
             id="path44" /><path
             d="m 2196.22,403.129 c -20.99,16.726 -33.52,42.23 -33.79,69.215 l 0,1.754 c 0.01,0.523 0.02,1.05 0.03,1.574 7.38,-0.383 14.83,-1.692 22.21,-4 21.65,-6.774 38.9,-21.012 49.82,-39 -15.05,-6.106 -28.38,-16.246 -38.27,-29.543"
             style="fill:#bd4820;fill-opacity:1;fill-rule:nonzero;stroke:none"
             id="path46" /><path
             d="m 2253.38,383.594 -2.5,0 c -1.12,0.015 -2.24,0.054 -3.37,0.109 0.02,0.391 0.02,0.777 0.03,1.168 l 0,2.539 c -0.23,16.152 -4.85,31.762 -13.05,45.262 10.33,4.187 21.47,6.473 32.87,6.566 l 1.47,0 c 8.64,-0.07 17.41,-1.402 26.09,-4.121 10.89,-3.406 20.68,-8.703 29.1,-15.418 -16.59,-22.277 -42.82,-35.715 -70.64,-36.105"
             style="fill:#223517;fill-opacity:1;fill-rule:nonzero;stroke:none"
             id="path48" /><path
             d="m 2247.51,383.703 c -7.37,0.387 -14.82,1.695 -22.19,4.004 -10.89,3.41 -20.68,8.711 -29.1,15.422 9.89,13.297 23.22,23.437 38.27,29.543 8.2,-13.5 12.82,-29.11 13.05,-45.262 l 0,-2.539 c -0.01,-0.391 -0.01,-0.777 -0.03,-1.168"
             style="fill:#1d2812;fill-opacity:1;fill-rule:nonzero;stroke:none"
             id="path50" /></g></g><g
         id="g52"><g
           id="g54"
           clip-path="url(#clipPath56)"><path
             d="m 2068.89,95.1875 -0.9,0 c -43.13,0.2344 -78.15,35.1485 -78.39,78.4065 -0.26,43.554 34.83,79.054 78.39,79.297 l 0.93,0 c 43.12,-0.243 78.12,-35.172 78.38,-78.387 l 0,-0.863 c -0.22,-43.164 -35.15,-78.2035 -78.41,-78.4535"
             style="fill:#f25529;fill-opacity:1;fill-rule:nonzero;stroke:none"
             id="path60" /></g></g><g
         id="g62"><g
           id="g64"
           clip-path="url(#clipPath66)"><path
             d="m 1210.23,93.0859 -35.41,0 0,102.8981 c 0,19.739 -12.59,31.008 -27.24,31.008 -17.04,0 -29.65,-10.215 -29.65,-35.781 l 0,-98.1251 -35.39,0 0,98.1251 c 0,25.566 -12.62,35.781 -29.65,35.781 -14.63,0 -27.23,-11.269 -27.23,-31.008 l 0,-102.8981 -35.406,0 0,103.2421 c 0,41.914 27.906,66.082 60.266,66.082 24.85,0 42.9,-11.922 49.36,-29.305 l 0.72,0 c 6.44,17.383 24.5,29.305 49.34,29.305 32.36,0 60.29,-24.168 60.29,-66.082 l 0,-103.2421"
             style="fill:#b8d031;fill-opacity:1;fill-rule:nonzero;stroke:none"
             id="path70" /></g></g><g
         id="g72"><g
           id="g74"
           clip-path="url(#clipPath76)"><path
             d="m 1313.9,88.6523 0,0 c -57.54,0 -90.91,43.2737 -90.91,86.8947 0,43.594 33.37,86.863 90.91,86.863 34.38,0 85.47,-28.258 85.47,-92.652 l 0,-6.485 -136.89,0 c 2.02,-25.238 25.56,-43.273 50.39,-43.273 19.08,0 35.41,9.191 47.68,25.547 l 29.96,-16.699 c -19.75,-24.856 -46.99,-39.8558 -76.61,-40.1957 m -4.76,142.4217 c -22.49,0 -40.89,-13.965 -46.66,-38.496 l 95.37,0 c -7.52,25.215 -26.24,38.496 -48.71,38.496"
             style="fill:#b8d031;fill-opacity:1;fill-rule:nonzero;stroke:none"
             id="path80" /></g></g><g
         id="g82"><g
           id="g84"
           clip-path="url(#clipPath86)"><path
             d="m 1476.46,88.6641 c -27.89,0 -51.75,9.8515 -74.2,28.9649 l 24.17,24.5 c 12.57,-13.621 33.36,-24.18 51.75,-24.18 20.43,0 32.69,11.563 32.69,20.793 0,10.906 -8.51,16.68 -21.46,19.082 l -20.08,3.75 c -46.32,8.504 -59.26,23.496 -59.26,47.02 0,27.922 23.49,53.816 64.7,53.816 22.82,0 42.91,-6.797 65.39,-22.808 l -20.09,-24.883 c -17.37,14.656 -32.7,18.386 -44.29,18.386 -15.31,0 -30.29,-7.468 -30.29,-20.761 0,-9.903 7.85,-15.008 21.44,-17.364 l 35.77,-6.835 c 29.27,-5.442 43.57,-19.422 43.57,-43.946 l 0,0 c 0,-24.211 -19.74,-55.5349 -69.81,-55.5349"
             style="fill:#b8d031;fill-opacity:1;fill-rule:nonzero;stroke:none"
             id="path90" /></g></g><g
         id="g92"><g
           id="g94"
           clip-path="url(#clipPath96)"><path
             d="m 1709.87,93.0742 -35.42,0.0039 0,91.6409 c 0,29.988 -15.64,42.265 -39.14,42.265 0,0 -0.01,0 -0.02,0 -22.82,0 -40.52,-14.648 -40.52,-41.586 l 0,-92.3121 -35.4,0 0,373.4691 35.4,0 0,-229.36 0.71,0 c 9.87,15.344 27.93,25.207 50.38,25.207 34.75,0 64.01,-28.933 64.01,-69.824 l 0,-99.5038"
             style="fill:#b8d031;fill-opacity:1;fill-rule:nonzero;stroke:none"
             id="path100" /></g></g><g
         id="g102"><g
           id="g104"
           clip-path="url(#clipPath106)"><path
             d="m 1876.58,123.145 c 27.76,0 51.43,23.691 51.43,53.125 0,29.433 -23.67,53.105 -51.43,53.105 -28.42,0 -52.09,-23.672 -52.09,-53.105 0,-29.434 23.67,-53.125 52.09,-53.125 m 50.08,-8.778 -0.68,0 C 1914.8,99.4844 1894.51,90 1872.19,90 c -53.79,0 -84.91,43.984 -84.91,86.27 0,40.253 33.49,86.25 86.6,86.25 24.36,0 42.96,-10.477 52.1,-24.344 l 0.68,0 0,19.961 35.18,0 0,-163.7425 -35.18,0 0,19.9725"
             style="fill:#656972;fill-opacity:1;fill-rule:nonzero;stroke:none"
             id="path110" /><path
             d="m 2069.69,229.375 c -29.44,0 -51.1,-22.656 -51.1,-53.125 0,-30.43 21.66,-53.105 51.1,-53.105 29.42,0 51.07,22.675 51.07,53.105 0,30.469 -21.65,53.125 -51.07,53.125 m -86.27,239.152 35.17,0 0,-230.351 0.69,0 c 8.46,13.535 30.45,24.344 53.44,24.344 42.63,0 85.26,-31.446 85.26,-86.27 0,-54.785 -42.63,-86.25 -85.26,-86.25 -22.99,0 -44.98,10.82 -53.44,24.355 l -0.69,0 0,-19.9605 -35.17,0 0,374.1325"
             style="fill:#656972;fill-opacity:1;fill-rule:nonzero;stroke:none"
             id="path112" /><path
             d="m 2182.01,143.105 c 12.5,-13.527 33.15,-24.011 51.41,-24.011 20.29,0 32.48,11.504 32.48,20.633 0,10.832 -8.46,16.582 -21.32,18.957 l -19.95,3.699 c -46.02,8.469 -58.87,23.351 -58.87,46.699 0,27.742 23.34,53.438 64.28,53.438 22.67,0 42.63,-6.758 64.95,-22.665 l -19.96,-24.699 c -17.26,14.563 -32.47,18.282 -43.98,18.282 -15.23,0 -30.11,-7.45 -30.11,-20.645 0,-9.805 7.78,-14.871 21.32,-17.246 l 35.51,-6.766 c 29.11,-5.422 43.31,-19.289 43.31,-43.644 0,-24.024 -19.62,-55.137 -69.35,-55.137 -27.75,0 -51.42,9.8047 -73.75,28.75 l 24.03,24.355"
             style="fill:#656972;fill-opacity:1;fill-rule:nonzero;stroke:none"
             id="path114" /><path
             d="m 1737.86,93.9062 35.4219,0 0,373.723 -35.4219,0 0,-373.723 z"
             style="fill:#656972;fill-opacity:1;fill-rule:evenodd;stroke:none"
             id="path116" /></g></g><g
         id="g118"><g
           id="g120"
           clip-path="url(#clipPath122)"><path
             d="m 1116.25,62.5 6.8203,0 0,1.36719 -6.8203,0 0,-1.36719 z"
             style="fill:#959aa0;fill-opacity:1;fill-rule:nonzero;stroke:none"
             id="path126" /></g></g><g
         id="g128"><g
           id="g130"
           clip-path="url(#clipPath132)"><path
             d="m 1383.65,62.5 6.8203,0 0,1.35938 -6.8203,0 0,-1.35938 z"
             style="fill:#959aa0;fill-opacity:1;fill-rule:nonzero;stroke:none"
             id="path136" /></g></g></g></g></svg>