<?xml version="1.0" encoding="UTF-8" standalone="no"?>
<!-- Created with Inkscape (http://www.inkscape.org/) -->

<svg
   xmlns:dc="http://purl.org/dc/elements/1.1/"
   xmlns:cc="http://creativecommons.org/ns#"
   xmlns:rdf="http://www.w3.org/1999/02/22-rdf-syntax-ns#"
   xmlns:svg="http://www.w3.org/2000/svg"
   xmlns="http://www.w3.org/2000/svg"
   xmlns:sodipodi="http://sodipodi.sourceforge.net/DTD/sodipodi-0.dtd"
   xmlns:inkscape="http://www.inkscape.org/namespaces/inkscape"
   id="svg2"
   version="1.1"
   inkscape:version="0.48.3.1 r9886"
   width="456.25"
   height="63.3125"
   xml:space="preserve"
   sodipodi:docname="shareable.eps"><metadata
     id="metadata8"><rdf:RDF><cc:Work
         rdf:about=""><dc:format>image/svg+xml</dc:format><dc:type
           rdf:resource="http://purl.org/dc/dcmitype/StillImage" /><dc:title></dc:title></cc:Work></rdf:RDF></metadata><defs
     id="defs6"><clipPath
       clipPathUnits="userSpaceOnUse"
       id="clipPath18"><path
         d="M 0,506.5 0,0 l 3649.99,0 0,506.5 L 0,506.5 z"
         id="path20" /></clipPath></defs><sodipodi:namedview
     pagecolor="#ffffff"
     bordercolor="#666666"
     borderopacity="1"
     objecttolerance="10"
     gridtolerance="10"
     guidetolerance="10"
     inkscape:pageopacity="0"
     inkscape:pageshadow="2"
     inkscape:window-width="640"
     inkscape:window-height="480"
     id="namedview4"
     showgrid="false"
     inkscape:zoom="0.79123288"
     inkscape:cx="228.125"
     inkscape:cy="31.65625"
     inkscape:window-x="65"
     inkscape:window-y="24"
     inkscape:window-maximized="0"
     inkscape:current-layer="g10" /><g
     id="g10"
     inkscape:groupmode="layer"
     inkscape:label="ink_ext_XXXXXX"
     transform="matrix(1.25,0,0,-1.25,0,63.3125)"><g
       id="g12"
       transform="scale(0.1,0.1)"><g
         id="g14"><g
           id="g16"
           clip-path="url(#clipPath18)"><path
             d="m 2730.36,89.6016 -112.78,0 0,134.8244 112.78,0 c 43.57,0 64.39,-39.043 64.39,-72.922 0,-33.77 -20.82,-61.9024 -64.39,-61.9024 z m -112.78,326.6324 106.58,0 c 40.87,0 63.61,-23.187 63.61,-57.738 0,-34.449 -22.74,-60.723 -63.61,-62.285 l -106.58,0 0,120.023 z m 205.53,-157.015 c 24.87,12.047 60.88,47.945 60.88,103.554 0,85.875 -56.04,132.133 -152.16,132.133 l -210.37,0 0,-492.64819 218.59,0 c 87.9,0 150.82,50.74999 150.82,144.41419 0,66.844 -38.06,98.473 -67.76,112.547"
             style="fill:#398abd;fill-opacity:1;fill-rule:nonzero;stroke:none"
             id="path22" /><path
             d="m 2369.22,184.473 c 0,-35.118 -6.64,-58.535 -21.06,-73.262 -25.88,-25.3438 -53.68,-28.2618 -91.16,-28.2618 -61.35,0 -89.14,25.3318 -89.14,70.2348 0,44.921 29.71,71.378 87.23,71.378 l 114.13,0 0,-40.089 z M 2266.67,506.5 c -80.6,0 -128.53,-16.543 -174.57,-71.246 l 64.29,-61.461 c 26.77,35.129 52.67,47.844 106.46,47.844 75.75,0 106.37,-30.285 106.37,-92.75 l 0,-32.473 -128.42,0 c -111.33,0 -167.94,-62.187 -167.94,-145.152 0,-41.977 13.5,-80.0237 38.38,-106.3597 C 2140.96,14.6289 2181.25,0 2241.7,0 c 60.44,0 93.98,14.6289 129.44,50.7617 l 0,-44.91014 95.88,0 0,330.80444 c 0,112.215 -67.08,169.844 -200.35,169.844"
             style="fill:#44aece;fill-opacity:1;fill-rule:nonzero;stroke:none"
             id="path24" /><path
             d="m 722.266,301.77 -182.454,0 0,196.742 -97.246,0 0,-496.25419 97.246,0 0,212.05119 182.454,0 0,-212.05119 97.136,0 0,496.25419 -97.136,0 0,-196.742"
             style="fill:#df1351;fill-opacity:1;fill-rule:nonzero;stroke:none"
             id="path26" /><path
             d="m 261.801,296.699 -76.762,6.863 c -51.777,4.844 -67.086,27.239 -67.086,56.504 0,37.141 29.723,63.485 88.242,63.485 46.039,0 89.153,-9.801 119.879,-36.141 l 61.336,63.492 C 342.395,490.859 280.039,506.5 207.102,506.5 105.469,506.5 23.9688,451.797 23.9688,355.234 c 0,-86.898 52.789,-128.769 143.8512,-136.648 l 77.664,-6.867 c 47.051,-3.836 65.282,-25.313 65.282,-58.535 0,-46.817 -47.043,-68.2113 -106.481,-68.2113 -47.945,0 -100.73,10.7031 -140.0155,51.6683 L 0,71.2383 C 57.5156,13.6211 124.711,0 204.285,0 c 116.051,0 202.379,53.6914 202.379,157.129 0,87.789 -53.805,131.687 -144.863,139.57"
             style="fill:#dc0d68;fill-opacity:1;fill-rule:nonzero;stroke:none"
             id="path28" /><path
             d="m 3040.16,494.906 -96.14,0 0,-492.64819 303.59,0 0,87.34379 -207.45,0 0,405.3044"
             style="fill:#49b6d7;fill-opacity:1;fill-rule:nonzero;stroke:none"
             id="path30" /><path
             d="m 1755.56,302.438 c 0.9,30.289 2.81,36.246 12.38,58.64 15.42,37.141 50.88,62.473 96.91,62.473 46.04,0 80.6,-25.332 95.89,-62.473 9.57,-22.394 12.5,-28.351 13.41,-58.64 l -218.59,0 z M 1864.85,506.5 c -124.71,0 -206.2,-92.75 -206.2,-252.691 C 1658.65,65.3984 1755.56,0 1877.34,0 c 85.32,0 132.37,26.3398 182.24,77.1094 l -62.35,59.5316 c -34.57,-35.118 -63.37,-50.7738 -117.96,-50.7738 -79.59,0 -123.71,53.7028 -123.71,138.5588 l 315.49,0 0,43.91 c 0,140.586 -75.74,238.164 -206.2,238.164"
             style="fill:#dc0d68;fill-opacity:1;fill-rule:nonzero;stroke:none"
             id="path32" /><path
             d="m 3334.49,302.438 c 0.91,30.289 2.82,36.246 12.39,58.64 15.42,37.141 50.87,62.473 96.9,62.473 46.04,0 80.6,-25.332 95.91,-62.473 9.56,-22.394 12.5,-28.351 13.4,-58.64 l -218.6,0 z M 3443.78,506.5 c -124.71,0 -206.19,-92.75 -206.19,-252.691 C 3237.59,65.3984 3334.49,0 3456.28,0 c 85.32,0 132.36,26.3398 182.24,77.1094 l -62.37,59.5316 c -34.55,-35.118 -63.37,-50.7738 -117.96,-50.7738 -79.58,0 -123.7,53.7028 -123.7,138.5588 l 315.5,0 0,43.91 c 0,140.586 -75.75,238.164 -206.21,238.164"
             style="fill:#4295d7;fill-opacity:1;fill-rule:nonzero;stroke:none"
             id="path34" /><path
             d="m 1142.36,184.473 c 0,-35.118 -6.64,-58.535 -21.04,-73.262 -25.9,-25.3438 -53.69,-28.2618 -91.17,-28.2618 -61.349,0 -89.142,25.3318 -89.142,70.2348 0,44.921 29.707,71.378 87.222,71.378 l 114.13,0 0,-40.089 z M 1039.82,506.5 c -80.59,0 -128.535,-16.543 -174.57,-71.246 l 64.27,-61.461 c 26.785,35.129 52.671,47.844 106.48,47.844 75.75,0 106.36,-30.285 106.36,-92.75 l 0,-32.473 -128.42,0 c -111.319,0 -167.932,-62.187 -167.932,-145.152 0,-41.977 13.5,-80.0237 38.379,-106.3597 C 914.098,14.6289 954.395,0 1014.84,0 c 60.44,0 93.98,14.6289 129.44,50.7617 l 0,-44.91014 95.89,0 0,330.80444 c 0,112.215 -67.08,169.844 -200.35,169.844"
             style="fill:#8c1864;fill-opacity:1;fill-rule:nonzero;stroke:none"
             id="path36" /><path
             d="m 1475.04,296.312 -90.91,0 0,118.762 90.91,0 c 42.32,0 70.05,-27.066 70.05,-65.23 0,-38.168 -27.73,-53.532 -70.05,-53.532 z m 73.64,-71.167 c 47.88,17.332 92.89,55.324 92.89,124.699 0,82.586 -59.69,151.285 -160.29,151.285 l -193.6,0 0,-494.0665 96.45,0 0,217.7895 69.38,0 96.45,-217.7895 111.72,0 -113,218.0825"
             style="fill:#8d154b;fill-opacity:1;fill-rule:nonzero;stroke:none"
             id="path38" /><path
             d="m 442.566,214.121 97.2422,0 0,87.4609 -97.2422,0 0,-87.4609 z"
             style="fill:#b31747;fill-opacity:1;fill-rule:nonzero;stroke:none"
             id="path40" /><path
             d="m 722.164,214.121 97.2383,0 0,87.4609 -97.2383,0 0,-87.4609 z"
             style="fill:#b31747;fill-opacity:1;fill-rule:nonzero;stroke:none"
             id="path42" /><path
             d="m 1142.22,224.52 97.8008,0 0,71.8711 -97.8008,0 0,-71.8711 z"
             style="fill:#721855;fill-opacity:1;fill-rule:nonzero;stroke:none"
             id="path44" /><path
             d="m 1287.72,224.539 96.4219,0 0,71.8633 -96.4219,0 0,-71.8633 z"
             style="fill:#73143f;fill-opacity:1;fill-rule:nonzero;stroke:none"
             id="path46" /><path
             d="m 2369.24,224.52 97.793,0 0,71.8711 -97.793,0 0,-71.8711 z"
             style="fill:#3893b4;fill-opacity:1;fill-rule:nonzero;stroke:none"
             id="path48" /><path
             d="m 2521.46,224.539 96.4102,0 0,71.8633 -96.4102,0 0,-71.8633 z"
             style="fill:#2b6e9b;fill-opacity:1;fill-rule:nonzero;stroke:none"
             id="path50" /><path
             d="m 2521.39,416.086 96.4102,0 0,78.6602 -96.4102,0 0,-78.6602 z"
             style="fill:#2b6e9b;fill-opacity:1;fill-rule:nonzero;stroke:none"
             id="path52" /><path
             d="m 2521.39,2.1875 96.4102,0 0,87.3516 -96.4102,0 0,-87.3516 z"
             style="fill:#2b6e9b;fill-opacity:1;fill-rule:nonzero;stroke:none"
             id="path54" /><path
             d="m 2943.99,2.03125 96.1328,0 0,87.3555 -96.1328,0 0,-87.3555 z"
             style="fill:#4cbde5;fill-opacity:1;fill-rule:nonzero;stroke:none"
             id="path56" /><path
             d="m 1755.56,224.426 315.49,0"
             style="fill:#5dcae6;fill-opacity:1;fill-rule:nonzero;stroke:none"
             id="path58" /><path
             d="m 1974.15,302.438 -218.59,0"
             style="fill:#5dcae6;fill-opacity:1;fill-rule:nonzero;stroke:none"
             id="path60" /><path
             d="m 1755.56,224.363 -95.94,0 c -0.56,9.492 -0.97,19.176 -0.97,29.375 0,17.043 1.12,33.153 2.92,48.629 l 93.99,0 0,-78.004"
             style="fill:#af155b;fill-opacity:1;fill-rule:nonzero;stroke:none"
             id="path62" /><path
             d="m 2071.05,224.363 0,43.903 c 0,11.718 -0.72,23.011 -1.75,34.101 l -95.15,0 0,-77.98 96.9,-0.024"
             style="fill:#af155b;fill-opacity:1;fill-rule:nonzero;stroke:none"
             id="path64" /><path
             d="m 3334.49,224.363 -95.94,0 c -0.55,9.492 -0.96,19.176 -0.96,29.375 0,17.043 1.12,33.153 2.92,48.629 l 93.98,0 0,-78.004"
             style="fill:#3983c2;fill-opacity:1;fill-rule:nonzero;stroke:none"
             id="path66" /><path
             d="m 3649.99,224.363 0,43.903 c 0,11.718 -0.72,23.011 -1.76,34.101 l -95.14,0 0,-77.98 96.9,-0.024"
             style="fill:#3983c2;fill-opacity:1;fill-rule:nonzero;stroke:none"
             id="path68" /><path
             d="m 1511.67,295.875 -2.47,4.754 c -9.84,-3.086 -21.21,-4.731 -34.16,-4.731 l -53.57,0 0.01,-0.023 31.64,-71.422 0.01,-0.039 95.55,0 -37.01,71.461"
             style="fill:#73143f;fill-opacity:1;fill-rule:nonzero;stroke:none"
             id="path70" /><path
             d="m 2467.02,224.668 54.4414,0 0,71.7812 -54.4414,0 0,-71.7812 z"
             style="fill:#44aece;fill-opacity:1;fill-rule:nonzero;stroke:none"
             id="path72" /><path
             d="m 1240.17,224.465 47.5078,0 0,72.0664 -47.5078,0 0,-72.0664 z"
             style="fill:#8c1864;fill-opacity:1;fill-rule:nonzero;stroke:none"
             id="path74" /></g></g></g></g></svg>