<?xml version="1.0" encoding="utf-8"?>
<!-- Generator: Adobe Illustrator 15.1.0, SVG Export Plug-In . SVG Version: 6.00 Build 0)  -->
<!DOCTYPE svg PUBLIC "-//W3C//DTD SVG 1.1//EN" "http://www.w3.org/Graphics/SVG/1.1/DTD/svg11.dtd">
<svg version="1.1" id="Calque_1" xmlns="http://www.w3.org/2000/svg" xmlns:xlink="http://www.w3.org/1999/xlink" x="0px" y="0px"
	 width="123.154px" height="45.563px" viewBox="0 0 123.154 45.563" enable-background="new 0 0 123.154 45.563"
	 xml:space="preserve">
<g>
	<path d="M14.941,29.897c-3.994,0-7.748-1.556-10.57-4.379c-5.828-5.828-5.828-15.312,0-21.141C7.193,1.555,10.947,0,14.941,0
		c3.993,0,7.746,1.555,10.57,4.378l-5.476,5.475c-1.36-1.36-3.171-2.109-5.095-2.109c-1.926,0-3.735,0.749-5.096,2.109
		c-2.81,2.812-2.81,7.38,0,10.19c1.361,1.36,3.17,2.111,5.096,2.111c1.924,0,3.734-0.751,5.095-2.111l5.476,5.476
		C22.688,28.342,18.935,29.897,14.941,29.897L14.941,29.897z"/>
	<path fill="#808080" d="M30.607,45.563c-3.994,0-7.749-1.556-10.571-4.38c-5.827-5.828-5.827-15.312,0-21.141
		c2.822-2.824,6.577-4.377,10.571-4.377c3.992,0,7.746,1.553,10.569,4.377l-5.476,5.476c-1.361-1.36-3.171-2.11-5.094-2.11
		c-1.926,0-3.735,0.75-5.096,2.11c-2.81,2.809-2.81,7.38,0,10.19c1.36,1.36,3.17,2.11,5.096,2.11c1.923,0,3.732-0.75,5.094-2.11
		l5.476,5.475C38.354,44.008,34.6,45.563,30.607,45.563L30.607,45.563z"/>
	<g>
		<path d="M39.615,8.802c-0.945,0-1.663-0.319-2.256-0.912c-0.854-0.854-0.82-1.993-0.82-3.211c0-1.22-0.033-2.358,0.82-3.214
			c0.593-0.592,1.311-0.912,2.256-0.912c1.537,0,2.779,0.856,3.076,2.645h-2.028c-0.126-0.456-0.376-0.867-1.036-0.867
			c-0.365,0-0.638,0.149-0.786,0.342c-0.182,0.24-0.308,0.525-0.308,2.007c0,1.479,0.126,1.765,0.308,2.005
			c0.148,0.191,0.421,0.342,0.786,0.342c0.66,0,0.91-0.412,1.036-0.867h2.028C42.395,7.947,41.152,8.802,39.615,8.802z"/>
		<path d="M48.83,7.89c-0.593,0.593-1.275,0.912-2.267,0.912s-1.675-0.319-2.267-0.912c-0.854-0.854-0.82-1.993-0.82-3.211
			c0-1.22-0.034-2.358,0.82-3.214c0.592-0.592,1.275-0.912,2.267-0.912s1.674,0.32,2.267,0.912c0.855,0.855,0.82,1.994,0.82,3.214
			C49.65,5.896,49.686,7.035,48.83,7.89z M47.36,2.685C47.213,2.49,46.928,2.33,46.563,2.33s-0.649,0.16-0.798,0.354
			c-0.182,0.24-0.296,0.513-0.296,1.994c0,1.479,0.114,1.742,0.296,1.981c0.148,0.193,0.434,0.365,0.798,0.365
			s0.649-0.172,0.797-0.365c0.183-0.239,0.297-0.502,0.297-1.981C47.657,3.197,47.543,2.925,47.36,2.685z"/>
		<path d="M50.801,8.732v-8.11h1.992v6.334h3.408v1.776H50.801z"/>
		<path d="M57.362,8.732v-8.11h1.993v6.334h3.406v1.776H57.362z"/>
		<path d="M68.686,8.732l-0.377-1.207h-2.494l-0.399,1.207h-2.084l2.95-8.11h1.537l2.951,8.11H68.686z M67.102,3.697l-0.729,2.164
			h1.413L67.102,3.697z"/>
		<path d="M75.12,8.732h-3.531v-8.11h3.36c1.686,0,2.587,0.945,2.587,2.347c0,0.922-0.638,1.436-0.89,1.605
			c0.33,0.206,1.003,0.627,1.003,1.767C77.649,7.89,76.566,8.732,75.12,8.732z M74.824,2.411h-1.242v1.321h1.242
			c0.547,0,0.717-0.342,0.717-0.661S75.371,2.411,74.824,2.411z M74.926,5.52h-1.344v1.425h1.344c0.548,0,0.73-0.375,0.73-0.718
			C75.656,5.885,75.474,5.52,74.926,5.52z"/>
		<path d="M84.119,7.89c-0.592,0.593-1.276,0.912-2.268,0.912c-0.99,0-1.674-0.319-2.266-0.912c-0.855-0.854-0.82-1.993-0.82-3.211
			c0-1.22-0.035-2.358,0.82-3.214c0.592-0.592,1.275-0.912,2.266-0.912c0.991,0,1.676,0.32,2.268,0.912
			c0.854,0.855,0.818,1.994,0.818,3.214C84.938,5.896,84.974,7.035,84.119,7.89z M82.649,2.685C82.502,2.49,82.217,2.33,81.852,2.33
			c-0.363,0-0.648,0.16-0.797,0.354c-0.182,0.24-0.295,0.513-0.295,1.994c0,1.479,0.113,1.742,0.295,1.981
			c0.148,0.193,0.434,0.365,0.797,0.365c0.365,0,0.65-0.172,0.798-0.365c0.183-0.239,0.296-0.502,0.296-1.981
			C82.945,3.197,82.832,2.925,82.649,2.685z"/>
		<path d="M90.191,8.732l-1.435-3.018h-0.673v3.018H86.09v-8.11h3.213c1.8,0,2.766,1.276,2.766,2.608c0,1.105-0.682,1.8-1.318,2.119
			l1.752,3.383H90.191z M89.211,2.411h-1.127v1.64h1.127c0.547,0,0.865-0.398,0.865-0.82C90.076,2.811,89.758,2.411,89.211,2.411z"
			/>
		<path d="M98.277,8.732l-0.374-1.207h-2.495l-0.4,1.207h-2.084l2.949-8.11h1.539l2.951,8.11H98.277z M96.694,3.697l-0.729,2.164
			h1.412L96.694,3.697z"/>
		<path d="M103.551,2.399v6.333h-1.991V2.399h-1.996V0.622h5.981v1.777H103.551z"/>
		<path d="M106.707,8.732v-8.11h1.993v8.11H106.707z"/>
		<path d="M113.906,8.732h-1.48l-2.679-8.11h2.062l1.367,4.534l1.346-4.534h2.073L113.906,8.732z"/>
		<path d="M117.642,8.732v-8.11h5.513v1.777h-3.52v1.355h3.009v1.777h-3.009v1.424h3.52v1.776H117.642z"/>
	</g>
	<g>
		<path fill="#808080" d="M51.279,24.545c-0.945,0-1.662-0.318-2.256-0.911c-0.854-0.854-0.82-1.993-0.82-3.212
			s-0.033-2.357,0.82-3.211c0.594-0.594,1.311-0.912,2.256-0.912c1.538,0,2.779,0.854,3.074,2.642h-2.026
			c-0.125-0.454-0.376-0.865-1.036-0.865c-0.364,0-0.639,0.147-0.785,0.342c-0.184,0.239-0.309,0.523-0.309,2.005
			c0,1.48,0.125,1.765,0.309,2.005c0.146,0.193,0.421,0.341,0.785,0.341c0.66,0,0.911-0.41,1.036-0.865h2.026
			C54.059,23.69,52.817,24.545,51.279,24.545z"/>
		<path fill="#808080" d="M60.268,23.634c-0.594,0.593-1.277,0.911-2.268,0.911s-1.675-0.318-2.268-0.911
			c-0.854-0.854-0.819-1.993-0.819-3.212s-0.034-2.357,0.819-3.211c0.593-0.594,1.277-0.912,2.268-0.912s1.674,0.318,2.268,0.912
			c0.854,0.854,0.818,1.992,0.818,3.211S61.121,22.78,60.268,23.634z M58.797,18.429c-0.148-0.193-0.433-0.354-0.797-0.354
			c-0.365,0-0.65,0.16-0.797,0.354c-0.183,0.239-0.297,0.512-0.297,1.993c0,1.48,0.114,1.743,0.297,1.982
			c0.146,0.192,0.432,0.363,0.797,0.363c0.364,0,0.648-0.171,0.797-0.363c0.183-0.239,0.297-0.502,0.297-1.982
			C59.094,18.94,58.979,18.668,58.797,18.429z"/>
		<path fill="#808080" d="M66.6,24.478L64.003,20.4v4.077H62.01v-8.111h1.742l2.598,4.077v-4.077h1.994v8.111H66.6z"/>
		<path fill="#808080" d="M72.068,24.545c-1.242,0-2.256-0.227-3.076-1.07l1.275-1.275c0.422,0.421,1.162,0.568,1.812,0.568
			c0.785,0,1.16-0.262,1.16-0.729c0-0.192-0.045-0.353-0.158-0.479c-0.104-0.102-0.275-0.182-0.536-0.216l-0.979-0.137
			c-0.717-0.104-1.264-0.342-1.629-0.719c-0.376-0.388-0.558-0.933-0.558-1.628c0-1.481,1.116-2.562,2.962-2.562
			c1.16,0,2.037,0.272,2.732,0.967l-1.253,1.254c-0.512-0.514-1.184-0.479-1.537-0.479c-0.695,0-0.979,0.399-0.979,0.752
			c0,0.102,0.033,0.251,0.158,0.376c0.104,0.103,0.274,0.204,0.559,0.239l0.98,0.137c0.729,0.102,1.252,0.33,1.595,0.672
			c0.433,0.421,0.604,1.025,0.604,1.778C75.201,23.646,73.777,24.545,72.068,24.545z"/>
		<path fill="#808080" d="M79.209,24.545c-1.686,0-3.063-1.14-3.063-2.916v-5.263h1.993v5.217c0,0.752,0.41,1.185,1.07,1.185
			c0.662,0,1.094-0.433,1.094-1.185v-5.217h1.994v5.263C82.297,23.405,80.895,24.545,79.209,24.545z"/>
		<path fill="#808080" d="M89.143,24.478v-3.886l-1.15,2.005h-1.275l-1.152-2.005v3.886h-1.993v-8.111h1.96l1.823,3.577l1.822-3.577
			h1.958v8.111H89.143z"/>
		<path fill="#808080" d="M95.76,21.583h-1.219v2.895h-1.994v-8.111h3.213c1.801,0,2.77,1.276,2.77,2.609
			S97.561,21.583,95.76,21.583z M95.67,18.155h-1.129v1.64h1.129c0.546,0,0.864-0.398,0.864-0.819
			C96.534,18.554,96.216,18.155,95.67,18.155z"/>
		<path fill="#808080" d="M102.971,18.143v6.335h-1.993v-6.335h-1.994v-1.776h5.981v1.776H102.971z"/>
		<path fill="#808080" d="M106.125,24.478v-8.111h1.995v8.111H106.125z"/>
		<path fill="#808080" d="M114.623,23.634c-0.593,0.593-1.274,0.911-2.269,0.911c-0.99,0-1.674-0.318-2.265-0.911
			c-0.854-0.854-0.821-1.993-0.821-3.212s-0.033-2.357,0.821-3.211c0.591-0.594,1.274-0.912,2.265-0.912
			c0.994,0,1.676,0.318,2.269,0.912c0.854,0.854,0.821,1.992,0.821,3.211S115.477,22.78,114.623,23.634z M113.153,18.429
			c-0.147-0.193-0.432-0.354-0.799-0.354c-0.361,0-0.646,0.16-0.796,0.354c-0.182,0.239-0.296,0.512-0.296,1.993
			c0,1.48,0.114,1.743,0.296,1.982c0.15,0.192,0.435,0.363,0.796,0.363c0.367,0,0.651-0.171,0.799-0.363
			c0.183-0.239,0.297-0.502,0.297-1.982C113.45,18.94,113.336,18.668,113.153,18.429z"/>
		<path fill="#808080" d="M121.185,24.478l-2.597-4.077v4.077h-1.993v-8.111h1.743l2.596,4.077v-4.077h1.994v8.111H121.185z"/>
	</g>
	<g>
		<defs>
			<path id="SVGID_1_" d="M14.941,22.154c1.924,0,3.734-0.751,5.095-2.111l5.476,5.476c-2.824,2.823-6.577,4.379-10.57,4.379V22.154
				z"/>
		</defs>
		<clipPath id="SVGID_2_">
			<use xlink:href="#SVGID_1_"  overflow="visible"/>
		</clipPath>
		<g clip-path="url(#SVGID_2_)">
			<polyline fill="none" stroke="#000000" stroke-width="0.453" points="14.938,14.947 14.938,26.056 14.938,35.286 			"/>
			<polyline fill="none" stroke="#010101" stroke-width="0.453" points="14.938,14.947 14.979,26.032 15.021,35.251 			"/>
			<polyline fill="none" stroke="#010101" stroke-width="0.453" points="14.938,14.947 15.021,26.009 15.105,35.216 			"/>
			<polyline fill="none" stroke="#020202" stroke-width="0.453" points="14.938,14.947 15.062,25.985 15.188,35.181 			"/>
			<polyline fill="none" stroke="#030303" stroke-width="0.453" points="14.938,14.947 15.104,25.963 15.272,35.146 			"/>
			<polyline fill="none" stroke="#040404" stroke-width="0.453" points="14.938,14.947 15.145,25.938 15.356,35.109 			"/>
			<polyline fill="none" stroke="#040404" stroke-width="0.453" points="14.938,14.947 15.187,25.915 15.439,35.075 			"/>
			<polyline fill="none" stroke="#050505" stroke-width="0.453" points="14.938,14.947 15.229,25.892 15.523,35.039 			"/>
			<polyline fill="none" stroke="#060606" stroke-width="0.453" points="14.937,14.947 15.27,25.868 15.606,35.004 			"/>
			<polyline fill="none" stroke="#070707" stroke-width="0.453" points="14.938,14.947 15.312,25.845 15.69,34.969 			"/>
			<polyline fill="none" stroke="#070707" stroke-width="0.453" points="14.938,14.947 15.353,25.821 15.774,34.934 			"/>
			<polyline fill="none" stroke="#080808" stroke-width="0.453" points="14.938,14.947 15.395,25.799 15.858,34.898 			"/>
			<polyline fill="none" stroke="#090909" stroke-width="0.453" points="14.938,14.947 15.437,25.775 15.941,34.863 			"/>
			<polyline fill="none" stroke="#0A0A0A" stroke-width="0.453" points="14.938,14.947 15.478,25.751 16.025,34.828 			"/>
			<polyline fill="none" stroke="#0A0A0A" stroke-width="0.453" points="14.938,14.947 15.519,25.729 16.109,34.792 			"/>
			<polyline fill="none" stroke="#0B0B0B" stroke-width="0.453" points="14.938,14.947 15.561,25.705 16.192,34.758 			"/>
			<polyline fill="none" stroke="#0C0C0C" stroke-width="0.453" points="14.937,14.947 15.602,25.681 16.276,34.723 			"/>
			<polyline fill="none" stroke="#0D0D0D" stroke-width="0.453" points="14.938,14.947 15.644,25.658 16.36,34.687 			"/>
			<polyline fill="none" stroke="#0D0D0D" stroke-width="0.453" points="14.938,14.947 15.686,25.635 16.444,34.652 			"/>
			<polyline fill="none" stroke="#0E0E0E" stroke-width="0.453" points="14.938,14.947 15.727,25.611 16.527,34.616 			"/>
			<polyline fill="none" stroke="#0F0F0F" stroke-width="0.453" points="14.938,14.947 15.769,25.588 16.611,34.581 			"/>
			<polyline fill="none" stroke="#101010" stroke-width="0.453" points="14.937,14.947 15.81,25.564 16.694,34.545 			"/>
			<polyline fill="none" stroke="#101010" stroke-width="0.453" points="14.938,14.947 15.852,25.541 16.778,34.511 			"/>
			<polyline fill="none" stroke="#111111" stroke-width="0.453" points="14.938,14.947 15.893,25.518 16.862,34.476 			"/>
			<polyline fill="none" stroke="#121212" stroke-width="0.453" points="14.938,14.947 15.935,25.494 16.946,34.439 			"/>
			<polyline fill="none" stroke="#131313" stroke-width="0.453" points="14.938,14.947 15.976,25.471 17.029,34.404 			"/>
			<polyline fill="none" stroke="#131313" stroke-width="0.453" points="14.938,14.947 16.018,25.447 17.113,34.369 			"/>
			<polyline fill="none" stroke="#141414" stroke-width="0.453" points="14.938,14.947 16.06,25.424 17.197,34.334 			"/>
			<polyline fill="none" stroke="#151515" stroke-width="0.453" points="14.938,14.947 16.101,25.4 17.28,34.299 			"/>
			<polyline fill="none" stroke="#161616" stroke-width="0.453" points="14.937,14.947 16.142,25.377 17.363,34.264 			"/>
			<polyline fill="none" stroke="#161616" stroke-width="0.453" points="14.938,14.947 16.185,25.354 17.448,34.229 			"/>
			<polyline fill="none" stroke="#171717" stroke-width="0.453" points="14.938,14.948 16.226,25.331 17.531,34.193 			"/>
			<polyline fill="none" stroke="#181818" stroke-width="0.453" points="14.938,14.947 16.268,25.307 17.615,34.158 			"/>
			<polyline fill="none" stroke="#191919" stroke-width="0.453" points="14.938,14.947 16.309,25.283 17.698,34.123 			"/>
			<polyline fill="none" stroke="#191919" stroke-width="0.453" points="14.938,14.947 16.35,25.26 17.782,34.088 			"/>
			<polyline fill="none" stroke="#1A1A1A" stroke-width="0.453" points="14.938,14.948 16.392,25.237 17.866,34.053 			"/>
			<polyline fill="none" stroke="#1B1B1B" stroke-width="0.453" points="14.938,14.947 16.433,25.213 17.949,34.017 			"/>
			<polyline fill="none" stroke="#1C1C1C" stroke-width="0.453" points="14.938,14.947 16.475,25.189 18.033,33.981 			"/>
			<polyline fill="none" stroke="#1C1C1C" stroke-width="0.453" points="14.938,14.947 16.517,25.167 18.117,33.946 			"/>
			<polyline fill="none" stroke="#1D1D1D" stroke-width="0.453" points="14.938,14.947 16.559,25.144 18.201,33.911 			"/>
			<polyline fill="none" stroke="#1E1E1E" stroke-width="0.453" points="14.938,14.947 16.6,25.12 18.284,33.876 			"/>
			<polyline fill="none" stroke="#1F1F1F" stroke-width="0.453" points="14.937,14.947 16.641,25.096 18.367,33.84 			"/>
			<polyline fill="none" stroke="#1F1F1F" stroke-width="0.453" points="14.938,14.947 16.683,25.073 18.451,33.806 			"/>
			<polyline fill="none" stroke="#202020" stroke-width="0.453" points="14.938,14.947 16.725,25.05 18.535,33.771 			"/>
			<polyline fill="none" stroke="#212121" stroke-width="0.453" points="14.938,14.947 16.766,25.025 18.619,33.734 			"/>
			<polyline fill="none" stroke="#222222" stroke-width="0.453" points="14.938,14.947 16.808,25.003 18.702,33.699 			"/>
			<polyline fill="none" stroke="#222222" stroke-width="0.453" points="14.938,14.947 16.849,24.979 18.786,33.664 			"/>
			<polyline fill="none" stroke="#232323" stroke-width="0.453" points="14.938,14.947 16.891,24.956 18.87,33.629 			"/>
			<polyline fill="none" stroke="#242424" stroke-width="0.453" points="14.938,14.947 16.932,24.933 18.953,33.594 			"/>
			<polyline fill="none" stroke="#252525" stroke-width="0.453" points="14.937,14.947 16.973,24.909 19.037,33.559 			"/>
			<polyline fill="none" stroke="#252525" stroke-width="0.453" points="14.938,14.947 17.015,24.886 19.121,33.523 			"/>
			<polyline fill="none" stroke="#262626" stroke-width="0.453" points="14.938,14.948 17.057,24.862 19.205,33.488 			"/>
			<polyline fill="none" stroke="#272727" stroke-width="0.453" points="14.938,14.947 17.099,24.839 19.288,33.453 			"/>
			<polyline fill="none" stroke="#282828" stroke-width="0.453" points="14.938,14.947 17.14,24.815 19.372,33.418 			"/>
			<polyline fill="none" stroke="#282828" stroke-width="0.453" points="14.938,14.947 17.182,24.792 19.455,33.383 			"/>
			<polyline fill="none" stroke="#292929" stroke-width="0.453" points="14.938,14.947 17.223,24.77 19.539,33.348 			"/>
			<polyline fill="none" stroke="#2A2A2A" stroke-width="0.453" points="14.938,14.947 17.264,24.745 19.623,33.312 			"/>
			<polyline fill="none" stroke="#2A2A2A" stroke-width="0.453" points="14.937,14.947 17.306,24.722 19.706,33.276 			"/>
			<polyline fill="none" stroke="#2B2B2B" stroke-width="0.453" points="14.938,14.947 17.348,24.698 19.79,33.242 			"/>
			<polyline fill="none" stroke="#2C2C2C" stroke-width="0.453" points="14.938,14.947 17.39,24.676 19.874,33.206 			"/>
			<polyline fill="none" stroke="#2D2D2D" stroke-width="0.453" points="14.938,14.947 17.431,24.652 19.958,33.171 			"/>
			<polyline fill="none" stroke="#2D2D2D" stroke-width="0.453" points="14.938,14.947 17.472,24.628 20.041,33.135 			"/>
			<polyline fill="none" stroke="#2E2E2E" stroke-width="0.453" points="14.938,14.947 17.514,24.605 20.125,33.101 			"/>
			<polyline fill="none" stroke="#2F2F2F" stroke-width="0.453" points="14.938,14.947 17.556,24.582 20.208,33.065 			"/>
			<polyline fill="none" stroke="#303030" stroke-width="0.453" points="14.938,14.947 17.597,24.559 20.292,33.029 			"/>
			<polyline fill="none" stroke="#303030" stroke-width="0.453" points="14.938,14.947 17.639,24.534 20.376,32.994 			"/>
			<polyline fill="none" stroke="#313131" stroke-width="0.453" points="14.938,14.947 17.68,24.512 20.459,32.959 			"/>
			<polyline fill="none" stroke="#323232" stroke-width="0.453" points="14.938,14.948 17.722,24.488 20.543,32.924 			"/>
			<polyline fill="none" stroke="#333333" stroke-width="0.453" points="14.938,14.947 17.763,24.465 20.627,32.889 			"/>
			<polyline fill="none" stroke="#333333" stroke-width="0.453" points="14.937,14.947 17.804,24.441 20.71,32.854 			"/>
			<polyline fill="none" stroke="#343434" stroke-width="0.453" points="14.938,14.947 17.846,24.418 20.794,32.818 			"/>
			<polyline fill="none" stroke="#353535" stroke-width="0.453" points="14.938,14.947 17.888,24.395 20.878,32.783 			"/>
			<polyline fill="none" stroke="#363636" stroke-width="0.453" points="14.938,14.947 17.93,24.371 20.961,32.748 			"/>
			<polyline fill="none" stroke="#363636" stroke-width="0.453" points="14.938,14.947 17.971,24.348 21.045,32.712 			"/>
			<polyline fill="none" stroke="#373737" stroke-width="0.453" points="14.938,14.947 18.013,24.324 21.129,32.678 			"/>
			<polyline fill="none" stroke="#383838" stroke-width="0.453" points="14.938,14.947 18.054,24.301 21.213,32.643 			"/>
			<polyline fill="none" stroke="#393939" stroke-width="0.453" points="14.938,14.947 18.096,24.277 21.296,32.606 			"/>
			<polyline fill="none" stroke="#393939" stroke-width="0.453" points="14.937,14.947 18.137,24.254 21.379,32.571 			"/>
			<polyline fill="none" stroke="#3A3A3A" stroke-width="0.453" points="14.938,14.947 18.179,24.23 21.464,32.536 			"/>
			<polyline fill="none" stroke="#3B3B3B" stroke-width="0.453" points="14.938,14.947 18.221,24.208 21.547,32.501 			"/>
			<polyline fill="none" stroke="#3C3C3C" stroke-width="0.453" points="14.938,14.947 18.262,24.184 21.631,32.466 			"/>
			<polyline fill="none" stroke="#3C3C3C" stroke-width="0.453" points="14.938,14.947 18.303,24.16 21.714,32.43 			"/>
			<polyline fill="none" stroke="#3D3D3D" stroke-width="0.453" points="14.938,14.947 18.345,24.137 21.798,32.396 			"/>
			<polyline fill="none" stroke="#3E3E3E" stroke-width="0.453" points="14.938,14.948 18.387,24.113 21.882,32.36 			"/>
			<polyline fill="none" stroke="#3F3F3F" stroke-width="0.453" points="14.938,14.947 18.428,24.09 21.965,32.324 			"/>
			<polyline fill="none" stroke="#3F3F3F" stroke-width="0.453" points="14.938,14.947 18.47,24.066 22.049,32.289 			"/>
			<polyline fill="none" stroke="#404040" stroke-width="0.453" points="14.938,14.947 18.511,24.043 22.133,32.255 			"/>
			<polyline fill="none" stroke="#414141" stroke-width="0.453" points="14.938,14.947 18.553,24.02 22.216,32.219 			"/>
			<polyline fill="none" stroke="#424242" stroke-width="0.453" points="14.938,14.947 18.594,23.996 22.3,32.184 			"/>
			<polyline fill="none" stroke="#424242" stroke-width="0.453" points="14.938,14.947 18.636,23.973 22.384,32.148 			"/>
			<polyline fill="none" stroke="#434343" stroke-width="0.453" points="14.938,14.947 18.678,23.949 22.468,32.113 			"/>
			<polyline fill="none" stroke="#444444" stroke-width="0.453" points="14.938,14.947 18.719,23.927 22.551,32.078 			"/>
			<polyline fill="none" stroke="#454545" stroke-width="0.453" points="14.938,14.947 18.761,23.903 22.635,32.043 			"/>
			<polyline fill="none" stroke="#454545" stroke-width="0.453" points="14.938,14.947 18.802,23.88 22.718,32.008 			"/>
			<polyline fill="none" stroke="#464646" stroke-width="0.453" points="14.938,14.947 18.843,23.856 22.802,31.973 			"/>
			<polyline fill="none" stroke="#474747" stroke-width="0.453" points="14.938,14.947 18.885,23.833 22.886,31.937 			"/>
			<polyline fill="none" stroke="#484848" stroke-width="0.453" points="14.938,14.947 18.926,23.81 22.969,31.902 			"/>
			<polyline fill="none" stroke="#484848" stroke-width="0.453" points="14.938,14.947 18.968,23.786 23.053,31.867 			"/>
			<polyline fill="none" stroke="#494949" stroke-width="0.453" points="14.938,14.947 19.01,23.763 23.137,31.831 			"/>
			<polyline fill="none" stroke="#4A4A4A" stroke-width="0.453" points="14.938,14.947 19.051,23.739 23.221,31.796 			"/>
			<polyline fill="none" stroke="#4B4B4B" stroke-width="0.453" points="14.938,14.947 19.093,23.716 23.304,31.761 			"/>
			<polyline fill="none" stroke="#4B4B4B" stroke-width="0.453" points="14.938,14.947 19.134,23.692 23.388,31.726 			"/>
			<polyline fill="none" stroke="#4C4C4C" stroke-width="0.453" points="14.938,14.947 19.176,23.669 23.471,31.69 			"/>
			<polyline fill="none" stroke="#4D4D4D" stroke-width="0.453" points="14.938,14.947 19.217,23.646 23.555,31.655 			"/>
			<polyline fill="none" stroke="#4E4E4E" stroke-width="0.453" points="14.938,14.947 19.259,23.622 23.639,31.619 			"/>
			<polyline fill="none" stroke="#4E4E4E" stroke-width="0.453" points="14.938,14.947 19.301,23.599 23.723,31.585 			"/>
			<polyline fill="none" stroke="#4F4F4F" stroke-width="0.453" points="14.938,14.947 19.342,23.575 23.806,31.549 			"/>
			<polyline fill="none" stroke="#505050" stroke-width="0.453" points="14.938,14.947 19.384,23.552 23.89,31.514 			"/>
			<polyline fill="none" stroke="#515151" stroke-width="0.453" points="14.938,14.947 19.425,23.529 23.973,31.479 			"/>
			<polyline fill="none" stroke="#515151" stroke-width="0.453" points="14.938,14.947 19.467,23.506 24.057,31.443 			"/>
			<polyline fill="none" stroke="#525252" stroke-width="0.453" points="14.938,14.947 19.508,23.482 24.141,31.408 			"/>
			<polyline fill="none" stroke="#535353" stroke-width="0.453" points="14.938,14.947 19.55,23.459 24.225,31.373 			"/>
			<polyline fill="none" stroke="#545454" stroke-width="0.453" points="14.938,14.947 19.592,23.436 24.308,31.338 			"/>
			<polyline fill="none" stroke="#545454" stroke-width="0.453" points="14.938,14.947 19.633,23.412 24.392,31.303 			"/>
			<polyline fill="none" stroke="#555555" stroke-width="0.453" points="14.938,14.947 19.675,23.389 24.476,31.268 			"/>
			<polyline fill="none" stroke="#565656" stroke-width="0.453" points="14.938,14.947 19.716,23.365 24.559,31.232 			"/>
			<polyline fill="none" stroke="#565656" stroke-width="0.453" points="14.938,14.947 19.757,23.342 24.643,31.197 			"/>
			<polyline fill="none" stroke="#575757" stroke-width="0.453" points="14.938,14.947 19.799,23.318 24.726,31.162 			"/>
			<polyline fill="none" stroke="#585858" stroke-width="0.453" points="14.938,14.947 19.841,23.295 24.81,31.126 			"/>
			<polyline fill="none" stroke="#595959" stroke-width="0.453" points="14.938,14.947 19.882,23.271 24.894,31.091 			"/>
			<polyline fill="none" stroke="#595959" stroke-width="0.453" points="14.938,14.947 19.924,23.248 24.978,31.056 			"/>
			<polyline fill="none" stroke="#5A5A5A" stroke-width="0.453" points="14.938,14.947 19.965,23.225 25.061,31.021 			"/>
			<polyline fill="none" stroke="#5B5B5B" stroke-width="0.453" points="14.938,14.947 20.007,23.201 25.145,30.985 			"/>
			<polyline fill="none" stroke="#5C5C5C" stroke-width="0.453" points="14.938,14.947 20.048,23.178 25.228,30.95 			"/>
			<polyline fill="none" stroke="#5C5C5C" stroke-width="0.453" points="14.938,14.947 20.09,23.154 25.312,30.914 			"/>
			<polyline fill="none" stroke="#5D5D5D" stroke-width="0.453" points="14.938,14.947 20.132,23.131 25.396,30.88 			"/>
			<polyline fill="none" stroke="#5E5E5E" stroke-width="0.453" points="14.938,14.947 20.173,23.107 25.479,30.844 			"/>
			<polyline fill="none" stroke="#5F5F5F" stroke-width="0.453" points="14.938,14.947 20.215,23.084 25.562,30.809 			"/>
			<polyline fill="none" stroke="#5F5F5F" stroke-width="0.453" points="14.938,14.947 20.256,23.061 25.646,30.773 			"/>
			<polyline fill="none" stroke="#606060" stroke-width="0.453" points="14.938,14.947 20.298,23.037 25.73,30.738 			"/>
			<polyline fill="none" stroke="#616161" stroke-width="0.453" points="14.938,14.947 20.339,23.014 25.814,30.703 			"/>
			<polyline fill="none" stroke="#626262" stroke-width="0.453" points="14.938,14.947 20.381,22.991 25.897,30.668 			"/>
			<polyline fill="none" stroke="#626262" stroke-width="0.453" points="14.938,14.947 20.423,22.967 25.981,30.633 			"/>
			<polyline fill="none" stroke="#636363" stroke-width="0.453" points="14.938,14.947 20.464,22.943 26.064,30.598 			"/>
			<polyline fill="none" stroke="#646464" stroke-width="0.453" points="14.938,14.947 20.506,22.92 26.149,30.562 			"/>
			<polyline fill="none" stroke="#656565" stroke-width="0.453" points="14.938,14.947 20.547,22.897 26.232,30.527 			"/>
			<polyline fill="none" stroke="#656565" stroke-width="0.453" points="14.938,14.947 20.589,22.874 26.316,30.492 			"/>
			<polyline fill="none" stroke="#666666" stroke-width="0.453" points="14.938,14.947 20.63,22.85 26.399,30.456 			"/>
			<polyline fill="none" stroke="#676767" stroke-width="0.453" points="14.938,14.947 20.671,22.827 26.483,30.421 			"/>
			<polyline fill="none" stroke="#686868" stroke-width="0.453" points="14.938,14.947 20.713,22.803 26.567,30.386 			"/>
			<polyline fill="none" stroke="#686868" stroke-width="0.453" points="14.938,14.947 20.755,22.78 26.65,30.351 			"/>
			<polyline fill="none" stroke="#696969" stroke-width="0.453" points="14.938,14.947 20.796,22.757 26.734,30.315 			"/>
			<polyline fill="none" stroke="#6A6A6A" stroke-width="0.453" points="14.938,14.947 20.838,22.733 26.818,30.28 			"/>
			<polyline fill="none" stroke="#6B6B6B" stroke-width="0.453" points="14.938,14.947 20.879,22.71 26.901,30.245 			"/>
			<polyline fill="none" stroke="#6B6B6B" stroke-width="0.453" points="14.938,14.947 20.921,22.687 26.985,30.209 			"/>
			<polyline fill="none" stroke="#6C6C6C" stroke-width="0.453" points="14.938,14.947 20.962,22.663 27.069,30.175 			"/>
			<polyline fill="none" stroke="#6D6D6D" stroke-width="0.453" points="14.938,14.947 21.004,22.64 27.152,30.139 			"/>
			<polyline fill="none" stroke="#6E6E6E" stroke-width="0.453" points="14.938,14.947 21.046,22.616 27.236,30.104 			"/>
			<polyline fill="none" stroke="#6E6E6E" stroke-width="0.453" points="14.938,14.947 21.087,22.593 27.32,30.068 			"/>
			<polyline fill="none" stroke="#6F6F6F" stroke-width="0.453" points="14.938,14.947 21.129,22.569 27.404,30.033 			"/>
			<polyline fill="none" stroke="#707070" stroke-width="0.453" points="14.938,14.947 21.17,22.546 27.487,29.998 			"/>
			<polyline fill="none" stroke="#717171" stroke-width="0.453" points="14.938,14.947 21.212,22.522 27.571,29.963 			"/>
			<polyline fill="none" stroke="#717171" stroke-width="0.453" points="14.938,14.947 21.253,22.499 27.654,29.928 			"/>
			<polyline fill="none" stroke="#727272" stroke-width="0.453" points="14.938,14.947 21.295,22.476 27.738,29.893 			"/>
			<polyline fill="none" stroke="#737373" stroke-width="0.453" points="14.938,14.947 21.337,22.452 27.822,29.857 			"/>
			<polyline fill="none" stroke="#747474" stroke-width="0.453" points="14.938,14.947 21.378,22.429 27.906,29.822 			"/>
			<polyline fill="none" stroke="#747474" stroke-width="0.453" points="14.938,14.947 21.42,22.406 27.989,29.787 			"/>
			<polyline fill="none" stroke="#757575" stroke-width="0.453" points="14.938,14.947 21.461,22.382 28.073,29.751 			"/>
			<polyline fill="none" stroke="#767676" stroke-width="0.453" points="14.938,14.947 21.503,22.359 28.156,29.716 			"/>
			<polyline fill="none" stroke="#777777" stroke-width="0.453" points="14.938,14.947 21.544,22.335 28.24,29.681 			"/>
			<polyline fill="none" stroke="#777777" stroke-width="0.453" points="14.938,14.947 21.585,22.312 28.324,29.646 			"/>
			<polyline fill="none" stroke="#787878" stroke-width="0.453" points="14.938,14.947 21.627,22.289 28.408,29.61 			"/>
			<polyline fill="none" stroke="#797979" stroke-width="0.453" points="14.938,14.947 21.669,22.266 28.491,29.575 			"/>
			<polyline fill="none" stroke="#7A7A7A" stroke-width="0.453" points="14.938,14.947 21.71,22.242 28.575,29.54 			"/>
			<polyline fill="none" stroke="#7A7A7A" stroke-width="0.453" points="14.938,14.947 21.752,22.218 28.659,29.505 			"/>
			<polyline fill="none" stroke="#7B7B7B" stroke-width="0.453" points="14.938,14.947 21.793,22.195 28.742,29.47 			"/>
			<polyline fill="none" stroke="#7C7C7C" stroke-width="0.453" points="14.938,14.947 21.835,22.171 28.826,29.434 			"/>
			<polyline fill="none" stroke="#7D7D7D" stroke-width="0.453" points="14.938,14.947 21.876,22.148 28.909,29.398 			"/>
			<polyline fill="none" stroke="#7D7D7D" stroke-width="0.453" points="14.938,14.947 21.918,22.125 28.993,29.363 			"/>
			<polyline fill="none" stroke="#7E7E7E" stroke-width="0.453" points="14.938,14.947 21.96,22.102 29.077,29.328 			"/>
			<polyline fill="none" stroke="#7F7F7F" stroke-width="0.453" points="14.938,14.947 22.001,22.078 29.161,29.293 			"/>
			<polyline fill="none" stroke="#808080" stroke-width="0.453" points="14.938,14.947 22.043,22.055 29.244,29.258 			"/>
		</g>
	</g>
</g>
</svg>
