<?xml version="1.0" standalone="no"?>
<!DOCTYPE svg PUBLIC "-//W3C//DTD SVG 1.1//EN" "http://www.w3.org/Graphics/SVG/1.1/DTD/svg11.dtd" >
<svg xmlns="http://www.w3.org/2000/svg">
<metadata></metadata>
<defs>
<font id="blanchcaps_inline" horiz-adv-x="643" >
<font-face units-per-em="2048" ascent="1536" descent="-512" />
<missing-glyph horiz-adv-x="294" />
<glyph horiz-adv-x="2048" />
<glyph horiz-adv-x="2048" />
<glyph unicode="&#xd;" horiz-adv-x="294" />
<glyph unicode=" "  horiz-adv-x="294" />
<glyph unicode="&#x09;" horiz-adv-x="294" />
<glyph unicode="&#xa0;" horiz-adv-x="294" />
<glyph unicode="!" horiz-adv-x="301" d="M59 37q0 33 33 33h66q33 0 32 -33v-135q0 -33 -32 -33h-66q-33 0 -33 33v135zM59 231v748q0 33 33 33h66q33 0 32 -33v-748q0 -33 -32 -32h-66q-33 0 -33 32zM115 6v-74q0 -8 8 -8h4q8 0 8 8v74q0 10 -8 10h-4q-8 0 -8 -10zM115 262q0 -8 8 -8h4q8 0 8 8v682q0 10 -8 10 h-4q-8 0 -8 -10v-682z" />
<glyph unicode="#" horiz-adv-x="1085" d="M39 276v66q0 14 10 23.5t23 9.5h213v262h-213q-12 0 -22.5 9t-10.5 24v63q0 14 10 23.5t23 9.5h213v213q0 14 10 23.5t22 9.5h66q33 0 33 -33v-213h131v213q0 33 33 33h65q12 0 22.5 -9.5t10.5 -23.5v-213h213q12 0 22.5 -9t10.5 -22v-65q0 -14 -10.5 -23.5t-22.5 -9.5 h-213v-262h213q12 0 22.5 -9.5t10.5 -23.5v-66q0 -12 -10.5 -22t-22.5 -10h-213v-211q0 -14 -10.5 -23.5t-22.5 -9.5h-65q-33 0 -33 33v211h-131v-211q0 -33 -33 -33h-66q-12 0 -22 9t-10 24v211h-213q-12 0 -22.5 10t-10.5 22zM94 307q0 -8 8 -8h238v-238q0 -8 8 -8h4 q10 0 10 8v238h238v-238q0 -8 10 -8h4q8 0 9 8v238h237q8 0 8 8v4q0 10 -8 11h-237v368h237q8 0 8 8v7q0 8 -8 8h-237v237q0 8 -9 8h-4q-10 0 -10 -8v-237h-238v237q0 8 -10 8h-4q-8 0 -8 -8v-237h-238q-8 0 -8 -8v-7q0 -8 8 -8h238v-368h-238q-8 0 -8 -11v-4zM362 322v368 h238v-368h-238zM416 375h131v262h-131v-262z" />
<glyph unicode="$" horiz-adv-x="641" d="M59 238v69q0 33 33 33h66q12 0 22 -9t10 -24v-69q0 -43 31 -74t74 -31t73.5 31t30.5 74v24t-4 10l-289 379q-18 25 -27 39.5t-13.5 26.5t-5.5 26.5t-1 38.5q0 80 48.5 142.5t121.5 85.5v102q0 33 33 33h66q33 0 32 -33v-102q74 -23 122 -85.5t48 -142.5v-69 q0 -33 -32 -33h-66q-12 0 -22.5 9t-10.5 24v69q0 43 -30.5 74t-73.5 31t-74 -31t-31 -74v-24t5 -10l288 -379q18 -25 27.5 -39.5t13.5 -26.5t5 -26.5t1 -38.5q0 -82 -48 -143.5t-122 -84.5v-102q0 -33 -32 -33h-66q-33 0 -33 33v102q-74 23 -122 84.5t-48 143.5zM113 233 q0 -37 13 -68.5t36.5 -56t54.5 -40t68 -17.5v-112q0 -8 8 -9h4q8 0 8 9v112q70 6 119 53q53 53 53 129v3v24q0 8 -4 18.5t-8 18.5l-322 430q-8 12 -8 25v24v2q0 66 47 113t113 47t113 -47t47 -113v-39q0 -10 8 -10h4q10 0 10 10v39q0 37 -13 69t-37 56.5t-54.5 38.5 t-67.5 16v123q0 8 -8 9h-4q-8 0 -8 -9v-123q-68 -2 -119 -51q-53 -53 -53 -129v-2v2v-2v-24q0 -20 12 -37l321 -430q8 -12 9 -25v-24v-3v3v-3q0 -66 -47.5 -112.5t-112.5 -46.5q-66 0 -113 47t-47 112v39q0 8 -8 9h-4q-10 0 -10 -9v-39z" />
<glyph unicode="%" horiz-adv-x="1159" d="M59 778v2q0 49 19.5 91t51.5 74t75 50.5t92 18.5t91 -18.5t74 -50.5t51 -74t19 -91v-2q0 -49 -19 -91t-51 -74.5t-74 -51t-91 -18.5t-92 18.5t-75 51t-51.5 74.5t-19.5 91zM115 778q0 -76 53 -128t129 -52q74 0 127 52t53 128v2q0 74 -53 126t-127 52q-76 0 -129 -52 t-53 -126v-2zM137 778q0 66 47 113t113 47t112 -47t48 -113q-2 -66 -48.5 -111.5t-111.5 -45.5q-66 0 -113 46t-47 111zM190 778q2 -43 33 -73.5t74 -30.5t73.5 30.5t30.5 73.5t-30.5 74t-73.5 31t-73.5 -31t-33.5 -74zM317 33v203q0 25 1 39t5.5 26t14.5 26.5t29 39.5 l286 378q4 6 5 10.5t1 24.5v201q0 33 33 33h66q33 0 33 -33v-201q0 -25 -1.5 -40t-5.5 -27.5t-14 -25.5t-29 -38l-286 -381q-4 -4 -5 -8t-1 -24v-203q0 -12 -9.5 -22.5t-23.5 -10.5h-66q-12 0 -22.5 10t-10.5 23zM373 63q0 -8 8 -8h6q8 0 8 8v199q0 12 8 25l320 428 q6 8 9 18t3 21v196q0 8 -8 8h-4q-8 0 -8 -8v-196q0 -12 -8 -25l-322 -430q-4 -8 -8 -18.5t-4 -18.5v-199zM578 236v2q0 49 18 91t51 73.5t75 50t91 18.5t91 -18.5t75 -50t51.5 -73.5t18.5 -91v-2q0 -49 -18.5 -91.5t-51.5 -75t-75 -51t-91 -18.5t-91 18.5t-75 51t-51 74.5 t-18 92zM631 236q2 -76 54 -128.5t128 -52.5q37 0 69.5 14.5t57.5 39t40 57.5t15 70v2q-2 74 -55 126t-127 52q-76 0 -128 -52.5t-54 -125.5v-2zM653 236q0 66 47 112.5t113 46.5t112 -47t48 -112q-2 -66 -48 -112t-112 -46t-113 46t-47 112zM709 236q0 -43 30.5 -74 t73.5 -31t74 31t31 74t-31 73.5t-74 30.5t-73.5 -30.5t-30.5 -73.5z" />
<glyph unicode="&#x26;" horiz-adv-x="759" d="M59 236v202q0 49 19.5 93t54.5 77q-35 33 -54.5 77t-19.5 95q0 49 18.5 91t51.5 75t76 51.5t92 18.5h68q33 0 32 -33v-65q0 -33 -32 -33h-68q-45 0 -76 -31t-31 -74q0 -45 31 -75.5t76 -30.5h104v104q0 33 33 33h66q33 0 32 -33v-104h107q12 0 22.5 -9.5t10.5 -23.5v-66 q0 -14 -10.5 -23t-22.5 -9h-107v-510q0 -33 -32 -33h-203q-49 0 -92 18.5t-76 51t-51.5 74.5t-18.5 92zM115 236q0 -76 53 -129.5t129 -53.5h172q8 0 8 10v535h131q8 0 8 8v4q0 10 -8 11h-131v129q0 8 -8 8h-4q-8 0 -8 -8v-129h-160q-66 0 -113 47t-47 112v-2q0 68 47 115 t113 47h37q10 0 10 8v4q0 8 -10 9h-37q-76 0 -129 -53.5t-53 -129.5v2q0 -59 32.5 -105t85.5 -67q-53 -18 -85.5 -64t-32.5 -106v-202zM137 236v202q0 64 45 113q47 47 115 47h160v-522h-160q-66 0 -113 47t-47 113zM190 236q0 -43 31 -74t76 -31h104v412h-104 q-45 0 -76 -31t-31 -74v-202z" />
<glyph unicode="'" horiz-adv-x="301" d="M59 713v399q0 33 33 33h66q33 0 32 -33v-399q0 -33 -32 -33h-66q-33 0 -33 33zM115 743q0 -8 8 -8h4q8 0 8 8v338q0 8 -8 9h-4q-8 0 -8 -9v-338z" />
<glyph unicode="(" horiz-adv-x="438" d="M59 236v540q0 49 18.5 92t51.5 75t75 50.5t91 18.5q33 0 33 -33v-66q0 -12 -9.5 -21t-23.5 -9q-43 0 -74 -31t-31 -76v-540q0 -45 31 -76t74 -31q33 0 33 -33v-63q0 -33 -33 -33q-49 0 -91 18.5t-75 50t-51.5 74.5t-18.5 93zM115 236q0 -68 43 -118t106 -63q10 0 10 8v5 q0 10 -10 10q-53 10 -90 54t-37 104v536q0 59 37 102.5t90 53.5q10 4 10 10v6q0 10 -10 6q-63 -10 -106 -60t-43 -118v-536z" />
<glyph unicode=")" horiz-adv-x="436" d="M59 33v63q0 33 33 33q43 0 74 30.5t31 76.5v540q0 45 -31 76t-74 31q-14 0 -23.5 9t-9.5 21v66q0 33 33 33q49 0 91 -18.5t75 -50.5t51.5 -75t18.5 -92v-540q0 -49 -18.5 -92.5t-51.5 -75t-75 -50t-91 -18.5q-33 0 -33 33zM115 63q0 -8 8 -8q66 12 107.5 62.5t41.5 118.5 v536q0 68 -42 118t-107 60q-8 4 -8 -6v-6q0 -6 8 -10q55 -10 92 -53.5t37 -102.5v-536q0 -59 -37 -103.5t-92 -54.5q-8 0 -8 -10v-5z" />
<glyph unicode="+" horiz-adv-x="569" d="M59 471v66q0 33 33 32h103v103q0 33 32 33h66q33 0 33 -33v-103h102q33 0 33 -32v-66q0 -33 -33 -33h-102v-102q0 -33 -33 -33h-66q-33 0 -32 33v102h-103q-33 0 -33 33zM113 502q0 -10 8 -10h127v-125q0 -10 10 -11h4q8 0 8 11v125h127q8 0 9 10v4q0 8 -9 8h-127v127 q0 8 -8 8h-4q-10 0 -10 -8v-127h-127q-8 0 -8 -8v-4z" />
<glyph unicode="," horiz-adv-x="301" d="M59 168q0 33 33 33h66q33 0 32 -33v-399q0 -33 -32 -33h-66q-33 0 -33 33v399zM115 137v-338q0 -8 8 -8h4q8 0 8 8v338q0 8 -8 8h-4q-8 0 -8 -8z" />
<glyph unicode="-" horiz-adv-x="571" d="M59 471v66q0 12 9.5 22t23.5 10h336q14 0 23.5 -10t9.5 -22v-66q0 -33 -33 -33h-336q-33 0 -33 33zM115 500q0 -8 8 -8h276q8 0 9 8v6q0 8 -9 8h-276q-8 0 -8 -8v-6z" />
<glyph unicode="." horiz-adv-x="301" d="M59 33v135q0 33 33 33h66q33 0 32 -33v-135q0 -33 -32 -33h-66q-33 0 -33 33zM115 63q0 -8 8 -8h4q8 0 8 8v74q0 10 -8 10h-4q-8 0 -8 -10v-74z" />
<glyph unicode="/" d="M59 33v203q0 25 1 39t5.5 26t14.5 26.5t29 39.5l286 378q4 6 5 10.5t1 24.5v201q0 33 33 33h66q12 0 22 -9.5t10 -23.5v-201q0 -25 -1 -40t-5 -27.5t-14 -25.5t-29 -38l-286 -381q-4 -4 -5.5 -8t-1.5 -24v-203q0 -12 -9 -22.5t-23 -10.5h-66q-14 0 -23.5 10t-9.5 23z M115 63q0 -8 8 -8h4q8 0 8 8v199q0 12 8 25l322 428q4 8 8 18t4 21v196q0 8 -8 8h-4q-10 0 -10 -8v-196q0 -12 -9 -25l-319 -430q-12 -16 -12 -37v-199z" />
<glyph unicode="0" horiz-adv-x="641" d="M59 236v2v540q0 49 18.5 91t50.5 75t75 51.5t92 18.5t91 -18.5t75 -50.5t51 -74t18 -91v-542q0 -49 -18 -92.5t-50 -76t-75 -51t-92 -18.5t-91 18.5t-75 51t-51.5 74.5t-18.5 92zM113 238q0 -76 53 -129.5t129 -53.5t129 53.5t53 129.5v540q0 76 -53 128t-129 52 t-129 -52t-53 -128v-540zM135 238v6q0 18 3 30.5t14 26.5l280 373l6 8q4 6 8.5 11t8.5 9v-464q0 -66 -47.5 -113t-112.5 -47q-66 0 -113 47t-47 113zM135 313v465q0 66 47 113t113 47t113 -47t47 -113v-14q0 -27 -17 -51l-280 -371l-6 -8q-4 -6 -8.5 -11.5t-8.5 -9.5z M190 238q0 -45 31 -76t74 -31t73.5 31t30.5 76v301l-202 -271q-4 -4 -5.5 -8t-1.5 -22zM190 475l205 270q4 6 4 10.5v22.5q0 43 -30.5 74t-73.5 31t-74 -31t-31 -74v-303z" />
<glyph unicode="1" horiz-adv-x="440" d="M59 915v66q0 33 33 33h172q27 0 46.5 -18.5t19.5 -47.5v-915q0 -12 -10.5 -22.5t-22.5 -10.5h-66q-14 0 -23 10t-9 23v850h-107q-33 0 -33 32zM115 946q0 -8 8 -8h129v-875q0 -8 8 -8h6q8 0 8 8v885q0 10 -10 10h-141q-8 0 -8 -8v-4z" />
<glyph unicode="2" d="M59 33v200q0 25 1 39.5t5.5 26.5t14.5 26.5t29 39.5l286 378q4 6 5 10.5t1 24.5q0 43 -30.5 74t-75.5 31q-43 0 -74 -31t-31 -74v-71q0 -12 -9 -22.5t-23 -10.5h-66q-14 0 -23.5 10t-9.5 23v71q0 49 18.5 91t51.5 75t75 51.5t91 18.5t92 -18.5t76 -51.5t51 -75t18 -91 q0 -25 -1 -40t-5 -27.5t-14 -25.5t-29 -38l-286 -381q-4 -4 -5.5 -8t-1.5 -25v-102h310q33 0 32 -33v-65q0 -12 -9 -22.5t-23 -10.5h-408q-14 0 -23.5 10t-9.5 23zM115 63q0 -8 8 -8h346q8 0 8 8v7q0 8 -8 8h-334v155v15v10q0 14 8 27l322 428q4 8 8 18t4 21v24v2 q0 35 -13 69t-40 58q-53 53 -129 53t-128 -52t-52 -128v-41q0 -8 8 -8h4q8 0 8 8v41q0 66 47 113t113 47t113 -47t47 -113v-2v-24q0 -12 -9 -25l-319 -430q-12 -16 -12 -39v-10v-15v-155v-15z" />
<glyph unicode="3" d="M59 238v69q0 33 33 33h66q33 0 32 -33v-69q0 -45 31 -76t74 -31q45 0 75.5 31t30.5 76v100q0 43 -30.5 73.5t-75.5 30.5q-33 0 -33 33v66q0 33 33 32q45 0 75.5 31t30.5 76v98q0 43 -30.5 74t-75.5 31q-43 0 -74 -31t-31 -74v-71q0 -12 -9 -22.5t-23 -10.5h-66 q-14 0 -23.5 10t-9.5 23v71q0 49 18.5 91t51.5 75t75 51.5t91 18.5t92 -18.5t76 -51.5t51 -75t18 -91v-98q0 -51 -19 -95t-54 -77q35 -33 54 -76t19 -94v-100q0 -49 -18 -92.5t-51 -76t-76 -51t-92 -18.5t-91 18.5t-75 51t-51.5 75.5t-18.5 93zM115 240q0 -76 52 -129.5 t128 -53.5t129 53.5t53 129.5v98q0 59 -33.5 105t-87.5 65q53 20 87 66.5t34 105.5v98q0 76 -53 128t-129 52t-128 -52t-52 -128v-41q0 -8 8 -8h4q8 0 8 8v41q0 66 47 113t113 47t113 -47t47 -113v-98q0 -59 -37 -103.5t-92 -54.5q-8 0 -9 -10v-8q0 -6 9 -10 q55 -10 92 -53.5t37 -102.5v-98q0 -66 -47.5 -113t-112.5 -47q-66 0 -113 47t-47 113v36q0 8 -8 9h-4q-8 0 -8 -9v-36z" />
<glyph unicode="4" horiz-adv-x="780" d="M59 344v98q0 23 1 36.5t6.5 25.5t14.5 25.5t28 37.5l286 379q4 6 5 10.5t1 24.5q0 33 33 33h66q33 0 32 -33q0 -25 -1 -39t-5 -26.5t-14 -27t-29 -38.5l-286 -379q-4 -6 -5.5 -9t-1.5 -20h211v105q0 33 33 33h66q33 0 32 -33v-105h105q33 0 33 -32v-66q0 -33 -33 -33 h-105v-278q0 -12 -9 -22.5t-23 -10.5h-66q-14 0 -23.5 10t-9.5 23v278h-309q-33 0 -33 33zM115 371q0 -8 8 -9h332v-303q0 -10 10 -10h4q8 0 8 10v303h129q8 0 8 9v4q0 8 -8 8h-129v129q0 8 -8 8h-4q-10 0 -10 -8v-129h-320v74q0 16 8 24l322 430q4 8 8 18.5t4 20.5v6 q0 8 -8 9h-4q-10 0 -10 -9v-6q0 -16 -9 -24l-319 -430q-12 -16 -12 -39v-86z" />
<glyph unicode="5" d="M59 238v69q0 33 33 33h66q33 0 32 -33v-69q0 -45 31 -76t76 -31q43 0 73.5 31t30.5 76v200q0 43 -30.5 74t-73.5 31h-205q-14 0 -23.5 10t-9.5 22v406q0 33 33 33h408q33 0 32 -33v-66q0 -33 -32 -32h-310v-209h107q49 0 91 -18.5t75 -50.5t51 -75t18 -92v-200 q0 -49 -18 -92.5t-51 -76t-75 -51t-91 -18.5t-92 18.5t-76 51t-51.5 75.5t-18.5 93zM115 238q0 -76 53 -129.5t129 -53.5t128 53.5t52 129.5v200q0 76 -52 129.5t-128 53.5h-160v317h332q8 0 8 8v4q0 8 -8 8h-346q-8 0 -8 -8v-344q0 -8 8 -8h174q66 0 113 -47t47 -113v-200 q0 -66 -47.5 -113t-112.5 -47q-66 0 -113 47t-47 113v38q0 8 -10 9h-4q-8 0 -8 -9v-38z" />
<glyph unicode="6" d="M59 238v540q0 49 18.5 91t51.5 75t76 51.5t92 18.5t91 -18.5t75 -51.5t51 -75t18 -91q0 -33 -32 -33h-66q-33 0 -33 33q0 43 -30.5 74t-73.5 31q-45 0 -76 -31t-31 -74v-129q50 25 107 25q49 0 91 -18.5t75 -50.5t51 -75t18 -92v-200q0 -49 -18 -92.5t-51 -76t-75 -51 t-91 -18.5t-92 18.5t-76 51t-51.5 75.5t-18.5 93zM115 238q0 -76 53 -129.5t129 -53.5t128 53.5t52 129.5v200q0 76 -52 129.5t-128 53.5q-53 0 -95 -27t-65 -70v254q0 66 47 113t113 47q59 0 102 -38t54 -93q4 -8 10 -8h4q12 0 8 10q-10 63 -60 106t-118 43q-76 0 -129 -52 t-53 -128v-540zM137 238v200q0 66 47 113t113 47t113 -47t47 -113v-200q0 -66 -47.5 -113t-112.5 -47q-66 0 -113 47t-47 113zM190 238q0 -45 31 -76t76 -31q43 0 73.5 31t30.5 76v200q0 43 -30.5 74t-73.5 31q-45 0 -76 -31t-31 -74v-200z" />
<glyph unicode="7" horiz-adv-x="641" d="M59 33v203q0 25 1 39t5.5 26t13.5 26.5t27 39.5l289 378q4 6 4 10.5v24.5v103h-307q-33 0 -33 32v66q0 33 33 33h406q33 0 32 -33v-66v-135q0 -25 -1 -40t-5 -27.5t-13 -25.5t-28 -38l-288 -381q-4 -4 -4.5 -8t-0.5 -24v-203q0 -12 -10 -22.5t-22 -10.5h-66 q-14 0 -23.5 10t-9.5 23zM113 63q0 -8 10 -8h4q8 0 8 8v197q0 14 8 27l322 428q4 8 8 18t4 21v196q0 8 -10 8h-346q-8 0 -8 -8v-4q0 -8 8 -8h334v-184q0 -16 -9 -25l-319 -430q-14 -18 -14 -39v-197z" />
<glyph unicode="8" horiz-adv-x="641" d="M59 238v200q0 102 72 170q-33 33 -52.5 76t-19.5 94v2q0 49 18.5 91t51.5 74t75 50.5t91 18.5t91 -18.5t75 -50.5t51 -74t18 -91v-2q0 -51 -19 -94t-52 -76q72 -68 71 -170v-200q0 -49 -18 -92.5t-50 -76t-75 -51t-92 -18.5t-92 18.5t-75 51t-50.5 75.5t-18.5 93z M113 238q0 -76 53 -129.5t129 -53.5t129 53.5t53 129.5v200q0 59 -33.5 105.5t-87.5 64.5q53 20 86 65.5t35 104.5v2q-2 74 -54 126t-128 52q-74 0 -127 -52t-55 -126v-2q2 -59 34.5 -104t85.5 -66q-53 -18 -86.5 -64t-33.5 -106v-200zM135 238v200q0 66 47 113t113 47 t113 -47t47 -113v-200q0 -66 -47.5 -113t-112.5 -47q-66 0 -113 47t-47 113zM135 778q2 66 48 113t112 47t113 -47t47 -113t-47.5 -111.5t-112.5 -45.5q-66 0 -112 46t-48 111zM190 238q0 -45 31 -76t74 -31t73.5 31t30.5 76v200q0 43 -30.5 74t-73.5 31t-74 -31t-31 -74 v-200zM190 778q0 -43 31 -73.5t74 -30.5t73.5 30.5t30.5 73.5t-30.5 74t-73.5 31t-74 -31t-31 -74z" />
<glyph unicode="9" horiz-adv-x="641" d="M59 238q0 33 33 32h66q33 0 32 -32q0 -45 31 -76t74 -31t74.5 31t31.5 76v229q-25 -10 -51 -17.5t-55 -7.5q-49 0 -91 18.5t-75 51.5t-51.5 76t-18.5 92v98q0 49 18.5 91t51.5 75t75 51.5t91 18.5t92 -18.5t76 -51.5t51 -75t18 -91v-540q0 -49 -18 -92.5t-51 -76t-76 -51 t-92 -18.5t-91 18.5t-75 51t-51.5 75.5t-18.5 93zM113 680q0 -76 53 -129t129 -53q53 0 95 26.5t65 67.5v-354q0 -66 -47.5 -113t-112.5 -47q-59 0 -102 37t-54 92q-4 8 -10 8h-6q-10 0 -6 -8q10 -66 60 -109t118 -43q76 0 129 53.5t53 129.5v540q0 76 -53 128t-129 52 t-129 -52t-53 -128v-98zM135 680v98q0 66 47 113t113 47t113 -47t47 -113v-98q0 -66 -47.5 -113t-112.5 -47q-66 0 -113 47t-47 113zM190 680q0 -45 31 -76t74 -31t74.5 31t31.5 76v98q0 43 -31.5 74t-74.5 31t-74 -31t-31 -74v-98z" />
<glyph unicode=":" horiz-adv-x="301" d="M59 33v135q0 33 33 33h66q33 0 32 -33v-135q0 -33 -32 -33h-66q-33 0 -33 33zM59 528v136q0 33 33 32h66q33 0 32 -32v-136q0 -33 -32 -32h-66q-33 0 -33 32zM115 63q0 -8 8 -8h4q8 0 8 8v74q0 10 -8 10h-4q-8 0 -8 -10v-74zM115 559q0 -8 8 -8h4q8 0 8 8v74q0 10 -8 10 h-4q-8 0 -8 -10v-74z" />
<glyph unicode=";" horiz-adv-x="301" d="M59 168q0 33 33 33h66q33 0 32 -33v-399q0 -33 -32 -33h-66q-33 0 -33 33v399zM59 528v136q0 33 33 32h66q33 0 32 -32v-136q0 -33 -32 -32h-66q-33 0 -33 32zM115 137v-338q0 -8 8 -8h4q8 0 8 8v338q0 8 -8 8h-4q-8 0 -8 -8zM115 559q0 -8 8 -8h4q8 0 8 8v74q0 10 -8 10 h-4q-8 0 -8 -10v-74z" />
<glyph unicode="=" horiz-adv-x="571" d="M59 342v66q0 12 9.5 22t23.5 10h336q14 0 23.5 -10t9.5 -22v-66q0 -33 -33 -33h-336q-33 0 -33 33zM59 602v66q0 12 9.5 22t23.5 10h336q14 0 23.5 -10t9.5 -22v-66q0 -33 -33 -33h-336q-33 0 -33 33zM115 371q0 -8 8 -9h276q8 0 9 9v6q0 8 -9 8h-276q-8 0 -8 -8v-6z M115 631q0 -8 8 -8h276q8 0 9 8v6q0 8 -9 8h-276q-8 0 -8 -8v-6z" />
<glyph unicode="?" horiz-adv-x="641" d="M59 43q0 33 33 33h66q33 0 32 -33v-135q0 -33 -32 -33h-66q-33 0 -33 33v135zM59 238q0 25 1 39t5.5 26t14.5 26.5t29 39.5l286 379q4 6 5 10t1 24q0 43 -30.5 74t-75.5 31q-43 0 -74 -31t-31 -74v-71q0 -12 -9 -22.5t-23 -10.5h-66q-14 0 -23.5 10t-9.5 23v71 q0 49 18.5 91t51.5 75t75 51.5t91 18.5t92 -18.5t76 -51.5t51 -75t18 -91q0 -25 -1 -40t-5 -27.5t-14 -25.5t-29 -38l-286 -381q-4 -6 -5.5 -10t-1.5 -22q0 -33 -32 -33h-66q-33 0 -33 33zM115 12v-75q0 -8 8 -9h4q8 0 8 9v75q0 8 -8 8h-4q-8 0 -8 -8zM115 268q0 -2 1 -6 t5 -4h6q6 0 10 8q4 14 6 17l322 430q4 8 8 18t4 21v12v12q0 76 -53 129t-129 53q-37 0 -69.5 -14t-57.5 -38.5t-39 -58.5t-14 -71v-39q0 -8 8 -8h4q8 0 8 8v39q0 66 47 113t113 47t113 -46t47 -112v-2v-12v-12q0 -16 -9 -25l-319 -430q-8 -12 -12 -29zM477 774v2v-2z" />
<glyph unicode="@" horiz-adv-x="1236" d="M59 236v540q0 49 18.5 92t51.5 75t75 50.5t91 18.5h430q49 0 91 -18.5t75 -50.5t51.5 -75t18.5 -92v-325q0 -49 -18.5 -92.5t-51.5 -76t-75 -51t-91 -18.5h-78q-14 0 -23.5 10t-9.5 23v182h-208v-180v-2q0 -12 -10.5 -22.5t-22.5 -10.5h-66q-14 0 -23.5 10t-9.5 23v2v315 q0 49 18.5 91t50.5 75t75 51.5t92 18.5t92 -18.5t75 -51.5t50 -75t18 -91v-217q37 8 60.5 37t23.5 68v325q0 43 -30.5 74t-73.5 31h-430q-43 0 -74 -31t-31 -74v-540q0 -43 31 -74t74 -31h328q14 0 23 -10t9 -23v-65q0 -33 -32 -33h-328q-49 0 -91 18.5t-75 50t-51.5 74.5 t-18.5 93zM115 236q0 -76 52 -129.5t128 -53.5h297q10 0 10 10v5q0 8 -10 8h-297q-66 0 -113 47t-47 113v540q0 66 47 113t113 47h430q66 0 113 -47t47 -113v-325q0 -66 -47 -113t-113 -47h-33v272q0 37 -14 70t-39 57.5t-58.5 38.5t-70.5 14t-70.5 -14t-58.5 -38.5 t-39 -57.5t-14 -70v-287q0 -8 10 -8h4q8 0 8 8v207h320v-207q0 -8 8 -8h47q76 0 128 53.5t52 129.5v325q0 76 -52 129t-128 53h-430q-76 0 -128 -53t-52 -129v-540zM340 246v2v-2zM350 506v57q0 33 12.5 61.5t34 50t51 34t62.5 12.5t62.5 -12.5t51 -34t34 -50t12.5 -61.5 v-57h-320zM406 559h208v4q0 43 -30.5 74t-73.5 31t-73.5 -31t-30.5 -74v-4z" />
<glyph unicode="A" d="M59 33v743q0 49 18.5 91t51.5 75t76 51.5t92 18.5t91 -18.5t75 -51.5t51 -75t18 -91v-743q0 -33 -32 -33h-66q-33 0 -33 33v407h-211v-407q0 -33 -32 -33h-66q-33 0 -33 33zM115 61q0 -8 8 -8h4q10 0 10 8v435h320v-435q0 -8 8 -8h4q8 0 8 8v715q0 76 -52 129t-128 53 t-129 -53t-53 -129v-715zM137 518v258q0 66 47 113t113 47t113 -47t47 -113v-258h-320zM190 571h211v205q0 43 -30.5 74t-73.5 31q-45 0 -76 -31t-31 -74v-205z" />
<glyph unicode="B" d="M59 66v882q0 29 18.5 47.5t47.5 18.5h172q49 0 91 -18.5t75 -51.5t51 -76t18 -92v-98q0 -102 -73 -170q74 -68 73 -172v-98q0 -49 -18 -92.5t-51 -76t-75 -51t-91 -18.5h-172q-29 0 -47.5 19.5t-18.5 46.5zM115 66q0 -10 10 -11h172q76 0 129 53.5t53 129.5v98 q0 59 -33.5 105t-87.5 67q53 18 87 64t34 106v98q0 76 -53 129t-129 53h-172q-10 0 -10 -10v-882zM137 78v418h160q66 0 113 -47.5t47 -112.5v-98q0 -66 -47.5 -113t-112.5 -47h-160zM137 518v420h160q66 0 113 -47t47 -115v-98q0 -66 -47.5 -113t-112.5 -47h-160zM190 133 h107q43 0 73.5 31t30.5 74v98q0 45 -30.5 75.5t-73.5 30.5h-107v-309zM190 573h107q43 0 73.5 31t30.5 74v98q0 45 -30.5 76t-73.5 31h-107v-310z" />
<glyph unicode="C" horiz-adv-x="620" d="M59 236v542q0 49 18.5 91t50.5 75t75 51.5t92 18.5t91 -18.5t75 -51.5t51 -75t18 -91v-69q0 -33 -32 -33h-66q-33 0 -33 33v69q0 43 -30.5 74t-73.5 31t-74 -31t-31 -74v-542q0 -43 31 -74t74 -31t73.5 31t30.5 74v75q0 33 33 33h66q33 0 32 -33v-75q0 -49 -18 -91.5 t-51 -75t-75 -51t-91 -18.5t-92 18.5t-75 51t-50.5 74.5t-18.5 92zM113 236q0 -76 53 -128.5t129 -52.5t128 52.5t52 128.5v45q0 10 -8 10h-4q-10 0 -10 -10v-45q0 -66 -46.5 -113t-111.5 -47q-66 0 -113 47t-47 113v542q0 66 47 112t113 46t112 -46t46 -112v-16v-23 q0 -10 10 -10h4q8 0 8 10v23v16q0 76 -52 128t-128 52t-129 -52t-53 -128v-542z" />
<glyph unicode="D" d="M59 66v882q0 29 19.5 47.5t46.5 18.5h172q49 0 92 -18.5t75 -51.5t50 -76t18 -92v-538q0 -49 -18 -92.5t-50 -76t-75 -51t-92 -18.5h-172q-27 0 -46.5 19.5t-19.5 46.5zM115 66q0 -10 10 -11h172q76 0 129 53.5t53 129.5v538q0 76 -53 129t-129 53h-172q-10 0 -10 -10 v-882zM137 78v860h160q66 0 113 -47t47 -115v-538q0 -66 -47.5 -113t-112.5 -47h-160zM190 133h107q43 0 73.5 31t30.5 74v538q0 45 -30.5 76t-73.5 31h-107v-750z" />
<glyph unicode="E" horiz-adv-x="512" d="M59 66v882q0 29 18.5 47.5t47.5 18.5h244q33 0 32 -33v-66q0 -33 -32 -32h-179v-310h179q33 0 32 -32v-66q0 -33 -32 -33h-179v-311h179q33 0 32 -33v-65q0 -33 -32 -33h-244q-29 0 -47.5 19.5t-18.5 46.5zM115 66q0 -10 10 -11h213q8 0 8 8v5q0 10 -8 10h-203v420h203 q8 0 8 8v4q0 8 -8 8h-203v420h203q8 0 8 8v4q0 8 -8 8h-213q-10 0 -10 -10v-882z" />
<glyph unicode="F" horiz-adv-x="512" d="M59 33v915q0 29 18.5 47.5t47.5 18.5h244q33 0 32 -33v-66q0 -33 -32 -32h-179v-310h179q33 0 32 -32v-66q0 -33 -32 -33h-179v-409q0 -33 -32 -33h-66q-33 0 -33 33zM115 63q0 -8 8 -8h4q10 0 10 8v435h201q8 0 8 8v4q0 8 -8 8h-201v420h201q8 0 8 8v4q0 8 -8 8h-213 q-10 0 -10 -10v-885z" />
<glyph unicode="G" horiz-adv-x="641" d="M59 233v543q0 49 18.5 92t51.5 75t75 50.5t91 18.5t91 -18.5t75 -50.5t51 -75t18 -92v-69q0 -33 -32 -33h-66q-33 0 -33 33v69q0 45 -30.5 75t-73.5 30t-74 -30t-31 -75v-543q0 -43 31 -73.5t74 -30.5t73.5 30.5t30.5 73.5v211h-71q-14 0 -23.5 9.5t-9.5 21.5v66 q0 33 33 32h170q33 0 32 -32v-308q0 -49 -18 -91t-51 -73.5t-75 -50t-91 -18.5t-91 18.5t-75 50t-51.5 73.5t-18.5 91zM115 233q0 -74 52 -127t128 -53t128 53.5t52 126.5v279q0 8 -8 8h-109q-8 0 -8 -8v-6q0 -8 8 -8h97v-265q0 -33 -12.5 -61.5t-34 -50t-51 -33.5 t-62.5 -12t-62.5 12t-51 33.5t-34 50.5t-12.5 61v543q0 66 47 113t113 47t113 -47t47 -113v-39q0 -8 8 -8h4q8 0 8 8v39q0 76 -52 129t-128 53t-128 -53t-52 -129v-543z" />
<glyph unicode="H" horiz-adv-x="641" d="M59 33v948q0 33 33 33h66q33 0 32 -33v-408h209v408q0 14 10.5 23.5t22.5 9.5h66q33 0 32 -33v-948q0 -33 -32 -33h-66q-12 0 -22.5 9t-10.5 24v409h-209v-409q0 -33 -32 -33h-66q-33 0 -33 33zM113 63q0 -8 10 -8h4q8 0 8 8v433h320v-433q0 -8 8 -8h6q8 0 8 8v887 q0 8 -8 8h-6q-8 0 -8 -8v-432h-320v432q0 8 -8 8h-4q-10 0 -10 -8v-887z" />
<glyph unicode="I" horiz-adv-x="301" d="M59 33v948q0 33 33 33h66q12 0 22 -9.5t10 -23.5v-948q0 -33 -32 -33h-66q-33 0 -33 33zM113 63q0 -8 10 -8h4q8 0 8 8v887q0 8 -8 8h-4q-10 0 -10 -8v-887z" />
<glyph unicode="J" horiz-adv-x="641" d="M59 236v75q0 14 10.5 23.5t22.5 9.5h66q33 0 32 -33v-75q0 -43 31 -74t74 -31q45 0 74.5 31t29.5 74v745q0 14 10.5 23.5t22.5 9.5h66q33 0 32 -33v-745q0 -49 -18 -91.5t-50 -75t-75 -51t-92 -18.5t-91 18.5t-75 51t-51.5 74.5t-18.5 92zM115 236q0 -76 53 -128.5 t127 -52.5q76 0 129 52.5t53 128.5v714q0 8 -10 8h-4q-8 0 -8 -8v-714q0 -66 -47.5 -113t-112.5 -47q-33 0 -61.5 12t-50 33.5t-34 51.5t-12.5 63v45q0 10 -10 10h-4q-8 0 -8 -10v-45z" />
<glyph unicode="K" d="M59 33v409v131v408q0 33 33 33h66q33 0 32 -33v-408h105q45 0 75.5 31t30.5 76v301q0 33 33 33h66q33 0 32 -33v-301q0 -51 -19 -95t-54 -77q35 -33 54 -76t19 -94v-305q0 -12 -9 -22.5t-23 -10.5h-66q-14 0 -23.5 10t-9.5 23v305q0 43 -30.5 73.5t-75.5 30.5h-105v-409 q0 -12 -9 -22.5t-23 -10.5h-66q-14 0 -23.5 10t-9.5 23zM115 63q0 -8 8 -8h4q8 0 8 8v435h160q66 0 113 -47.5t47 -112.5v-275q0 -8 10 -8h4q8 0 8 8v275q0 59 -32.5 105t-86.5 65q53 20 86 66.5t33 105.5v270q0 8 -8 8h-4q-10 0 -10 -8v-270q0 -66 -47.5 -113t-112.5 -47 h-160v430q0 8 -8 8h-4q-8 0 -8 -8v-430v-22v-435z" />
<glyph unicode="L" horiz-adv-x="489" d="M59 66v915q0 33 33 33h66q12 0 22 -9.5t10 -23.5v-850h177q33 0 32 -33v-65q0 -12 -9 -22.5t-23 -10.5h-242q-29 0 -47.5 19.5t-18.5 46.5zM113 66q0 -10 12 -11h211q10 0 10 8v7q0 8 -10 8h-201v872q0 8 -8 8h-6q-8 0 -8 -8v-884z" />
<glyph unicode="M" horiz-adv-x="985" d="M59 33v745q0 49 18.5 91t51.5 75t76 51.5t92 18.5t93 -19.5t77 -54.5q33 35 77 54.5t93 19.5t92 -18.5t76 -51.5t51 -75t18 -91v-745q0 -12 -9 -22.5t-23 -10.5h-66q-14 0 -23.5 10t-9.5 23v745q0 43 -30.5 74t-75.5 31q-43 0 -74 -31t-31 -74v-745q0 -12 -9 -22.5 t-23 -10.5h-66q-14 0 -23.5 10t-9.5 23v745q0 43 -30.5 74t-73.5 31q-45 0 -76 -31t-31 -74v-745q0 -12 -9 -22.5t-23 -10.5h-66q-12 0 -22.5 10t-10.5 23zM115 63q0 -8 8 -8h4q10 0 10 8v715q0 66 47 113t113 47t113 -47t47 -113v-715q0 -8 8 -8h4q8 0 8 8v715q0 66 47 113 t113 47t113 -47t47 -113v-715q0 -8 10 -8h4q8 0 8 8v715q0 76 -53 128t-129 52q-59 0 -105.5 -32.5t-64.5 -85.5q-18 53 -64.5 85.5t-105.5 32.5q-76 0 -129 -52t-53 -128v-715z" />
<glyph unicode="N" d="M59 33v745q0 49 18.5 91t51.5 75t76 51.5t92 18.5t91 -18.5t75 -51.5t51 -75t18 -91v-745q0 -12 -9 -22.5t-23 -10.5h-66q-14 0 -23.5 10t-9.5 23v745q0 43 -30.5 74t-73.5 31q-45 0 -76 -31t-31 -74v-745q0 -12 -9 -22.5t-23 -10.5h-66q-14 0 -23.5 10t-9.5 23zM115 63 q0 -8 8 -8h4q10 0 10 8v715q0 66 47 113t113 47t113 -47t47 -113v-715q0 -8 8 -8h4q8 0 8 8v715q0 76 -52 128t-128 52t-129 -52t-53 -128v-715z" />
<glyph unicode="O" d="M59 238v540q0 49 18.5 91t51.5 75t76 51.5t92 18.5t91 -18.5t75 -51.5t51 -75t18 -91v-540q0 -49 -18 -92.5t-51 -76t-75 -51t-91 -18.5t-92 18.5t-76 51t-51.5 75.5t-18.5 93zM115 238q0 -76 53 -129.5t129 -53.5t128 53.5t52 129.5v540q0 76 -52 128t-128 52t-129 -52 t-53 -128v-540zM137 238v540q0 66 47 113t113 47t113 -47t47 -113v-540q0 -66 -47.5 -113t-112.5 -47q-66 0 -113 47t-47 113zM190 238q0 -45 31 -76t76 -31q43 0 73.5 31t30.5 76v540q0 43 -30.5 74t-73.5 31q-45 0 -76 -31t-31 -74v-540z" />
<glyph unicode="P" horiz-adv-x="600" d="M59 33v409v131v408q0 14 10.5 23.5t22.5 9.5h205q49 0 91 -18.5t75 -51.5t51 -75t18 -91v-98q0 -49 -18 -92t-51 -76t-75 -51.5t-91 -18.5h-107v-409q0 -12 -9 -22.5t-23 -10.5h-66q-12 0 -22.5 10t-10.5 23zM115 63q0 -8 8 -8h6q8 0 8 8v435h160q76 0 129 53t53 129v98 q0 76 -53 128t-129 52h-174q-8 0 -8 -8v-430v-22v-435zM137 520v418h160q66 0 113 -47t47 -113v-98q0 -66 -47.5 -113t-112.5 -47h-160zM190 573h107q43 0 73.5 31t30.5 76v98q0 43 -30.5 74t-73.5 31h-107v-310z" />
<glyph unicode="Q" d="M59 238v540q0 49 18.5 92t50.5 75t75 50.5t92 18.5t91 -18.5t75 -50.5t51 -75t18 -92v-540q0 -80 -48 -142.5t-122 -85.5v-106q0 -33 -32 -33h-66q-33 0 -33 33v106q-74 23 -122 85.5t-48 142.5zM113 238q0 -72 49 -124.5t121 -56.5v-123q0 -8 10 -8h4q8 0 8 8v123 q72 4 122 56.5t50 124.5v540q0 76 -53 129.5t-129 53.5t-129 -53.5t-53 -129.5v-540zM135 238v540q0 66 47 113t113 47t113 -47t47 -113v-540q0 -66 -47.5 -113t-112.5 -47q-66 0 -113 47t-47 113zM190 238q0 -43 31 -74t74 -31t73.5 31t30.5 74v540q0 43 -30.5 74t-73.5 31 t-74 -31t-31 -74v-540z" />
<glyph unicode="R" horiz-adv-x="630" d="M49 33v915q0 29 18.5 47.5t47.5 18.5h170q49 0 92 -18.5t74.5 -51.5t50 -75t18.5 -91v-98q0 -104 -71 -172q72 -68 71 -170v-305q0 -12 -9 -22.5t-24 -10.5h-65q-14 0 -23.5 10t-9.5 23v305q0 43 -30.5 73.5t-73.5 30.5h-105v-409q0 -12 -10 -22.5t-23 -10.5h-65 q-14 0 -23.5 10t-9.5 23zM102 63q0 -8 9 -8h6q8 0 8 8v435h160q66 0 112.5 -47.5t46.5 -112.5v-275q0 -8 9 -8h4q10 0 10 8v275q0 59 -34 105t-87 65q53 20 87 66.5t34 105.5v98q0 76 -53.5 128t-128.5 52h-170q-12 0 -13 -10v-885zM125 520v418h160q66 0 112.5 -47 t46.5 -113v-98q0 -66 -47 -113t-112 -47h-160zM180 573h105q43 0 73.5 31t30.5 76v98q0 43 -30.5 74t-73.5 31h-105v-310z" />
<glyph unicode="S" horiz-adv-x="600" d="M39 236v69q0 33 33 33h65q33 0 33 -33v-69q0 -43 30.5 -74t73.5 -31t74 31t31 74q0 20 -1 24t-5 10l-285 377q-18 25 -28.5 39t-14.5 26.5t-5 27t-1 38.5q0 49 18.5 91t51 75t74.5 51.5t91 18.5t91.5 -18.5t75 -51.5t51 -75t18.5 -91v-69q0 -33 -33 -33h-65q-33 0 -33 33 v69q0 43 -31 74t-74 31t-73.5 -31t-30.5 -74q0 -20 1 -24t5 -11l285 -376q18 -25 28.5 -39.5t14.5 -26.5t5 -26.5t1 -38.5q0 -49 -18.5 -91.5t-51 -75t-74.5 -51t-92 -18.5q-49 0 -91 18.5t-74.5 51t-51 74.5t-18.5 92zM94 236q0 -76 52.5 -128.5t127.5 -52.5q78 0 127 54 q53 49 54 127v2v24q0 10 -3 20.5t-10 16.5l-319 428q-8 12 -8 25v24v2q0 66 46.5 113t112.5 47t113 -47t47 -113v-39q0 -10 8 -10h4q8 0 9 10v39q0 76 -52.5 128t-128.5 52q-78 0 -127 -53q-27 -25 -40 -58.5t-13 -68.5v-2v2v-2v-24q0 -10 3 -20.5t9 -16.5l320 -428 q8 -12 8 -25v-24v-2v2v-2q0 -66 -47 -113t-113 -47t-112.5 47t-46.5 113v38q0 10 -9 11h-4q-8 0 -8 -11v-38z" />
<glyph unicode="T" horiz-adv-x="509" d="M39 915v66q0 33 33 33h315q33 0 33 -33v-66q0 -33 -33 -32h-92v-850q0 -12 -9.5 -22.5t-23.5 -10.5h-65q-14 0 -23.5 10t-9.5 23v850h-92q-33 0 -33 32zM94 946q0 -8 8 -8h117v-875q0 -8 8 -8h4q8 0 9 8v875h116q8 0 9 8v4q0 8 -9 8h-254q-8 0 -8 -8v-4z" />
<glyph unicode="U" d="M59 238v743q0 14 10.5 23.5t22.5 9.5h66q33 0 32 -33v-743q0 -45 31 -76t76 -31q43 0 73.5 31t30.5 76v743q0 33 33 33h66q33 0 32 -33v-743q0 -49 -18 -92.5t-51 -76t-75 -51t-91 -18.5t-92 18.5t-76 51t-51.5 75.5t-18.5 93zM115 238q0 -76 53 -129.5t129 -53.5 t129 53.5t53 129.5v712q0 8 -10 8h-4q-8 0 -8 -8v-712q0 -66 -47.5 -113t-112.5 -47q-66 0 -113 47t-47 113v712q0 8 -8 8h-6q-8 0 -8 -8v-712z" />
<glyph unicode="V" d="M59 342v637q0 33 33 33h66q33 0 32 -33v-637q0 -18 7 -33l98 -176l100 176q2 8 3 15.5t1 17.5v637q0 14 10.5 23.5t22.5 9.5h66q33 0 32 -33v-637q0 -70 -38 -131l-111 -195q-10 -16 -29 -16h-114q-18 0 -29 16l-111 195q-39 61 -39 131zM113 344q0 -2 4 -30.5t20 -57.5 l111 -197q6 -6 10 -6h74q4 0 10 6l111 197q18 29 21 57.5t3 30.5v604q0 8 -10 8h-4q-8 0 -8 -8v-604q0 -14 -2 -27q-2 -10 -6.5 -24t-12.5 -27l-108 -190h-62l-108 190q-8 12 -12.5 26.5t-6.5 24.5q-2 12 -2 27v604q0 8 -8 8h-4q-10 0 -10 -8v-604z" />
<glyph unicode="W" horiz-adv-x="983" d="M59 344v635q0 33 33 33h66q33 0 32 -33v-635q0 -16 7 -35l98 -174l100 174q6 18 6 35v635q0 33 33 33h66q12 0 22 -9.5t10 -23.5v-635q0 -10 1.5 -17.5l3.5 -17.5l100 -174l98 174q6 18 6 35v635q0 33 33 33h66q33 0 32 -33v-635q0 -74 -38 -131l-111 -197 q-12 -16 -29 -16h-114q-16 0 -29 16l-84 152l-86 -152q-12 -16 -29 -16h-114q-18 0 -27 16l-113 197q-39 57 -39 131zM115 346q0 -2 3 -30.5t19 -59.5l113 -195q2 -6 8 -6h74q6 0 10 6l113 195q4 8 6 14t6 15q2 -12 12 -29l111 -195q2 -6 10 -6h74q8 0 8 6l113 195 q16 31 20 59.5t4 30.5v604q0 8 -10 8h-4q-8 0 -8 -8v-604q0 -14 -2 -27q-2 -10 -6.5 -24t-12.5 -27l-108 -190h-62l-108 190q-8 12 -12.5 26.5t-6.5 24.5q-2 12 -2 27v604q0 8 -8 8h-4q-10 0 -10 -8v-604q0 -14 -2 -27q-2 -10 -6.5 -24t-12.5 -27l-108 -190h-62l-108 190 q-8 12 -12.5 26.5t-6.5 24.5q-2 12 -2 27v604q0 8 -8 8h-4q-8 0 -8 -8v-604z" />
<glyph unicode="X" d="M59 33v127q0 74 41 131l119 213l-121 213q-39 57 -39 131v133q0 33 33 33h66q33 0 32 -33v-133q0 -16 7 -35l98 -174l100 174q6 18 6 35v133q0 33 33 33h66q33 0 32 -33v-133q0 -74 -40 -131l-119 -213l119 -213q41 -57 40 -131v-127q0 -12 -9 -22.5t-23 -10.5h-66 q-14 0 -23.5 10t-9.5 23v127q0 18 -6 35l-100 176l-98 -176q-6 -16 -7 -35v-127q0 -12 -9 -22.5t-23 -10.5h-66q-14 0 -23.5 10t-9.5 23zM115 66q0 -10 8 -11h4q8 0 8 11v94q0 23 10 53l2 4l148 264l149 -264l2 -4q8 -25 9 -53v-94q0 -10 10 -11h4q8 0 8 11v94q0 55 -31 102 l-137 242l137 241v3q31 43 31 100v102q0 8 -8 8h-4q-10 0 -10 -8v-102q0 -29 -9 -51l-2 -6l-149 -263l-148 263l-2 6q-10 27 -10 51v102q0 8 -8 8h-4q-8 0 -8 -8v-102q0 -57 30 -100v-3l138 -241l-138 -242q-31 -47 -30 -102v-94z" />
<glyph unicode="Y" horiz-adv-x="602" d="M39 680v301q0 33 33 33h65q33 0 33 -33v-301q0 -45 30.5 -76t75.5 -31q43 0 74 31t31 76v301q0 33 33 33h65q33 0 33 -33v-301q0 -82 -48 -143.5t-122 -83.5v-420q0 -12 -10 -22.5t-23 -10.5h-65q-14 0 -23.5 10t-9.5 23v420q-76 23 -124 84t-48 143zM94 680 q0 -74 49.5 -126t120.5 -56v-435q0 -8 8 -8h7q8 0 8 8v435q72 4 121 56t49 126v270q0 8 -8 8h-5q-10 0 -10 -8v-270q0 -66 -46 -113t-112 -47t-112.5 47t-46.5 113v270q0 8 -11 8h-4q-8 0 -8 -8v-270z" />
<glyph unicode="Z" horiz-adv-x="620" d="M59 33v203q0 25 1 39t5.5 26t13.5 26.5t27 39.5l289 378q4 6 4 10.5v24.5v103h-307q-33 0 -33 32v66q0 33 33 33h406q33 0 32 -33v-66v-135q0 -25 -1 -40t-5 -27.5t-13 -25.5t-28 -38l-286 -381q-4 -4 -5.5 -8t-1.5 -24v-105h308q33 0 32 -33v-65q0 -12 -9 -22.5 t-23 -10.5h-406q-14 0 -23.5 10t-9.5 23zM113 63q0 -8 10 -8h346q8 0 8 8v7q0 8 -8 8h-334v182q0 14 8 27l322 428q4 8 8 18t4 21v196q0 8 -10 8h-346q-8 0 -8 -8v-4q0 -8 8 -8h334v-184q0 -16 -9 -25l-319 -430q-14 -18 -14 -39v-197z" />
<glyph unicode="[" horiz-adv-x="509" d="M59 33v948q0 33 33 33h275q33 0 32 -33v-66q0 -33 -32 -32h-177v-752h177q33 0 32 -33v-65q0 -12 -9 -22.5t-23 -10.5h-275q-14 0 -23.5 10t-9.5 23zM113 66q0 -10 12 -11h213q8 0 8 8v7q0 8 -8 8h-203v864h203q8 0 8 8v4q0 10 -8 11h-213q-12 0 -12 -13v-886z" />
<glyph unicode="\" d="M59 780v201q0 33 33 33h66q33 0 32 -33v-201q0 -20 1.5 -24t5.5 -11l286 -378q18 -25 28.5 -39.5t14.5 -26.5t5 -26.5t1 -38.5v-203q0 -12 -10 -22.5t-22 -10.5h-66q-14 0 -23.5 10t-9.5 23v203q0 20 -1 24t-5 8l-286 381q-18 25 -28.5 38t-15 25.5t-5.5 28t-1 39.5z M115 754q0 -10 3 -20.5t9 -18.5l319 -428q8 -12 9 -25v-199q0 -8 10 -8h4q8 0 8 8v199q0 8 -4 18.5t-8 18.5l-322 430q-8 12 -8 25v196q0 8 -8 8h-4q-8 0 -8 -8v-196z" />
<glyph unicode="]" horiz-adv-x="509" d="M59 33v65q0 33 33 33h178v752h-178q-33 0 -33 32v66q0 33 33 33h277q12 0 22 -9.5t10 -23.5v-948q0 -12 -10 -22.5t-22 -10.5h-277q-14 0 -23.5 10t-9.5 23zM113 63q0 -8 10 -8h213q10 0 10 11v886q0 12 -10 13h-213q-10 0 -10 -11v-4q0 -8 10 -8h201v-864h-201 q-10 0 -10 -8v-7z" />
<glyph unicode="^" horiz-adv-x="612" d="M62.5 1161q-7.5 10 3.5 27l118 209q8 14 24.5 24.5t33.5 12.5l12 1t26.5 1t26.5 -1l12 -1q16 -2 33 -12.5t25 -24.5l119 -209q10 -16 3 -26.5t-26 -10.5h-63q-18 0 -37 10t-29 27l-63 115l-64 -115q-10 -16 -29.5 -26.5t-35.5 -10.5h-64q-18 0 -25.5 10zM141 1214 q-2 -8 4 -8h9q8 0 14 8l82 146h61l82 -146q2 -8 15 -8h8q6 0 4 8l-90 160q-8 8 -15 8h-69q-10 0 -15 -8z" />
<glyph unicode="`" horiz-adv-x="452" d="M65 1425.5q7 10.5 25 10.5h64q18 0 36.5 -10.5t28.5 -26.5l119 -211q10 -16 3 -26.5t-26 -10.5h-63q-18 0 -36.5 10t-29.5 27l-118 211q-10 16 -3 26.5zM143 1374l93 -162q2 -6 12 -6h8q8 0 6 6l-92 162q-4 8 -12 8h-11q-8 0 -4 -8z" />
<glyph unicode="a" d="M59 33v743q0 49 18.5 91t51.5 75t76 51.5t92 18.5t91 -18.5t75 -51.5t51 -75t18 -91v-743q0 -33 -32 -33h-66q-33 0 -33 33v407h-211v-407q0 -33 -32 -33h-66q-33 0 -33 33zM115 61q0 -8 8 -8h4q10 0 10 8v435h320v-435q0 -8 8 -8h4q8 0 8 8v715q0 76 -52 129t-128 53 t-129 -53t-53 -129v-715zM137 518v258q0 66 47 113t113 47t113 -47t47 -113v-258h-320zM190 571h211v205q0 43 -30.5 74t-73.5 31q-45 0 -76 -31t-31 -74v-205z" />
<glyph unicode="b" d="M59 66v882q0 29 18.5 47.5t47.5 18.5h172q49 0 91 -18.5t75 -51.5t51 -76t18 -92v-98q0 -102 -73 -170q74 -68 73 -172v-98q0 -49 -18 -92.5t-51 -76t-75 -51t-91 -18.5h-172q-29 0 -47.5 19.5t-18.5 46.5zM115 66q0 -10 10 -11h172q76 0 129 53.5t53 129.5v98 q0 59 -33.5 105t-87.5 67q53 18 87 64t34 106v98q0 76 -53 129t-129 53h-172q-10 0 -10 -10v-882zM137 78v418h160q66 0 113 -47.5t47 -112.5v-98q0 -66 -47.5 -113t-112.5 -47h-160zM137 518v420h160q66 0 113 -47t47 -115v-98q0 -66 -47.5 -113t-112.5 -47h-160zM190 133 h107q43 0 73.5 31t30.5 74v98q0 45 -30.5 75.5t-73.5 30.5h-107v-309zM190 573h107q43 0 73.5 31t30.5 74v98q0 45 -30.5 76t-73.5 31h-107v-310z" />
<glyph unicode="c" horiz-adv-x="620" d="M59 236v542q0 49 18.5 91t50.5 75t75 51.5t92 18.5t91 -18.5t75 -51.5t51 -75t18 -91v-69q0 -33 -32 -33h-66q-33 0 -33 33v69q0 43 -30.5 74t-73.5 31t-74 -31t-31 -74v-542q0 -43 31 -74t74 -31t73.5 31t30.5 74v75q0 33 33 33h66q33 0 32 -33v-75q0 -49 -18 -91.5 t-51 -75t-75 -51t-91 -18.5t-92 18.5t-75 51t-50.5 74.5t-18.5 92zM113 236q0 -76 53 -128.5t129 -52.5t128 52.5t52 128.5v45q0 10 -8 10h-4q-10 0 -10 -10v-45q0 -66 -46.5 -113t-111.5 -47q-66 0 -113 47t-47 113v542q0 66 47 112t113 46t112 -46t46 -112v-16v-23 q0 -10 10 -10h4q8 0 8 10v23v16q0 76 -52 128t-128 52t-129 -52t-53 -128v-542z" />
<glyph unicode="d" d="M59 66v882q0 29 19.5 47.5t46.5 18.5h172q49 0 92 -18.5t75 -51.5t50 -76t18 -92v-538q0 -49 -18 -92.5t-50 -76t-75 -51t-92 -18.5h-172q-27 0 -46.5 19.5t-19.5 46.5zM115 66q0 -10 10 -11h172q76 0 129 53.5t53 129.5v538q0 76 -53 129t-129 53h-172q-10 0 -10 -10 v-882zM137 78v860h160q66 0 113 -47t47 -115v-538q0 -66 -47.5 -113t-112.5 -47h-160zM190 133h107q43 0 73.5 31t30.5 74v538q0 45 -30.5 76t-73.5 31h-107v-750z" />
<glyph unicode="e" horiz-adv-x="512" d="M59 66v882q0 29 18.5 47.5t47.5 18.5h244q33 0 32 -33v-66q0 -33 -32 -32h-179v-310h179q33 0 32 -32v-66q0 -33 -32 -33h-179v-311h179q33 0 32 -33v-65q0 -33 -32 -33h-244q-29 0 -47.5 19.5t-18.5 46.5zM115 66q0 -10 10 -11h213q8 0 8 8v5q0 10 -8 10h-203v420h203 q8 0 8 8v4q0 8 -8 8h-203v420h203q8 0 8 8v4q0 8 -8 8h-213q-10 0 -10 -10v-882z" />
<glyph unicode="f" horiz-adv-x="512" d="M59 33v915q0 29 18.5 47.5t47.5 18.5h244q33 0 32 -33v-66q0 -33 -32 -32h-179v-310h179q33 0 32 -32v-66q0 -33 -32 -33h-179v-409q0 -33 -32 -33h-66q-33 0 -33 33zM115 63q0 -8 8 -8h4q10 0 10 8v435h201q8 0 8 8v4q0 8 -8 8h-201v420h201q8 0 8 8v4q0 8 -8 8h-213 q-10 0 -10 -10v-885z" />
<glyph unicode="g" horiz-adv-x="641" d="M59 233v543q0 49 18.5 92t51.5 75t75 50.5t91 18.5t91 -18.5t75 -50.5t51 -75t18 -92v-69q0 -33 -32 -33h-66q-33 0 -33 33v69q0 45 -30.5 75t-73.5 30t-74 -30t-31 -75v-543q0 -43 31 -73.5t74 -30.5t73.5 30.5t30.5 73.5v211h-71q-14 0 -23.5 9.5t-9.5 21.5v66 q0 33 33 32h170q33 0 32 -32v-308q0 -49 -18 -91t-51 -73.5t-75 -50t-91 -18.5t-91 18.5t-75 50t-51.5 73.5t-18.5 91zM115 233q0 -74 52 -127t128 -53t128 53.5t52 126.5v279q0 8 -8 8h-109q-8 0 -8 -8v-6q0 -8 8 -8h97v-265q0 -33 -12.5 -61.5t-34 -50t-51 -33.5 t-62.5 -12t-62.5 12t-51 33.5t-34 50.5t-12.5 61v543q0 66 47 113t113 47t113 -47t47 -113v-39q0 -8 8 -8h4q8 0 8 8v39q0 76 -52 129t-128 53t-128 -53t-52 -129v-543z" />
<glyph unicode="h" horiz-adv-x="641" d="M59 33v948q0 33 33 33h66q33 0 32 -33v-408h209v408q0 14 10.5 23.5t22.5 9.5h66q33 0 32 -33v-948q0 -33 -32 -33h-66q-12 0 -22.5 9t-10.5 24v409h-209v-409q0 -33 -32 -33h-66q-33 0 -33 33zM113 63q0 -8 10 -8h4q8 0 8 8v433h320v-433q0 -8 8 -8h6q8 0 8 8v887 q0 8 -8 8h-6q-8 0 -8 -8v-432h-320v432q0 8 -8 8h-4q-10 0 -10 -8v-887z" />
<glyph unicode="i" horiz-adv-x="301" d="M59 33v948q0 33 33 33h66q12 0 22 -9.5t10 -23.5v-948q0 -33 -32 -33h-66q-33 0 -33 33zM113 63q0 -8 10 -8h4q8 0 8 8v887q0 8 -8 8h-4q-10 0 -10 -8v-887z" />
<glyph unicode="j" horiz-adv-x="641" d="M59 236v75q0 14 10.5 23.5t22.5 9.5h66q33 0 32 -33v-75q0 -43 31 -74t74 -31q45 0 74.5 31t29.5 74v745q0 14 10.5 23.5t22.5 9.5h66q33 0 32 -33v-745q0 -49 -18 -91.5t-50 -75t-75 -51t-92 -18.5t-91 18.5t-75 51t-51.5 74.5t-18.5 92zM115 236q0 -76 53 -128.5 t127 -52.5q76 0 129 52.5t53 128.5v714q0 8 -10 8h-4q-8 0 -8 -8v-714q0 -66 -47.5 -113t-112.5 -47q-33 0 -61.5 12t-50 33.5t-34 51.5t-12.5 63v45q0 10 -10 10h-4q-8 0 -8 -10v-45z" />
<glyph unicode="k" d="M59 33v409v131v408q0 33 33 33h66q33 0 32 -33v-408h105q45 0 75.5 31t30.5 76v301q0 33 33 33h66q33 0 32 -33v-301q0 -51 -19 -95t-54 -77q35 -33 54 -76t19 -94v-305q0 -12 -9 -22.5t-23 -10.5h-66q-14 0 -23.5 10t-9.5 23v305q0 43 -30.5 73.5t-75.5 30.5h-105v-409 q0 -12 -9 -22.5t-23 -10.5h-66q-14 0 -23.5 10t-9.5 23zM115 63q0 -8 8 -8h4q8 0 8 8v435h160q66 0 113 -47.5t47 -112.5v-275q0 -8 10 -8h4q8 0 8 8v275q0 59 -32.5 105t-86.5 65q53 20 86 66.5t33 105.5v270q0 8 -8 8h-4q-10 0 -10 -8v-270q0 -66 -47.5 -113t-112.5 -47 h-160v430q0 8 -8 8h-4q-8 0 -8 -8v-430v-22v-435z" />
<glyph unicode="l" horiz-adv-x="489" d="M59 66v915q0 33 33 33h66q12 0 22 -9.5t10 -23.5v-850h177q33 0 32 -33v-65q0 -12 -9 -22.5t-23 -10.5h-242q-29 0 -47.5 19.5t-18.5 46.5zM113 66q0 -10 12 -11h211q10 0 10 8v7q0 8 -10 8h-201v872q0 8 -8 8h-6q-8 0 -8 -8v-884z" />
<glyph unicode="m" horiz-adv-x="985" d="M59 33v745q0 49 18.5 91t51.5 75t76 51.5t92 18.5t93 -19.5t77 -54.5q33 35 77 54.5t93 19.5t92 -18.5t76 -51.5t51 -75t18 -91v-745q0 -12 -9 -22.5t-23 -10.5h-66q-14 0 -23.5 10t-9.5 23v745q0 43 -30.5 74t-75.5 31q-43 0 -74 -31t-31 -74v-745q0 -12 -9 -22.5 t-23 -10.5h-66q-14 0 -23.5 10t-9.5 23v745q0 43 -30.5 74t-73.5 31q-45 0 -76 -31t-31 -74v-745q0 -12 -9 -22.5t-23 -10.5h-66q-12 0 -22.5 10t-10.5 23zM115 63q0 -8 8 -8h4q10 0 10 8v715q0 66 47 113t113 47t113 -47t47 -113v-715q0 -8 8 -8h4q8 0 8 8v715q0 66 47 113 t113 47t113 -47t47 -113v-715q0 -8 10 -8h4q8 0 8 8v715q0 76 -53 128t-129 52q-59 0 -105.5 -32.5t-64.5 -85.5q-18 53 -64.5 85.5t-105.5 32.5q-76 0 -129 -52t-53 -128v-715z" />
<glyph unicode="n" d="M59 33v745q0 49 18.5 91t51.5 75t76 51.5t92 18.5t91 -18.5t75 -51.5t51 -75t18 -91v-745q0 -12 -9 -22.5t-23 -10.5h-66q-14 0 -23.5 10t-9.5 23v745q0 43 -30.5 74t-73.5 31q-45 0 -76 -31t-31 -74v-745q0 -12 -9 -22.5t-23 -10.5h-66q-14 0 -23.5 10t-9.5 23zM115 63 q0 -8 8 -8h4q10 0 10 8v715q0 66 47 113t113 47t113 -47t47 -113v-715q0 -8 8 -8h4q8 0 8 8v715q0 76 -52 128t-128 52t-129 -52t-53 -128v-715z" />
<glyph unicode="o" d="M59 238v540q0 49 18.5 91t51.5 75t76 51.5t92 18.5t91 -18.5t75 -51.5t51 -75t18 -91v-540q0 -49 -18 -92.5t-51 -76t-75 -51t-91 -18.5t-92 18.5t-76 51t-51.5 75.5t-18.5 93zM115 238q0 -76 53 -129.5t129 -53.5t128 53.5t52 129.5v540q0 76 -52 128t-128 52t-129 -52 t-53 -128v-540zM137 238v540q0 66 47 113t113 47t113 -47t47 -113v-540q0 -66 -47.5 -113t-112.5 -47q-66 0 -113 47t-47 113zM190 238q0 -45 31 -76t76 -31q43 0 73.5 31t30.5 76v540q0 43 -30.5 74t-73.5 31q-45 0 -76 -31t-31 -74v-540z" />
<glyph unicode="p" horiz-adv-x="600" d="M59 33v409v131v408q0 14 10.5 23.5t22.5 9.5h205q49 0 91 -18.5t75 -51.5t51 -75t18 -91v-98q0 -49 -18 -92t-51 -76t-75 -51.5t-91 -18.5h-107v-409q0 -12 -9 -22.5t-23 -10.5h-66q-12 0 -22.5 10t-10.5 23zM115 63q0 -8 8 -8h6q8 0 8 8v435h160q76 0 129 53t53 129v98 q0 76 -53 128t-129 52h-174q-8 0 -8 -8v-430v-22v-435zM137 520v418h160q66 0 113 -47t47 -113v-98q0 -66 -47.5 -113t-112.5 -47h-160zM190 573h107q43 0 73.5 31t30.5 76v98q0 43 -30.5 74t-73.5 31h-107v-310z" />
<glyph unicode="q" d="M59 238v540q0 49 18.5 92t50.5 75t75 50.5t92 18.5t91 -18.5t75 -50.5t51 -75t18 -92v-540q0 -80 -48 -142.5t-122 -85.5v-106q0 -33 -32 -33h-66q-33 0 -33 33v106q-74 23 -122 85.5t-48 142.5zM113 238q0 -72 49 -124.5t121 -56.5v-123q0 -8 10 -8h4q8 0 8 8v123 q72 4 122 56.5t50 124.5v540q0 76 -53 129.5t-129 53.5t-129 -53.5t-53 -129.5v-540zM135 238v540q0 66 47 113t113 47t113 -47t47 -113v-540q0 -66 -47.5 -113t-112.5 -47q-66 0 -113 47t-47 113zM190 238q0 -43 31 -74t74 -31t73.5 31t30.5 74v540q0 43 -30.5 74t-73.5 31 t-74 -31t-31 -74v-540z" />
<glyph unicode="r" horiz-adv-x="630" d="M49 33v915q0 29 18.5 47.5t47.5 18.5h170q49 0 92 -18.5t74.5 -51.5t50 -75t18.5 -91v-98q0 -104 -71 -172q72 -68 71 -170v-305q0 -12 -9 -22.5t-24 -10.5h-65q-14 0 -23.5 10t-9.5 23v305q0 43 -30.5 73.5t-73.5 30.5h-105v-409q0 -12 -10 -22.5t-23 -10.5h-65 q-14 0 -23.5 10t-9.5 23zM102 63q0 -8 9 -8h6q8 0 8 8v435h160q66 0 112.5 -47.5t46.5 -112.5v-275q0 -8 9 -8h4q10 0 10 8v275q0 59 -34 105t-87 65q53 20 87 66.5t34 105.5v98q0 76 -53.5 128t-128.5 52h-170q-12 0 -13 -10v-885zM125 520v418h160q66 0 112.5 -47 t46.5 -113v-98q0 -66 -47 -113t-112 -47h-160zM180 573h105q43 0 73.5 31t30.5 76v98q0 43 -30.5 74t-73.5 31h-105v-310z" />
<glyph unicode="s" horiz-adv-x="600" d="M39 236v69q0 33 33 33h65q33 0 33 -33v-69q0 -43 30.5 -74t73.5 -31t74 31t31 74q0 20 -1 24t-5 10l-285 377q-18 25 -28.5 39t-14.5 26.5t-5 27t-1 38.5q0 49 18.5 91t51 75t74.5 51.5t91 18.5t91.5 -18.5t75 -51.5t51 -75t18.5 -91v-69q0 -33 -33 -33h-65q-33 0 -33 33 v69q0 43 -31 74t-74 31t-73.5 -31t-30.5 -74q0 -20 1 -24t5 -11l285 -376q18 -25 28.5 -39.5t14.5 -26.5t5 -26.5t1 -38.5q0 -49 -18.5 -91.5t-51 -75t-74.5 -51t-92 -18.5q-49 0 -91 18.5t-74.5 51t-51 74.5t-18.5 92zM94 236q0 -76 52.5 -128.5t127.5 -52.5q78 0 127 54 q53 49 54 127v2v24q0 10 -3 20.5t-10 16.5l-319 428q-8 12 -8 25v24v2q0 66 46.5 113t112.5 47t113 -47t47 -113v-39q0 -10 8 -10h4q8 0 9 10v39q0 76 -52.5 128t-128.5 52q-78 0 -127 -53q-27 -25 -40 -58.5t-13 -68.5v-2v2v-2v-24q0 -10 3 -20.5t9 -16.5l320 -428 q8 -12 8 -25v-24v-2v2v-2q0 -66 -47 -113t-113 -47t-112.5 47t-46.5 113v38q0 10 -9 11h-4q-8 0 -8 -11v-38z" />
<glyph unicode="t" horiz-adv-x="509" d="M39 915v66q0 33 33 33h315q33 0 33 -33v-66q0 -33 -33 -32h-92v-850q0 -12 -9.5 -22.5t-23.5 -10.5h-65q-14 0 -23.5 10t-9.5 23v850h-92q-33 0 -33 32zM94 946q0 -8 8 -8h117v-875q0 -8 8 -8h4q8 0 9 8v875h116q8 0 9 8v4q0 8 -9 8h-254q-8 0 -8 -8v-4z" />
<glyph unicode="u" d="M59 238v743q0 14 10.5 23.5t22.5 9.5h66q33 0 32 -33v-743q0 -45 31 -76t76 -31q43 0 73.5 31t30.5 76v743q0 33 33 33h66q33 0 32 -33v-743q0 -49 -18 -92.5t-51 -76t-75 -51t-91 -18.5t-92 18.5t-76 51t-51.5 75.5t-18.5 93zM115 238q0 -76 53 -129.5t129 -53.5 t129 53.5t53 129.5v712q0 8 -10 8h-4q-8 0 -8 -8v-712q0 -66 -47.5 -113t-112.5 -47q-66 0 -113 47t-47 113v712q0 8 -8 8h-6q-8 0 -8 -8v-712z" />
<glyph unicode="v" d="M59 342v637q0 33 33 33h66q33 0 32 -33v-637q0 -18 7 -33l98 -176l100 176q2 8 3 15.5t1 17.5v637q0 14 10.5 23.5t22.5 9.5h66q33 0 32 -33v-637q0 -70 -38 -131l-111 -195q-10 -16 -29 -16h-114q-18 0 -29 16l-111 195q-39 61 -39 131zM113 344q0 -2 4 -30.5t20 -57.5 l111 -197q6 -6 10 -6h74q4 0 10 6l111 197q18 29 21 57.5t3 30.5v604q0 8 -10 8h-4q-8 0 -8 -8v-604q0 -14 -2 -27q-2 -10 -6.5 -24t-12.5 -27l-108 -190h-62l-108 190q-8 12 -12.5 26.5t-6.5 24.5q-2 12 -2 27v604q0 8 -8 8h-4q-10 0 -10 -8v-604z" />
<glyph unicode="w" horiz-adv-x="983" d="M59 344v635q0 33 33 33h66q33 0 32 -33v-635q0 -16 7 -35l98 -174l100 174q6 18 6 35v635q0 33 33 33h66q12 0 22 -9.5t10 -23.5v-635q0 -10 1.5 -17.5l3.5 -17.5l100 -174l98 174q6 18 6 35v635q0 33 33 33h66q33 0 32 -33v-635q0 -74 -38 -131l-111 -197 q-12 -16 -29 -16h-114q-16 0 -29 16l-84 152l-86 -152q-12 -16 -29 -16h-114q-18 0 -27 16l-113 197q-39 57 -39 131zM115 346q0 -2 3 -30.5t19 -59.5l113 -195q2 -6 8 -6h74q6 0 10 6l113 195q4 8 6 14t6 15q2 -12 12 -29l111 -195q2 -6 10 -6h74q8 0 8 6l113 195 q16 31 20 59.5t4 30.5v604q0 8 -10 8h-4q-8 0 -8 -8v-604q0 -14 -2 -27q-2 -10 -6.5 -24t-12.5 -27l-108 -190h-62l-108 190q-8 12 -12.5 26.5t-6.5 24.5q-2 12 -2 27v604q0 8 -8 8h-4q-10 0 -10 -8v-604q0 -14 -2 -27q-2 -10 -6.5 -24t-12.5 -27l-108 -190h-62l-108 190 q-8 12 -12.5 26.5t-6.5 24.5q-2 12 -2 27v604q0 8 -8 8h-4q-8 0 -8 -8v-604z" />
<glyph unicode="x" d="M59 33v127q0 74 41 131l119 213l-121 213q-39 57 -39 131v133q0 33 33 33h66q33 0 32 -33v-133q0 -16 7 -35l98 -174l100 174q6 18 6 35v133q0 33 33 33h66q33 0 32 -33v-133q0 -74 -40 -131l-119 -213l119 -213q41 -57 40 -131v-127q0 -12 -9 -22.5t-23 -10.5h-66 q-14 0 -23.5 10t-9.5 23v127q0 18 -6 35l-100 176l-98 -176q-6 -16 -7 -35v-127q0 -12 -9 -22.5t-23 -10.5h-66q-14 0 -23.5 10t-9.5 23zM115 66q0 -10 8 -11h4q8 0 8 11v94q0 23 10 53l2 4l148 264l149 -264l2 -4q8 -25 9 -53v-94q0 -10 10 -11h4q8 0 8 11v94q0 55 -31 102 l-137 242l137 241v3q31 43 31 100v102q0 8 -8 8h-4q-10 0 -10 -8v-102q0 -29 -9 -51l-2 -6l-149 -263l-148 263l-2 6q-10 27 -10 51v102q0 8 -8 8h-4q-8 0 -8 -8v-102q0 -57 30 -100v-3l138 -241l-138 -242q-31 -47 -30 -102v-94z" />
<glyph unicode="y" horiz-adv-x="602" d="M39 680v301q0 33 33 33h65q33 0 33 -33v-301q0 -45 30.5 -76t75.5 -31q43 0 74 31t31 76v301q0 33 33 33h65q33 0 33 -33v-301q0 -82 -48 -143.5t-122 -83.5v-420q0 -12 -10 -22.5t-23 -10.5h-65q-14 0 -23.5 10t-9.5 23v420q-76 23 -124 84t-48 143zM94 680 q0 -74 49.5 -126t120.5 -56v-435q0 -8 8 -8h7q8 0 8 8v435q72 4 121 56t49 126v270q0 8 -8 8h-5q-10 0 -10 -8v-270q0 -66 -46 -113t-112 -47t-112.5 47t-46.5 113v270q0 8 -11 8h-4q-8 0 -8 -8v-270z" />
<glyph unicode="z" horiz-adv-x="620" d="M59 33v203q0 25 1 39t5.5 26t13.5 26.5t27 39.5l289 378q4 6 4 10.5v24.5v103h-307q-33 0 -33 32v66q0 33 33 33h406q33 0 32 -33v-66v-135q0 -25 -1 -40t-5 -27.5t-13 -25.5t-28 -38l-286 -381q-4 -4 -5.5 -8t-1.5 -24v-105h308q33 0 32 -33v-65q0 -12 -9 -22.5 t-23 -10.5h-406q-14 0 -23.5 10t-9.5 23zM113 63q0 -8 10 -8h346q8 0 8 8v7q0 8 -8 8h-334v182q0 14 8 27l322 428q4 8 8 18t4 21v196q0 8 -10 8h-346q-8 0 -8 -8v-4q0 -8 8 -8h334v-184q0 -16 -9 -25l-319 -430q-14 -18 -14 -39v-197z" />
<glyph unicode="&#xa1;" horiz-adv-x="301" d="M59 -90v747q0 33 33 33h66q33 0 32 -33v-747q0 -33 -32 -33h-66q-33 0 -33 33zM59 852v135q0 33 33 33h66q33 0 32 -33v-135q0 -33 -32 -33h-66q-33 0 -33 33zM115 -55q0 -10 8 -11h4q8 0 8 11v682q0 8 -8 8h-4q-8 0 -8 -8v-682zM115 883q0 -10 8 -11h4q8 0 8 11v73 q0 8 -8 9h-4q-8 0 -8 -9v-73z" />
<glyph unicode="&#xa8;" horiz-adv-x="509" d="M59 1182v135q0 12 9.5 22.5t23.5 10.5h66q14 0 23 -10.5t9 -22.5v-135q0 -33 -32 -33h-66q-33 0 -33 33zM115 1210q0 -8 8 -8h4q8 0 8 8v76q0 8 -8 8h-4q-8 0 -8 -8v-76zM270 1182v135q0 12 9.5 22.5t23.5 10.5h64q14 0 23 -10.5t9 -22.5v-135q0 -33 -32 -33h-64 q-33 0 -33 33zM324 1210q0 -8 8 -8h6q8 0 8 8v76q0 8 -8 8h-6q-8 0 -8 -8v-76z" />
<glyph unicode="&#xad;" horiz-adv-x="571" d="M59 471v66q0 12 9.5 22t23.5 10h336q14 0 23.5 -10t9.5 -22v-66q0 -33 -33 -33h-336q-33 0 -33 33zM115 500q0 -8 8 -8h276q8 0 9 8v6q0 8 -9 8h-276q-8 0 -8 -8v-6z" />
<glyph unicode="&#xaf;" horiz-adv-x="1705" />
<glyph unicode="&#xb4;" horiz-adv-x="450" d="M62.5 1161q-7.5 10 3.5 27l118 209q8 16 27.5 26.5t36.5 10.5h63q18 0 25.5 -10.5t-2.5 -26.5l-119 -209q-8 -16 -27.5 -26.5t-35.5 -10.5h-64q-18 0 -25.5 10zM141 1212q-4 -8 4 -8h9q6 0 14 8l90 160q4 8 -4 8h-8q-10 0 -15 -8z" />
<glyph unicode="&#xb7;" horiz-adv-x="1705" />
<glyph unicode="&#xb8;" horiz-adv-x="1705" />
<glyph unicode="&#xbf;" horiz-adv-x="641" d="M59 111q0 25 1 39t5.5 26t14.5 26.5t29 39.5l286 379q4 6 5 10t1 24q0 33 33 33h66q33 0 32 -33q0 -25 -1 -40t-5 -27.5t-14 -25.5t-29 -38l-286 -379q-4 -6 -5.5 -10t-1.5 -24q0 -43 31 -74t74 -31q45 0 75.5 31t30.5 74v69q0 33 33 33h66q33 0 32 -33v-69 q0 -49 -18 -92.5t-51 -75t-76 -50t-92 -18.5t-91 18.5t-75 50t-51.5 75t-18.5 92.5zM115 115q0 -76 53 -129t127 -54q76 0 129 53.5t53 129.5v39q0 10 -8 10h-4q-10 0 -10 -10v-39q0 -66 -47.5 -113t-112.5 -47q-66 0 -112 47t-48 113v14v12q0 12 8 25l322 430q8 8 12 27 q0 2 -1 6t-5 4h-6q-10 0 -10 -8q-4 -12 -9 -17l-319 -430q-6 -6 -9 -16t-3 -21v-12v-14zM115 115v2v-2zM401 850v135q0 33 33 33h66q33 0 32 -33v-135q0 -33 -32 -33h-66q-33 0 -33 33zM455 881q0 -10 10 -11h4q8 0 8 11v73q0 8 -8 9h-4q-10 0 -10 -9v-73z" />
<glyph unicode="&#xc0;" d="M59 33v743q0 49 18.5 92t51.5 75t75 50.5t91 18.5t92 -18.5t76 -50.5t51 -75t18 -92v-743q0 -33 -32 -33h-66q-33 0 -33 33v409h-211v-409q0 -33 -32 -33h-66q-33 0 -33 33zM79 1425.5q7 10.5 25 10.5h64q18 0 36.5 -10.5t28.5 -26.5l119 -211q10 -16 3 -26.5t-25 -10.5 h-64q-18 0 -36.5 10t-28.5 27l-119 211q-10 16 -3 26.5zM115 63q0 -10 8 -10h4q8 0 8 10v433h320v-433q0 -10 10 -10h4q8 0 8 10v713q0 76 -53 129t-129 53t-128 -53t-52 -129v-713zM135 518v258q0 66 47 113t113 47t113 -47t47 -113v-258h-320zM158 1374l92 -162 q2 -6 12 -6h8q8 0 6 6l-92 162q-4 8 -12 8h-10q-8 0 -4 -8zM190 573h211v203q0 43 -30.5 74t-75.5 31q-43 0 -74 -31t-31 -74v-203z" />
<glyph unicode="&#xc1;" d="M59 33v743q0 49 18.5 92t51.5 75t76 50.5t92 18.5t91 -18.5t75 -50.5t51 -75t18 -92v-743q0 -33 -32 -33h-66q-33 0 -33 33v409h-211v-409q0 -33 -32 -33h-66q-33 0 -33 33zM115 63q0 -10 8 -10h4q10 0 10 10v433h320v-433q0 -10 8 -10h4q8 0 8 10v713q0 37 -14 71 t-39 58.5t-57.5 38.5t-69.5 14q-76 0 -129 -53t-53 -129v-713zM137 518v258q0 66 47 113t113 47t113 -47t47 -113v-258h-320zM190 573h211v203q0 43 -30.5 74t-73.5 31q-45 0 -76 -31t-31 -74v-203zM228.5 1161q-7.5 10 2.5 27l119 209q8 16 27.5 26.5t36.5 10.5h63 q18 0 25.5 -10.5t-2.5 -26.5l-119 -209q-8 -16 -27.5 -26.5t-36.5 -10.5h-63q-18 0 -25.5 10zM307 1212q-4 -8 4 -8h8q6 0 15 8l90 160q4 8 -4 8h-8q-10 0 -15 -8z" />
<glyph unicode="&#xc2;" d="M59 33v743q0 49 18.5 92t51.5 75t76 50.5t92 18.5t91 -18.5t75 -50.5t51 -75t18 -92v-743q0 -33 -32 -33h-66q-33 0 -33 33v409h-211v-409q0 -33 -32 -33h-66q-33 0 -33 33zM77 1161q-7 10 3 27l119 209q8 14 24.5 24.5t32.5 12.5l12 1q13 1 27 1t27 -1l12 -1 q16 -2 32.5 -12.5t24.5 -24.5l119 -209q10 -16 3 -26.5t-26 -10.5h-63q-18 0 -36.5 10t-29.5 27l-63 115l-64 -115q-10 -16 -29.5 -26.5t-35.5 -10.5h-64q-18 0 -25 10zM115 63q0 -10 8 -10h4q10 0 10 10v433h320v-433q0 -10 8 -10h4q8 0 8 10v713q0 37 -14 71t-39 58.5 t-57.5 38.5t-69.5 14q-76 0 -129 -53t-53 -129v-713zM137 518v258q0 66 47 113t113 47t113 -47t47 -113v-258h-320zM156 1214q-2 -8 4 -8h8q8 0 14 8l82 146h62l82 -146q2 -8 14 -8h8q6 0 4 8l-90 160q-8 8 -14 8h-70q-10 0 -14 -8zM190 573h211v203q0 43 -30.5 74t-73.5 31 q-45 0 -76 -31t-31 -74v-203z" />
<glyph unicode="&#xc3;" horiz-adv-x="1705" />
<glyph unicode="&#xc4;" d="M59 33v743q0 49 18.5 92t51.5 75t76 50.5t92 18.5t91 -18.5t75 -50.5t51 -75t18 -92v-743q0 -33 -32 -33h-66q-33 0 -33 33v409h-211v-409q0 -33 -32 -33h-66q-33 0 -33 33zM115 63q0 -10 8 -10h4q10 0 10 10v433h320v-433q0 -10 8 -10h4q8 0 8 10v713q0 37 -14 71 t-39 58.5t-57.5 38.5t-69.5 14q-76 0 -129 -53t-53 -129v-713zM125 1182v135q0 12 9 22.5t24 10.5h65q14 0 23.5 -10.5t9.5 -22.5v-135q0 -33 -33 -33h-65q-33 0 -33 33zM137 518v258q0 66 47 113t113 47t113 -47t47 -113v-258h-320zM180 1210q0 -8 8 -8h5q8 0 8 8v76 q0 8 -8 8h-5q-8 0 -8 -8v-76zM190 573h211v203q0 43 -30.5 74t-73.5 31q-45 0 -76 -31t-31 -74v-203zM336 1182v135q0 12 9 22.5t24 10.5h63q14 0 23.5 -10.5t9.5 -22.5v-135q0 -33 -33 -33h-63q-33 0 -33 33zM389 1210q0 -8 8 -8h6q8 0 9 8v76q0 8 -9 8h-6q-8 0 -8 -8v-76z " />
<glyph unicode="&#xc5;" horiz-adv-x="1705" />
<glyph unicode="&#xc6;" horiz-adv-x="1705" />
<glyph unicode="&#xc7;" horiz-adv-x="641" d="M59 236v544q0 49 18.5 92t51.5 75t75 50.5t91 18.5t92 -18.5t76 -50.5t51 -75t18 -92v-69q0 -14 -10 -23.5t-22 -9.5h-66q-33 0 -33 33v69q0 43 -30.5 74t-75.5 31q-43 0 -74 -31t-31 -74v-544q0 -43 31 -74t74 -31q45 0 75.5 31t30.5 74v75q0 33 33 33h66q12 0 22 -9 t10 -24v-75q0 -80 -49 -142.5t-123 -85.5v-102q0 -33 -32 -33h-66q-33 0 -33 33v102q-74 23 -122 85.5t-48 142.5zM115 236q0 -37 13 -69t35.5 -56.5t53.5 -39t68 -16.5v-118q0 -8 8 -9h4q10 0 10 9v118q35 2 65.5 16.5t54.5 39t37 56.5t13 69v47q0 8 -8 8h-6q-8 0 -8 -8 v-47q0 -66 -47.5 -113t-112.5 -47q-66 0 -113 47t-47 113v544q0 66 47 113t113 47t113 -47t47 -113v-16h22v16q0 76 -53 129.5t-129 53.5t-128 -53.5t-52 -129.5v-544zM455 741q0 -10 8 -10h6q8 0 8 10v23h-22v-23z" />
<glyph unicode="&#xc8;" horiz-adv-x="512" d="M13 1425.5q7 10.5 26 10.5h63q18 0 37 -10.5t29 -26.5l119 -211q10 -16 3 -26.5t-26 -10.5h-63q-18 0 -37 10t-29 27l-119 211q-10 16 -3 26.5zM59 66v882q0 29 18.5 47.5t47.5 18.5h244q33 0 32 -33v-66q0 -33 -32 -32h-179v-310h179q33 0 32 -32v-66q0 -33 -32 -33 h-179v-311h179q33 0 32 -33v-65q0 -33 -32 -33h-244q-29 0 -47.5 19.5t-18.5 46.5zM92 1374l92 -162q2 -6 13 -6h8q8 0 6 6l-92 162q-4 8 -13 8h-10q-8 0 -4 -8zM115 66q0 -10 10 -11h213q8 0 8 8v5q0 10 -8 10h-203v420h203q8 0 8 8v4q0 8 -8 8h-203v420h203q8 0 8 8v4 q0 8 -8 8h-213q-10 0 -10 -10v-882z" />
<glyph unicode="&#xc9;" horiz-adv-x="550" d="M59 66v882q0 29 18.5 47.5t47.5 18.5h244q33 0 32 -33v-66q0 -33 -32 -32h-179v-310h179q33 0 32 -32v-66q0 -33 -32 -33h-179v-311h179q33 0 32 -33v-65q0 -33 -32 -33h-244q-29 0 -47.5 19.5t-18.5 46.5zM115 66q0 -10 10 -11h213q8 0 8 8v5q0 10 -8 10h-203v420h203 q8 0 8 8v4q0 8 -8 8h-203v420h203q8 0 8 8v4q0 8 -8 8h-213q-10 0 -10 -10v-882zM163 1161q-7 10 3 27l119 209q8 16 27.5 26.5t35.5 10.5h64q18 0 25 -10.5t-3 -26.5l-119 -209q-8 -16 -27.5 -26.5t-35.5 -10.5h-64q-18 0 -25 10zM242 1212q-4 -8 4 -8h8q6 0 14 8l90 160 q4 8 -4 8h-8q-10 0 -14 -8z" />
<glyph unicode="&#xca;" horiz-adv-x="512" d="M13.5 1161q-7.5 10 2.5 27l119 209q8 14 24.5 24.5t33.5 12.5l12 1t26.5 1t26.5 -1l12 -1q16 -2 32.5 -12.5t25.5 -24.5l118 -209q10 -16 3 -26.5t-25 -10.5h-64q-18 0 -36.5 10t-28.5 27l-64 115l-63 -115q-10 -16 -29.5 -26.5t-36.5 -10.5h-63q-18 0 -25.5 10zM61 66 v882q0 29 18.5 47.5t47.5 18.5h244q33 0 32 -33v-66q0 -33 -32 -32h-178v-310h178q33 0 32 -32v-66q0 -33 -32 -33h-178v-311h178q33 0 32 -33v-65q0 -33 -32 -33h-244q-29 0 -47.5 19.5t-18.5 46.5zM92 1214q-2 -8 4 -8h8q8 0 15 8l82 146h61l82 -146q2 -8 14 -8h9q6 0 4 8 l-90 160q-8 8 -15 8h-69q-10 0 -15 -8zM117 66q0 -10 10 -11h213q8 0 8 8v5q0 10 -8 10h-203v420h203q8 0 8 8v4q0 8 -8 8h-203v420h203q8 0 8 8v4q0 8 -8 8h-213q-10 0 -10 -10v-882z" />
<glyph unicode="&#xcb;" horiz-adv-x="512" d="M59 66v882q0 29 18.5 47.5t47.5 18.5h244q33 0 32 -33v-66q0 -33 -32 -32h-179v-310h179q33 0 32 -32v-66q0 -33 -32 -33h-179v-311h179q33 0 32 -33v-65q0 -33 -32 -33h-244q-29 0 -47.5 19.5t-18.5 46.5zM59 1182v135q0 12 9.5 22.5t23.5 10.5h66q14 0 23 -10.5 t9 -22.5v-135q0 -33 -32 -33h-66q-33 0 -33 33zM115 66q0 -10 10 -11h213q8 0 8 8v5q0 10 -8 10h-203v420h203q8 0 8 8v4q0 8 -8 8h-203v420h203q8 0 8 8v4q0 8 -8 8h-213q-10 0 -10 -10v-882zM115 1210q0 -8 8 -8h4q8 0 8 8v76q0 8 -8 8h-4q-8 0 -8 -8v-76zM270 1182v135 q0 12 9.5 22.5t23.5 10.5h64q14 0 23 -10.5t9 -22.5v-135q0 -33 -32 -33h-64q-33 0 -33 33zM324 1210q0 -8 8 -8h6q8 0 8 8v76q0 8 -8 8h-6q-8 0 -8 -8v-76z" />
<glyph unicode="&#xcc;" horiz-adv-x="301" d="M-89 1425.5q7 10.5 26 10.5h63q18 0 36.5 -10.5t29.5 -26.5l118 -211q10 -16 3 -26.5t-25 -10.5h-64q-18 0 -36.5 10t-28.5 27l-119 211q-10 16 -3 26.5zM-10 1374l92 -162q2 -6 12 -6h8q8 0 7 6l-93 162q-4 8 -12 8h-10q-8 0 -4 -8zM63 33v948q0 33 33 33h66 q12 0 22.5 -9.5t10.5 -23.5v-948q0 -33 -33 -33h-66q-33 0 -33 33zM117 63q0 -8 10 -8h4q8 0 8 8v887q0 8 -8 8h-4q-10 0 -10 -8v-887z" />
<glyph unicode="&#xcd;" horiz-adv-x="301" d="M58.5 1161q-7.5 10 2.5 27l119 209q8 16 27.5 26.5t36.5 10.5h63q18 0 25.5 -10.5t-2.5 -26.5l-119 -209q-8 -16 -27.5 -26.5t-36.5 -10.5h-63q-18 0 -25.5 10zM61 33v948q0 33 33 33h66q12 0 22.5 -9.5t10.5 -23.5v-948q0 -33 -33 -33h-66q-33 0 -33 33zM115 63 q0 -8 10 -8h4q8 0 8 8v887q0 8 -8 8h-4q-10 0 -10 -8v-887zM137 1212q-4 -8 4 -8h9q6 0 14 8l90 160q4 8 -4 8h-8q-10 0 -15 -8z" />
<glyph unicode="&#xce;" horiz-adv-x="301" d="M-93 1161q-7 10 3 27l119 209q8 14 24.5 24.5t32.5 12.5l12 1q13 1 27 1t27 -1l12 -1q16 -2 32.5 -12.5t24.5 -24.5l119 -209q10 -16 3 -26.5t-26 -10.5h-63q-18 0 -36.5 10t-29.5 27l-63 115l-64 -115q-10 -16 -29.5 -26.5t-35.5 -10.5h-64q-18 0 -25 10zM-14 1214 q-2 -8 4 -8h8q8 0 14 8l82 146h62l82 -146q2 -8 14 -8h8q6 0 4 8l-90 160q-8 8 -14 8h-70q-10 0 -14 -8zM61 33v948q0 33 33 33h66q12 0 22.5 -9.5t10.5 -23.5v-948q0 -33 -33 -33h-66q-33 0 -33 33zM115 63q0 -8 10 -8h4q8 0 8 8v887q0 8 -8 8h-4q-10 0 -10 -8v-887z" />
<glyph unicode="&#xcf;" horiz-adv-x="301" d="M-45 1182v135q0 12 9 22.5t24 10.5h65q14 0 23.5 -10.5t9.5 -22.5v-135q0 -33 -33 -33h-65q-33 0 -33 33zM10 1210q0 -8 8 -8h5q8 0 8 8v76q0 8 -8 8h-5q-8 0 -8 -8v-76zM59 33v948q0 33 33 33h66q12 0 22 -9.5t10 -23.5v-948q0 -33 -32 -33h-66q-33 0 -33 33zM113 63 q0 -8 10 -8h4q8 0 8 8v887q0 8 -8 8h-4q-10 0 -10 -8v-887zM166 1182v135q0 12 9 22.5t24 10.5h63q14 0 23.5 -10.5t9.5 -22.5v-135q0 -33 -33 -33h-63q-33 0 -33 33zM219 1210q0 -8 8 -8h6q8 0 9 8v76q0 8 -9 8h-6q-8 0 -8 -8v-76z" />
<glyph unicode="&#xd1;" horiz-adv-x="641" d="M59 33v745q0 49 18.5 91t51.5 75t76 51.5t92 18.5t91 -18.5t75 -51.5t51 -75t18 -91v-745q0 -12 -9 -22.5t-23 -10.5h-66q-14 0 -23.5 10t-9.5 23v745q0 43 -30.5 74t-73.5 31q-45 0 -76 -31t-31 -74v-745q0 -12 -9 -22.5t-23 -10.5h-66q-14 0 -23.5 10t-9.5 23zM115 63 q0 -8 8 -8h4q10 0 10 8v715q0 66 47 113t113 47t113 -47t47 -113v-715q0 -8 8 -8h4q8 0 8 8v715q0 76 -52 128t-128 52t-129 -52t-53 -128v-715zM125 1182v65q0 33 33 33h276q33 0 33 -33v-65q0 -33 -33 -33h-276q-33 0 -33 33zM180 1212q0 -8 8 -8h215q8 0 9 8v5q0 8 -9 8 h-215q-8 0 -8 -8v-5z" />
<glyph unicode="&#xd2;" d="M59 238v540q0 49 18.5 91t51.5 75t76 51.5t92 18.5t91 -18.5t75 -51.5t51 -75t18 -91v-540q0 -49 -18 -92.5t-51 -76t-75 -51t-91 -18.5t-92 18.5t-76 51t-51.5 75.5t-18.5 93zM79 1425.5q7 10.5 25 10.5h64q18 0 36.5 -10.5t28.5 -26.5l119 -211q10 -16 3 -26.5 t-25 -10.5h-64q-18 0 -36.5 10t-28.5 27l-119 211q-10 16 -3 26.5zM115 238q0 -76 53 -129.5t129 -53.5t128 53.5t52 129.5v540q0 76 -52 128t-128 52t-129 -52t-53 -128v-540zM137 238v540q0 66 47 113t113 47t113 -47t47 -113v-540q0 -66 -47.5 -113t-112.5 -47 q-66 0 -113 47t-47 113zM158 1374l92 -162q2 -6 12 -6h8q8 0 6 6l-92 162q-4 8 -12 8h-10q-8 0 -4 -8zM190 238q0 -45 31 -76t76 -31q43 0 73.5 31t30.5 76v540q0 43 -30.5 74t-73.5 31q-45 0 -76 -31t-31 -74v-540z" />
<glyph unicode="&#xd3;" d="M59 238v540q0 49 18.5 91t51.5 75t76 51.5t92 18.5t91 -18.5t75 -51.5t51 -75t18 -91v-540q0 -49 -18 -92.5t-51 -76t-75 -51t-91 -18.5t-92 18.5t-76 51t-51.5 75.5t-18.5 93zM115 238q0 -76 53 -129.5t129 -53.5t128 53.5t52 129.5v540q0 76 -52 128t-128 52t-129 -52 t-53 -128v-540zM137 238v540q0 66 47 113t113 47t113 -47t47 -113v-540q0 -66 -47.5 -113t-112.5 -47q-66 0 -113 47t-47 113zM190 238q0 -45 31 -76t76 -31q43 0 73.5 31t30.5 76v540q0 43 -30.5 74t-73.5 31q-45 0 -76 -31t-31 -74v-540zM236.5 1161q-7.5 10 3.5 27 l118 209q8 16 28 26.5t36 10.5h63q18 0 25.5 -10.5t-2.5 -26.5l-119 -209q-8 -16 -27.5 -26.5t-35.5 -10.5h-64q-18 0 -25.5 10zM315 1212q-4 -8 4 -8h9q6 0 14 8l90 160q4 8 -4 8h-8q-10 0 -14 -8z" />
<glyph unicode="&#xd4;" horiz-adv-x="641" d="M59 238v540q0 49 18.5 91t51.5 75t76 51.5t92 18.5t91 -18.5t75 -51.5t51 -75t18 -91v-540q0 -49 -18 -92.5t-51 -76t-75 -51t-91 -18.5t-92 18.5t-76 51t-51.5 75.5t-18.5 93zM77 1161q-7 10 3 27l119 209q8 14 24.5 24.5t32.5 12.5l12 1q13 1 27 1t27 -1l12 -1 q16 -2 32.5 -12.5t24.5 -24.5l119 -209q10 -16 3 -26.5t-26 -10.5h-63q-18 0 -36.5 10t-29.5 27l-63 115l-64 -115q-10 -16 -29.5 -26.5t-35.5 -10.5h-64q-18 0 -25 10zM115 238q0 -76 53 -129.5t129 -53.5t128 53.5t52 129.5v540q0 76 -52 128t-128 52t-129 -52t-53 -128 v-540zM137 238v540q0 66 47 113t113 47t113 -47t47 -113v-540q0 -66 -47.5 -113t-112.5 -47q-66 0 -113 47t-47 113zM156 1214q-2 -8 4 -8h8q8 0 14 8l82 146h62l82 -146q2 -8 14 -8h8q6 0 4 8l-90 160q-8 8 -14 8h-70q-10 0 -14 -8zM190 238q0 -45 31 -76t76 -31 q43 0 73.5 31t30.5 76v540q0 43 -30.5 74t-73.5 31q-45 0 -76 -31t-31 -74v-540z" />
<glyph unicode="&#xd5;" horiz-adv-x="1705" />
<glyph unicode="&#xd6;" d="M59 238v540q0 49 18.5 91t51.5 75t76 51.5t92 18.5t91 -18.5t75 -51.5t51 -75t18 -91v-540q0 -49 -18 -92.5t-51 -76t-75 -51t-91 -18.5t-92 18.5t-76 51t-51.5 75.5t-18.5 93zM115 238q0 -76 53 -129.5t129 -53.5t128 53.5t52 129.5v540q0 76 -52 128t-128 52t-129 -52 t-53 -128v-540zM125 1182v135q0 12 9 22.5t24 10.5h65q14 0 23.5 -10.5t9.5 -22.5v-135q0 -33 -33 -33h-65q-33 0 -33 33zM137 238v540q0 66 47 113t113 47t113 -47t47 -113v-540q0 -66 -47.5 -113t-112.5 -47q-66 0 -113 47t-47 113zM180 1210q0 -8 8 -8h5q8 0 8 8v76 q0 8 -8 8h-5q-8 0 -8 -8v-76zM190 238q0 -45 31 -76t76 -31q43 0 73.5 31t30.5 76v540q0 43 -30.5 74t-73.5 31q-45 0 -76 -31t-31 -74v-540zM336 1182v135q0 12 9 22.5t24 10.5h63q14 0 23.5 -10.5t9.5 -22.5v-135q0 -33 -33 -33h-63q-33 0 -33 33zM389 1210q0 -8 8 -8h6 q8 0 9 8v76q0 8 -9 8h-6q-8 0 -8 -8v-76z" />
<glyph unicode="&#xd8;" horiz-adv-x="1705" />
<glyph unicode="&#xd9;" d="M59 238v743q0 14 10.5 23.5t22.5 9.5h66q33 0 32 -33v-743q0 -45 31 -76t76 -31q43 0 73.5 31t30.5 76v743q0 33 33 33h66q33 0 32 -33v-743q0 -49 -18 -92.5t-51 -76t-75 -51t-91 -18.5t-92 18.5t-76 51t-51.5 75.5t-18.5 93zM79 1425.5q7 10.5 25 10.5h64 q18 0 36.5 -10.5t28.5 -26.5l119 -211q10 -16 3 -26.5t-25 -10.5h-64q-18 0 -36.5 10t-28.5 27l-119 211q-10 16 -3 26.5zM115 238q0 -76 53 -129.5t129 -53.5t129 53.5t53 129.5v712q0 8 -10 8h-4q-8 0 -8 -8v-712q0 -66 -47.5 -113t-112.5 -47q-66 0 -113 47t-47 113v712 q0 8 -8 8h-6q-8 0 -8 -8v-712zM158 1374l92 -162q2 -6 12 -6h8q8 0 6 6l-92 162q-4 8 -12 8h-10q-8 0 -4 -8z" />
<glyph unicode="&#xda;" d="M59 238v743q0 14 10.5 23.5t22.5 9.5h66q33 0 32 -33v-743q0 -45 31 -76t76 -31q43 0 73.5 31t30.5 76v743q0 33 33 33h66q33 0 32 -33v-743q0 -49 -18 -92.5t-51 -76t-75 -51t-91 -18.5t-92 18.5t-76 51t-51.5 75.5t-18.5 93zM115 238q0 -76 53 -129.5t129 -53.5 t129 53.5t53 129.5v712q0 8 -10 8h-4q-8 0 -8 -8v-712q0 -66 -47.5 -113t-112.5 -47q-66 0 -113 47t-47 113v712q0 8 -8 8h-6q-8 0 -8 -8v-712zM226.5 1161q-7.5 10 2.5 27l119 209q8 16 27.5 26.5t36.5 10.5h63q18 0 25.5 -10.5t-2.5 -26.5l-119 -209q-8 -16 -27.5 -26.5 t-36.5 -10.5h-63q-18 0 -25.5 10zM305 1212q-4 -8 4 -8h8q6 0 15 8l90 160q4 8 -4 8h-8q-10 0 -15 -8z" />
<glyph unicode="&#xdb;" d="M59 238v743q0 14 10.5 23.5t22.5 9.5h66q33 0 32 -33v-743q0 -45 31 -76t76 -31q43 0 73.5 31t30.5 76v743q0 33 33 33h66q33 0 32 -33v-743q0 -49 -18 -92.5t-51 -76t-75 -51t-91 -18.5t-92 18.5t-76 51t-51.5 75.5t-18.5 93zM77 1161q-7 10 3 27l119 209 q8 14 24.5 24.5t32.5 12.5l12 1q13 1 27 1t27 -1l12 -1q16 -2 32.5 -12.5t24.5 -24.5l119 -209q10 -16 3 -26.5t-26 -10.5h-63q-18 0 -36.5 10t-29.5 27l-63 115l-64 -115q-10 -16 -29.5 -26.5t-35.5 -10.5h-64q-18 0 -25 10zM115 238q0 -76 53 -129.5t129 -53.5t129 53.5 t53 129.5v712q0 8 -10 8h-4q-8 0 -8 -8v-712q0 -66 -47.5 -113t-112.5 -47q-66 0 -113 47t-47 113v712q0 8 -8 8h-6q-8 0 -8 -8v-712zM156 1214q-2 -8 4 -8h8q8 0 14 8l82 146h62l82 -146q2 -8 14 -8h8q6 0 4 8l-90 160q-8 8 -14 8h-70q-10 0 -14 -8z" />
<glyph unicode="&#xdc;" d="M59 238v743q0 14 10.5 23.5t22.5 9.5h66q33 0 32 -33v-743q0 -45 31 -76t76 -31q43 0 73.5 31t30.5 76v743q0 33 33 33h66q33 0 32 -33v-743q0 -49 -18 -92.5t-51 -76t-75 -51t-91 -18.5t-92 18.5t-76 51t-51.5 75.5t-18.5 93zM115 238q0 -76 53 -129.5t129 -53.5 t129 53.5t53 129.5v712q0 8 -10 8h-4q-8 0 -8 -8v-712q0 -66 -47.5 -113t-112.5 -47q-66 0 -113 47t-47 113v712q0 8 -8 8h-6q-8 0 -8 -8v-712zM125 1182v135q0 12 9 22.5t24 10.5h65q14 0 23.5 -10.5t9.5 -22.5v-135q0 -33 -33 -33h-65q-33 0 -33 33zM180 1210q0 -8 8 -8h5 q8 0 8 8v76q0 8 -8 8h-5q-8 0 -8 -8v-76zM336 1182v135q0 12 9 22.5t24 10.5h63q14 0 23.5 -10.5t9.5 -22.5v-135q0 -33 -33 -33h-63q-33 0 -33 33zM389 1210q0 -8 8 -8h6q8 0 9 8v76q0 8 -9 8h-6q-8 0 -8 -8v-76z" />
<glyph unicode="&#xdd;" horiz-adv-x="1705" />
<glyph unicode="&#xe0;" d="M59 33v743q0 49 18.5 92t51.5 75t75 50.5t91 18.5t92 -18.5t76 -50.5t51 -75t18 -92v-743q0 -33 -32 -33h-66q-33 0 -33 33v409h-211v-409q0 -33 -32 -33h-66q-33 0 -33 33zM79 1425.5q7 10.5 25 10.5h64q18 0 36.5 -10.5t28.5 -26.5l119 -211q10 -16 3 -26.5t-25 -10.5 h-64q-18 0 -36.5 10t-28.5 27l-119 211q-10 16 -3 26.5zM115 63q0 -10 8 -10h4q8 0 8 10v433h320v-433q0 -10 10 -10h4q8 0 8 10v713q0 76 -53 129t-129 53t-128 -53t-52 -129v-713zM135 518v258q0 66 47 113t113 47t113 -47t47 -113v-258h-320zM158 1374l92 -162 q2 -6 12 -6h8q8 0 6 6l-92 162q-4 8 -12 8h-10q-8 0 -4 -8zM190 573h211v203q0 43 -30.5 74t-75.5 31q-43 0 -74 -31t-31 -74v-203z" />
<glyph unicode="&#xe1;" d="M59 33v743q0 49 18.5 92t51.5 75t76 50.5t92 18.5t91 -18.5t75 -50.5t51 -75t18 -92v-743q0 -33 -32 -33h-66q-33 0 -33 33v409h-211v-409q0 -33 -32 -33h-66q-33 0 -33 33zM115 63q0 -10 8 -10h4q10 0 10 10v433h320v-433q0 -10 8 -10h4q8 0 8 10v713q0 37 -14 71 t-39 58.5t-57.5 38.5t-69.5 14q-76 0 -129 -53t-53 -129v-713zM137 518v258q0 66 47 113t113 47t113 -47t47 -113v-258h-320zM190 573h211v203q0 43 -30.5 74t-73.5 31q-45 0 -76 -31t-31 -74v-203zM228.5 1161q-7.5 10 2.5 27l119 209q8 16 27.5 26.5t36.5 10.5h63 q18 0 25.5 -10.5t-2.5 -26.5l-119 -209q-8 -16 -27.5 -26.5t-36.5 -10.5h-63q-18 0 -25.5 10zM307 1212q-4 -8 4 -8h8q6 0 15 8l90 160q4 8 -4 8h-8q-10 0 -15 -8z" />
<glyph unicode="&#xe2;" d="M59 33v743q0 49 18.5 92t51.5 75t76 50.5t92 18.5t91 -18.5t75 -50.5t51 -75t18 -92v-743q0 -33 -32 -33h-66q-33 0 -33 33v409h-211v-409q0 -33 -32 -33h-66q-33 0 -33 33zM77 1161q-7 10 3 27l119 209q8 14 24.5 24.5t32.5 12.5l12 1q13 1 27 1t27 -1l12 -1 q16 -2 32.5 -12.5t24.5 -24.5l119 -209q10 -16 3 -26.5t-26 -10.5h-63q-18 0 -36.5 10t-29.5 27l-63 115l-64 -115q-10 -16 -29.5 -26.5t-35.5 -10.5h-64q-18 0 -25 10zM115 63q0 -10 8 -10h4q10 0 10 10v433h320v-433q0 -10 8 -10h4q8 0 8 10v713q0 37 -14 71t-39 58.5 t-57.5 38.5t-69.5 14q-76 0 -129 -53t-53 -129v-713zM137 518v258q0 66 47 113t113 47t113 -47t47 -113v-258h-320zM156 1214q-2 -8 4 -8h8q8 0 14 8l82 146h62l82 -146q2 -8 14 -8h8q6 0 4 8l-90 160q-8 8 -14 8h-70q-10 0 -14 -8zM190 573h211v203q0 43 -30.5 74t-73.5 31 q-45 0 -76 -31t-31 -74v-203z" />
<glyph unicode="&#xe4;" d="M59 33v743q0 49 18.5 92t51.5 75t76 50.5t92 18.5t91 -18.5t75 -50.5t51 -75t18 -92v-743q0 -33 -32 -33h-66q-33 0 -33 33v409h-211v-409q0 -33 -32 -33h-66q-33 0 -33 33zM115 63q0 -10 8 -10h4q10 0 10 10v433h320v-433q0 -10 8 -10h4q8 0 8 10v713q0 37 -14 71 t-39 58.5t-57.5 38.5t-69.5 14q-76 0 -129 -53t-53 -129v-713zM125 1182v135q0 12 9 22.5t24 10.5h65q14 0 23.5 -10.5t9.5 -22.5v-135q0 -33 -33 -33h-65q-33 0 -33 33zM137 518v258q0 66 47 113t113 47t113 -47t47 -113v-258h-320zM180 1210q0 -8 8 -8h5q8 0 8 8v76 q0 8 -8 8h-5q-8 0 -8 -8v-76zM190 573h211v203q0 43 -30.5 74t-73.5 31q-45 0 -76 -31t-31 -74v-203zM336 1182v135q0 12 9 22.5t24 10.5h63q14 0 23.5 -10.5t9.5 -22.5v-135q0 -33 -33 -33h-63q-33 0 -33 33zM389 1210q0 -8 8 -8h6q8 0 9 8v76q0 8 -9 8h-6q-8 0 -8 -8v-76z " />
<glyph unicode="&#xe7;" horiz-adv-x="641" d="M59 236v544q0 49 18.5 92t51.5 75t75 50.5t91 18.5t92 -18.5t76 -50.5t51 -75t18 -92v-69q0 -14 -10 -23.5t-22 -9.5h-66q-33 0 -33 33v69q0 43 -30.5 74t-75.5 31q-43 0 -74 -31t-31 -74v-544q0 -43 31 -74t74 -31q45 0 75.5 31t30.5 74v75q0 33 33 33h66q12 0 22 -9 t10 -24v-75q0 -80 -49 -142.5t-123 -85.5v-102q0 -33 -32 -33h-66q-33 0 -33 33v102q-74 23 -122 85.5t-48 142.5zM115 236q0 -37 13 -69t35.5 -56.5t53.5 -39t68 -16.5v-118q0 -8 8 -9h4q10 0 10 9v118q35 2 65.5 16.5t54.5 39t37 56.5t13 69v47q0 8 -8 8h-6q-8 0 -8 -8 v-47q0 -66 -47.5 -113t-112.5 -47q-66 0 -113 47t-47 113v544q0 66 47 113t113 47t113 -47t47 -113v-16h22v16q0 76 -53 129.5t-129 53.5t-128 -53.5t-52 -129.5v-544zM455 741q0 -10 8 -10h6q8 0 8 10v23h-22v-23z" />
<glyph unicode="&#xe8;" horiz-adv-x="512" d="M13 1425.5q7 10.5 26 10.5h63q18 0 37 -10.5t29 -26.5l119 -211q10 -16 3 -26.5t-26 -10.5h-63q-18 0 -37 10t-29 27l-119 211q-10 16 -3 26.5zM59 66v882q0 29 18.5 47.5t47.5 18.5h244q33 0 32 -33v-66q0 -33 -32 -32h-179v-310h179q33 0 32 -32v-66q0 -33 -32 -33 h-179v-311h179q33 0 32 -33v-65q0 -33 -32 -33h-244q-29 0 -47.5 19.5t-18.5 46.5zM92 1374l92 -162q2 -6 13 -6h8q8 0 6 6l-92 162q-4 8 -13 8h-10q-8 0 -4 -8zM115 66q0 -10 10 -11h213q8 0 8 8v5q0 10 -8 10h-203v420h203q8 0 8 8v4q0 8 -8 8h-203v420h203q8 0 8 8v4 q0 8 -8 8h-213q-10 0 -10 -10v-882z" />
<glyph unicode="&#xe9;" horiz-adv-x="550" d="M59 66v882q0 29 18.5 47.5t47.5 18.5h244q33 0 32 -33v-66q0 -33 -32 -32h-179v-310h179q33 0 32 -32v-66q0 -33 -32 -33h-179v-311h179q33 0 32 -33v-65q0 -33 -32 -33h-244q-29 0 -47.5 19.5t-18.5 46.5zM115 66q0 -10 10 -11h213q8 0 8 8v5q0 10 -8 10h-203v420h203 q8 0 8 8v4q0 8 -8 8h-203v420h203q8 0 8 8v4q0 8 -8 8h-213q-10 0 -10 -10v-882zM163 1161q-7 10 3 27l119 209q8 16 27.5 26.5t35.5 10.5h64q18 0 25 -10.5t-3 -26.5l-119 -209q-8 -16 -27.5 -26.5t-35.5 -10.5h-64q-18 0 -25 10zM242 1212q-4 -8 4 -8h8q6 0 14 8l90 160 q4 8 -4 8h-8q-10 0 -14 -8z" />
<glyph unicode="&#xea;" horiz-adv-x="512" d="M13.5 1161q-7.5 10 2.5 27l119 209q8 14 24.5 24.5t33.5 12.5l12 1t26.5 1t26.5 -1l12 -1q16 -2 32.5 -12.5t25.5 -24.5l118 -209q10 -16 3 -26.5t-25 -10.5h-64q-18 0 -36.5 10t-28.5 27l-64 115l-63 -115q-10 -16 -29.5 -26.5t-36.5 -10.5h-63q-18 0 -25.5 10zM61 66 v882q0 29 18.5 47.5t47.5 18.5h244q33 0 32 -33v-66q0 -33 -32 -32h-178v-310h178q33 0 32 -32v-66q0 -33 -32 -33h-178v-311h178q33 0 32 -33v-65q0 -33 -32 -33h-244q-29 0 -47.5 19.5t-18.5 46.5zM92 1214q-2 -8 4 -8h8q8 0 15 8l82 146h61l82 -146q2 -8 14 -8h9q6 0 4 8 l-90 160q-8 8 -15 8h-69q-10 0 -15 -8zM117 66q0 -10 10 -11h213q8 0 8 8v5q0 10 -8 10h-203v420h203q8 0 8 8v4q0 8 -8 8h-203v420h203q8 0 8 8v4q0 8 -8 8h-213q-10 0 -10 -10v-882z" />
<glyph unicode="&#xeb;" horiz-adv-x="512" d="M59 66v882q0 29 18.5 47.5t47.5 18.5h244q33 0 32 -33v-66q0 -33 -32 -32h-179v-310h179q33 0 32 -32v-66q0 -33 -32 -33h-179v-311h179q33 0 32 -33v-65q0 -33 -32 -33h-244q-29 0 -47.5 19.5t-18.5 46.5zM59 1182v135q0 12 9.5 22.5t23.5 10.5h66q14 0 23 -10.5 t9 -22.5v-135q0 -33 -32 -33h-66q-33 0 -33 33zM115 66q0 -10 10 -11h213q8 0 8 8v5q0 10 -8 10h-203v420h203q8 0 8 8v4q0 8 -8 8h-203v420h203q8 0 8 8v4q0 8 -8 8h-213q-10 0 -10 -10v-882zM115 1210q0 -8 8 -8h4q8 0 8 8v76q0 8 -8 8h-4q-8 0 -8 -8v-76zM270 1182v135 q0 12 9.5 22.5t23.5 10.5h64q14 0 23 -10.5t9 -22.5v-135q0 -33 -32 -33h-64q-33 0 -33 33zM324 1210q0 -8 8 -8h6q8 0 8 8v76q0 8 -8 8h-6q-8 0 -8 -8v-76z" />
<glyph unicode="&#xec;" horiz-adv-x="301" d="M-89 1425.5q7 10.5 26 10.5h63q18 0 36.5 -10.5t29.5 -26.5l118 -211q10 -16 3 -26.5t-25 -10.5h-64q-18 0 -36.5 10t-28.5 27l-119 211q-10 16 -3 26.5zM-10 1374l92 -162q2 -6 12 -6h8q8 0 7 6l-93 162q-4 8 -12 8h-10q-8 0 -4 -8zM63 33v948q0 33 33 33h66 q12 0 22.5 -9.5t10.5 -23.5v-948q0 -33 -33 -33h-66q-33 0 -33 33zM117 63q0 -8 10 -8h4q8 0 8 8v887q0 8 -8 8h-4q-10 0 -10 -8v-887z" />
<glyph unicode="&#xed;" horiz-adv-x="301" d="M58.5 1161q-7.5 10 2.5 27l119 209q8 16 27.5 26.5t36.5 10.5h63q18 0 25.5 -10.5t-2.5 -26.5l-119 -209q-8 -16 -27.5 -26.5t-36.5 -10.5h-63q-18 0 -25.5 10zM61 33v948q0 33 33 33h66q12 0 22.5 -9.5t10.5 -23.5v-948q0 -33 -33 -33h-66q-33 0 -33 33zM115 63 q0 -8 10 -8h4q8 0 8 8v887q0 8 -8 8h-4q-10 0 -10 -8v-887zM137 1212q-4 -8 4 -8h9q6 0 14 8l90 160q4 8 -4 8h-8q-10 0 -15 -8z" />
<glyph unicode="&#xee;" horiz-adv-x="301" d="M-93 1161q-7 10 3 27l119 209q8 14 24.5 24.5t32.5 12.5l12 1q13 1 27 1t27 -1l12 -1q16 -2 32.5 -12.5t24.5 -24.5l119 -209q10 -16 3 -26.5t-26 -10.5h-63q-18 0 -36.5 10t-29.5 27l-63 115l-64 -115q-10 -16 -29.5 -26.5t-35.5 -10.5h-64q-18 0 -25 10zM-14 1214 q-2 -8 4 -8h8q8 0 14 8l82 146h62l82 -146q2 -8 14 -8h8q6 0 4 8l-90 160q-8 8 -14 8h-70q-10 0 -14 -8zM61 33v948q0 33 33 33h66q12 0 22.5 -9.5t10.5 -23.5v-948q0 -33 -33 -33h-66q-33 0 -33 33zM115 63q0 -8 10 -8h4q8 0 8 8v887q0 8 -8 8h-4q-10 0 -10 -8v-887z" />
<glyph unicode="&#xef;" horiz-adv-x="301" d="M-45 1182v135q0 12 9 22.5t24 10.5h65q14 0 23.5 -10.5t9.5 -22.5v-135q0 -33 -33 -33h-65q-33 0 -33 33zM10 1210q0 -8 8 -8h5q8 0 8 8v76q0 8 -8 8h-5q-8 0 -8 -8v-76zM59 33v948q0 33 33 33h66q12 0 22 -9.5t10 -23.5v-948q0 -33 -32 -33h-66q-33 0 -33 33zM113 63 q0 -8 10 -8h4q8 0 8 8v887q0 8 -8 8h-4q-10 0 -10 -8v-887zM166 1182v135q0 12 9 22.5t24 10.5h63q14 0 23.5 -10.5t9.5 -22.5v-135q0 -33 -33 -33h-63q-33 0 -33 33zM219 1210q0 -8 8 -8h6q8 0 9 8v76q0 8 -9 8h-6q-8 0 -8 -8v-76z" />
<glyph unicode="&#xf1;" horiz-adv-x="641" d="M59 33v745q0 49 18.5 91t51.5 75t76 51.5t92 18.5t91 -18.5t75 -51.5t51 -75t18 -91v-745q0 -12 -9 -22.5t-23 -10.5h-66q-14 0 -23.5 10t-9.5 23v745q0 43 -30.5 74t-73.5 31q-45 0 -76 -31t-31 -74v-745q0 -12 -9 -22.5t-23 -10.5h-66q-14 0 -23.5 10t-9.5 23zM115 63 q0 -8 8 -8h4q10 0 10 8v715q0 66 47 113t113 47t113 -47t47 -113v-715q0 -8 8 -8h4q8 0 8 8v715q0 76 -52 128t-128 52t-129 -52t-53 -128v-715zM125 1182v65q0 33 33 33h276q33 0 33 -33v-65q0 -33 -33 -33h-276q-33 0 -33 33zM180 1212q0 -8 8 -8h215q8 0 9 8v5q0 8 -9 8 h-215q-8 0 -8 -8v-5z" />
<glyph unicode="&#xf2;" d="M59 238v540q0 49 18.5 91t51.5 75t76 51.5t92 18.5t91 -18.5t75 -51.5t51 -75t18 -91v-540q0 -49 -18 -92.5t-51 -76t-75 -51t-91 -18.5t-92 18.5t-76 51t-51.5 75.5t-18.5 93zM79 1425.5q7 10.5 25 10.5h64q18 0 36.5 -10.5t28.5 -26.5l119 -211q10 -16 3 -26.5 t-25 -10.5h-64q-18 0 -36.5 10t-28.5 27l-119 211q-10 16 -3 26.5zM115 238q0 -76 53 -129.5t129 -53.5t128 53.5t52 129.5v540q0 76 -52 128t-128 52t-129 -52t-53 -128v-540zM137 238v540q0 66 47 113t113 47t113 -47t47 -113v-540q0 -66 -47.5 -113t-112.5 -47 q-66 0 -113 47t-47 113zM158 1374l92 -162q2 -6 12 -6h8q8 0 6 6l-92 162q-4 8 -12 8h-10q-8 0 -4 -8zM190 238q0 -45 31 -76t76 -31q43 0 73.5 31t30.5 76v540q0 43 -30.5 74t-73.5 31q-45 0 -76 -31t-31 -74v-540z" />
<glyph unicode="&#xf3;" d="M59 238v540q0 49 18.5 91t51.5 75t76 51.5t92 18.5t91 -18.5t75 -51.5t51 -75t18 -91v-540q0 -49 -18 -92.5t-51 -76t-75 -51t-91 -18.5t-92 18.5t-76 51t-51.5 75.5t-18.5 93zM115 238q0 -76 53 -129.5t129 -53.5t128 53.5t52 129.5v540q0 76 -52 128t-128 52t-129 -52 t-53 -128v-540zM137 238v540q0 66 47 113t113 47t113 -47t47 -113v-540q0 -66 -47.5 -113t-112.5 -47q-66 0 -113 47t-47 113zM190 238q0 -45 31 -76t76 -31q43 0 73.5 31t30.5 76v540q0 43 -30.5 74t-73.5 31q-45 0 -76 -31t-31 -74v-540zM236.5 1161q-7.5 10 3.5 27 l118 209q8 16 28 26.5t36 10.5h63q18 0 25.5 -10.5t-2.5 -26.5l-119 -209q-8 -16 -27.5 -26.5t-35.5 -10.5h-64q-18 0 -25.5 10zM315 1212q-4 -8 4 -8h9q6 0 14 8l90 160q4 8 -4 8h-8q-10 0 -14 -8z" />
<glyph unicode="&#xf4;" horiz-adv-x="641" d="M59 238v540q0 49 18.5 91t51.5 75t76 51.5t92 18.5t91 -18.5t75 -51.5t51 -75t18 -91v-540q0 -49 -18 -92.5t-51 -76t-75 -51t-91 -18.5t-92 18.5t-76 51t-51.5 75.5t-18.5 93zM77 1161q-7 10 3 27l119 209q8 14 24.5 24.5t32.5 12.5l12 1q13 1 27 1t27 -1l12 -1 q16 -2 32.5 -12.5t24.5 -24.5l119 -209q10 -16 3 -26.5t-26 -10.5h-63q-18 0 -36.5 10t-29.5 27l-63 115l-64 -115q-10 -16 -29.5 -26.5t-35.5 -10.5h-64q-18 0 -25 10zM115 238q0 -76 53 -129.5t129 -53.5t128 53.5t52 129.5v540q0 76 -52 128t-128 52t-129 -52t-53 -128 v-540zM137 238v540q0 66 47 113t113 47t113 -47t47 -113v-540q0 -66 -47.5 -113t-112.5 -47q-66 0 -113 47t-47 113zM156 1214q-2 -8 4 -8h8q8 0 14 8l82 146h62l82 -146q2 -8 14 -8h8q6 0 4 8l-90 160q-8 8 -14 8h-70q-10 0 -14 -8zM190 238q0 -45 31 -76t76 -31 q43 0 73.5 31t30.5 76v540q0 43 -30.5 74t-73.5 31q-45 0 -76 -31t-31 -74v-540z" />
<glyph unicode="&#xf6;" d="M59 238v540q0 49 18.5 91t51.5 75t76 51.5t92 18.5t91 -18.5t75 -51.5t51 -75t18 -91v-540q0 -49 -18 -92.5t-51 -76t-75 -51t-91 -18.5t-92 18.5t-76 51t-51.5 75.5t-18.5 93zM115 238q0 -76 53 -129.5t129 -53.5t128 53.5t52 129.5v540q0 76 -52 128t-128 52t-129 -52 t-53 -128v-540zM125 1182v135q0 12 9 22.5t24 10.5h65q14 0 23.5 -10.5t9.5 -22.5v-135q0 -33 -33 -33h-65q-33 0 -33 33zM137 238v540q0 66 47 113t113 47t113 -47t47 -113v-540q0 -66 -47.5 -113t-112.5 -47q-66 0 -113 47t-47 113zM180 1210q0 -8 8 -8h5q8 0 8 8v76 q0 8 -8 8h-5q-8 0 -8 -8v-76zM190 238q0 -45 31 -76t76 -31q43 0 73.5 31t30.5 76v540q0 43 -30.5 74t-73.5 31q-45 0 -76 -31t-31 -74v-540zM336 1182v135q0 12 9 22.5t24 10.5h63q14 0 23.5 -10.5t9.5 -22.5v-135q0 -33 -33 -33h-63q-33 0 -33 33zM389 1210q0 -8 8 -8h6 q8 0 9 8v76q0 8 -9 8h-6q-8 0 -8 -8v-76z" />
<glyph unicode="&#xf9;" d="M59 238v743q0 14 10.5 23.5t22.5 9.5h66q33 0 32 -33v-743q0 -45 31 -76t76 -31q43 0 73.5 31t30.5 76v743q0 33 33 33h66q33 0 32 -33v-743q0 -49 -18 -92.5t-51 -76t-75 -51t-91 -18.5t-92 18.5t-76 51t-51.5 75.5t-18.5 93zM79 1425.5q7 10.5 25 10.5h64 q18 0 36.5 -10.5t28.5 -26.5l119 -211q10 -16 3 -26.5t-25 -10.5h-64q-18 0 -36.5 10t-28.5 27l-119 211q-10 16 -3 26.5zM115 238q0 -76 53 -129.5t129 -53.5t129 53.5t53 129.5v712q0 8 -10 8h-4q-8 0 -8 -8v-712q0 -66 -47.5 -113t-112.5 -47q-66 0 -113 47t-47 113v712 q0 8 -8 8h-6q-8 0 -8 -8v-712zM158 1374l92 -162q2 -6 12 -6h8q8 0 6 6l-92 162q-4 8 -12 8h-10q-8 0 -4 -8z" />
<glyph unicode="&#xfa;" d="M59 238v743q0 14 10.5 23.5t22.5 9.5h66q33 0 32 -33v-743q0 -45 31 -76t76 -31q43 0 73.5 31t30.5 76v743q0 33 33 33h66q33 0 32 -33v-743q0 -49 -18 -92.5t-51 -76t-75 -51t-91 -18.5t-92 18.5t-76 51t-51.5 75.5t-18.5 93zM115 238q0 -76 53 -129.5t129 -53.5 t129 53.5t53 129.5v712q0 8 -10 8h-4q-8 0 -8 -8v-712q0 -66 -47.5 -113t-112.5 -47q-66 0 -113 47t-47 113v712q0 8 -8 8h-6q-8 0 -8 -8v-712zM226.5 1161q-7.5 10 2.5 27l119 209q8 16 27.5 26.5t36.5 10.5h63q18 0 25.5 -10.5t-2.5 -26.5l-119 -209q-8 -16 -27.5 -26.5 t-36.5 -10.5h-63q-18 0 -25.5 10zM305 1212q-4 -8 4 -8h8q6 0 15 8l90 160q4 8 -4 8h-8q-10 0 -15 -8z" />
<glyph unicode="&#xfb;" d="M59 238v743q0 14 10.5 23.5t22.5 9.5h66q33 0 32 -33v-743q0 -45 31 -76t76 -31q43 0 73.5 31t30.5 76v743q0 33 33 33h66q33 0 32 -33v-743q0 -49 -18 -92.5t-51 -76t-75 -51t-91 -18.5t-92 18.5t-76 51t-51.5 75.5t-18.5 93zM77 1161q-7 10 3 27l119 209 q8 14 24.5 24.5t32.5 12.5l12 1q13 1 27 1t27 -1l12 -1q16 -2 32.5 -12.5t24.5 -24.5l119 -209q10 -16 3 -26.5t-26 -10.5h-63q-18 0 -36.5 10t-29.5 27l-63 115l-64 -115q-10 -16 -29.5 -26.5t-35.5 -10.5h-64q-18 0 -25 10zM115 238q0 -76 53 -129.5t129 -53.5t129 53.5 t53 129.5v712q0 8 -10 8h-4q-8 0 -8 -8v-712q0 -66 -47.5 -113t-112.5 -47q-66 0 -113 47t-47 113v712q0 8 -8 8h-6q-8 0 -8 -8v-712zM156 1214q-2 -8 4 -8h8q8 0 14 8l82 146h62l82 -146q2 -8 14 -8h8q6 0 4 8l-90 160q-8 8 -14 8h-70q-10 0 -14 -8z" />
<glyph unicode="&#xfc;" d="M59 238v743q0 14 10.5 23.5t22.5 9.5h66q33 0 32 -33v-743q0 -45 31 -76t76 -31q43 0 73.5 31t30.5 76v743q0 33 33 33h66q33 0 32 -33v-743q0 -49 -18 -92.5t-51 -76t-75 -51t-91 -18.5t-92 18.5t-76 51t-51.5 75.5t-18.5 93zM115 238q0 -76 53 -129.5t129 -53.5 t129 53.5t53 129.5v712q0 8 -10 8h-4q-8 0 -8 -8v-712q0 -66 -47.5 -113t-112.5 -47q-66 0 -113 47t-47 113v712q0 8 -8 8h-6q-8 0 -8 -8v-712zM125 1182v135q0 12 9 22.5t24 10.5h65q14 0 23.5 -10.5t9.5 -22.5v-135q0 -33 -33 -33h-65q-33 0 -33 33zM180 1210q0 -8 8 -8h5 q8 0 8 8v76q0 8 -8 8h-5q-8 0 -8 -8v-76zM336 1182v135q0 12 9 22.5t24 10.5h63q14 0 23.5 -10.5t9.5 -22.5v-135q0 -33 -33 -33h-63q-33 0 -33 33zM389 1210q0 -8 8 -8h6q8 0 9 8v76q0 8 -9 8h-6q-8 0 -8 -8v-76z" />
<glyph unicode="&#x152;" horiz-adv-x="3411" />
<glyph unicode="&#x178;" horiz-adv-x="1705" />
<glyph unicode="&#x2c6;" horiz-adv-x="1705" />
<glyph unicode="&#x2dc;" horiz-adv-x="1705" />
<glyph unicode="&#x2000;" horiz-adv-x="718" />
<glyph unicode="&#x2001;" horiz-adv-x="1436" />
<glyph unicode="&#x2002;" horiz-adv-x="718" />
<glyph unicode="&#x2003;" horiz-adv-x="1436" />
<glyph unicode="&#x2004;" horiz-adv-x="478" />
<glyph unicode="&#x2005;" horiz-adv-x="359" />
<glyph unicode="&#x2006;" horiz-adv-x="239" />
<glyph unicode="&#x2007;" horiz-adv-x="239" />
<glyph unicode="&#x2008;" horiz-adv-x="179" />
<glyph unicode="&#x2009;" horiz-adv-x="287" />
<glyph unicode="&#x200a;" horiz-adv-x="79" />
<glyph unicode="&#x2010;" horiz-adv-x="571" d="M59 471v66q0 12 9.5 22t23.5 10h336q14 0 23.5 -10t9.5 -22v-66q0 -33 -33 -33h-336q-33 0 -33 33zM115 500q0 -8 8 -8h276q8 0 9 8v6q0 8 -9 8h-276q-8 0 -8 -8v-6z" />
<glyph unicode="&#x2011;" horiz-adv-x="571" d="M59 471v66q0 12 9.5 22t23.5 10h336q14 0 23.5 -10t9.5 -22v-66q0 -33 -33 -33h-336q-33 0 -33 33zM115 500q0 -8 8 -8h276q8 0 9 8v6q0 8 -9 8h-276q-8 0 -8 -8v-6z" />
<glyph unicode="&#x2012;" horiz-adv-x="571" d="M59 471v66q0 12 9.5 22t23.5 10h336q14 0 23.5 -10t9.5 -22v-66q0 -33 -33 -33h-336q-33 0 -33 33zM115 500q0 -8 8 -8h276q8 0 9 8v6q0 8 -9 8h-276q-8 0 -8 -8v-6z" />
<glyph unicode="&#x2013;" horiz-adv-x="1193" d="M59 471v66q0 12 24 22t60 10h856q36 0 60 -10t24 -22v-66q0 -33 -84 -33h-856q-84 0 -84 33zM202 500q0 -8 20 -8h703q20 0 23 8v6q0 8 -23 8h-703q-20 0 -20 -8v-6z" />
<glyph unicode="&#x2014;" horiz-adv-x="2217" d="M59 471v66q0 12 48.5 22t119.5 10h1712q71 0 119.5 -10t48.5 -22v-66q0 -33 -168 -33h-1712q-168 0 -168 33zM344 500q0 -8 41 -8h1406q41 0 46 8v6q0 8 -46 8h-1406q-41 0 -41 -8v-6z" />
<glyph unicode="&#x202f;" horiz-adv-x="287" />
<glyph unicode="&#x205f;" horiz-adv-x="359" />
<glyph unicode="&#x20ac;" horiz-adv-x="776" d="M59 342v66q0 33 33 32h103v131h-103q-33 0 -33 33v66q0 12 9.5 22t23.5 10h103v74q0 49 18 92t50 75t74 50.5t91 18.5t92 -18.5t75 -50.5t50.5 -75t18.5 -92v-69q0 -12 -9.5 -22.5t-23.5 -10.5h-66q-12 0 -21 10t-9 23v69q0 45 -31 76t-76 31q-43 0 -73.5 -31t-30.5 -76 v-74h102q14 0 23.5 -10t9.5 -22v-66q0 -33 -33 -33h-102v-131h102q33 0 33 -32v-66q0 -33 -33 -33h-102v-73q0 -45 30.5 -76t73.5 -31q45 0 76 30.5t31 76.5v75q0 14 9 23.5t21 9.5h66q33 0 33 -33v-75q0 -49 -18.5 -92.5t-50.5 -75t-75 -50t-92 -18.5t-91 18.5t-74 50 t-50 74.5t-18 93v73h-103q-33 0 -33 33zM113 373q0 -8 8 -8h127v-129q0 -37 14 -71t39 -58.5t57.5 -39t69.5 -14.5q76 0 129 53.5t53 129.5v45q0 8 -8 8h-6q-8 0 -8 -8v-45q0 -66 -47 -113t-113 -47q-33 0 -61.5 12t-50 33.5t-34 51.5t-12.5 63v129h125q10 0 11 8v4 q0 10 -11 10h-125v238h125q10 0 11 10v4q0 8 -11 8h-125v129q0 33 12.5 62.5t34 51t50 34t61.5 12.5q66 0 113 -47t47 -113v-39q0 -8 8 -8h6q8 0 8 8v25v14q0 76 -53 129t-129 53q-37 0 -69.5 -14t-57.5 -38.5t-39 -58.5t-14 -71v-129h-127q-8 0 -8 -8v-4q0 -10 8 -10h127 v-238h-127q-8 0 -8 -10v-4z" />
<glyph unicode="&#xe000;" horiz-adv-x="1013" d="M0 0v1014h1014v-1014h-1014z" />
</font>
</defs>
</svg>
