<?xml version="1.0" standalone="no"?>
<!DOCTYPE svg PUBLIC "-//W3C//DTD SVG 1.1//EN" "http://www.w3.org/Graphics/SVG/1.1/DTD/svg11.dtd" >
<svg xmlns="http://www.w3.org/2000/svg">
<metadata></metadata>
<defs>
<font id="blanchcaps_light" horiz-adv-x="643" >
<font-face units-per-em="2048" ascent="1536" descent="-512" />
<missing-glyph horiz-adv-x="294" />
<glyph horiz-adv-x="2048" />
<glyph horiz-adv-x="2048" />
<glyph unicode="&#xd;" horiz-adv-x="294" />
<glyph unicode=" "  horiz-adv-x="294" />
<glyph unicode="&#x09;" horiz-adv-x="294" />
<glyph unicode="&#xa0;" horiz-adv-x="294" />
<glyph unicode="!" horiz-adv-x="301" d="M59 61q1 9 11 9h4q8 0 8 -9v-184q0 -8 -8 -8h-4q-10 0 -11 8v184zM59 207v790q1 9 11 9h4q8 0 8 -9v-790q0 -10 -8 -10h-4q-10 0 -11 10z" />
<glyph unicode="#" horiz-adv-x="1085" d="M39 305v4q0 8 10 8h238v373h-238q-10 0 -10 8v4q0 10 10 11h238v288q0 8 8 9h6q8 0 8 -9v-288h240v288q0 8 10 9h4q8 0 8 -9v-288h240q8 0 8 -11v-4q0 -8 -8 -8h-240v-373h240q8 0 8 -8v-4q0 -10 -8 -10h-240v-287q0 -8 -8 -8h-4q-10 0 -10 8v287h-240v-287q0 -8 -8 -8 h-6q-8 0 -8 8v287h-238q-10 0 -10 10zM309 317h240v373h-240v-373z" />
<glyph unicode="$" horiz-adv-x="641" d="M59 186v39q0 10 9 11h4q8 0 8 -11v-39q0 -66 47 -112.5t113 -46.5t112.5 47t46.5 112v78q0 16 -8 25l-319 430q-6 6 -9.5 16t-3.5 21v78q0 76 54 129q23 25 52.5 37t63.5 16v121q0 8 9 8h4q10 0 10 -8v-121q35 -2 65.5 -17.5t54 -40t37 -56.5t13.5 -68v-39q0 -8 -8 -9h-6 q-8 0 -9 9v39q0 66 -47 112.5t-112 46.5q-33 0 -63 -12t-51.5 -33.5t-33.5 -50.5t-12 -61v-80q0 -12 8 -25l322 -428q4 -8 8 -18.5t4 -20.5v-78q0 -76 -53 -129q-51 -47 -117 -51v-123q0 -8 -10 -8h-4q-8 0 -9 8v123q-72 4 -121 56.5t-49 123.5zM59 780v2v-2zM59 780v2v-2z " />
<glyph unicode="%" horiz-adv-x="1159" d="M59 778v51q0 76 53.5 129.5t129.5 53.5q37 0 69.5 -14.5t57 -39t39 -58.5t14.5 -71v-51q0 -37 -14.5 -70.5t-39 -58t-57 -39t-69.5 -14.5q-76 0 -129.5 53t-53.5 129zM82 778q0 -66 47 -113t113 -47t111.5 47.5t45.5 112.5v51q0 66 -46 113t-111 47q-66 0 -113 -47 t-47 -113v-51zM317 10v250q0 10 4.5 20.5t8.5 18.5l321 428q8 12 8 25v252q0 8 9 8h4q8 0 8 -8v-252q0 -10 -3 -20.5t-9 -16.5l-320 -430q-8 -12 -8 -25v-250q0 -10 -8 -10h-4q-10 0 -11 10zM575 182v54q0 37 14.5 69.5t39 57t58.5 39t71 14.5q76 0 128 -53.5t52 -126.5v-54 q0 -76 -52 -129t-128 -53t-129.5 53t-53.5 129zM598 182q0 -66 47 -112.5t113 -46.5t113 47t47 112v54q0 33 -12.5 61.5t-34 50t-51 33.5t-62.5 12t-62.5 -12t-51 -33.5t-34 -50.5t-12.5 -61v-54z" />
<glyph unicode="&#x26;" horiz-adv-x="759" d="M59 182v254q0 59 33 105.5t86 64.5q-53 20 -86 65.5t-33 104.5v53q0 76 52.5 128.5t128.5 52.5h39q8 0 8 -9v-4q0 -8 -8 -8h-39q-66 0 -113 -47t-47 -113v-53q2 -66 48 -112t112 -46h159v130q0 8 9 8h6q8 0 8 -8v-130h129q8 0 8 -10v-4q0 -8 -8 -8h-25h-104v-588 q0 -8 -8 -8h-174q-76 0 -128.5 53t-52.5 129zM80 182q0 -66 47 -112.5t113 -46.5h159v573h-159q-66 0 -113 -47q-23 -23 -35 -51.5t-12 -61.5v-254z" />
<glyph unicode="'" horiz-adv-x="301" d="M59 680v455q1 10 9 10h6q8 0 8 -10v-455q0 -10 -8 -10h-6q-8 0 -9 10z" />
<glyph unicode="(" horiz-adv-x="438" d="M59 180v651q0 68 43 119t109 62q8 0 8 -8v-5q0 -10 -8 -10q-55 -10 -92 -54t-37 -104v-651q0 -59 37 -103t92 -54q8 0 8 -11v-4q0 -8 -8 -8q-66 10 -109 61.5t-43 118.5z" />
<glyph unicode=")" horiz-adv-x="436" d="M59 8v4q1 11 9 11q55 10 92 54t37 103v651q0 59 -37 103.5t-92 54.5q-8 0 -9 10v5q0 8 9 8q66 -10 108.5 -61.5t42.5 -119.5v-651q0 -68 -43 -119t-108 -61q-8 0 -9 8z" />
<glyph unicode="+" horiz-adv-x="569" d="M59 504v4q0 8 9 8h127v127q0 8 8 8h4q10 0 10 -8v-127h127q8 0 8 -8v-4q0 -10 -8 -10h-127v-125q0 -10 -10 -11h-4q-8 0 -8 11v125h-127q-8 0 -9 10z" />
<glyph unicode="," horiz-adv-x="301" d="M59 190q1 11 9 11h6q8 0 8 -11v-454q0 -10 -8 -10h-6q-8 0 -9 10v454z" />
<glyph unicode="-" horiz-adv-x="571" d="M59 504v4q0 8 9 8h274q8 0 8 -8v-4q0 -10 -8 -10h-274q-8 0 -9 10z" />
<glyph unicode="." horiz-adv-x="301" d="M59 8v185q0 8 9 8h4q10 0 10 -8v-185q0 -8 -10 -8h-4q-8 0 -9 8z" />
<glyph unicode="/" d="M59 8v252q0 10 3.5 20.5t9.5 16.5l319 430q8 12 8 25v249q0 10 9 11h4q10 0 10 -11v-249q0 -20 -12 -37l-322 -430q-8 -12 -8 -25v-252q0 -8 -8 -8h-4q-8 0 -9 8z" />
<glyph unicode="0" horiz-adv-x="641" d="M59 182v647q0 76 53.5 129.5t129.5 53.5t129 -53.5t53 -129.5v-647q0 -76 -53.5 -129t-128.5 -53q-76 0 -129.5 53t-53.5 129zM82 182q0 -66 47 -112.5t113 -46.5t112.5 47t46.5 112v518q-4 -4 -8 -9t-8 -11l-6 -8l-281 -371q-10 -16 -13 -28.5t-3 -30.5v-60zM82 311 q4 4 8 9.5t8 11.5l6 8l281 371q16 25 16 51v67q0 66 -46.5 113t-112.5 47t-113 -47t-47 -113v-518z" />
<glyph unicode="1" horiz-adv-x="440" d="M59 997v7q0 8 9 8h141q10 0 10 -13v-989q0 -10 -8 -10h-6q-8 0 -8 10v979h-129q-8 0 -9 8z" />
<glyph unicode="2" d="M59 10v56v176v18q0 10 3.5 20.5t9.5 16.5l319 430q8 12 8 25v24v2v51q0 66 -47 113t-112 47q-66 0 -112 -47t-46 -113v-38q0 -8 -10 -9h-4q-8 0 -9 9v38q0 37 14.5 71t39 58.5t57.5 39t70 14.5q76 0 129 -54q53 -53 53 -129v-53v-24q0 -10 -4 -20.5t-8 -18.5l-320 -428 q-4 -4 -6 -12.5t-2 -12.5v-18v-219h332q8 0 8 -9v-4q0 -10 -8 -10h-346q-8 0 -9 10z" />
<glyph unicode="3" d="M59 182v37q0 10 9 10h4q8 0 8 -10v-37q0 -66 47 -112.5t113 -46.5t112.5 47t46.5 112v154q0 59 -36.5 103t-92.5 55q-8 0 -8 10v6q0 10 8 10q55 10 92 54t37 104v151q0 66 -47 113t-112 47q-66 0 -113 -47t-47 -113v-38q0 -8 -8 -9h-4q-8 0 -9 9v38q0 76 52.5 129.5 t128.5 53.5t129 -53.5t53 -129.5v-151q0 -59 -34 -105.5t-87 -64.5q53 -20 87 -66.5t34 -105.5v-154q0 -76 -53.5 -129t-128.5 -53q-76 0 -128.5 53t-52.5 129z" />
<glyph unicode="4" horiz-adv-x="780" d="M59 371v139q0 20 13 37l317 426q8 8 8 24v7q0 8 9 8h4q8 0 8 -8v-7q0 -10 -3 -20t-9 -19l-318 -423q-8 -12 -8 -25v-127h317v180q0 10 9 10h4q10 0 10 -10v-180h127q8 0 8 -8v-4q0 -8 -8 -9h-127v-352q0 -10 -10 -10h-4q-8 0 -9 10v352h-329q-8 0 -9 9z" />
<glyph unicode="5" d="M59 182v39q0 8 9 8h6q8 0 8 -8v-39q0 -66 47 -112.5t113 -46.5t111.5 47t45.5 112v254q0 66 -46 113t-111 47h-174q-8 0 -9 8v400q0 8 9 8h346q8 0 8 -8v-7q0 -8 -8 -8h-332v-371h160q76 0 128 -53t52 -129v-254q0 -76 -52.5 -129t-127.5 -53q-76 0 -129.5 53t-53.5 129z " />
<glyph unicode="6" d="M59 180v649q0 37 14.5 70t39 57.5t58.5 39t71 14.5q68 0 118 -43t60 -109q4 -8 -6 -8h-6q-6 0 -11 8q-10 55 -53 92t-102 37q-33 0 -62.5 -12t-51.5 -33.5t-34 -50.5t-12 -62v-307q23 43 65 68.5t95 25.5q76 0 129 -52t53 -128v-256q0 -76 -53.5 -128t-128.5 -52 q-76 0 -129.5 52t-53.5 128zM82 180q0 -66 47 -113t113 -47t112.5 47.5t46.5 112.5v256q0 66 -47 113t-112 47q-66 0 -113 -47t-47 -113v-256z" />
<glyph unicode="7" horiz-adv-x="641" d="M59 10v250q0 20 13 37l321 430q8 12 8 25v237h-333q-8 0 -9 8v7q0 8 9 8h346q8 0 8 -8v-252q0 -10 -3 -20.5t-9 -18.5l-320 -428q-8 -12 -8 -25v-250q0 -10 -8 -10h-6q-8 0 -9 10z" />
<glyph unicode="8" horiz-adv-x="641" d="M59 182v256q0 59 34 104.5t87 65.5q-53 18 -86 63.5t-35 104.5v55h23v-55q2 -66 48 -112t112 -46t111.5 46.5t47.5 111.5v2v53h23v-53v-2q-2 -59 -35 -104t-86 -64q53 -20 87 -65t34 -105v-256q0 -76 -53.5 -129t-128.5 -53q-76 0 -129.5 53t-53.5 129zM59 831 q2 76 54.5 128.5t128.5 52.5q37 0 69.5 -14.5t57 -39t40 -57.5t15.5 -70h-23q-2 66 -48 112t-111 46q-66 0 -112 -46t-48 -112h-23zM82 182q0 -66 47 -112.5t113 -46.5t112.5 47t46.5 112v256q0 33 -12 61.5t-33.5 50t-51.5 34t-62 12.5q-33 0 -62.5 -12.5t-51.5 -34 t-34 -50t-12 -61.5v-256z" />
<glyph unicode="9" horiz-adv-x="641" d="M59 678v151q0 76 52.5 129.5t128.5 53.5t129 -53.5t53 -129.5v-647q0 -76 -53.5 -129t-128.5 -53q-68 0 -118 43t-61 109q-4 8 7 8h6q6 0 10 -8q10 -55 53 -92t103 -37q66 0 112.5 47t46.5 112v408q-23 -41 -64.5 -67.5t-94.5 -26.5q-76 0 -128.5 53t-52.5 129zM80 678 q0 -66 47 -113t113 -47t112.5 47t46.5 113v151q0 66 -47 113t-112 47q-66 0 -113 -47t-47 -113v-151z" />
<glyph unicode=":" horiz-adv-x="301" d="M59 8v185q0 8 9 8h4q10 0 10 -8v-185q0 -8 -10 -8h-4q-8 0 -9 8zM59 586v184q0 8 9 8h4q10 0 10 -8v-184q0 -8 -10 -8h-4q-8 0 -9 8z" />
<glyph unicode=";" horiz-adv-x="301" d="M59 190q1 11 9 11h6q8 0 8 -11v-454q0 -10 -8 -10h-6q-8 0 -9 10v454zM59 586v184q0 8 9 8h4q10 0 10 -8v-184q0 -8 -10 -8h-4q-8 0 -9 8z" />
<glyph unicode="=" horiz-adv-x="571" d="M59 371v4q0 10 9 10h276q8 0 8 -10v-4q0 -8 -8 -9h-276q-8 0 -9 9zM59 633v4q0 10 9 10h276q8 0 8 -10v-4q0 -8 -8 -8h-276q-8 0 -9 8z" />
<glyph unicode="?" horiz-adv-x="641" d="M59 68q1 8 9 8h6q8 0 8 -8v-185q0 -8 -8 -8h-6q-8 0 -9 8v185zM59 213v76v16v10q0 10 4.5 20.5t8.5 18.5l319 426q8 12 8 25v24v2q0 66 -47 113t-112 47q-33 0 -61.5 -12t-50.5 -33.5t-34 -51.5t-12 -63v-38q0 -8 -8 -9h-6q-8 0 -9 9v38q0 76 53.5 128.5t127.5 52.5 t129 -51q25 -27 39 -60t14 -70v-2v-24q0 -18 -14 -37l-318 -428q-8 -12 -8 -25v-10v-16v-76q0 -10 -8 -10h-6q-8 0 -9 10zM422 829v2v-2zM477 774v2v-2z" />
<glyph unicode="@" horiz-adv-x="1236" d="M59 182v645q0 78 52.5 131.5t130.5 53.5h430q76 0 129 -53.5t53 -131.5v-376q0 -78 -53 -130.5t-129 -52.5h-47q-8 0 -9 8v207h-321v-207q0 -8 -8 -8h-4q-8 0 -9 8v287q0 76 53.5 129t129.5 53t129 -53t53 -129v-274h33q66 0 112.5 47t46.5 115v376q0 68 -47 115t-112 47 h-430q-68 0 -115 -47t-47 -115v-645q0 -66 47 -112.5t115 -46.5h297q8 0 8 -9v-6q0 -8 -8 -8h-297q-78 0 -130.5 53t-52.5 129zM295 506h321v57q0 66 -47 113t-112 47q-68 0 -115 -47t-47 -113v-57z" />
<glyph unicode="A" d="M59 8v821q0 37 14.5 71t39 58.5t57.5 39t70 14.5q76 0 129 -53.5t53 -129.5v-821q0 -8 -8 -8h-6q-8 0 -9 8v488h-317v-488q0 -8 -10 -8h-4q-8 0 -9 8zM82 518h317v311q0 66 -47 113t-112 47q-33 0 -61.5 -12t-50.5 -33.5t-34 -51.5t-12 -63v-311z" />
<glyph unicode="B" d="M59 12v987q0 12 13 13h170q76 0 128 -53.5t52 -129.5v-153q0 -59 -33 -105.5t-86 -64.5q53 -18 86 -64.5t33 -105.5v-154q0 -76 -52.5 -129t-127.5 -53h-170q-12 0 -13 12zM82 23h160q66 0 112.5 47t46.5 112v154q0 66 -47 113t-112 47h-160v-473zM82 516h160 q66 0 112.5 47t46.5 113v153q0 66 -47 113t-112 47h-160v-473z" />
<glyph unicode="C" horiz-adv-x="620" d="M59 182v647q0 76 53.5 129.5t129.5 53.5t128 -53.5t52 -129.5v-14v-24q0 -8 -8 -9h-4q-8 0 -9 9v24v14q0 66 -47 113t-112 47q-66 0 -113 -47t-47 -113v-647q0 -66 47 -112.5t113 -46.5t112.5 47t46.5 112v45q0 10 9 11h4q8 0 8 -11v-45q0 -76 -52.5 -129t-127.5 -53 q-76 0 -129.5 53t-53.5 129z" />
<glyph unicode="D" d="M59 12v987q0 12 13 13h170q76 0 129 -53.5t53 -129.5v-647q0 -76 -53.5 -129t-128.5 -53h-170q-12 0 -13 12zM82 23h160q66 0 112.5 47t46.5 112v647q0 66 -47 113t-112 47h-160v-966z" />
<glyph unicode="E" horiz-adv-x="512" d="M59 12v987q0 12 11 13h213q8 0 8 -11v-4q0 -8 -8 -8h-201v-471h201q8 0 8 -10v-4q0 -8 -8 -8h-201v-473h201q8 0 8 -9v-6q0 -8 -8 -8h-213q-10 0 -11 12z" />
<glyph unicode="F" horiz-adv-x="512" d="M59 8v991q0 12 11 13h213q8 0 8 -11v-4q0 -8 -8 -8h-201v-471h201q8 0 8 -10v-4q0 -8 -8 -8h-201v-488q0 -8 -10 -8h-4q-8 0 -9 8z" />
<glyph unicode="G" horiz-adv-x="641" d="M59 182v647q0 76 52.5 129.5t128.5 53.5t129 -53.5t53 -129.5v-38q0 -8 -10 -9h-4q-8 0 -9 9v38q0 66 -47 113t-112 47q-66 0 -113 -47t-47 -113v-647q0 -66 47 -112.5t113 -46.5t112.5 47t46.5 112v316h-96q-8 0 -8 8v6q0 8 8 8h109q10 0 10 -8v-330q0 -76 -53.5 -129 t-128.5 -53q-76 0 -128.5 53t-52.5 129z" />
<glyph unicode="H" horiz-adv-x="641" d="M59 8v993q0 10 9 11h4q8 0 8 -11v-485h319v485q0 10 9 11h6q8 0 8 -11v-993q0 -8 -8 -8h-6q-8 0 -9 8v488h-319v-488q0 -8 -8 -8h-4q-8 0 -9 8z" />
<glyph unicode="I" horiz-adv-x="301" d="M59 8v993q0 10 9 11h4q10 0 10 -11v-993q0 -8 -10 -8h-4q-9 0 -9 8z" />
<glyph unicode="J" horiz-adv-x="641" d="M59 182v45q0 8 9 9h4q10 0 10 -9v-45q0 -66 46 -112.5t112 -46.5t112.5 47t46.5 112v819q0 10 9 11h6q8 0 8 -11v-819q0 -76 -53.5 -129t-128.5 -53q-76 0 -128.5 53t-52.5 129z" />
<glyph unicode="K" d="M59 8v488v20v485q0 8 9 9h4q10 0 10 -9v-485h160q33 0 61.5 12.5t50 34t33.5 51t12 62.5v325q0 8 11 9h4q8 0 8 -9v-325q0 -59 -33 -105.5t-86 -64.5q53 -18 86 -64.5t33 -105.5v-328q0 -8 -8 -8h-4q-10 0 -11 8v328q0 33 -12 62.5t-33.5 51t-50.5 34t-61 12.5h-160v-488 q0 -8 -10 -8h-4q-8 0 -9 8z" />
<glyph unicode="L" horiz-adv-x="489" d="M59 12v989q0 10 9 11h4q10 0 10 -11v-978h201q8 0 8 -9v-6q0 -8 -8 -8h-213q-11 0 -11 12z" />
<glyph unicode="M" horiz-adv-x="985" d="M59 8v821q0 37 14.5 70t39 57.5t58.5 39t71 14.5q59 0 105 -33t65 -86q18 53 64.5 86t105.5 33q37 0 70.5 -14.5t58 -39t39 -57.5t14.5 -70v-821q0 -8 -10 -8h-4q-8 0 -9 8v821q0 66 -47 112t-112 46q-66 0 -113 -46t-47 -112v-821q0 -8 -8 -8h-4q-8 0 -9 8v821 q0 66 -47 112t-112 46q-66 0 -113 -46t-47 -112v-821q0 -8 -8 -8h-6q-8 0 -9 8z" />
<glyph unicode="N" d="M59 8v821q0 76 53.5 129.5t129.5 53.5t128 -53.5t52 -129.5v-821q0 -8 -8 -8h-4q-11 0 -11 8v821q0 66 -46 113t-111 47q-66 0 -113 -47t-47 -113v-821q0 -8 -8 -8h-6q-8 0 -9 8z" />
<glyph unicode="O" d="M59 182v647q0 76 53.5 129.5t129.5 53.5t128 -53.5t52 -129.5v-647q0 -76 -52 -129t-128 -53t-129.5 53t-53.5 129zM82 182q0 -66 47 -112.5t113 -46.5t112.5 47t46.5 112v647q0 66 -46.5 113t-112.5 47t-113 -47t-47 -113v-647z" />
<glyph unicode="P" horiz-adv-x="600" d="M59 8v488v22v483q0 10 11 11h172q76 0 128 -53.5t52 -129.5v-151q0 -76 -52.5 -129t-127.5 -53h-160v-488q0 -8 -8 -8h-4q-10 0 -11 8zM82 518h160q66 0 112.5 47t46.5 113v151q0 66 -47 113t-112 47h-160v-471z" />
<glyph unicode="Q" d="M59 182v649q0 76 53.5 129.5t129.5 53.5t128 -53.5t52 -129.5v-649q0 -72 -49 -124t-121 -56v-121q0 -10 -8 -10h-4q-10 0 -11 10v121q-72 4 -121 56.5t-49 123.5zM82 182q0 -33 12 -61.5t34 -50t51.5 -33.5t62.5 -12t62.5 12t51 33.5t33.5 50.5t12 61v649q0 66 -47 113 t-112 47q-66 0 -113 -47t-47 -113v-649z" />
<glyph unicode="R" horiz-adv-x="630" d="M49 8v991q0 12 12 13h170q76 0 129.5 -53.5t53.5 -129.5v-151q0 -59 -34 -105.5t-87 -66.5q53 -18 87 -64.5t34 -105.5v-328q0 -8 -11 -8h-4q-8 0 -8 8v328q0 66 -47 113t-113 47h-159v-488q0 -8 -9 -8h-4q-10 0 -10 8zM72 518h159q66 0 113 47t47 113v151q0 66 -47 113 t-113 47h-159v-471z" />
<glyph unicode="S" horiz-adv-x="600" d="M39 182v39q0 8 10 8h4q8 0 8 -8v-39q0 -66 47.5 -112.5t112.5 -46.5q66 0 113 47t47 112v54v-3v5v22q0 12 -8 25l-320 428q-6 8 -9 18t-3 21v24h-2v53q0 37 14.5 70t38.5 59q53 53 129 54q76 0 129 -53.5t53 -129.5v-38q0 -8 -10 -9h-4q-8 0 -8 9v38q0 66 -47 113 t-113 47t-113 -47t-47 -113v-51v-2v-24q0 -12 9 -25l319 -428q12 -16 12 -39v-22h2v-5v-51q0 -37 -14 -69.5t-39 -59.5q-53 -53 -129 -53t-129 53t-53 129z" />
<glyph unicode="T" horiz-adv-x="509" d="M39 997v4q0 10 8 11h254q8 0 8 -11v-4q0 -8 -8 -8h-117v-981q0 -8 -8 -8h-4q-8 0 -8 8v981h-117q-8 0 -8 8z" />
<glyph unicode="U" d="M59 182v819q0 10 11 11h4q8 0 8 -11v-819q0 -66 47 -112.5t113 -46.5t112.5 47t46.5 112v819q0 10 9 11h4q8 0 8 -11v-819q0 -76 -52.5 -129t-127.5 -53q-76 0 -129.5 53t-53.5 129z" />
<glyph unicode="V" d="M59 289v712q0 10 9 11h6q8 0 8 -11v-712q0 -14 2 -27q4 -25 18 -49l109 -190h61l109 190q12 27 16 49q2 12 4 27v712q0 10 9 11h4q8 0 8 -11v-712q0 -14 -2 -29q-4 -29 -21 -59l-112 -195q-4 -6 -8 -6h-74q-8 0 -10 6l-111 195q-10 14 -15.5 30.5t-7.5 28.5q-3 9 -3 19 q0 5 1 10z" />
<glyph unicode="W" horiz-adv-x="983" d="M59 289v712q0 8 9 9h4q10 0 10 -9v-712q0 -14 2 -27q2 -10 5 -24.5t11 -26.5l111 -191h59l109 191q8 12 12 26.5t6 24.5q2 12 2 27v712q0 8 9 9h6q8 0 8 -9v-712q0 -14 2 -27q2 -10 6 -24.5t12 -26.5l109 -191h59l111 191q12 25 16 51q2 12 4 27v712q0 8 9 9h4q8 0 8 -9 v-712q0 -2 -3 -31t-20 -57l-112 -197q-4 -4 -9 -4h-73q-6 0 -10 4l-111 197q-8 10 -12 26q-4 -6 -7.5 -13t-7.5 -13l-110 -197q-4 -4 -11 -4h-73q-4 0 -8 4l-113 197q-16 29 -19.5 57.5t-3.5 30.5z" />
<glyph unicode="X" d="M59 10v150q0 53 31 100l2 2l135 240l-135 241l-2 2q-31 43 -31 101v155q0 10 11 11h4q8 0 8 -11v-155q0 -29 8 -51l2 -7l150 -262l149 262v7q10 27 10 51v155q0 10 9 11h4q8 0 8 -11v-155q0 -57 -31 -101v-2l-137 -241l137 -240v-2q31 -47 31 -100v-150q0 -10 -8 -10h-4 q-8 0 -9 10v150q0 25 -10 51v4l-149 264l-150 -264l-2 -4q-8 -23 -8 -51v-150q0 -10 -8 -10h-4q-10 0 -11 10z" />
<glyph unicode="Y" horiz-adv-x="602" d="M39 678v323q0 10 8 11h4q8 0 8 -11v-323q0 -66 47.5 -113t112.5 -47q66 0 113 47t47 113v323q0 10 8 11h4q10 0 10 -11v-323q0 -72 -49 -125t-121 -57v-488q0 -8 -10 -8h-4q-8 0 -8 8v488q-72 4 -121 57t-49 125z" />
<glyph unicode="Z" horiz-adv-x="620" d="M59 10v250q0 20 15 39l319 428q8 12 8 25v237h-333q-8 0 -9 8v4q0 10 9 11h346q8 0 8 -11v-249q0 -10 -3 -20.5t-9 -18.5l-320 -428q-8 -12 -8 -25v-237h334q8 0 8 -9v-4q0 -10 -8 -10h-346q-10 0 -11 10z" />
<glyph unicode="[" horiz-adv-x="509" d="M59 12v987q0 12 13 13h211q10 0 10 -11v-4q0 -8 -10 -8h-201v-966h201q10 0 10 -9v-6q0 -8 -10 -8h-211q-12 0 -13 12z" />
<glyph unicode="\" d="M59 752v249q0 10 9 11h4q8 -1 8 -11v-249q0 -12 8 -25l322 -430q12 -16 12 -37v-252q0 -8 -10 -8h-4q-8 0 -9 8v252q0 12 -8 25l-319 430q-6 6 -9.5 16t-3.5 21z" />
<glyph unicode="]" horiz-adv-x="509" d="M59 8v6q0 8 11 9h200v966h-200q-10 0 -11 8v4q0 10 11 11h211q12 0 12 -13v-987q0 -12 -12 -12h-211q-10 0 -11 8z" />
<glyph unicode="^" horiz-adv-x="612" d="M57 1157l90 162q4 8 13 8h71q8 0 13 -8l92 -162q2 -6 -6 -6h-8q-10 0 -13 6l-84 148h-59l-84 -148q-4 -6 -12 -6h-9q-10 0 -4 6z" />
<glyph unicode="`" horiz-adv-x="452" d="M57 1321q-4 6 4 6h9q8 0 12 -6l92 -162q4 -8 -4 -8h-8q-10 0 -15 8z" />
<glyph unicode="a" d="M59 8v821q0 37 14.5 71t39 58.5t57.5 39t70 14.5q76 0 129 -53.5t53 -129.5v-821q0 -8 -8 -8h-6q-8 0 -9 8v488h-317v-488q0 -8 -10 -8h-4q-8 0 -9 8zM82 518h317v311q0 66 -47 113t-112 47q-33 0 -61.5 -12t-50.5 -33.5t-34 -51.5t-12 -63v-311z" />
<glyph unicode="b" d="M59 12v987q0 12 13 13h170q76 0 128 -53.5t52 -129.5v-153q0 -59 -33 -105.5t-86 -64.5q53 -18 86 -64.5t33 -105.5v-154q0 -76 -52.5 -129t-127.5 -53h-170q-12 0 -13 12zM82 23h160q66 0 112.5 47t46.5 112v154q0 66 -47 113t-112 47h-160v-473zM82 516h160 q66 0 112.5 47t46.5 113v153q0 66 -47 113t-112 47h-160v-473z" />
<glyph unicode="c" horiz-adv-x="620" d="M59 182v647q0 76 53.5 129.5t129.5 53.5t128 -53.5t52 -129.5v-14v-24q0 -8 -8 -9h-4q-8 0 -9 9v24v14q0 66 -47 113t-112 47q-66 0 -113 -47t-47 -113v-647q0 -66 47 -112.5t113 -46.5t112.5 47t46.5 112v45q0 10 9 11h4q8 0 8 -11v-45q0 -76 -52.5 -129t-127.5 -53 q-76 0 -129.5 53t-53.5 129z" />
<glyph unicode="d" d="M59 12v987q0 12 13 13h170q76 0 129 -53.5t53 -129.5v-647q0 -76 -53.5 -129t-128.5 -53h-170q-12 0 -13 12zM82 23h160q66 0 112.5 47t46.5 112v647q0 66 -47 113t-112 47h-160v-966z" />
<glyph unicode="e" horiz-adv-x="512" d="M59 12v987q0 12 11 13h213q8 0 8 -11v-4q0 -8 -8 -8h-201v-471h201q8 0 8 -10v-4q0 -8 -8 -8h-201v-473h201q8 0 8 -9v-6q0 -8 -8 -8h-213q-10 0 -11 12z" />
<glyph unicode="f" horiz-adv-x="512" d="M59 8v991q0 12 11 13h213q8 0 8 -11v-4q0 -8 -8 -8h-201v-471h201q8 0 8 -10v-4q0 -8 -8 -8h-201v-488q0 -8 -10 -8h-4q-8 0 -9 8z" />
<glyph unicode="g" horiz-adv-x="641" d="M59 182v647q0 76 52.5 129.5t128.5 53.5t129 -53.5t53 -129.5v-38q0 -8 -10 -9h-4q-8 0 -9 9v38q0 66 -47 113t-112 47q-66 0 -113 -47t-47 -113v-647q0 -66 47 -112.5t113 -46.5t112.5 47t46.5 112v316h-96q-8 0 -8 8v6q0 8 8 8h109q10 0 10 -8v-330q0 -76 -53.5 -129 t-128.5 -53q-76 0 -128.5 53t-52.5 129z" />
<glyph unicode="h" horiz-adv-x="641" d="M59 8v993q0 10 9 11h4q8 0 8 -11v-485h319v485q0 10 9 11h6q8 0 8 -11v-993q0 -8 -8 -8h-6q-8 0 -9 8v488h-319v-488q0 -8 -8 -8h-4q-8 0 -9 8z" />
<glyph unicode="i" horiz-adv-x="301" d="M59 8v993q0 10 9 11h4q10 0 10 -11v-993q0 -8 -10 -8h-4q-9 0 -9 8z" />
<glyph unicode="j" horiz-adv-x="641" d="M59 182v45q0 8 9 9h4q10 0 10 -9v-45q0 -66 46 -112.5t112 -46.5t112.5 47t46.5 112v819q0 10 9 11h6q8 0 8 -11v-819q0 -76 -53.5 -129t-128.5 -53q-76 0 -128.5 53t-52.5 129z" />
<glyph unicode="k" d="M59 8v488v20v485q0 8 9 9h4q10 0 10 -9v-485h160q33 0 61.5 12.5t50 34t33.5 51t12 62.5v325q0 8 11 9h4q8 0 8 -9v-325q0 -59 -33 -105.5t-86 -64.5q53 -18 86 -64.5t33 -105.5v-328q0 -8 -8 -8h-4q-10 0 -11 8v328q0 33 -12 62.5t-33.5 51t-50.5 34t-61 12.5h-160v-488 q0 -8 -10 -8h-4q-8 0 -9 8z" />
<glyph unicode="l" horiz-adv-x="489" d="M59 12v989q0 10 9 11h4q10 0 10 -11v-978h201q8 0 8 -9v-6q0 -8 -8 -8h-213q-11 0 -11 12z" />
<glyph unicode="m" horiz-adv-x="985" d="M59 8v821q0 37 14.5 70t39 57.5t58.5 39t71 14.5q59 0 105 -33t65 -86q18 53 64.5 86t105.5 33q37 0 70.5 -14.5t58 -39t39 -57.5t14.5 -70v-821q0 -8 -10 -8h-4q-8 0 -9 8v821q0 66 -47 112t-112 46q-66 0 -113 -46t-47 -112v-821q0 -8 -8 -8h-4q-8 0 -9 8v821 q0 66 -47 112t-112 46q-66 0 -113 -46t-47 -112v-821q0 -8 -8 -8h-6q-8 0 -9 8z" />
<glyph unicode="n" d="M59 8v821q0 76 53.5 129.5t129.5 53.5t128 -53.5t52 -129.5v-821q0 -8 -8 -8h-4q-11 0 -11 8v821q0 66 -46 113t-111 47q-66 0 -113 -47t-47 -113v-821q0 -8 -8 -8h-6q-8 0 -9 8z" />
<glyph unicode="o" d="M59 182v647q0 76 53.5 129.5t129.5 53.5t128 -53.5t52 -129.5v-647q0 -76 -52 -129t-128 -53t-129.5 53t-53.5 129zM82 182q0 -66 47 -112.5t113 -46.5t112.5 47t46.5 112v647q0 66 -46.5 113t-112.5 47t-113 -47t-47 -113v-647z" />
<glyph unicode="p" horiz-adv-x="600" d="M59 8v488v22v483q0 10 11 11h172q76 0 128 -53.5t52 -129.5v-151q0 -76 -52.5 -129t-127.5 -53h-160v-488q0 -8 -8 -8h-4q-10 0 -11 8zM82 518h160q66 0 112.5 47t46.5 113v151q0 66 -47 113t-112 47h-160v-471z" />
<glyph unicode="q" d="M59 182v649q0 76 53.5 129.5t129.5 53.5t128 -53.5t52 -129.5v-649q0 -72 -49 -124t-121 -56v-121q0 -10 -8 -10h-4q-10 0 -11 10v121q-72 4 -121 56.5t-49 123.5zM82 182q0 -33 12 -61.5t34 -50t51.5 -33.5t62.5 -12t62.5 12t51 33.5t33.5 50.5t12 61v649q0 66 -47 113 t-112 47q-66 0 -113 -47t-47 -113v-649z" />
<glyph unicode="r" horiz-adv-x="630" d="M49 8v991q0 12 12 13h170q76 0 129.5 -53.5t53.5 -129.5v-151q0 -59 -34 -105.5t-87 -66.5q53 -18 87 -64.5t34 -105.5v-328q0 -8 -11 -8h-4q-8 0 -8 8v328q0 66 -47 113t-113 47h-159v-488q0 -8 -9 -8h-4q-10 0 -10 8zM72 518h159q66 0 113 47t47 113v151q0 66 -47 113 t-113 47h-159v-471z" />
<glyph unicode="s" horiz-adv-x="600" d="M39 182v39q0 8 10 8h4q8 0 8 -8v-39q0 -66 47.5 -112.5t112.5 -46.5q66 0 113 47t47 112v54v-3v5v22q0 12 -8 25l-320 428q-6 8 -9 18t-3 21v24h-2v53q0 37 14.5 70t38.5 59q53 53 129 54q76 0 129 -53.5t53 -129.5v-38q0 -8 -10 -9h-4q-8 0 -8 9v38q0 66 -47 113 t-113 47t-113 -47t-47 -113v-51v-2v-24q0 -12 9 -25l319 -428q12 -16 12 -39v-22h2v-5v-51q0 -37 -14 -69.5t-39 -59.5q-53 -53 -129 -53t-129 53t-53 129z" />
<glyph unicode="t" horiz-adv-x="509" d="M39 997v4q0 10 8 11h254q8 0 8 -11v-4q0 -8 -8 -8h-117v-981q0 -8 -8 -8h-4q-8 0 -8 8v981h-117q-8 0 -8 8z" />
<glyph unicode="u" d="M59 182v819q0 10 11 11h4q8 0 8 -11v-819q0 -66 47 -112.5t113 -46.5t112.5 47t46.5 112v819q0 10 9 11h4q8 0 8 -11v-819q0 -76 -52.5 -129t-127.5 -53q-76 0 -129.5 53t-53.5 129z" />
<glyph unicode="v" d="M59 289v712q0 10 9 11h6q8 0 8 -11v-712q0 -14 2 -27q4 -25 18 -49l109 -190h61l109 190q12 27 16 49q2 12 4 27v712q0 10 9 11h4q8 0 8 -11v-712q0 -14 -2 -29q-4 -29 -21 -59l-112 -195q-4 -6 -8 -6h-74q-8 0 -10 6l-111 195q-10 14 -15.5 30.5t-7.5 28.5q-3 9 -3 19 q0 5 1 10z" />
<glyph unicode="w" horiz-adv-x="983" d="M59 289v712q0 8 9 9h4q10 0 10 -9v-712q0 -14 2 -27q2 -10 5 -24.5t11 -26.5l111 -191h59l109 191q8 12 12 26.5t6 24.5q2 12 2 27v712q0 8 9 9h6q8 0 8 -9v-712q0 -14 2 -27q2 -10 6 -24.5t12 -26.5l109 -191h59l111 191q12 25 16 51q2 12 4 27v712q0 8 9 9h4q8 0 8 -9 v-712q0 -2 -3 -31t-20 -57l-112 -197q-4 -4 -9 -4h-73q-6 0 -10 4l-111 197q-8 10 -12 26q-4 -6 -7.5 -13t-7.5 -13l-110 -197q-4 -4 -11 -4h-73q-4 0 -8 4l-113 197q-16 29 -19.5 57.5t-3.5 30.5z" />
<glyph unicode="x" d="M59 10v150q0 53 31 100l2 2l135 240l-135 241l-2 2q-31 43 -31 101v155q0 10 11 11h4q8 0 8 -11v-155q0 -29 8 -51l2 -7l150 -262l149 262v7q10 27 10 51v155q0 10 9 11h4q8 0 8 -11v-155q0 -57 -31 -101v-2l-137 -241l137 -240v-2q31 -47 31 -100v-150q0 -10 -8 -10h-4 q-8 0 -9 10v150q0 25 -10 51v4l-149 264l-150 -264l-2 -4q-8 -23 -8 -51v-150q0 -10 -8 -10h-4q-10 0 -11 10z" />
<glyph unicode="y" horiz-adv-x="602" d="M39 678v323q0 10 8 11h4q8 0 8 -11v-323q0 -66 47.5 -113t112.5 -47q66 0 113 47t47 113v323q0 10 8 11h4q10 0 10 -11v-323q0 -72 -49 -125t-121 -57v-488q0 -8 -10 -8h-4q-8 0 -8 8v488q-72 4 -121 57t-49 125z" />
<glyph unicode="z" horiz-adv-x="620" d="M59 10v250q0 20 15 39l319 428q8 12 8 25v237h-333q-8 0 -9 8v4q0 10 9 11h346q8 0 8 -11v-249q0 -10 -3 -20.5t-9 -18.5l-320 -428q-8 -12 -8 -25v-237h334q8 0 8 -9v-4q0 -10 -8 -10h-346q-10 0 -11 10z" />
<glyph unicode="&#xa1;" horiz-adv-x="301" d="M59 -115v793q0 8 11 8h4q8 0 8 -8v-793q0 -8 -8 -8h-4q-10 0 -11 8zM59 827v179q0 8 11 8h4q8 0 8 -8v-179q0 -8 -8 -8h-4q-10 0 -11 8z" />
<glyph unicode="&#xa8;" horiz-adv-x="509" d="M59 1157v76q0 8 11 8h4q8 0 8 -8v-76q0 -8 -8 -8h-4q-10 0 -11 8zM270 1157v76q0 8 9 8h4q10 0 10 -8v-76q0 -8 -10 -8h-4q-8 0 -9 8z" />
<glyph unicode="&#xad;" horiz-adv-x="571" d="M59 504v4q0 8 9 8h274q8 0 8 -8v-4q0 -10 -8 -10h-274q-8 0 -9 10z" />
<glyph unicode="&#xaf;" horiz-adv-x="1705" />
<glyph unicode="&#xb4;" horiz-adv-x="450" d="M55 1159l90 162q2 6 15 6h8q6 0 4 -6l-90 -162q-8 -8 -14 -8h-9q-8 0 -4 8z" />
<glyph unicode="&#xb7;" horiz-adv-x="1705" />
<glyph unicode="&#xb8;" horiz-adv-x="1705" />
<glyph unicode="&#xbf;" horiz-adv-x="641" d="M59 57v2v-2zM59 57q0 -76 54 -129q53 -53 127 -53q76 0 129 53t53 129v39q0 8 -10 8h-4q-8 0 -9 -8v-39q0 -66 -47 -112.5t-112 -46.5q-66 0 -112 46t-46 111v4v23q0 16 8 24l318 429q14 18 14 38v11v14v78q0 8 -10 8h-4q-8 0 -9 -8v-78v-14v-11q0 -14 -8 -26l-319 -426 q-4 -8 -8.5 -18.5t-4.5 -20.5v-23v-2zM115 115v2v-2zM399 825v179q0 8 9 8h4q10 0 10 -8v-179q0 -8 -10 -8h-4q-8 0 -9 8z" />
<glyph unicode="&#xc0;" d="M59 8v821q0 37 14.5 71t39 58.5t57.5 39t70 14.5q76 0 129 -53.5t53 -129.5v-821q0 -8 -8 -8h-6q-8 0 -9 8v488h-317v-488q0 -8 -10 -8h-4q-8 0 -9 8zM82 518h317v311q0 66 -47 113t-112 47q-33 0 -61.5 -12t-50.5 -33.5t-34 -51.5t-12 -63v-311zM104 1321q-4 6 5 6h8 q8 0 12 -6l92 -162q4 -8 -4 -8h-8q-10 0 -14 8z" />
<glyph unicode="&#xc1;" d="M59 8v821q0 37 14.5 71t39 58.5t57.5 39t70 14.5q76 0 129 -53.5t53 -129.5v-821q0 -8 -8 -8h-6q-8 0 -9 8v488h-317v-488q0 -8 -10 -8h-4q-8 0 -9 8zM82 518h317v311q0 66 -47 113t-112 47q-33 0 -61.5 -12t-50.5 -33.5t-34 -51.5t-12 -63v-311zM252 1159l90 162 q2 6 14 6h9q6 0 4 -6l-90 -162q-8 -8 -15 -8h-8q-8 0 -4 8z" />
<glyph unicode="&#xc2;" d="M59 8v821q0 37 14.5 71t39 58.5t57.5 39t70 14.5q76 0 129 -53.5t53 -129.5v-821q0 -8 -8 -8h-6q-8 0 -9 8v488h-317v-488q0 -8 -10 -8h-4q-8 0 -9 8zM82 518h317v311q0 66 -47 113t-112 47q-33 0 -61.5 -12t-50.5 -33.5t-34 -51.5t-12 -63v-311zM102 1159l91 162 q2 6 14 6h69q8 0 15 -6l90 -162q4 -8 -4 -8h-8q-10 0 -15 8l-82 148h-61l-84 -148q-4 -8 -12 -8h-9q-8 0 -4 8z" />
<glyph unicode="&#xc3;" horiz-adv-x="1705" />
<glyph unicode="&#xc4;" d="M59 8v821q0 37 14.5 71t39 58.5t57.5 39t70 14.5q76 0 129 -53.5t53 -129.5v-821q0 -8 -8 -8h-6q-8 0 -9 8v488h-317v-488q0 -8 -10 -8h-4q-8 0 -9 8zM82 518h317v311q0 66 -47 113t-112 47q-33 0 -61.5 -12t-50.5 -33.5t-34 -51.5t-12 -63v-311zM125 1157v76q0 8 10 8h4 q8 0 8 -8v-76q0 -8 -8 -8h-4q-10 0 -10 8zM336 1157v76q0 8 8 8h4q10 0 10 -8v-76q0 -8 -10 -8h-4q-8 0 -8 8z" />
<glyph unicode="&#xc5;" horiz-adv-x="1705" />
<glyph unicode="&#xc6;" horiz-adv-x="1705" />
<glyph unicode="&#xc7;" horiz-adv-x="641" d="M59 180v649q0 76 52.5 128.5t128.5 52.5t129 -52.5t53 -128.5v-16h-23v16q0 66 -47 113t-112 47q-66 0 -112 -47t-46 -113v-649q0 -66 46 -111.5t112 -45.5t112.5 46t46.5 111v47q0 8 9 9h6q8 0 8 -9v-47q0 -72 -49 -124t-121 -56v-119q0 -8 -10 -8h-4q-8 0 -9 8v119 q-72 4 -121 56.5t-49 123.5zM399 791v22h23v-22q0 -10 -8 -11h-6q-8 0 -9 11z" />
<glyph unicode="&#xc8;" horiz-adv-x="512" d="M4 12v987q0 12 10 13h213q8 0 9 -11v-4q0 -8 -9 -8h-200v-471h200q8 0 9 -10v-4q0 -8 -9 -8h-200v-473h200q8 0 9 -9v-6q0 -8 -9 -8h-213q-10 0 -10 12zM6 1321q-4 6 4 6h8q8 0 13 -6l92 -162q4 -8 -4 -8h-8q-10 0 -15 8z" />
<glyph unicode="&#xc9;" horiz-adv-x="550" d="M59 12v987q0 12 11 13h213q8 0 8 -11v-4q0 -8 -8 -8h-201v-471h201q8 0 8 -10v-4q0 -8 -8 -8h-201v-473h201q8 0 8 -9v-6q0 -8 -8 -8h-213q-10 0 -11 12zM172 1159l90 162q2 6 14 6h9q6 0 4 -6l-90 -162q-8 -8 -15 -8h-8q-8 0 -4 8z" />
<glyph unicode="&#xca;" horiz-adv-x="512" d="M8 1157l90 162q4 8 13 8h71q8 0 13 -8l92 -162q2 -6 -6 -6h-9q-10 0 -12 6l-84 148h-59l-84 -148q-4 -6 -13 -6h-8q-10 0 -4 6zM31 12v987q0 12 10 13h213q8 0 8 -11v-4q0 -8 -8 -8h-201v-471h201q8 0 8 -10v-4q0 -8 -8 -8h-201v-473h201q8 0 8 -9v-6q0 -8 -8 -8h-213 q-10 0 -10 12z" />
<glyph unicode="&#xcb;" horiz-adv-x="512" d="M59 1157v76q0 8 11 8h4q8 0 8 -8v-76q0 -8 -8 -8h-4q-10 0 -11 8zM61 12v987q0 12 11 13h213q8 0 8 -11v-4q0 -8 -8 -8h-201v-471h201q8 0 8 -10v-4q0 -8 -8 -8h-201v-473h201q8 0 8 -9v-6q0 -8 -8 -8h-213q-10 0 -11 12zM270 1157v76q0 8 9 8h4q10 0 10 -8v-76 q0 -8 -10 -8h-4q-8 0 -9 8z" />
<glyph unicode="&#xcc;" horiz-adv-x="301" d="M-96 1319q-4 8 4 8h8q6 0 14 -8l90 -162q2 -6 -4 -6h-8q-12 0 -14 6zM29 8v993q0 10 8 11h4q10 0 10 -11v-993q0 -8 -10 -8h-4q-8 0 -8 8z" />
<glyph unicode="&#xcd;" horiz-adv-x="301" d="M49 8v993q0 10 8 11h4q10 0 11 -11v-993q0 -8 -11 -8h-4q-8 0 -8 8zM72 1159l92 160q2 8 12 8h8q10 0 4 -8l-90 -160q-4 -8 -12 -8h-10q-8 0 -4 8z" />
<glyph unicode="&#xce;" horiz-adv-x="301" d="M-100 1159l92 160q4 8 12 8h72q8 0 12 -8l90 -160q8 -8 -4 -8h-8q-8 0 -12 8l-84 146h-60l-84 -146q-4 -8 -12 -8h-8q-10 0 -6 8zM29 8v993q0 10 8 11h4q10 0 10 -11v-993q0 -8 -10 -8h-4q-8 0 -8 8z" />
<glyph unicode="&#xcf;" horiz-adv-x="301" d="M-45 1157v76q0 8 10 8h4q8 0 8 -8v-76q0 -8 -8 -8h-4q-10 0 -10 8zM61 8v993q0 10 9 11h4q10 0 10 -11v-993q0 -8 -10 -8h-4q-9 0 -9 8zM166 1157v76q0 8 8 8h4q10 0 10 -8v-76q0 -8 -10 -8h-4q-8 0 -8 8z" />
<glyph unicode="&#xd1;" horiz-adv-x="641" d="M59 8v821q0 76 53.5 129.5t129.5 53.5t128 -53.5t52 -129.5v-821q0 -8 -8 -8h-4q-11 0 -11 8v821q0 66 -46 113t-111 47q-66 0 -113 -47t-47 -113v-821q0 -8 -8 -8h-6q-8 0 -9 8zM125 1157v6q0 8 8 8h215q8 0 8 -8v-6q0 -8 -8 -8h-215q-8 0 -8 8z" />
<glyph unicode="&#xd2;" d="M59 182v647q0 76 53.5 129.5t129.5 53.5t128 -53.5t52 -129.5v-647q0 -76 -52 -129t-128 -53t-129.5 53t-53.5 129zM82 182q0 -66 47 -112.5t113 -46.5t112.5 47t46.5 112v647q0 66 -46.5 113t-112.5 47t-113 -47t-47 -113v-647zM104 1321q-4 6 5 6h8q8 0 12 -6l92 -162 q4 -8 -4 -8h-8q-10 0 -14 8z" />
<glyph unicode="&#xd3;" d="M59 182v647q0 76 53.5 129.5t129.5 53.5t128 -53.5t52 -129.5v-647q0 -76 -52 -129t-128 -53t-129.5 53t-53.5 129zM82 182q0 -66 47 -112.5t113 -46.5t112.5 47t46.5 112v647q0 66 -46.5 113t-112.5 47t-113 -47t-47 -113v-647zM252 1159l90 162q2 6 14 6h9q6 0 4 -6 l-90 -162q-8 -8 -15 -8h-8q-8 0 -4 8z" />
<glyph unicode="&#xd4;" horiz-adv-x="641" d="M59 182v647q0 76 53.5 129.5t129.5 53.5t128 -53.5t52 -129.5v-647q0 -76 -52 -129t-128 -53t-129.5 53t-53.5 129zM82 182q0 -66 47 -112.5t113 -46.5t112.5 47t46.5 112v647q0 66 -46.5 113t-112.5 47t-113 -47t-47 -113v-647zM102 1159l91 162q2 6 14 6h69q8 0 15 -6 l90 -162q4 -8 -4 -8h-8q-10 0 -15 8l-82 148h-61l-84 -148q-4 -8 -12 -8h-9q-8 0 -4 8z" />
<glyph unicode="&#xd5;" horiz-adv-x="1705" />
<glyph unicode="&#xd6;" d="M59 182v647q0 76 53.5 129.5t129.5 53.5t128 -53.5t52 -129.5v-647q0 -76 -52 -129t-128 -53t-129.5 53t-53.5 129zM82 182q0 -66 47 -112.5t113 -46.5t112.5 47t46.5 112v647q0 66 -46.5 113t-112.5 47t-113 -47t-47 -113v-647zM125 1157v76q0 8 10 8h4q8 0 8 -8v-76 q0 -8 -8 -8h-4q-10 0 -10 8zM336 1157v76q0 8 8 8h4q10 0 10 -8v-76q0 -8 -10 -8h-4q-8 0 -8 8z" />
<glyph unicode="&#xd8;" horiz-adv-x="1705" />
<glyph unicode="&#xd9;" d="M59 182v819q0 10 11 11h4q8 0 8 -11v-819q0 -66 47 -112.5t113 -46.5t112.5 47t46.5 112v819q0 10 9 11h4q8 0 8 -11v-819q0 -76 -52.5 -129t-127.5 -53q-76 0 -129.5 53t-53.5 129zM104 1321q-4 6 5 6h8q8 0 12 -6l92 -162q4 -8 -4 -8h-8q-10 0 -14 8z" />
<glyph unicode="&#xda;" d="M59 182v819q0 10 11 11h4q8 0 8 -11v-819q0 -66 47 -112.5t113 -46.5t112.5 47t46.5 112v819q0 10 9 11h4q8 0 8 -11v-819q0 -76 -52.5 -129t-127.5 -53q-76 0 -129.5 53t-53.5 129zM252 1159l90 162q2 6 14 6h9q6 0 4 -6l-90 -162q-8 -8 -15 -8h-8q-8 0 -4 8z" />
<glyph unicode="&#xdb;" d="M59 182v819q0 10 11 11h4q8 0 8 -11v-819q0 -66 47 -112.5t113 -46.5t112.5 47t46.5 112v819q0 10 9 11h4q8 0 8 -11v-819q0 -76 -52.5 -129t-127.5 -53q-76 0 -129.5 53t-53.5 129zM102 1159l91 162q2 6 14 6h69q8 0 15 -6l90 -162q4 -8 -4 -8h-8q-10 0 -15 8l-82 148 h-61l-84 -148q-4 -8 -12 -8h-9q-8 0 -4 8z" />
<glyph unicode="&#xdc;" d="M59 182v819q0 10 11 11h4q8 0 8 -11v-819q0 -66 47 -112.5t113 -46.5t112.5 47t46.5 112v819q0 10 9 11h4q8 0 8 -11v-819q0 -76 -52.5 -129t-127.5 -53q-76 0 -129.5 53t-53.5 129zM125 1157v76q0 8 10 8h4q8 0 8 -8v-76q0 -8 -8 -8h-4q-10 0 -10 8zM336 1157v76 q0 8 8 8h4q10 0 10 -8v-76q0 -8 -10 -8h-4q-8 0 -8 8z" />
<glyph unicode="&#xdd;" horiz-adv-x="1705" />
<glyph unicode="&#xe0;" d="M59 8v821q0 37 14.5 71t39 58.5t57.5 39t70 14.5q76 0 129 -53.5t53 -129.5v-821q0 -8 -8 -8h-6q-8 0 -9 8v488h-317v-488q0 -8 -10 -8h-4q-8 0 -9 8zM82 518h317v311q0 66 -47 113t-112 47q-33 0 -61.5 -12t-50.5 -33.5t-34 -51.5t-12 -63v-311zM104 1321q-4 6 5 6h8 q8 0 12 -6l92 -162q4 -8 -4 -8h-8q-10 0 -14 8z" />
<glyph unicode="&#xe1;" d="M59 8v821q0 37 14.5 71t39 58.5t57.5 39t70 14.5q76 0 129 -53.5t53 -129.5v-821q0 -8 -8 -8h-6q-8 0 -9 8v488h-317v-488q0 -8 -10 -8h-4q-8 0 -9 8zM82 518h317v311q0 66 -47 113t-112 47q-33 0 -61.5 -12t-50.5 -33.5t-34 -51.5t-12 -63v-311zM252 1159l90 162 q2 6 14 6h9q6 0 4 -6l-90 -162q-8 -8 -15 -8h-8q-8 0 -4 8z" />
<glyph unicode="&#xe2;" d="M59 8v821q0 37 14.5 71t39 58.5t57.5 39t70 14.5q76 0 129 -53.5t53 -129.5v-821q0 -8 -8 -8h-6q-8 0 -9 8v488h-317v-488q0 -8 -10 -8h-4q-8 0 -9 8zM82 518h317v311q0 66 -47 113t-112 47q-33 0 -61.5 -12t-50.5 -33.5t-34 -51.5t-12 -63v-311zM102 1159l91 162 q2 6 14 6h69q8 0 15 -6l90 -162q4 -8 -4 -8h-8q-10 0 -15 8l-82 148h-61l-84 -148q-4 -8 -12 -8h-9q-8 0 -4 8z" />
<glyph unicode="&#xe4;" d="M59 8v821q0 37 14.5 71t39 58.5t57.5 39t70 14.5q76 0 129 -53.5t53 -129.5v-821q0 -8 -8 -8h-6q-8 0 -9 8v488h-317v-488q0 -8 -10 -8h-4q-8 0 -9 8zM82 518h317v311q0 66 -47 113t-112 47q-33 0 -61.5 -12t-50.5 -33.5t-34 -51.5t-12 -63v-311zM125 1157v76q0 8 10 8h4 q8 0 8 -8v-76q0 -8 -8 -8h-4q-10 0 -10 8zM336 1157v76q0 8 8 8h4q10 0 10 -8v-76q0 -8 -10 -8h-4q-8 0 -8 8z" />
<glyph unicode="&#xe7;" horiz-adv-x="641" d="M59 180v649q0 76 52.5 128.5t128.5 52.5t129 -52.5t53 -128.5v-16h-23v16q0 66 -47 113t-112 47q-66 0 -112 -47t-46 -113v-649q0 -66 46 -111.5t112 -45.5t112.5 46t46.5 111v47q0 8 9 9h6q8 0 8 -9v-47q0 -72 -49 -124t-121 -56v-119q0 -8 -10 -8h-4q-8 0 -9 8v119 q-72 4 -121 56.5t-49 123.5zM399 791v22h23v-22q0 -10 -8 -11h-6q-8 0 -9 11z" />
<glyph unicode="&#xe8;" horiz-adv-x="512" d="M4 12v987q0 12 10 13h213q8 0 9 -11v-4q0 -8 -9 -8h-200v-471h200q8 0 9 -10v-4q0 -8 -9 -8h-200v-473h200q8 0 9 -9v-6q0 -8 -9 -8h-213q-10 0 -10 12zM6 1321q-4 6 4 6h8q8 0 13 -6l92 -162q4 -8 -4 -8h-8q-10 0 -15 8z" />
<glyph unicode="&#xe9;" horiz-adv-x="550" d="M59 12v987q0 12 11 13h213q8 0 8 -11v-4q0 -8 -8 -8h-201v-471h201q8 0 8 -10v-4q0 -8 -8 -8h-201v-473h201q8 0 8 -9v-6q0 -8 -8 -8h-213q-10 0 -11 12zM172 1159l90 162q2 6 14 6h9q6 0 4 -6l-90 -162q-8 -8 -15 -8h-8q-8 0 -4 8z" />
<glyph unicode="&#xea;" horiz-adv-x="512" d="M8 1157l90 162q4 8 13 8h71q8 0 13 -8l92 -162q2 -6 -6 -6h-9q-10 0 -12 6l-84 148h-59l-84 -148q-4 -6 -13 -6h-8q-10 0 -4 6zM31 12v987q0 12 10 13h213q8 0 8 -11v-4q0 -8 -8 -8h-201v-471h201q8 0 8 -10v-4q0 -8 -8 -8h-201v-473h201q8 0 8 -9v-6q0 -8 -8 -8h-213 q-10 0 -10 12z" />
<glyph unicode="&#xeb;" horiz-adv-x="512" d="M59 1157v76q0 8 11 8h4q8 0 8 -8v-76q0 -8 -8 -8h-4q-10 0 -11 8zM61 12v987q0 12 11 13h213q8 0 8 -11v-4q0 -8 -8 -8h-201v-471h201q8 0 8 -10v-4q0 -8 -8 -8h-201v-473h201q8 0 8 -9v-6q0 -8 -8 -8h-213q-10 0 -11 12zM270 1157v76q0 8 9 8h4q10 0 10 -8v-76 q0 -8 -10 -8h-4q-8 0 -9 8z" />
<glyph unicode="&#xec;" horiz-adv-x="301" d="M-96 1319q-4 8 4 8h8q6 0 14 -8l90 -162q2 -6 -4 -6h-8q-12 0 -14 6zM29 8v993q0 10 8 11h4q10 0 10 -11v-993q0 -8 -10 -8h-4q-8 0 -8 8z" />
<glyph unicode="&#xed;" horiz-adv-x="301" d="M49 8v993q0 10 8 11h4q10 0 11 -11v-993q0 -8 -11 -8h-4q-8 0 -8 8zM72 1159l92 160q2 8 12 8h8q10 0 4 -8l-90 -160q-4 -8 -12 -8h-10q-8 0 -4 8z" />
<glyph unicode="&#xee;" horiz-adv-x="301" d="M-100 1159l92 160q4 8 12 8h72q8 0 12 -8l90 -160q8 -8 -4 -8h-8q-8 0 -12 8l-84 146h-60l-84 -146q-4 -8 -12 -8h-8q-10 0 -6 8zM29 8v993q0 10 8 11h4q10 0 10 -11v-993q0 -8 -10 -8h-4q-8 0 -8 8z" />
<glyph unicode="&#xef;" horiz-adv-x="301" d="M-45 1157v76q0 8 10 8h4q8 0 8 -8v-76q0 -8 -8 -8h-4q-10 0 -10 8zM61 8v993q0 10 9 11h4q10 0 10 -11v-993q0 -8 -10 -8h-4q-9 0 -9 8zM166 1157v76q0 8 8 8h4q10 0 10 -8v-76q0 -8 -10 -8h-4q-8 0 -8 8z" />
<glyph unicode="&#xf1;" horiz-adv-x="641" d="M59 8v821q0 76 53.5 129.5t129.5 53.5t128 -53.5t52 -129.5v-821q0 -8 -8 -8h-4q-11 0 -11 8v821q0 66 -46 113t-111 47q-66 0 -113 -47t-47 -113v-821q0 -8 -8 -8h-6q-8 0 -9 8zM125 1157v6q0 8 8 8h215q8 0 8 -8v-6q0 -8 -8 -8h-215q-8 0 -8 8z" />
<glyph unicode="&#xf2;" d="M59 182v647q0 76 53.5 129.5t129.5 53.5t128 -53.5t52 -129.5v-647q0 -76 -52 -129t-128 -53t-129.5 53t-53.5 129zM82 182q0 -66 47 -112.5t113 -46.5t112.5 47t46.5 112v647q0 66 -46.5 113t-112.5 47t-113 -47t-47 -113v-647zM104 1321q-4 6 5 6h8q8 0 12 -6l92 -162 q4 -8 -4 -8h-8q-10 0 -14 8z" />
<glyph unicode="&#xf3;" d="M59 182v647q0 76 53.5 129.5t129.5 53.5t128 -53.5t52 -129.5v-647q0 -76 -52 -129t-128 -53t-129.5 53t-53.5 129zM82 182q0 -66 47 -112.5t113 -46.5t112.5 47t46.5 112v647q0 66 -46.5 113t-112.5 47t-113 -47t-47 -113v-647zM252 1159l90 162q2 6 14 6h9q6 0 4 -6 l-90 -162q-8 -8 -15 -8h-8q-8 0 -4 8z" />
<glyph unicode="&#xf4;" horiz-adv-x="641" d="M59 182v647q0 76 53.5 129.5t129.5 53.5t128 -53.5t52 -129.5v-647q0 -76 -52 -129t-128 -53t-129.5 53t-53.5 129zM82 182q0 -66 47 -112.5t113 -46.5t112.5 47t46.5 112v647q0 66 -46.5 113t-112.5 47t-113 -47t-47 -113v-647zM102 1159l91 162q2 6 14 6h69q8 0 15 -6 l90 -162q4 -8 -4 -8h-8q-10 0 -15 8l-82 148h-61l-84 -148q-4 -8 -12 -8h-9q-8 0 -4 8z" />
<glyph unicode="&#xf6;" d="M59 182v647q0 76 53.5 129.5t129.5 53.5t128 -53.5t52 -129.5v-647q0 -76 -52 -129t-128 -53t-129.5 53t-53.5 129zM82 182q0 -66 47 -112.5t113 -46.5t112.5 47t46.5 112v647q0 66 -46.5 113t-112.5 47t-113 -47t-47 -113v-647zM125 1157v76q0 8 10 8h4q8 0 8 -8v-76 q0 -8 -8 -8h-4q-10 0 -10 8zM336 1157v76q0 8 8 8h4q10 0 10 -8v-76q0 -8 -10 -8h-4q-8 0 -8 8z" />
<glyph unicode="&#xf9;" d="M59 182v819q0 10 11 11h4q8 0 8 -11v-819q0 -66 47 -112.5t113 -46.5t112.5 47t46.5 112v819q0 10 9 11h4q8 0 8 -11v-819q0 -76 -52.5 -129t-127.5 -53q-76 0 -129.5 53t-53.5 129zM104 1321q-4 6 5 6h8q8 0 12 -6l92 -162q4 -8 -4 -8h-8q-10 0 -14 8z" />
<glyph unicode="&#xfa;" d="M59 182v819q0 10 11 11h4q8 0 8 -11v-819q0 -66 47 -112.5t113 -46.5t112.5 47t46.5 112v819q0 10 9 11h4q8 0 8 -11v-819q0 -76 -52.5 -129t-127.5 -53q-76 0 -129.5 53t-53.5 129zM252 1159l90 162q2 6 14 6h9q6 0 4 -6l-90 -162q-8 -8 -15 -8h-8q-8 0 -4 8z" />
<glyph unicode="&#xfb;" d="M59 182v819q0 10 11 11h4q8 0 8 -11v-819q0 -66 47 -112.5t113 -46.5t112.5 47t46.5 112v819q0 10 9 11h4q8 0 8 -11v-819q0 -76 -52.5 -129t-127.5 -53q-76 0 -129.5 53t-53.5 129zM102 1159l91 162q2 6 14 6h69q8 0 15 -6l90 -162q4 -8 -4 -8h-8q-10 0 -15 8l-82 148 h-61l-84 -148q-4 -8 -12 -8h-9q-8 0 -4 8z" />
<glyph unicode="&#xfc;" d="M59 182v819q0 10 11 11h4q8 0 8 -11v-819q0 -66 47 -112.5t113 -46.5t112.5 47t46.5 112v819q0 10 9 11h4q8 0 8 -11v-819q0 -76 -52.5 -129t-127.5 -53q-76 0 -129.5 53t-53.5 129zM125 1157v76q0 8 10 8h4q8 0 8 -8v-76q0 -8 -8 -8h-4q-10 0 -10 8zM336 1157v76 q0 8 8 8h4q10 0 10 -8v-76q0 -8 -10 -8h-4q-8 0 -8 8z" />
<glyph unicode="&#x152;" horiz-adv-x="3411" />
<glyph unicode="&#x178;" horiz-adv-x="1705" />
<glyph unicode="&#x2c6;" horiz-adv-x="1705" />
<glyph unicode="&#x2dc;" horiz-adv-x="1705" />
<glyph unicode="&#x2000;" horiz-adv-x="682" />
<glyph unicode="&#x2001;" horiz-adv-x="1365" />
<glyph unicode="&#x2002;" horiz-adv-x="682" />
<glyph unicode="&#x2003;" horiz-adv-x="1365" />
<glyph unicode="&#x2004;" horiz-adv-x="455" />
<glyph unicode="&#x2005;" horiz-adv-x="341" />
<glyph unicode="&#x2006;" horiz-adv-x="227" />
<glyph unicode="&#x2007;" horiz-adv-x="227" />
<glyph unicode="&#x2008;" horiz-adv-x="170" />
<glyph unicode="&#x2009;" horiz-adv-x="273" />
<glyph unicode="&#x200a;" horiz-adv-x="75" />
<glyph unicode="&#x2010;" horiz-adv-x="571" d="M59 504v4q0 8 9 8h274q8 0 8 -8v-4q0 -10 -8 -10h-274q-8 0 -9 10z" />
<glyph unicode="&#x2011;" horiz-adv-x="571" d="M59 504v4q0 8 9 8h274q8 0 8 -8v-4q0 -10 -8 -10h-274q-8 0 -9 10z" />
<glyph unicode="&#x2012;" horiz-adv-x="571" d="M59 504v4q0 8 9 8h274q8 0 8 -8v-4q0 -10 -8 -10h-274q-8 0 -9 10z" />
<glyph unicode="&#x2013;" horiz-adv-x="1304" d="M59 504v4q0 8 32 8h964q28 0 28 -8v-4q0 -10 -28 -10h-964q-28 0 -32 10z" />
<glyph unicode="&#x2014;" horiz-adv-x="2328" d="M59 504v4q0 8 63 8h1929q56 0 56 -8v-4q0 -10 -56 -10h-1929q-56 0 -63 10z" />
<glyph unicode="&#x202f;" horiz-adv-x="273" />
<glyph unicode="&#x205f;" horiz-adv-x="341" />
<glyph unicode="&#x20ac;" horiz-adv-x="776" d="M59 371v4q0 10 9 10h127v240h-127q-8 0 -9 8v4q0 10 9 10h127v180q0 76 53 129.5t129 53.5q37 0 69.5 -14.5t57 -39t39 -58.5t14.5 -71v-14v-25q0 -8 -8 -8h-4q-8 0 -8 8v39q0 66 -47.5 113t-112.5 47q-66 0 -113 -47t-47 -113v-180h127q8 0 8 -10v-4q0 -8 -8 -8h-127 v-240h127q8 0 8 -10v-4q0 -8 -8 -9h-127v-182q0 -66 47 -113t113 -47t113 47.5t47 112.5v47q0 8 8 9h4q8 0 8 -9v-47q0 -76 -53 -128t-127 -52q-76 0 -129 52t-53 128v182h-127q-8 0 -9 9z" />
<glyph unicode="&#xe000;" horiz-adv-x="1013" d="M0 0v1014h1014v-1014h-1014z" />
</font>
</defs>
</svg>
