<?xml version="1.0" standalone="no"?>
<!DOCTYPE svg PUBLIC "-//W3C//DTD SVG 1.1//EN" "http://www.w3.org/Graphics/SVG/1.1/DTD/svg11.dtd" >
<svg xmlns="http://www.w3.org/2000/svg">
<metadata></metadata>
<defs>
<font id="blanchcondensed_inline" horiz-adv-x="643" >
<font-face units-per-em="2048" ascent="1536" descent="-512" />
<missing-glyph horiz-adv-x="294" />
<glyph horiz-adv-x="2048" />
<glyph horiz-adv-x="2048" />
<glyph unicode="&#xd;" horiz-adv-x="294" />
<glyph unicode=" "  horiz-adv-x="294" />
<glyph unicode="&#x09;" horiz-adv-x="294" />
<glyph unicode="&#xa0;" horiz-adv-x="294" />
<glyph unicode="!" horiz-adv-x="301" d="M59 43q0 33 33 33h66q33 0 32 -33v-135q0 -12 -9 -22.5t-23 -10.5h-66q-14 0 -23.5 10.5t-9.5 22.5v135zM59 240v1091q0 33 33 33h66q33 0 32 -33v-1091q0 -33 -32 -33h-66q-33 0 -33 33zM115 14v-75q0 -8 8 -9h4q8 0 8 9v75q0 8 -8 9h-4q-8 0 -8 -9zM115 270q0 -8 8 -8 h4q8 0 8 8v1030q0 10 -8 11h-4q-8 0 -8 -11v-1030z" />
<glyph unicode="#" horiz-adv-x="1085" d="M39 453v65q0 33 33 33h237v262h-237q-33 0 -33 33v65q0 33 33 33h237v385q0 33 33 33h66q33 0 32 -33v-385h131v385q0 33 33 33h66q33 0 32 -33v-385h238q33 0 33 -33v-65q0 -33 -33 -33h-238v-262h238q33 0 33 -33v-65q0 -33 -33 -33h-238v-387q0 -12 -9 -22.5 t-23 -10.5h-66q-14 0 -23.5 10t-9.5 23v387h-131v-387q0 -12 -9 -22.5t-23 -10.5h-66q-14 0 -23.5 10t-9.5 23v387h-237q-33 0 -33 33zM92 483q0 -10 8 -10h262v-410q0 -8 11 -8h4q8 0 8 8v410h240v-410q0 -8 10 -8h4q8 0 8 8v410h262q10 0 11 10v4q0 8 -11 9h-262v370h262 q10 0 11 11v4q0 8 -11 8h-262v409q0 10 -8 11h-4q-10 0 -10 -11v-409h-240v409q0 10 -8 11h-4q-10 0 -11 -11v-409h-262q-8 0 -8 -8v-4q0 -10 8 -11h262v-370h-262q-8 0 -8 -9v-4zM385 496v370h240v-370h-240zM440 551h131v262h-131v-262z" />
<glyph unicode="$" horiz-adv-x="641" d="M59 238v69q0 33 33 33h66q33 0 32 -33v-69q0 -43 31 -74t74 -31t73.5 31t30.5 74v102v22.5t-4 12.5l-295 520q-16 27 -24 41t-11.5 26.5t-4.5 27t-1 36.5v104q0 80 48.5 141.5t121.5 84.5v102q0 33 33 33h66q33 0 32 -33v-102q74 -23 122 -84.5t48 -141.5v-69 q0 -33 -32 -33h-66q-12 0 -22.5 9.5t-10.5 23.5v69q0 43 -30.5 74t-73.5 31t-74 -30.5t-31 -74.5v-104q0 -18 1.5 -22.5t5.5 -12.5l295 -520q14 -27 22 -42t11 -27.5t4 -26t1 -35.5v-102q0 -80 -48 -141.5t-122 -84.5v-102q0 -33 -32 -33h-66q-33 0 -33 33v102 q-74 23 -122 84.5t-48 141.5zM115 238q0 -72 49 -124.5t121 -56.5v-118q0 -8 8 -9h4q10 0 10 9v118q72 4 121 56.5t49 124.5v102q0 39 -4 47q-2 8 -9 21.5t-20 35.5l-294 521q-10 16 -11.5 28.5t-1.5 32.5v104q0 66 46 113t112 47t113 -47t47 -113v-40q0 -8 8 -9h4 q10 0 10 9v40q0 72 -49 124.5t-121 56.5v119q0 8 -10 8h-4q-8 0 -8 -8v-119q-72 -4 -121 -56.5t-49 -124.5v-104v-31t2 -14q4 -10 10 -23.5t20 -35.5l295 -521q10 -16 11.5 -28.5t1.5 -32.5v-102q0 -66 -47.5 -112t-112.5 -46q-66 0 -112 46t-46 112v41q0 8 -10 8h-4 q-8 0 -8 -8v-41z" />
<glyph unicode="%" horiz-adv-x="1159" d="M59 987v139q0 49 18.5 91.5t51.5 75t76 51t92 18.5t91 -18.5t75 -51t51 -74.5t18 -92v-139q0 -49 -18 -91t-51 -75t-75 -51t-91 -18t-92 18t-76 51t-51.5 75t-18.5 91zM115 987q0 -76 53 -128t129 -52q74 0 127 52t53 128v139q0 76 -53 128.5t-127 52.5q-76 0 -129 -52.5 t-53 -128.5v-139zM137 987v139q0 66 47 113t113 47q33 0 61.5 -12t50 -33.5t34 -51.5t12.5 -63v-139q0 -33 -12.5 -62.5t-34 -51t-50 -34t-61.5 -12.5q-66 0 -113 47.5t-47 112.5zM190 987q0 -43 31 -73.5t76 -30.5q43 0 73.5 30.5t30.5 73.5v139q0 43 -30.5 74t-73.5 31 q-45 0 -76 -31t-31 -74v-139zM317 33v301q0 23 1 36t4.5 25.5t11.5 27.5t24 42l295 522q4 8 5 12.5t1 22.5v307q0 33 33 33h66q33 0 33 -33v-307q0 -23 -1.5 -37t-4.5 -26.5t-11 -26.5t-22 -41l-297 -522q-4 -8 -5 -12.5t-1 -22.5v-301q0 -33 -33 -33h-66q-12 0 -22.5 9 t-10.5 24zM373 63q0 -10 8 -10h6q8 0 8 10v271q0 20 1 32.5t12 28.5l297 523q12 23 19 36t9 21t2 47v276q0 8 -8 9h-4q-8 0 -8 -9v-276q0 -23 -2 -34t-13 -27l-294 -523q-12 -23 -19.5 -36t-11.5 -21q-2 -8 -2 -47v-271zM578 238v139q0 49 18 91t51 74.5t75 51t91 18.5 t92 -18.5t75 -51t50.5 -74.5t18.5 -91v-139q0 -49 -18.5 -91.5t-50.5 -75t-75 -51t-92 -18.5t-91 18.5t-75 51t-51 74.5t-18 92zM633 238q0 -76 52 -128.5t128 -52.5t129 52.5t53 128.5v139q0 37 -14 69.5t-38.5 57t-58.5 39t-71 14.5q-76 0 -128 -53t-52 -127v-139z M653 238v139q0 33 12.5 61.5t34 50t51 34t62.5 12.5t62.5 -12.5t51 -34t34 -50t12.5 -61.5v-139q0 -66 -47 -113t-113 -47t-113 47t-47 113zM709 238q0 -43 30.5 -74t73.5 -31t74 31t31 74v139q0 43 -31 73.5t-74 30.5t-73.5 -30.5t-30.5 -73.5v-139z" />
<glyph unicode="&#x26;" horiz-adv-x="759" d="M59 238v407q0 104 74 172q-74 68 -74 170v139q0 49 18.5 92.5t51.5 75t75 50t91 18.5h70q33 0 32 -33v-65q0 -12 -9 -22.5t-23 -10.5h-70q-43 0 -74 -31t-31 -74v-139q0 -43 31 -73.5t74 -30.5h106v104q0 33 33 33h66q12 0 22 -9.5t10 -23.5v-104h105q33 0 33 -33v-66 q0 -33 -33 -32h-105v-719q0 -12 -10 -22.5t-22 -10.5h-205q-49 0 -91 18.5t-75 51t-51.5 75.5t-18.5 93zM113 238q0 -76 53 -129.5t129 -53.5h174q8 0 8 8v744h129q8 0 8 8v4q0 8 -8 8h-129v131q0 8 -8 9h-4q-10 0 -10 -9v-131h-160q-66 0 -113 47.5t-47 112.5v139 q0 66 47 113t113 47h39q8 0 8 8v6q0 8 -8 9h-39q-76 0 -129 -53.5t-53 -129.5v-137q0 -59 33.5 -106t86.5 -66q-53 -18 -86.5 -64t-33.5 -106v-409zM135 238v409q0 66 47 113t113 47h160v-729h-160q-66 0 -113 47t-47 113zM190 238q0 -43 31 -74t74 -31h106v619h-106 q-43 0 -74 -31t-31 -76v-407z" />
<glyph unicode="'" horiz-adv-x="301" d="M59 922v409q0 33 33 33h66q33 0 32 -33v-409q0 -33 -32 -33h-66q-33 0 -33 33zM115 952q0 -8 8 -8h4q8 0 8 8v348q0 10 -8 11h-4q-8 0 -8 -11v-348z" />
<glyph unicode="(" horiz-adv-x="438" d="M59 236v890q0 49 18.5 92.5t51.5 75t75 50t91 18.5q33 0 33 -33v-63q0 -33 -33 -33q-43 0 -74 -31t-31 -76v-890q0 -43 31 -74t74 -31q33 0 33 -33v-65q0 -33 -33 -33q-49 0 -91 18.5t-75 51t-51.5 74.5t-18.5 92zM113 236q0 -66 43 -117t108 -62q8 0 8 9v4q0 10 -8 10 q-55 10 -92 54t-37 102v890q0 59 37 103.5t92 54.5q8 0 8 10v4q0 8 -8 9q-66 -12 -108.5 -62.5t-42.5 -118.5v-890z" />
<glyph unicode=")" horiz-adv-x="436" d="M59 33v65q0 33 33 33q43 0 74 31t31 74v890q0 45 -31 76t-74 31q-33 0 -33 33v63q0 33 33 33q49 0 91 -18.5t75 -50t51.5 -74.5t18.5 -93v-890q0 -49 -18.5 -91.5t-51.5 -75t-75 -51t-91 -18.5q-33 0 -33 33zM113 66q0 -8 8 -9q66 10 108.5 61.5t42.5 117.5v890 q0 68 -43 118t-108 63q-8 0 -8 -9v-4q0 -10 8 -10q55 -10 92 -54t37 -104v-890q0 -57 -37 -101.5t-92 -54.5q-8 0 -8 -10v-4z" />
<glyph unicode="+" horiz-adv-x="569" d="M59 649v66q0 33 33 33h103v102q0 33 32 33h66q33 0 33 -33v-102h102q12 0 22.5 -9.5t10.5 -23.5v-66q0 -12 -10.5 -22.5t-22.5 -10.5h-102v-102q0 -12 -9.5 -21.5t-23.5 -9.5h-66q-14 0 -23 9.5t-9 21.5v102h-103q-14 0 -23.5 10.5t-9.5 22.5zM113 680q0 -8 10 -8h125 v-127q0 -8 10 -8h4q8 0 8 8v127h127q8 0 9 8v6q0 8 -9 8h-127v125q0 10 -8 10h-4q-10 0 -10 -10v-125h-125q-10 0 -10 -8v-6z" />
<glyph unicode="," horiz-adv-x="301" d="M59 168q0 33 33 33h66q33 0 32 -33v-410q0 -33 -32 -32h-66q-33 0 -33 32v410zM115 137v-348q0 -8 8 -8h4q8 0 8 8v348q0 10 -8 10h-4q-8 0 -8 -10z" />
<glyph unicode="-" horiz-adv-x="571" d="M59 649v66q0 14 10.5 23.5t22.5 9.5h336q33 0 33 -33v-66q0 -33 -33 -33h-336q-12 0 -22.5 9.5t-10.5 23.5zM115 680q0 -8 8 -8h274q10 0 11 8v4q0 8 -11 8h-274q-8 0 -8 -8v-4z" />
<glyph unicode="." horiz-adv-x="301" d="M59 33v135q0 33 33 33h66q33 0 32 -33v-135q0 -12 -9 -22.5t-23 -10.5h-66q-14 0 -23.5 10t-9.5 23zM115 63q0 -8 8 -8h4q8 0 8 8v76q0 8 -8 8h-4q-8 0 -8 -8v-76z" />
<glyph unicode="/" d="M59 33v301q0 23 1 36t4.5 25.5t11.5 27.5t22 42l297 522q4 8 5 12.5t1 22.5v307q0 33 33 33h66q12 0 22 -9.5t10 -23.5v-307q0 -23 -1 -37t-4 -26.5t-12 -26.5t-23 -41l-295 -522q-4 -8 -5.5 -12.5t-1.5 -22.5v-301q0 -33 -32 -33h-66q-33 0 -33 33zM115 63q0 -10 8 -10 h4q8 0 8 10v271q0 20 2 32.5t13 28.5l294 523q12 23 19.5 36t11.5 21q2 8 2 47v276q0 8 -8 9h-6q-8 0 -8 -9v-276q0 -23 -1 -34t-12 -27l-295 -523q-14 -23 -21 -36t-9 -21t-2 -47v-271z" />
<glyph unicode="0" horiz-adv-x="641" d="M59 236v888q0 49 18.5 92.5t50.5 76t75 51t92 18.5t92 -18.5t75 -51t50 -75.5t18 -93v-888q0 -49 -18 -92.5t-50 -75t-75 -50t-92 -18.5t-92 18.5t-75 50t-50.5 74.5t-18.5 93zM113 236q0 -76 53 -129.5t129 -53.5t129 53.5t53 129.5v776v8v2v102q0 76 -53 129.5 t-129 53.5t-129 -53.5t-53 -129.5v-888zM135 236v98q0 20 1 31.5t11 29.5l297 520q4 6 5.5 11.5t5.5 9.5v-700q0 -66 -47.5 -113t-112.5 -47q-66 0 -113 47t-47 113zM135 420v704q0 66 47 113t113 47t113 -47t47 -113v-106q0 -18 -1 -29.5t-12 -27.5l-297 -523q-4 -6 -5 -10 t-5 -8zM190 236q0 -43 31 -74t74 -31t73.5 31t30.5 74v493l-202 -360q-4 -8 -5.5 -12.5t-1.5 -22.5v-98zM190 627l205 360q4 8 4 12.5v20.5v104q0 45 -30.5 76t-73.5 31t-74 -31t-31 -76v-497z" />
<glyph unicode="1" horiz-adv-x="440" d="M59 1264v65q0 12 9.5 22.5t23.5 10.5h172q27 0 46.5 -19.5t19.5 -46.5v-1263q0 -14 -10.5 -23.5t-22.5 -9.5h-66q-33 0 -32 33v1198h-107q-33 0 -33 33zM115 1292q0 -8 8 -8h129v-1223q0 -8 8 -8h6q8 0 8 8v1235q0 10 -10 11h-141q-8 0 -8 -9v-6z" />
<glyph unicode="2" d="M59 33v301q0 23 1 36t4.5 25.5t11.5 27.5t22 42l297 522q4 8 5 12.5t1 20.5v104q0 45 -30.5 76t-75.5 31q-43 0 -74 -31t-31 -76v-69q0 -33 -32 -33h-66q-33 0 -33 33v69q0 49 18.5 92.5t51.5 76t75 51t91 18.5t92 -18.5t76 -51t51 -75.5t18 -93v-104q0 -23 -1 -36 t-4 -25.5t-12 -28t-23 -41.5l-295 -520q-4 -8 -5.5 -12.5t-1.5 -22.5v-203h310q12 0 22 -10t10 -23v-65q0 -14 -10 -23.5t-22 -9.5h-408q-33 0 -33 33zM115 61q0 -8 8 -8h346q8 0 8 8v7q0 8 -8 8h-334v258q0 20 2 32.5t13 28.5l294 520q14 23 20.5 37.5t10.5 22.5q2 8 2 45 v104q0 76 -53 129.5t-129 53.5t-128 -53.5t-52 -129.5v-39q0 -8 8 -8h4q8 0 8 8v39q0 66 47 113t113 47t113 -47t47 -113v-104q0 -20 -1 -31.5t-12 -27.5l-295 -523q-14 -23 -20 -36t-10 -23q-2 -8 -2 -45v-273z" />
<glyph unicode="3" d="M59 236v69q0 33 33 33h66q33 0 32 -33v-69q0 -43 31 -74t74 -31q45 0 75.5 31t30.5 74v274q0 43 -30.5 73.5t-75.5 30.5q-33 0 -33 33v66q0 33 33 32q45 0 75.5 31t30.5 74v274q0 43 -30.5 74t-75.5 31q-43 0 -74 -31t-31 -74v-69q0 -33 -32 -33h-66q-33 0 -33 33v69 q0 49 18.5 92.5t51.5 76t75 51t91 18.5t92 -18.5t76 -51t51 -75.5t18 -93v-274q0 -49 -19 -93t-54 -77q35 -33 54 -77t19 -93v-274q0 -49 -18 -92.5t-51 -75t-76 -50t-92 -18.5t-91 18.5t-75 50t-51.5 74.5t-18.5 93zM113 236q0 -76 53 -129.5t129 -53.5t129 53.5t53 129.5 v274q0 59 -32.5 105.5t-86.5 64.5q53 18 86 64.5t33 105.5v272q0 76 -53 129.5t-129 53.5t-129 -53.5t-53 -129.5v-37q0 -10 10 -10h4q8 0 8 10v37q0 66 47 113t113 47t113 -47t47 -113v-272q0 -57 -37 -101t-92 -55q-8 0 -9 -10v-8q0 -6 9 -10q55 -10 92 -53.5t37 -102.5 v-274q0 -66 -47.5 -113t-112.5 -47q-66 0 -113 47t-47 113v38q0 10 -8 11h-4q-10 0 -10 -11v-38z" />
<glyph unicode="4" horiz-adv-x="780" d="M59 516v125q0 23 1 36t4.5 25.5t11.5 27.5t22 42l297 522q4 8 5 12.5t1 22.5q0 12 9.5 22.5t23.5 10.5h66q12 0 22 -10.5t10 -22.5q0 -23 -1 -37t-4 -26.5t-12 -26.5t-23 -41l-295 -522q-4 -8 -5.5 -12.5t-1.5 -22.5v-27h211v105q0 33 33 33h66q12 0 22 -9.5t10 -23.5 v-105h105q14 0 23.5 -10t9.5 -22v-66q0 -33 -33 -33h-105v-450q0 -14 -10 -23.5t-22 -9.5h-66q-33 0 -33 33v450h-309q-33 0 -33 33zM115 545q0 -8 8 -8h332v-476q0 -8 10 -8h4q8 0 8 8v476h129q8 0 8 8v6q0 8 -8 8h-129v129q0 8 -8 8h-4q-10 0 -10 -8v-129h-320v82 q0 20 2 32.5t13 28.5l294 523q14 23 20.5 36l10.5 21q0 4 1 7t1 9q0 8 -8 9h-6q-8 0 -8 -9q-2 -10 -13 -30l-295 -523q-14 -23 -20 -36t-10 -21q-2 -8 -2 -47v-96z" />
<glyph unicode="5" d="M59 236v69q0 33 33 33h66q33 0 32 -33v-69q0 -43 31 -74t76 -31q43 0 73.5 31t30.5 74v405q0 43 -30.5 73.5t-73.5 30.5h-205q-14 0 -23.5 10.5t-9.5 22.5v551q0 12 9.5 22.5t23.5 10.5h408q14 0 23 -10.5t9 -22.5v-65q0 -33 -32 -33h-310v-354h107q49 0 91 -18.5 t75 -50.5t51 -75t18 -92v-405q0 -49 -18 -92.5t-51 -75t-75 -50t-91 -18.5t-92 18.5t-76 50t-51.5 74.5t-18.5 93zM115 236q0 -76 53 -129.5t129 -53.5t128 53.5t52 129.5v405q0 76 -52 129t-128 53h-160v461h332q8 0 8 8v6q0 8 -8 9h-346q-8 0 -8 -9v-489q0 -8 8 -8h174 q66 0 113 -47t47 -113v-405q0 -66 -47.5 -113t-112.5 -47q-66 0 -113 47t-47 113v38q0 8 -10 9h-4q-8 0 -8 -9v-38z" />
<glyph unicode="6" d="M59 236v888q0 49 18.5 92.5t51.5 76t76 51t92 18.5t91 -18.5t75 -51t51 -75.5t18 -93v-69q0 -33 -32 -33h-66q-33 0 -33 33v69q0 45 -30.5 76t-73.5 31q-45 0 -76 -31t-31 -76v-272q49 25 107 25q49 0 91 -18.5t75 -50.5t51 -75t18 -92v-405q0 -49 -18 -92.5t-51 -75 t-75 -50t-91 -18.5t-92 18.5t-76 50t-51.5 74.5t-18.5 93zM115 236q0 -76 53 -129.5t129 -53.5t128 53.5t52 129.5v405q0 76 -52 129t-128 53q-53 0 -95 -26.5t-65 -69.5v397q0 66 47 113t113 47t113 -47t47 -113v-39q0 -8 8 -8h4q8 0 8 8v39q0 76 -52 129.5t-128 53.5 t-129 -53.5t-53 -129.5v-888zM137 236v405q0 66 47 113t113 47t113 -47t47 -113v-405q0 -66 -47.5 -113t-112.5 -47q-66 0 -113 47t-47 113zM190 236q0 -43 31 -74t76 -31q43 0 73.5 31t30.5 74v405q0 43 -30.5 73.5t-73.5 30.5q-45 0 -76 -30.5t-31 -73.5v-405z" />
<glyph unicode="7" horiz-adv-x="641" d="M59 33v301q0 23 1 36t4.5 25.5t11.5 27.5t22 42l297 522q4 8 4 12.5v20.5v211h-307q-33 0 -33 33v65q0 12 9.5 22.5t23.5 10.5h406q14 0 23 -10.5t9 -22.5v-309q0 -23 -1 -36t-4 -25.5t-11 -28t-22 -41.5l-295 -520q-4 -8 -5.5 -12.5t-1.5 -22.5v-301q0 -33 -32 -33h-66 q-33 0 -33 33zM113 61q0 -8 10 -8h4q8 0 8 8v273q0 20 1 31.5t11 29.5l297 520q12 23 19.5 37.5t9.5 22.5q4 8 4 45v278q0 8 -10 9h-344q-10 0 -10 -9v-6q0 -8 10 -8h332v-264q0 -20 -1 -31.5t-12 -27.5l-297 -523q-12 -23 -19 -36t-9 -23q-4 -8 -4 -45v-273z" />
<glyph unicode="8" horiz-adv-x="641" d="M59 236v407q0 51 19.5 95t54.5 77q-35 33 -54.5 77t-19.5 95v137q0 49 18.5 92.5t51.5 76t75 51t91 18.5t92 -18.5t75 -51t50 -75.5t18 -93v-137q0 -51 -19 -95t-54 -77q35 -33 54 -77t19 -95v-407q0 -49 -18 -92.5t-50 -75t-75 -50t-92 -18.5t-91 18.5t-75 50 t-51.5 74.5t-18.5 93zM113 236q0 -76 53 -129.5t129 -53.5t129 53.5t53 129.5v407q0 59 -34.5 106.5t-88.5 65.5q53 18 88 65.5t35 106.5v137q0 76 -53 129.5t-129 53.5t-129 -53.5t-53 -129.5v-137q0 -59 34.5 -106t88.5 -66q-53 -18 -88 -65.5t-35 -106.5v-407zM135 236 v407q0 66 47 113t113 47t113 -47t47 -113v-407q0 -66 -47.5 -113t-112.5 -47q-66 0 -113 47t-47 113zM135 987v137q0 66 47 113t113 47t113 -47t47 -113v-137q0 -66 -47.5 -113t-112.5 -47q-66 0 -113 47.5t-47 112.5zM190 236q0 -43 31 -74t74 -31t73.5 31t30.5 74v407 q0 43 -30.5 74t-73.5 31t-74 -31t-31 -74v-407zM190 987q0 -45 31 -75.5t74 -30.5t73.5 30.5t30.5 75.5v137q0 45 -30.5 76t-73.5 31t-74 -31t-31 -76v-137z" />
<glyph unicode="9" horiz-adv-x="641" d="M59 236v69q0 33 33 33h66q33 0 32 -33v-69q0 -43 31 -74t74 -31t73.5 31t30.5 74v405q-47 -25 -104 -25q-49 0 -91 18.5t-75 50.5t-51.5 75t-18.5 92v272q0 49 18.5 92.5t51.5 76t75 51t91 18.5t92 -18.5t75 -51t50 -75.5t18 -93v-888q0 -49 -18 -92.5t-50 -75t-75 -50 t-92 -18.5t-91 18.5t-75 50t-51.5 74.5t-18.5 93zM113 236q0 -76 53 -129.5t129 -53.5t129 53.5t53 129.5v888q0 76 -53 129.5t-129 53.5t-129 -53.5t-53 -129.5v-272q0 -76 53 -129t129 -53q53 0 95 26.5t65 69.5v-530q0 -66 -47.5 -113t-112.5 -47q-66 0 -113 47t-47 113 v38q0 8 -8 9h-4q-10 0 -10 -9v-38zM135 852v272q0 66 47 113t113 47t113 -47t47 -113v-272q0 -66 -47.5 -113t-112.5 -47q-66 0 -113 47t-47 113zM190 852q0 -43 31 -73.5t74 -30.5t73.5 30.5t30.5 73.5v272q0 45 -30.5 76t-73.5 31t-74 -31t-31 -76v-272z" />
<glyph unicode=":" horiz-adv-x="301" d="M59 33v135q0 33 33 33h66q12 0 22 -9.5t10 -23.5v-135q0 -14 -10 -23.5t-22 -9.5h-66q-33 0 -33 33zM59 33v135q0 33 33 33h66q33 0 32 -33v-135q0 -12 -9 -22.5t-23 -10.5h-66q-14 0 -23.5 10t-9.5 23zM59 610v135q0 33 33 33h66q33 0 32 -33v-135q0 -12 -9 -22t-23 -10 h-66q-14 0 -23.5 10t-9.5 22zM115 63v76q0 8 8 8h4q8 0 8 -8v-76q0 -8 -8 -8h-4q-8 0 -8 8zM115 641q0 -8 8 -8h4q8 0 8 8v76q0 8 -8 8h-4q-8 0 -8 -8v-76z" />
<glyph unicode=";" horiz-adv-x="301" d="M59 168q0 33 33 33h66q33 0 32 -33v-410q0 -33 -32 -32h-66q-33 0 -33 32v410zM59 610v135q0 33 33 33h66q33 0 32 -33v-135q0 -12 -9 -22t-23 -10h-66q-14 0 -23.5 10t-9.5 22zM115 137v-348q0 -8 8 -8h4q8 0 8 8v348q0 10 -8 10h-4q-8 0 -8 -10zM115 641q0 -8 8 -8h4 q8 0 8 8v76q0 8 -8 8h-4q-8 0 -8 -8v-76z" />
<glyph unicode="=" horiz-adv-x="571" d="M59 520v66q0 33 33 32h334q33 0 33 -32v-66q0 -33 -33 -33h-334q-33 0 -33 33zM59 780v66q0 33 33 33h334q33 0 33 -33v-66q0 -12 -9.5 -22t-23.5 -10h-334q-14 0 -23.5 10t-9.5 22zM113 551q0 -10 8 -10h276q8 0 9 10v4q0 8 -9 8h-276q-8 0 -8 -8v-4zM113 811q0 -8 8 -8 h276q8 0 9 8v4q0 10 -9 10h-276q-8 0 -8 -10v-4z" />
<glyph unicode="?" horiz-adv-x="641" d="M59 43q0 33 33 33h66q12 0 22 -9.5t10 -23.5v-135q0 -14 -10 -23.5t-22 -9.5h-66q-33 0 -33 33v135zM59 240v100q0 23 1 36t4.5 25.5t11.5 27.5t22 42l295 520q4 8 5 12.5t1 20.5v104q0 43 -30.5 74t-73.5 31t-74 -31t-31 -74v-69q0 -14 -10 -23.5t-22 -9.5h-66 q-33 0 -33 33v69q0 49 18.5 91.5t50.5 75t75 51t92 18.5t91 -18.5t75 -51t51 -74.5t18 -92v-104q0 -23 -1 -36t-4 -25.5t-12 -27.5t-24 -42l-294 -520q-4 -8 -4.5 -12.5t-0.5 -20.5v-100q0 -14 -10 -23.5t-22 -9.5h-66q-33 0 -33 33zM113 12v-73q0 -8 10 -9h4q8 0 8 9v73 q0 10 -8 11h-4q-10 0 -10 -11zM113 270q0 -8 10 -8h4q8 0 8 8v68q0 20 1 31.5t11 27.5l295 521q14 23 20.5 36t10.5 23q2 8 2 45v104q0 76 -52 128.5t-128 52.5t-129 -52.5t-53 -128.5v-39q0 -10 10 -10h4q8 0 8 10v39q0 66 47 113t113 47t112 -47t46 -113v-104 q0 -20 -1 -31.5t-12 -29.5l-295 -521q-12 -23 -19 -36t-9 -21q-4 -8 -4 -45v-68z" />
<glyph unicode="@" horiz-adv-x="1236" d="M59 236v890q0 49 18.5 92.5t51.5 75t75 50t91 18.5h596q49 0 92 -18.5t75 -50t50 -74.5t18 -93v-591q0 -49 -18 -91.5t-50 -75t-75 -51t-92 -18.5h-160q-33 0 -33 33v284h-209v-284q0 -33 -32 -33h-66q-33 0 -33 33v497q0 49 18.5 91.5t51.5 75t75 51t91 18.5t91 -18.5 t75 -51t51 -74.5t18 -92v-399h62q45 0 75.5 31t30.5 74v591q0 45 -30.5 76t-75.5 31h-596q-43 0 -74 -31t-31 -76v-890q0 -43 31 -74t74 -31h371q33 0 32 -33v-65q0 -33 -32 -33h-371q-49 0 -91 18.5t-75 51t-51.5 74.5t-18.5 92zM115 236q0 -37 14 -70t39 -57.5t57.5 -39 t69.5 -14.5h340q10 0 10 8v5q0 10 -10 10h-340q-66 0 -112 46t-46 112v890q0 33 12.5 63t34 51.5t50 33.5t61.5 12h596q66 0 113 -47t47 -113v-591q0 -66 -47.5 -113t-112.5 -47h-117v454q0 76 -52 128.5t-128 52.5t-128 -52.5t-52 -128.5v-467q0 -10 8 -10h4q8 0 8 10v310 h320v-310q0 -10 8 -10h129q76 0 129 53.5t53 129.5v591q0 76 -53 129.5t-129 53.5h-596q-37 0 -69.5 -14.5t-57.5 -39t-39 -58.5t-14 -71v-890zM434 694v135q0 66 47 112t113 46t113 -46t47 -112v-135h-320zM489 748h209v81q0 43 -30.5 74t-73.5 31t-74 -31t-31 -74v-81z " />
<glyph unicode="A" d="M59 33v1091q0 49 18.5 92.5t51.5 76t76 51t92 18.5t91 -18.5t75 -51t51 -75.5t18 -93v-1091q0 -33 -32 -33h-66q-33 0 -33 33v583h-211v-583q0 -33 -32 -33h-66q-12 0 -22.5 9t-10.5 24zM115 61q0 -8 8 -8h4q10 0 10 8v609h320v-609q0 -8 8 -8h4q8 0 8 8v1063 q0 76 -52 129.5t-128 53.5t-129 -53.5t-53 -129.5v-1063zM137 692v432q0 66 47 113t113 47t113 -47t47 -113v-432h-320zM190 748h211v376q0 45 -30.5 76t-73.5 31q-45 0 -76 -31t-31 -76v-376z" />
<glyph unicode="B" d="M59 66v1230q0 27 19.5 46.5t46.5 19.5h172q49 0 91 -18.5t75 -51t51 -75.5t18 -93v-272q0 -51 -19 -95t-54 -77q35 -33 54 -76t19 -94v-274q0 -49 -18 -91.5t-51 -75t-75 -51t-91 -18.5h-172q-27 0 -46.5 18.5t-19.5 47.5zM115 66q0 -12 10 -13h172q76 0 129 53.5 t53 129.5v274q0 59 -33.5 105.5t-87.5 64.5q53 20 87 66.5t34 105.5v272q0 76 -53 129.5t-129 53.5h-172q-10 0 -10 -11v-1230zM137 76v594h160q66 0 113 -47.5t47 -112.5v-274q0 -66 -47.5 -113t-112.5 -47h-160zM137 692v592h160q66 0 113 -47t47 -113v-272 q0 -66 -47.5 -113t-112.5 -47h-160zM190 131h107q43 0 73.5 31t30.5 74v274q0 43 -30.5 73.5t-73.5 30.5h-107v-483zM190 745h107q43 0 73.5 31t30.5 76v272q0 45 -30.5 76t-73.5 31h-107v-486z" />
<glyph unicode="C" horiz-adv-x="620" d="M59 236v890q0 49 18.5 91.5t50.5 75t75 51t92 18.5t91 -18.5t75 -51t51 -74.5t18 -92v-69q0 -33 -32 -33h-66q-33 0 -33 33v69q0 43 -30.5 74t-73.5 31t-74 -31t-31 -74v-890q0 -43 31 -74t74 -31t73.5 31t30.5 74v75q0 33 33 33h66q33 0 32 -33v-75q0 -49 -18 -91.5 t-51 -75t-75 -51t-91 -18.5t-92 18.5t-75 51t-50.5 74.5t-18.5 92zM113 236q0 -76 53 -128.5t129 -52.5t128 52.5t52 128.5v45q0 10 -8 10h-4q-8 0 -8 -10v-45q0 -66 -47.5 -113t-112.5 -47q-66 0 -113 47t-47 113v890q0 66 47 113t113 47t113 -47t47 -113v-39q0 -8 8 -8h4 q8 0 8 8v39q0 76 -52 129.5t-128 53.5t-129 -53.5t-53 -129.5v-890z" />
<glyph unicode="D" d="M59 66v1230q0 27 19.5 46.5t46.5 19.5h172q49 0 92 -18.5t75 -51t50 -75.5t18 -93v-888q0 -49 -18 -91.5t-50 -75t-75 -51t-92 -18.5h-172q-27 0 -46.5 18.5t-19.5 47.5zM115 66q0 -12 10 -13h172q76 0 129 53.5t53 129.5v888q0 76 -53 129.5t-129 53.5h-172 q-10 0 -10 -11v-1230zM137 76v1208h160q66 0 113 -47t47 -113v-888q0 -66 -47.5 -113t-112.5 -47h-160zM190 131h107q43 0 73.5 31t30.5 74v888q0 45 -30.5 76t-73.5 31h-107v-1100z" />
<glyph unicode="E" horiz-adv-x="512" d="M59 66v1230q0 27 18.5 46.5t47.5 19.5h244q14 0 23 -10.5t9 -22.5v-65q0 -33 -32 -33h-179v-486h179q33 0 32 -32v-66q0 -12 -9 -22.5t-23 -10.5h-179v-483h179q14 0 23 -10t9 -23v-65q0 -33 -32 -33h-244q-29 0 -47.5 18.5t-18.5 47.5zM115 66q0 -12 10 -13h213q8 0 8 8 v7q0 8 -8 8h-201v594h201q8 0 8 8v6q0 8 -8 8h-201v592h201q8 0 8 8v6q0 8 -8 9h-213q-10 0 -10 -11v-1230z" />
<glyph unicode="F" horiz-adv-x="512" d="M59 33v1263q0 27 19.5 46.5t46.5 19.5h244q14 0 23 -10.5t9 -22.5v-65q0 -33 -32 -33h-179v-486h179q33 0 32 -32v-66q0 -12 -9 -22.5t-23 -10.5h-179v-581q0 -33 -32 -33h-66q-33 0 -33 33zM115 61q0 -8 8 -8h4q10 0 10 8v609h201q8 0 8 8v6q0 8 -8 8h-201v592h201 q8 0 8 8v6q0 8 -8 9h-213q-10 0 -10 -11v-1235z" />
<glyph unicode="G" horiz-adv-x="641" d="M59 236v890q0 49 18.5 91.5t51.5 75t75 51t91 18.5t91 -18.5t75 -51t51 -74.5t18 -92v-69q0 -33 -32 -33h-66q-33 0 -33 33v69q0 43 -30.5 74t-73.5 31t-74 -31t-31 -74v-890q0 -43 31 -74t74 -31t73.5 31t30.5 74v382h-71q-33 0 -33 33v66q0 33 33 33h170q33 0 32 -33 v-481q0 -49 -18 -91.5t-51 -75t-75 -51t-91 -18.5t-91 18.5t-75 51t-51.5 74.5t-18.5 92zM115 236q0 -76 52 -128.5t128 -52.5t129 52.5t53 128.5v450q0 8 -10 8h-109q-8 0 -8 -8v-4q0 -8 8 -8h97v-438q0 -66 -47.5 -113t-112.5 -47q-66 0 -113 47t-47 113v890q0 66 47 113 t113 47t113 -47t47 -113v-39q0 -8 8 -8h4q10 0 10 8v39q0 76 -53 129.5t-129 53.5t-128 -53.5t-52 -129.5v-890z" />
<glyph unicode="H" horiz-adv-x="641" d="M59 33v1294v2q0 12 9.5 22.5t23.5 10.5h66q14 0 23 -10.5t9 -22.5v-584h211v584q0 12 9.5 22.5t23.5 10.5h64q14 0 23 -10.5t9 -22.5v-1296q0 -33 -32 -33h-64q-33 0 -33 33v581h-211v-581q0 -33 -32 -33h-66q-33 0 -33 33zM113 61q0 -8 10 -8h4q8 0 8 8v609h320v-609 q0 -8 8 -8h6q8 0 8 8v1237q0 8 -8 9h-6q-8 0 -8 -9v-608h-320v608q0 8 -8 9h-4q-10 0 -10 -9v-1237z" />
<glyph unicode="I" horiz-adv-x="301" d="M59 33v1294v2q0 12 9.5 22.5t23.5 10.5h66q14 0 23 -10.5t9 -22.5v-1296q0 -33 -32 -33h-66q-33 0 -33 33zM113 61q0 -8 10 -8h4q8 0 8 8v1237q0 8 -8 9h-4q-10 0 -10 -9v-1237z" />
<glyph unicode="J" horiz-adv-x="641" d="M59 236v75q0 33 33 33h66q33 0 32 -33v-75q0 -43 31 -74t74 -31t73.5 31t30.5 74v1093q0 14 10.5 23.5t22.5 9.5h66q33 0 32 -33v-1093q0 -49 -18 -91.5t-50 -75t-75 -51t-92 -18.5t-91 18.5t-75 51t-51.5 74.5t-18.5 92zM115 236q0 -76 52 -128.5t128 -52.5t129 52.5 t53 128.5v1062q0 10 -10 11h-4q-8 0 -8 -11v-1062q0 -66 -47.5 -113t-112.5 -47q-66 0 -112 47t-46 113v45q0 10 -10 10h-4q-8 0 -8 -10v-45z" />
<glyph unicode="K" d="M59 33v583v132v579v2q0 12 9.5 22.5t23.5 10.5h66q14 0 23 -10.5t9 -22.5v-581h105q45 0 75.5 30.5t30.5 73.5v477q0 12 9.5 22.5t23.5 10.5h66q12 0 22 -10.5t10 -22.5v-477q0 -51 -19 -94t-54 -76q35 -33 54 -77t19 -95v-477q0 -14 -10 -23.5t-22 -9.5h-66 q-33 0 -33 33v477q0 45 -30.5 75.5t-75.5 30.5h-105v-583q0 -33 -32 -33h-66q-33 0 -33 33zM115 61q0 -8 8 -8h4q8 0 8 8v609h160q66 0 113 -47.5t47 -112.5v-449q0 -8 10 -8h4q8 0 8 8v449q0 59 -33.5 105.5t-87.5 66.5q53 18 87 64.5t34 105.5v446q0 8 -8 9h-4 q-10 0 -10 -9v-446q0 -66 -47.5 -113t-112.5 -47h-160v606q0 8 -8 9h-4q-8 0 -8 -9v-606v-22v-609z" />
<glyph unicode="L" horiz-adv-x="489" d="M59 66v1263q0 12 9.5 22.5t23.5 10.5h66q12 0 22 -10.5t10 -22.5v-1198h177q14 0 23 -10t9 -23v-65q0 -33 -32 -33h-242q-29 0 -47.5 18.5t-18.5 47.5zM113 66q0 -12 12 -13h211q10 0 10 8v7q0 8 -10 8h-201v1222q0 8 -8 9h-6q-8 0 -8 -9v-1232z" />
<glyph unicode="M" horiz-adv-x="985" d="M59 33v1091q0 49 18.5 92.5t51.5 76t76 51t92 18.5t93 -19.5t77 -54.5q33 35 77 54.5t93 19.5t92 -18.5t76 -51t51 -75.5t18 -93v-1091q0 -14 -10 -23.5t-22 -9.5h-66q-33 0 -33 33v1091q0 45 -30.5 76t-75.5 31q-43 0 -74 -31t-31 -76v-1091q0 -33 -32 -33h-66 q-33 0 -33 33v1091q0 45 -30.5 76t-73.5 31q-45 0 -76 -31t-31 -76v-1091q0 -33 -32 -33h-66q-12 0 -22.5 9t-10.5 24zM115 63q0 -10 8 -10h4q10 0 10 10v1061q0 66 47 113t113 47t113 -47t47 -113v-1061q0 -10 8 -10h4q8 0 8 10v1061q0 66 47 113t113 47t113 -47t47 -113 v-1063q0 -8 10 -8h4q8 0 8 8v1063q0 76 -53 129.5t-129 53.5q-59 0 -105.5 -34t-64.5 -87q-18 53 -64.5 87t-105.5 34q-76 0 -129 -53.5t-53 -129.5v-1061z" />
<glyph unicode="N" d="M59 33v1091q0 49 18.5 92.5t51.5 76t76 51t92 18.5t91 -18.5t75 -51t51 -75.5t18 -93v-1091q0 -33 -32 -33h-66q-33 0 -33 33v1091q0 45 -30.5 76t-73.5 31q-45 0 -76 -31t-31 -76v-1091q0 -33 -32 -33h-66q-33 0 -33 33zM115 61q0 -8 8 -8h4q10 0 10 8v1063q0 66 47 113 t113 47t113 -47t47 -113v-1063q0 -8 8 -8h4q8 0 8 8v1063q0 76 -52 129.5t-128 53.5t-129 -53.5t-53 -129.5v-1063z" />
<glyph unicode="O" d="M59 236v888q0 49 18.5 92.5t51.5 76t76 51t92 18.5t91 -18.5t75 -51t51 -75.5t18 -93v-888q0 -49 -18 -92.5t-51 -75t-75 -50t-91 -18.5t-92 18.5t-76 50t-51.5 74.5t-18.5 93zM115 236q0 -76 53 -129.5t129 -53.5t128 53.5t52 129.5v888q0 76 -52 129.5t-128 53.5 t-129 -53.5t-53 -129.5v-888zM137 236v888q0 66 47 113t113 47t113 -47t47 -113v-888q0 -66 -47.5 -113t-112.5 -47q-66 0 -113 47t-47 113zM190 236q0 -43 31 -74t76 -31q43 0 73.5 31t30.5 74v888q0 45 -30.5 76t-73.5 31q-45 0 -76 -31t-31 -76v-888z" />
<glyph unicode="P" horiz-adv-x="600" d="M59 33v583v132v579v2q0 12 9.5 22.5t23.5 10.5h203q49 0 91 -18.5t75 -51t51 -75.5t18 -93v-272q0 -49 -18 -92t-51 -75t-75 -50.5t-91 -18.5h-107v-583q0 -14 -9 -23.5t-21 -9.5h-66q-33 0 -33 33zM113 61q0 -8 6 -8h8q8 0 8 8v609h160q76 0 129 53t53 129v272 q0 76 -53 129.5t-129 53.5h-174q-8 0 -8 -9v-606v-22v-609zM135 692v592h160q66 0 113 -47t47 -113v-272q0 -66 -47.5 -113t-112.5 -47h-160zM188 748h107q43 0 73.5 30.5t30.5 73.5v272q0 45 -30.5 76t-73.5 31h-107v-483z" />
<glyph unicode="Q" d="M59 236v886q0 49 18.5 92t51.5 75t75 50.5t91 18.5t91 -18.5t75 -50.5t51 -75t18 -92v-886q0 -80 -48 -141.5t-122 -84.5v-108q0 -12 -9 -21.5t-23 -9.5h-66q-14 0 -23.5 9t-9.5 22v108q-74 23 -122 84.5t-48 141.5zM115 236q0 -72 49 -124.5t121 -56.5v-123q0 -8 8 -8h4 q8 0 8 8v123q72 4 121 56.5t49 124.5v886q0 76 -52 129.5t-128 53.5t-128 -53.5t-52 -129.5v-886zM135 236v886q0 66 47 113t113 47t113 -47t47 -113v-886q0 -66 -47.5 -113t-112.5 -47q-66 0 -113 47t-47 113zM190 236q0 -43 31 -74t74 -31t73.5 31t30.5 74v886 q0 45 -30.5 76t-73.5 31t-74 -31t-31 -76v-886z" />
<glyph unicode="R" horiz-adv-x="630" d="M49 33v1263q0 27 18.5 46.5t47.5 19.5h170q49 0 92 -18.5t74.5 -51t50 -75.5t18.5 -93v-272q0 -102 -71 -170q72 -68 71 -172v-477q0 -33 -33 -33h-65q-33 0 -33 33v477q0 45 -30.5 75.5t-73.5 30.5h-105v-583q0 -14 -10 -23.5t-23 -9.5h-65q-33 0 -33 33zM102 61 q0 -8 11 -8h4q8 0 8 8v609h160q66 0 112.5 -47.5t46.5 -112.5v-449q0 -8 9 -8h4q10 0 10 8v449q0 59 -34 105.5t-87 66.5q53 18 87 64.5t34 105.5v272q0 76 -53.5 129.5t-128.5 53.5h-170q-12 0 -13 -11v-1235zM125 692v592h160q66 0 112.5 -47t46.5 -113v-272 q0 -66 -47 -113t-112 -47h-160zM180 748h105q43 0 73.5 30.5t30.5 73.5v272q0 45 -30.5 76t-73.5 31h-105v-483z" />
<glyph unicode="S" horiz-adv-x="600" d="M39 236v69q0 12 9 22.5t24 10.5h65q14 0 23.5 -10.5t9.5 -22.5v-69q0 -45 30.5 -76t73.5 -31t74 30.5t31 76.5v102q0 16 -1 20t-5 13l-295 520q-14 27 -22.5 41t-11.5 26.5t-4 26.5t-1 37v104q0 49 18.5 91.5t51 75t74.5 51t91 18.5t91.5 -18.5t75 -51t51 -74.5t18.5 -92 v-69q0 -33 -33 -33h-65q-33 0 -33 33v69q0 43 -31 74t-74 31t-73.5 -31t-30.5 -74v-104q0 -18 1 -22.5t5 -12.5l295 -520q14 -27 22.5 -41t11.5 -26.5t4 -26t1 -35.5v-102q0 -49 -18.5 -92.5t-51 -75t-74.5 -50t-92 -18.5q-49 0 -91 18.5t-74.5 50t-51 74.5t-18.5 93z M94 236q0 -76 52.5 -129.5t127.5 -53.5q76 0 128.5 53.5t52.5 129.5v102q0 37 -2 45t-9.5 21.5t-19.5 35.5l-295 521q-10 16 -12 28t-2 33v104q0 66 46.5 112t112.5 46t113 -46t47 -112v-41q0 -8 8 -8h4q8 0 9 8v41q0 74 -52.5 127.5t-128.5 53.5t-128 -53.5t-52 -127.5 v-104q0 -39 2 -47q2 -10 31 -57l293 -521q10 -16 12 -27.5t2 -31.5v-102q0 -66 -47 -113t-113 -47t-112.5 47t-46.5 113v38q0 8 -9 9h-4q-8 0 -8 -9v-38z" />
<glyph unicode="T" horiz-adv-x="509" d="M39 1264v65q0 12 9 22.5t24 10.5h315q14 0 23.5 -10.5t9.5 -22.5v-65q0 -33 -33 -33h-92v-1198q0 -33 -33 -33h-65q-33 0 -33 33v1198h-92q-33 0 -33 33zM94 1292q0 -8 8 -8h117v-1223q0 -8 8 -8h4q8 0 9 8v1223h116q8 0 9 8v6q0 8 -9 9h-254q-8 0 -8 -9v-6z" />
<glyph unicode="U" d="M59 236v1093q0 12 10.5 22.5t22.5 10.5h66q14 0 23 -10.5t9 -22.5v-1093q0 -43 31 -74t76 -31q43 0 73.5 31t30.5 74v1093q0 12 9.5 22.5t23.5 10.5h66q14 0 23 -10.5t9 -22.5v-1093q0 -49 -18 -92.5t-51 -75t-75 -50t-91 -18.5t-92 18.5t-76 50t-51.5 74.5t-18.5 93z M115 236q0 -76 53 -129.5t129 -53.5t129 53.5t53 129.5v1062q0 8 -10 9h-4q-8 0 -8 -9v-1062q0 -66 -47.5 -113t-112.5 -47q-66 0 -113 47t-47 113v1062q0 8 -8 9h-6q-8 0 -8 -9v-1062z" />
<glyph unicode="V" d="M59 342v987q0 12 9.5 22.5t23.5 10.5h66q12 0 22 -10.5t10 -22.5v-987q0 -10 1.5 -17.5t3.5 -15.5l100 -176l98 176q6 14 6 33v987q0 12 9.5 22.5t23.5 10.5h66q14 0 23 -10.5t9 -22.5v-2v-985q0 -70 -38 -131l-111 -195q-10 -16 -29 -16h-114q-18 0 -29 16l-111 195 q-39 61 -39 131zM113 344q0 -2 3 -30.5t21 -57.5l111 -197q2 -6 10 -6h74q6 0 10 6l111 197q16 29 20 57.5t4 30.5v954q0 8 -10 9h-4q-8 0 -8 -9v-954q0 -14 -2 -27q-2 -10 -6.5 -24t-12.5 -27l-108 -190h-62l-108 190q-8 12 -12.5 26.5t-6.5 24.5q-2 12 -2 27v954q0 8 -8 9 h-4q-10 0 -10 -9v-954z" />
<glyph unicode="W" horiz-adv-x="983" d="M59 342v985q0 33 33 33h66q33 0 32 -33v-985q0 -18 7 -33l98 -176l100 176q6 14 6 33v985q0 33 33 33h66q33 0 32 -33v-985q0 -18 7 -33l98 -176l100 176q2 8 3 15.5t1 17.5v985q0 14 10.5 23.5t22.5 9.5h66q33 0 32 -33v-985q0 -70 -38 -131l-111 -195q-10 -16 -29 -16 h-114q-18 0 -29 16l-84 150l-86 -150q-10 -16 -29 -16h-112q-23 0 -29 16l-111 195q-41 59 -41 131zM115 344q0 -2 3 -30.5t19 -57.5l113 -197q2 -6 10 -6h72q6 0 10 6l113 197q4 6 6 13t6 14q4 -16 12 -27l111 -197q2 -6 10 -6h74q6 0 10 6l111 197q18 29 21 57.5t3 30.5 v954q0 8 -10 9h-4q-8 0 -8 -9v-954q0 -14 -2 -27q-2 -10 -6.5 -24t-12.5 -27l-108 -190h-62l-108 190q-14 23 -17.5 45.5t-3.5 30.5v2v954q0 8 -8 9h-4q-10 0 -10 -9v-954v-2q0 -8 -3 -30.5t-18 -45.5l-108 -190h-60l-110 190q-8 12 -11.5 26.5t-5.5 24.5q-2 12 -4 27v954 q0 8 -8 9h-4q-8 0 -8 -9v-954z" />
<glyph unicode="X" d="M59 33v301q0 72 41 131l119 213l-119 211q-41 59 -41 131v309q0 12 9.5 22.5t23.5 10.5h66q14 0 23 -10.5t9 -22.5v-309q0 -18 7 -33l98 -176l100 176q6 14 6 33v309q0 12 9.5 22.5t23.5 10.5h66q14 0 23 -10.5t9 -22.5v-309q0 -72 -40 -131l-119 -211l119 -213 q41 -59 40 -131v-301q0 -33 -32 -33h-66q-33 0 -33 33v301q0 16 -6 33l-100 176l-98 -176q-6 -16 -7 -33v-301q0 -33 -32 -33h-66q-33 0 -33 33zM115 63q0 -10 8 -10h4q10 0 10 10v271q0 29 8 51l2 4l148 264l149 -264l2 -4q8 -23 9 -51v-271q0 -10 10 -10h4q8 0 8 10v271 q0 53 -31 100v2l-137 242l137 240v2q31 45 31 100v278q0 8 -8 9h-4q-10 0 -10 -9v-278q0 -29 -9 -51l-2 -4l-149 -265l-148 265l-2 4q-8 23 -8 51v278q0 8 -10 9h-4q-8 0 -8 -9v-278q0 -55 30 -100v-2l138 -240l-138 -242v-2q-31 -47 -30 -100v-271z" />
<glyph unicode="Y" horiz-adv-x="602" d="M39 852v477q0 12 9 22.5t24 10.5h65q14 0 23.5 -10.5t9.5 -22.5v-477q0 -43 30.5 -73.5t75.5 -30.5q43 0 74 30.5t31 73.5v477q0 12 9 22.5t24 10.5h65q14 0 23.5 -10.5t9.5 -22.5v-477q0 -82 -48 -143.5t-122 -83.5v-592q0 -14 -10 -23.5t-23 -9.5h-65q-33 0 -33 33v592 q-76 23 -124 84t-48 143zM94 852q0 -72 49.5 -125t120.5 -57v-609q0 -8 8 -8h7q8 0 8 8v609q72 4 121 57t49 125v446q0 8 -8 9h-5q-10 0 -10 -9v-446q0 -66 -46 -113t-112 -47t-112.5 47t-46.5 113v446q0 8 -11 9h-4q-8 0 -8 -9v-446z" />
<glyph unicode="Z" horiz-adv-x="620" d="M59 33v301q0 23 1 36t4.5 25.5t11.5 27.5t22 42l297 522q4 8 4 12.5v20.5v211h-307q-33 0 -33 33v65q0 12 9.5 22.5t23.5 10.5h406q14 0 23 -10.5t9 -22.5v-309q0 -23 -1 -36t-4 -25.5t-11 -28t-22 -41.5l-295 -520q-4 -8 -5.5 -12.5t-1.5 -22.5v-203h308q14 0 23 -10 t9 -23v-65q0 -33 -32 -33h-406q-33 0 -33 33zM113 61q0 -8 10 -8h344q10 0 10 6v9q0 8 -10 8h-332v258q0 20 1 31.5t11 29.5l297 520q12 23 19.5 37.5t9.5 22.5q4 8 4 45v278q0 8 -10 9h-344q-10 0 -10 -9v-6q0 -8 10 -8h332v-264q0 -20 -1 -31.5t-12 -27.5l-297 -523 q-12 -23 -19 -36t-9 -23q-4 -8 -4 -45v-273z" />
<glyph unicode="[" horiz-adv-x="509" d="M59 66v1230q0 29 18.5 47.5t47.5 18.5h242q33 0 32 -33v-65q0 -33 -32 -33h-177v-1100h177q33 0 32 -33v-65q0 -33 -32 -33h-242q-29 0 -47.5 19.5t-18.5 46.5zM113 66q0 -10 12 -11h213q8 0 8 8v5q0 10 -8 10h-203v1208h203q8 0 8 8v4q0 10 -8 11h-213q-12 0 -12 -13 v-1230z" />
<glyph unicode="\" d="M59 1022v307q0 33 33 33h66q33 0 32 -33v-307q0 -18 1.5 -22.5t5.5 -12.5l295 -522q14 -27 23 -42t12 -27.5t4 -26t1 -35.5v-301q0 -14 -10 -23.5t-22 -9.5h-66q-33 0 -33 33v301q0 18 -1 22t-5 13l-297 522q-14 27 -22 41t-11.5 26.5t-4.5 26.5t-1 37zM115 1022 q0 -39 2 -47q2 -10 30 -57l295 -523q10 -16 11.5 -28.5t1.5 -32.5v-271q0 -10 8 -10h6q8 0 8 10v271q0 39 -2 47q-4 8 -11 21.5t-20 35.5l-294 523q-10 16 -12.5 27t-2.5 34v276q0 8 -8 9h-4q-8 0 -8 -9v-276z" />
<glyph unicode="]" horiz-adv-x="509" d="M59 33v65q0 33 33 33h176v1100h-176q-33 0 -33 33v65q0 33 33 33h242q29 0 47 -18.5t18 -47.5v-1230q0 -27 -18.5 -46.5t-46.5 -19.5h-242q-33 0 -33 33zM113 63q0 -8 10 -8h211q12 0 12 11v1230q0 12 -12 13h-211q-10 0 -10 -11v-4q0 -8 10 -8h201v-1208h-201 q-10 0 -10 -10v-5z" />
<glyph unicode="^" horiz-adv-x="612" d="M61.5 1508.5q-6.5 11.5 1.5 27.5l119 207q8 16 25.5 25.5t34.5 13.5h75q16 -4 34 -13.5t26 -25.5l119 -207q10 -16 3 -27.5t-26 -11.5h-63q-18 0 -37 11.5t-29 27.5l-63 113l-66 -113q-10 -16 -28.5 -27.5t-36.5 -11.5h-64q-18 0 -24.5 11.5zM141 1561q-8 -8 4 -9h9 q8 0 12 9l84 145h59l84 -145q4 -8 13 -9h8q10 0 6 9l-92 159q-4 8 -13 9h-71q-8 0 -13 -9z" />
<glyph unicode="`" horiz-adv-x="452" d="M65 1770.5q7 11.5 25 11.5h64q16 0 35.5 -11.5t27.5 -27.5l119 -207q10 -16 3 -27.5t-26 -11.5h-63q-16 0 -35.5 11.5t-28.5 27.5l-118 207q-10 16 -3 27.5zM143 1720l90 -161q6 -6 15 -7h8q6 0 4 7l-90 161q-4 6 -14 6h-9q-8 0 -4 -6z" />
<glyph unicode="a" d="M59 33v1091q0 49 18.5 92.5t51.5 76t76 51t92 18.5t91 -18.5t75 -51t51 -75.5t18 -93v-1091q0 -33 -32 -33h-66q-33 0 -33 33v583h-211v-583q0 -33 -32 -33h-66q-12 0 -22.5 9t-10.5 24zM115 61q0 -8 8 -8h4q10 0 10 8v609h320v-609q0 -8 8 -8h4q8 0 8 8v1063 q0 76 -52 129.5t-128 53.5t-129 -53.5t-53 -129.5v-1063zM137 692v432q0 66 47 113t113 47t113 -47t47 -113v-432h-320zM190 748h211v376q0 45 -30.5 76t-73.5 31q-45 0 -76 -31t-31 -76v-376z" />
<glyph unicode="b" d="M59 66v1230q0 27 19.5 46.5t46.5 19.5h172q49 0 91 -18.5t75 -51t51 -75.5t18 -93v-272q0 -51 -19 -95t-54 -77q35 -33 54 -76t19 -94v-274q0 -49 -18 -91.5t-51 -75t-75 -51t-91 -18.5h-172q-27 0 -46.5 18.5t-19.5 47.5zM115 66q0 -12 10 -13h172q76 0 129 53.5 t53 129.5v274q0 59 -33.5 105.5t-87.5 64.5q53 20 87 66.5t34 105.5v272q0 76 -53 129.5t-129 53.5h-172q-10 0 -10 -11v-1230zM137 76v594h160q66 0 113 -47.5t47 -112.5v-274q0 -66 -47.5 -113t-112.5 -47h-160zM137 692v592h160q66 0 113 -47t47 -113v-272 q0 -66 -47.5 -113t-112.5 -47h-160zM190 131h107q43 0 73.5 31t30.5 74v274q0 43 -30.5 73.5t-73.5 30.5h-107v-483zM190 745h107q43 0 73.5 31t30.5 76v272q0 45 -30.5 76t-73.5 31h-107v-486z" />
<glyph unicode="c" horiz-adv-x="620" d="M59 236v890q0 49 18.5 91.5t50.5 75t75 51t92 18.5t91 -18.5t75 -51t51 -74.5t18 -92v-69q0 -33 -32 -33h-66q-33 0 -33 33v69q0 43 -30.5 74t-73.5 31t-74 -31t-31 -74v-890q0 -43 31 -74t74 -31t73.5 31t30.5 74v75q0 33 33 33h66q33 0 32 -33v-75q0 -49 -18 -91.5 t-51 -75t-75 -51t-91 -18.5t-92 18.5t-75 51t-50.5 74.5t-18.5 92zM113 236q0 -76 53 -128.5t129 -52.5t128 52.5t52 128.5v45q0 10 -8 10h-4q-8 0 -8 -10v-45q0 -66 -47.5 -113t-112.5 -47q-66 0 -113 47t-47 113v890q0 66 47 113t113 47t113 -47t47 -113v-39q0 -8 8 -8h4 q8 0 8 8v39q0 76 -52 129.5t-128 53.5t-129 -53.5t-53 -129.5v-890z" />
<glyph unicode="d" d="M59 66v1230q0 27 19.5 46.5t46.5 19.5h172q49 0 92 -18.5t75 -51t50 -75.5t18 -93v-888q0 -49 -18 -91.5t-50 -75t-75 -51t-92 -18.5h-172q-27 0 -46.5 18.5t-19.5 47.5zM115 66q0 -12 10 -13h172q76 0 129 53.5t53 129.5v888q0 76 -53 129.5t-129 53.5h-172 q-10 0 -10 -11v-1230zM137 76v1208h160q66 0 113 -47t47 -113v-888q0 -66 -47.5 -113t-112.5 -47h-160zM190 131h107q43 0 73.5 31t30.5 74v888q0 45 -30.5 76t-73.5 31h-107v-1100z" />
<glyph unicode="e" horiz-adv-x="512" d="M59 66v1230q0 27 18.5 46.5t47.5 19.5h244q14 0 23 -10.5t9 -22.5v-65q0 -33 -32 -33h-179v-486h179q33 0 32 -32v-66q0 -12 -9 -22.5t-23 -10.5h-179v-483h179q14 0 23 -10t9 -23v-65q0 -33 -32 -33h-244q-29 0 -47.5 18.5t-18.5 47.5zM115 66q0 -12 10 -13h213q8 0 8 8 v7q0 8 -8 8h-201v594h201q8 0 8 8v6q0 8 -8 8h-201v592h201q8 0 8 8v6q0 8 -8 9h-213q-10 0 -10 -11v-1230z" />
<glyph unicode="f" horiz-adv-x="512" d="M59 33v1263q0 27 19.5 46.5t46.5 19.5h244q14 0 23 -10.5t9 -22.5v-65q0 -33 -32 -33h-179v-486h179q33 0 32 -32v-66q0 -12 -9 -22.5t-23 -10.5h-179v-581q0 -33 -32 -33h-66q-33 0 -33 33zM115 61q0 -8 8 -8h4q10 0 10 8v609h201q8 0 8 8v6q0 8 -8 8h-201v592h201 q8 0 8 8v6q0 8 -8 9h-213q-10 0 -10 -11v-1235z" />
<glyph unicode="g" horiz-adv-x="641" d="M59 236v890q0 49 18.5 91.5t51.5 75t75 51t91 18.5t91 -18.5t75 -51t51 -74.5t18 -92v-69q0 -33 -32 -33h-66q-33 0 -33 33v69q0 43 -30.5 74t-73.5 31t-74 -31t-31 -74v-890q0 -43 31 -74t74 -31t73.5 31t30.5 74v382h-71q-33 0 -33 33v66q0 33 33 33h170q33 0 32 -33 v-481q0 -49 -18 -91.5t-51 -75t-75 -51t-91 -18.5t-91 18.5t-75 51t-51.5 74.5t-18.5 92zM115 236q0 -76 52 -128.5t128 -52.5t129 52.5t53 128.5v450q0 8 -10 8h-109q-8 0 -8 -8v-4q0 -8 8 -8h97v-438q0 -66 -47.5 -113t-112.5 -47q-66 0 -113 47t-47 113v890q0 66 47 113 t113 47t113 -47t47 -113v-39q0 -8 8 -8h4q10 0 10 8v39q0 76 -53 129.5t-129 53.5t-128 -53.5t-52 -129.5v-890z" />
<glyph unicode="h" horiz-adv-x="641" d="M59 33v1294v2q0 12 9.5 22.5t23.5 10.5h66q14 0 23 -10.5t9 -22.5v-584h211v584q0 12 9.5 22.5t23.5 10.5h64q14 0 23 -10.5t9 -22.5v-1296q0 -33 -32 -33h-64q-33 0 -33 33v581h-211v-581q0 -33 -32 -33h-66q-33 0 -33 33zM113 61q0 -8 10 -8h4q8 0 8 8v609h320v-609 q0 -8 8 -8h6q8 0 8 8v1237q0 8 -8 9h-6q-8 0 -8 -9v-608h-320v608q0 8 -8 9h-4q-10 0 -10 -9v-1237z" />
<glyph unicode="i" horiz-adv-x="301" d="M59 33v1294v2q0 12 9.5 22.5t23.5 10.5h66q14 0 23 -10.5t9 -22.5v-1296q0 -33 -32 -33h-66q-33 0 -33 33zM113 61q0 -8 10 -8h4q8 0 8 8v1237q0 8 -8 9h-4q-10 0 -10 -9v-1237z" />
<glyph unicode="j" horiz-adv-x="641" d="M59 236v75q0 33 33 33h66q33 0 32 -33v-75q0 -43 31 -74t74 -31t73.5 31t30.5 74v1093q0 14 10.5 23.5t22.5 9.5h66q33 0 32 -33v-1093q0 -49 -18 -91.5t-50 -75t-75 -51t-92 -18.5t-91 18.5t-75 51t-51.5 74.5t-18.5 92zM115 236q0 -76 52 -128.5t128 -52.5t129 52.5 t53 128.5v1062q0 10 -10 11h-4q-8 0 -8 -11v-1062q0 -66 -47.5 -113t-112.5 -47q-66 0 -112 47t-46 113v45q0 10 -10 10h-4q-8 0 -8 -10v-45z" />
<glyph unicode="k" d="M59 33v583v132v579v2q0 12 9.5 22.5t23.5 10.5h66q14 0 23 -10.5t9 -22.5v-581h105q45 0 75.5 30.5t30.5 73.5v477q0 12 9.5 22.5t23.5 10.5h66q12 0 22 -10.5t10 -22.5v-477q0 -51 -19 -94t-54 -76q35 -33 54 -77t19 -95v-477q0 -14 -10 -23.5t-22 -9.5h-66 q-33 0 -33 33v477q0 45 -30.5 75.5t-75.5 30.5h-105v-583q0 -33 -32 -33h-66q-33 0 -33 33zM115 61q0 -8 8 -8h4q8 0 8 8v609h160q66 0 113 -47.5t47 -112.5v-449q0 -8 10 -8h4q8 0 8 8v449q0 59 -33.5 105.5t-87.5 66.5q53 18 87 64.5t34 105.5v446q0 8 -8 9h-4 q-10 0 -10 -9v-446q0 -66 -47.5 -113t-112.5 -47h-160v606q0 8 -8 9h-4q-8 0 -8 -9v-606v-22v-609z" />
<glyph unicode="l" horiz-adv-x="489" d="M59 66v1263q0 12 9.5 22.5t23.5 10.5h66q12 0 22 -10.5t10 -22.5v-1198h177q14 0 23 -10t9 -23v-65q0 -33 -32 -33h-242q-29 0 -47.5 18.5t-18.5 47.5zM113 66q0 -12 12 -13h211q10 0 10 8v7q0 8 -10 8h-201v1222q0 8 -8 9h-6q-8 0 -8 -9v-1232z" />
<glyph unicode="m" horiz-adv-x="985" d="M59 33v1091q0 49 18.5 92.5t51.5 76t76 51t92 18.5t93 -19.5t77 -54.5q33 35 77 54.5t93 19.5t92 -18.5t76 -51t51 -75.5t18 -93v-1091q0 -14 -10 -23.5t-22 -9.5h-66q-33 0 -33 33v1091q0 45 -30.5 76t-75.5 31q-43 0 -74 -31t-31 -76v-1091q0 -33 -32 -33h-66 q-33 0 -33 33v1091q0 45 -30.5 76t-73.5 31q-45 0 -76 -31t-31 -76v-1091q0 -33 -32 -33h-66q-12 0 -22.5 9t-10.5 24zM115 63q0 -10 8 -10h4q10 0 10 10v1061q0 66 47 113t113 47t113 -47t47 -113v-1061q0 -10 8 -10h4q8 0 8 10v1061q0 66 47 113t113 47t113 -47t47 -113 v-1063q0 -8 10 -8h4q8 0 8 8v1063q0 76 -53 129.5t-129 53.5q-59 0 -105.5 -34t-64.5 -87q-18 53 -64.5 87t-105.5 34q-76 0 -129 -53.5t-53 -129.5v-1061z" />
<glyph unicode="n" d="M59 33v1091q0 49 18.5 92.5t51.5 76t76 51t92 18.5t91 -18.5t75 -51t51 -75.5t18 -93v-1091q0 -33 -32 -33h-66q-33 0 -33 33v1091q0 45 -30.5 76t-73.5 31q-45 0 -76 -31t-31 -76v-1091q0 -33 -32 -33h-66q-33 0 -33 33zM115 61q0 -8 8 -8h4q10 0 10 8v1063q0 66 47 113 t113 47t113 -47t47 -113v-1063q0 -8 8 -8h4q8 0 8 8v1063q0 76 -52 129.5t-128 53.5t-129 -53.5t-53 -129.5v-1063z" />
<glyph unicode="o" d="M59 236v888q0 49 18.5 92.5t51.5 76t76 51t92 18.5t91 -18.5t75 -51t51 -75.5t18 -93v-888q0 -49 -18 -92.5t-51 -75t-75 -50t-91 -18.5t-92 18.5t-76 50t-51.5 74.5t-18.5 93zM115 236q0 -76 53 -129.5t129 -53.5t128 53.5t52 129.5v888q0 76 -52 129.5t-128 53.5 t-129 -53.5t-53 -129.5v-888zM137 236v888q0 66 47 113t113 47t113 -47t47 -113v-888q0 -66 -47.5 -113t-112.5 -47q-66 0 -113 47t-47 113zM190 236q0 -43 31 -74t76 -31q43 0 73.5 31t30.5 74v888q0 45 -30.5 76t-73.5 31q-45 0 -76 -31t-31 -76v-888z" />
<glyph unicode="p" horiz-adv-x="600" d="M59 33v583v132v579v2q0 12 9.5 22.5t23.5 10.5h203q49 0 91 -18.5t75 -51t51 -75.5t18 -93v-272q0 -49 -18 -92t-51 -75t-75 -50.5t-91 -18.5h-107v-583q0 -14 -9 -23.5t-21 -9.5h-66q-33 0 -33 33zM113 61q0 -8 6 -8h8q8 0 8 8v609h160q76 0 129 53t53 129v272 q0 76 -53 129.5t-129 53.5h-174q-8 0 -8 -9v-606v-22v-609zM135 692v592h160q66 0 113 -47t47 -113v-272q0 -66 -47.5 -113t-112.5 -47h-160zM188 748h107q43 0 73.5 30.5t30.5 73.5v272q0 45 -30.5 76t-73.5 31h-107v-483z" />
<glyph unicode="q" d="M59 236v886q0 49 18.5 92t51.5 75t75 50.5t91 18.5t91 -18.5t75 -50.5t51 -75t18 -92v-886q0 -80 -48 -141.5t-122 -84.5v-108q0 -12 -9 -21.5t-23 -9.5h-66q-14 0 -23.5 9t-9.5 22v108q-74 23 -122 84.5t-48 141.5zM115 236q0 -72 49 -124.5t121 -56.5v-123q0 -8 8 -8h4 q8 0 8 8v123q72 4 121 56.5t49 124.5v886q0 76 -52 129.5t-128 53.5t-128 -53.5t-52 -129.5v-886zM135 236v886q0 66 47 113t113 47t113 -47t47 -113v-886q0 -66 -47.5 -113t-112.5 -47q-66 0 -113 47t-47 113zM190 236q0 -43 31 -74t74 -31t73.5 31t30.5 74v886 q0 45 -30.5 76t-73.5 31t-74 -31t-31 -76v-886z" />
<glyph unicode="r" horiz-adv-x="630" d="M49 33v1263q0 27 18.5 46.5t47.5 19.5h170q49 0 92 -18.5t74.5 -51t50 -75.5t18.5 -93v-272q0 -102 -71 -170q72 -68 71 -172v-477q0 -33 -33 -33h-65q-33 0 -33 33v477q0 45 -30.5 75.5t-73.5 30.5h-105v-583q0 -14 -10 -23.5t-23 -9.5h-65q-33 0 -33 33zM102 61 q0 -8 11 -8h4q8 0 8 8v609h160q66 0 112.5 -47.5t46.5 -112.5v-449q0 -8 9 -8h4q10 0 10 8v449q0 59 -34 105.5t-87 66.5q53 18 87 64.5t34 105.5v272q0 76 -53.5 129.5t-128.5 53.5h-170q-12 0 -13 -11v-1235zM125 692v592h160q66 0 112.5 -47t46.5 -113v-272 q0 -66 -47 -113t-112 -47h-160zM180 748h105q43 0 73.5 30.5t30.5 73.5v272q0 45 -30.5 76t-73.5 31h-105v-483z" />
<glyph unicode="s" horiz-adv-x="600" d="M39 236v69q0 12 9 22.5t24 10.5h65q14 0 23.5 -10.5t9.5 -22.5v-69q0 -45 30.5 -76t73.5 -31t74 30.5t31 76.5v102q0 16 -1 20t-5 13l-295 520q-14 27 -22.5 41t-11.5 26.5t-4 26.5t-1 37v104q0 49 18.5 91.5t51 75t74.5 51t91 18.5t91.5 -18.5t75 -51t51 -74.5t18.5 -92 v-69q0 -33 -33 -33h-65q-33 0 -33 33v69q0 43 -31 74t-74 31t-73.5 -31t-30.5 -74v-104q0 -18 1 -22.5t5 -12.5l295 -520q14 -27 22.5 -41t11.5 -26.5t4 -26t1 -35.5v-102q0 -49 -18.5 -92.5t-51 -75t-74.5 -50t-92 -18.5q-49 0 -91 18.5t-74.5 50t-51 74.5t-18.5 93z M94 236q0 -76 52.5 -129.5t127.5 -53.5q76 0 128.5 53.5t52.5 129.5v102q0 37 -2 45t-9.5 21.5t-19.5 35.5l-295 521q-10 16 -12 28t-2 33v104q0 66 46.5 112t112.5 46t113 -46t47 -112v-41q0 -8 8 -8h4q8 0 9 8v41q0 74 -52.5 127.5t-128.5 53.5t-128 -53.5t-52 -127.5 v-104q0 -39 2 -47q2 -10 31 -57l293 -521q10 -16 12 -27.5t2 -31.5v-102q0 -66 -47 -113t-113 -47t-112.5 47t-46.5 113v38q0 8 -9 9h-4q-8 0 -8 -9v-38z" />
<glyph unicode="t" horiz-adv-x="509" d="M39 1264v65q0 12 9 22.5t24 10.5h315q14 0 23.5 -10.5t9.5 -22.5v-65q0 -33 -33 -33h-92v-1198q0 -33 -33 -33h-65q-33 0 -33 33v1198h-92q-33 0 -33 33zM94 1292q0 -8 8 -8h117v-1223q0 -8 8 -8h4q8 0 9 8v1223h116q8 0 9 8v6q0 8 -9 9h-254q-8 0 -8 -9v-6z" />
<glyph unicode="u" d="M59 236v1093q0 12 10.5 22.5t22.5 10.5h66q14 0 23 -10.5t9 -22.5v-1093q0 -43 31 -74t76 -31q43 0 73.5 31t30.5 74v1093q0 12 9.5 22.5t23.5 10.5h66q14 0 23 -10.5t9 -22.5v-1093q0 -49 -18 -92.5t-51 -75t-75 -50t-91 -18.5t-92 18.5t-76 50t-51.5 74.5t-18.5 93z M115 236q0 -76 53 -129.5t129 -53.5t129 53.5t53 129.5v1062q0 8 -10 9h-4q-8 0 -8 -9v-1062q0 -66 -47.5 -113t-112.5 -47q-66 0 -113 47t-47 113v1062q0 8 -8 9h-6q-8 0 -8 -9v-1062z" />
<glyph unicode="v" d="M59 342v987q0 12 9.5 22.5t23.5 10.5h66q12 0 22 -10.5t10 -22.5v-987q0 -10 1.5 -17.5t3.5 -15.5l100 -176l98 176q6 14 6 33v987q0 12 9.5 22.5t23.5 10.5h66q14 0 23 -10.5t9 -22.5v-2v-985q0 -70 -38 -131l-111 -195q-10 -16 -29 -16h-114q-18 0 -29 16l-111 195 q-39 61 -39 131zM113 344q0 -2 3 -30.5t21 -57.5l111 -197q2 -6 10 -6h74q6 0 10 6l111 197q16 29 20 57.5t4 30.5v954q0 8 -10 9h-4q-8 0 -8 -9v-954q0 -14 -2 -27q-2 -10 -6.5 -24t-12.5 -27l-108 -190h-62l-108 190q-8 12 -12.5 26.5t-6.5 24.5q-2 12 -2 27v954q0 8 -8 9 h-4q-10 0 -10 -9v-954z" />
<glyph unicode="w" horiz-adv-x="983" d="M59 342v985q0 33 33 33h66q33 0 32 -33v-985q0 -18 7 -33l98 -176l100 176q6 14 6 33v985q0 33 33 33h66q33 0 32 -33v-985q0 -18 7 -33l98 -176l100 176q2 8 3 15.5t1 17.5v985q0 14 10.5 23.5t22.5 9.5h66q33 0 32 -33v-985q0 -70 -38 -131l-111 -195q-10 -16 -29 -16 h-114q-18 0 -29 16l-84 150l-86 -150q-10 -16 -29 -16h-112q-23 0 -29 16l-111 195q-41 59 -41 131zM115 344q0 -2 3 -30.5t19 -57.5l113 -197q2 -6 10 -6h72q6 0 10 6l113 197q4 6 6 13t6 14q4 -16 12 -27l111 -197q2 -6 10 -6h74q6 0 10 6l111 197q18 29 21 57.5t3 30.5 v954q0 8 -10 9h-4q-8 0 -8 -9v-954q0 -14 -2 -27q-2 -10 -6.5 -24t-12.5 -27l-108 -190h-62l-108 190q-14 23 -17.5 45.5t-3.5 30.5v2v954q0 8 -8 9h-4q-10 0 -10 -9v-954v-2q0 -8 -3 -30.5t-18 -45.5l-108 -190h-60l-110 190q-8 12 -11.5 26.5t-5.5 24.5q-2 12 -4 27v954 q0 8 -8 9h-4q-8 0 -8 -9v-954z" />
<glyph unicode="x" d="M59 33v301q0 72 41 131l119 213l-119 211q-41 59 -41 131v309q0 12 9.5 22.5t23.5 10.5h66q14 0 23 -10.5t9 -22.5v-309q0 -18 7 -33l98 -176l100 176q6 14 6 33v309q0 12 9.5 22.5t23.5 10.5h66q14 0 23 -10.5t9 -22.5v-309q0 -72 -40 -131l-119 -211l119 -213 q41 -59 40 -131v-301q0 -33 -32 -33h-66q-33 0 -33 33v301q0 16 -6 33l-100 176l-98 -176q-6 -16 -7 -33v-301q0 -33 -32 -33h-66q-33 0 -33 33zM115 63q0 -10 8 -10h4q10 0 10 10v271q0 29 8 51l2 4l148 264l149 -264l2 -4q8 -23 9 -51v-271q0 -10 10 -10h4q8 0 8 10v271 q0 53 -31 100v2l-137 242l137 240v2q31 45 31 100v278q0 8 -8 9h-4q-10 0 -10 -9v-278q0 -29 -9 -51l-2 -4l-149 -265l-148 265l-2 4q-8 23 -8 51v278q0 8 -10 9h-4q-8 0 -8 -9v-278q0 -55 30 -100v-2l138 -240l-138 -242v-2q-31 -47 -30 -100v-271z" />
<glyph unicode="y" horiz-adv-x="602" d="M39 852v477q0 12 9 22.5t24 10.5h65q14 0 23.5 -10.5t9.5 -22.5v-477q0 -43 30.5 -73.5t75.5 -30.5q43 0 74 30.5t31 73.5v477q0 12 9 22.5t24 10.5h65q14 0 23.5 -10.5t9.5 -22.5v-477q0 -82 -48 -143.5t-122 -83.5v-592q0 -14 -10 -23.5t-23 -9.5h-65q-33 0 -33 33v592 q-76 23 -124 84t-48 143zM94 852q0 -72 49.5 -125t120.5 -57v-609q0 -8 8 -8h7q8 0 8 8v609q72 4 121 57t49 125v446q0 8 -8 9h-5q-10 0 -10 -9v-446q0 -66 -46 -113t-112 -47t-112.5 47t-46.5 113v446q0 8 -11 9h-4q-8 0 -8 -9v-446z" />
<glyph unicode="z" horiz-adv-x="620" d="M59 33v301q0 23 1 36t4.5 25.5t11.5 27.5t22 42l297 522q4 8 4 12.5v20.5v211h-307q-33 0 -33 33v65q0 12 9.5 22.5t23.5 10.5h406q14 0 23 -10.5t9 -22.5v-309q0 -23 -1 -36t-4 -25.5t-11 -28t-22 -41.5l-295 -520q-4 -8 -5.5 -12.5t-1.5 -22.5v-203h308q14 0 23 -10 t9 -23v-65q0 -33 -32 -33h-406q-33 0 -33 33zM113 61q0 -8 10 -8h344q10 0 10 6v9q0 8 -10 8h-332v258q0 20 1 31.5t11 29.5l297 520q12 23 19.5 37.5t9.5 22.5q4 8 4 45v278q0 8 -10 9h-344q-10 0 -10 -9v-6q0 -8 10 -8h332v-264q0 -20 -1 -31.5t-12 -27.5l-297 -523 q-12 -23 -19 -36t-9 -23q-4 -8 -4 -45v-273z" />
<glyph unicode="&#xa1;" horiz-adv-x="301" d="M59 -90v1091q0 33 33 33h66q33 0 32 -33v-1091q0 -33 -32 -33h-66q-33 0 -33 33zM59 1198v135q0 33 33 33h66q33 0 32 -33v-135q0 -33 -32 -33h-66q-33 0 -33 33zM113 -59q0 -8 10 -9h4q8 0 8 9v1032q0 8 -8 8h-4q-10 0 -10 -8v-1032zM113 1229q0 -8 10 -8h4q8 0 8 8v74 q0 10 -8 10h-4q-10 0 -10 -10v-74z" />
<glyph unicode="&#xa8;" horiz-adv-x="509" d="M59 1528v137q0 12 9.5 22.5t23.5 10.5h66q14 0 23 -10.5t9 -22.5v-137q0 -12 -9 -21.5t-23 -9.5h-66q-14 0 -23.5 9.5t-9.5 21.5zM113 1559q0 -8 10 -9h4q8 0 8 9v75q0 8 -8 8h-4q-10 0 -10 -8v-75zM268 1528v137q0 12 9.5 22.5t23.5 10.5h66q14 0 23 -10.5t9 -22.5v-137 q0 -12 -9 -21.5t-23 -9.5h-66q-14 0 -23.5 9.5t-9.5 21.5zM324 1559q0 -8 8 -9h4q10 0 10 9v75q0 8 -10 8h-4q-8 0 -8 -8v-75z" />
<glyph unicode="&#xad;" horiz-adv-x="571" d="M59 649v66q0 14 10.5 23.5t22.5 9.5h336q33 0 33 -33v-66q0 -33 -33 -33h-336q-12 0 -22.5 9.5t-10.5 23.5zM115 680q0 -8 8 -8h274q10 0 11 8v4q0 8 -11 8h-274q-8 0 -8 -8v-4z" />
<glyph unicode="&#xaf;" horiz-adv-x="1705" />
<glyph unicode="&#xb4;" horiz-adv-x="450" d="M62.5 1508.5q-7.5 11.5 3.5 27.5l118 207q8 16 27.5 27.5t36.5 11.5h65q16 0 23.5 -11.5t-2.5 -27.5l-117 -207q-10 -16 -28.5 -27.5t-36.5 -11.5h-64q-18 0 -25.5 11.5zM141 1559q-4 -6 4 -7h9q10 0 14 7l90 161q2 6 -4 6h-8q-8 0 -15 -6z" />
<glyph unicode="&#xb7;" horiz-adv-x="1705" />
<glyph unicode="&#xb8;" horiz-adv-x="1705" />
<glyph unicode="&#xbf;" horiz-adv-x="641" d="M59 109v104q0 23 1 36t4.5 25.5t11.5 27.5t22 42l295 520q4 8 5 12.5t1 22.5v98q0 33 33 33h66q33 0 32 -33v-98q0 -23 -1 -37t-4 -26.5t-12 -26.5t-24 -41l-294 -520q-4 -8 -4.5 -12.5t-0.5 -22.5v-104q0 -43 31 -74t74 -31t73.5 31t30.5 74v69q0 33 33 33h66 q33 0 32 -33v-69q0 -49 -18 -91.5t-51 -75t-75 -51t-91 -18.5t-92 18.5t-75 51t-50.5 74.5t-18.5 92zM113 111q0 -37 14 -70t38.5 -57.5t58.5 -39t71 -14.5q76 0 128 53.5t52 127.5v41q0 8 -8 8h-4q-10 0 -10 -8v-41q0 -66 -46.5 -112t-111.5 -46q-33 0 -62.5 12t-51 33.5 t-34 50.5t-12.5 62v104q0 20 1 32.5t11 28.5l295 521q14 23 20.5 36l10.5 21q2 8 2 47v68q0 8 -8 8h-4q-10 0 -10 -8v-68q0 -20 -1 -32.5t-12 -28.5l-295 -521q-12 -23 -19 -36t-9 -21q-4 -8 -4 -47v-104zM399 1194v135q0 33 33 33h66q33 0 32 -33v-135q0 -33 -32 -33h-66 q-33 0 -33 33zM453 1225q0 -8 10 -8h4q8 0 8 8v73q0 10 -8 11h-4q-10 0 -10 -11v-73z" />
<glyph unicode="&#xc0;" d="M59 33v1091q0 49 18.5 92.5t51.5 76t76 51t92 18.5t91 -18.5t75 -51t51 -75.5t18 -93v-1091q0 -33 -32 -33h-66q-33 0 -33 33v583h-211v-583q0 -33 -32 -33h-66q-12 0 -22.5 9t-10.5 24zM80 1770.5q6 11.5 24 11.5h64q18 0 36.5 -11.5t28.5 -27.5l119 -207 q10 -16 3 -27.5t-25 -11.5h-64q-18 0 -36.5 11.5t-28.5 27.5l-119 207q-8 16 -2 27.5zM115 61q0 -8 8 -8h4q10 0 10 8v609h320v-609q0 -8 8 -8h4q8 0 8 8v1063q0 76 -52 129.5t-128 53.5t-129 -53.5t-53 -129.5v-1063zM137 692v432q0 66 47 113t113 47t113 -47t47 -113v-432 h-320zM160 1720l90 -161q2 -6 12 -7h8q8 0 6 7l-92 161q-4 6 -12 6h-8q-10 0 -4 -6zM190 748h211v376q0 45 -30.5 76t-73.5 31q-45 0 -76 -31t-31 -76v-376z" />
<glyph unicode="&#xc1;" d="M59 33v1091q0 49 18.5 92.5t51.5 76t76 51t92 18.5t91 -18.5t75 -51t51 -75.5t18 -93v-1091q0 -33 -32 -33h-66q-33 0 -33 33v583h-211v-583q0 -33 -32 -33h-66q-12 0 -22.5 9t-10.5 24zM115 61q0 -8 8 -8h4q10 0 10 8v609h320v-609q0 -8 8 -8h4q8 0 8 8v1063 q0 76 -52 129.5t-128 53.5t-129 -53.5t-53 -129.5v-1063zM137 692v432q0 66 47 113t113 47t113 -47t47 -113v-432h-320zM190 748h211v376q0 45 -30.5 76t-73.5 31q-45 0 -76 -31t-31 -76v-376zM228.5 1507.5q-7.5 10.5 2.5 26.5l119 209q8 16 27.5 26.5t36.5 10.5h63 q18 0 25.5 -10.5t-2.5 -26.5l-119 -209q-8 -16 -27.5 -26.5t-36.5 -10.5h-63q-18 0 -25.5 10.5zM307 1559q-4 -8 4 -9h8q6 0 15 9l90 159q4 8 -4 8h-8q-10 0 -15 -8z" />
<glyph unicode="&#xc2;" d="M59 33v1091q0 49 18.5 92.5t51.5 76t76 51t92 18.5t91 -18.5t75 -51t51 -75.5t18 -93v-1091q0 -33 -32 -33h-66q-33 0 -33 33v583h-211v-583q0 -33 -32 -33h-66q-12 0 -22.5 9t-10.5 24zM77 1505.5q-7 10.5 3 26.5l119 209q8 14 24.5 24.5t32.5 12.5l12 1q13 1 27 1 t27 -1l12 -1q16 -2 32.5 -12.5t24.5 -24.5l119 -209q10 -16 3 -26.5t-26 -10.5h-63q-18 0 -36.5 10.5t-29.5 26.5l-63 115l-64 -115q-10 -16 -29.5 -26.5t-35.5 -10.5h-64q-18 0 -25 10.5zM115 61q0 -8 8 -8h4q10 0 10 8v609h320v-609q0 -8 8 -8h4q8 0 8 8v1063 q0 76 -52 129.5t-128 53.5t-129 -53.5t-53 -129.5v-1063zM137 692v432q0 66 47 113t113 47t113 -47t47 -113v-432h-320zM156 1559q-2 -8 4 -9h8q8 0 14 9l82 145h62l82 -145q2 -8 14 -9h8q6 0 4 9l-90 159q-8 8 -14 8h-70q-10 0 -14 -8zM190 748h211v376q0 45 -30.5 76 t-73.5 31q-45 0 -76 -31t-31 -76v-376z" />
<glyph unicode="&#xc3;" horiz-adv-x="1705" />
<glyph unicode="&#xc4;" d="M59 33v1091q0 49 18.5 92.5t51.5 76t76 51t92 18.5t91 -18.5t75 -51t51 -75.5t18 -93v-1091q0 -33 -32 -33h-66q-33 0 -33 33v583h-211v-583q0 -33 -32 -33h-66q-12 0 -22.5 9t-10.5 24zM115 61q0 -8 8 -8h4q10 0 10 8v609h320v-609q0 -8 8 -8h4q8 0 8 8v1063 q0 76 -52 129.5t-128 53.5t-129 -53.5t-53 -129.5v-1063zM125 1530v135q0 12 9 22.5t24 10.5h65q14 0 23.5 -10.5t9.5 -22.5v-135q0 -33 -33 -33h-65q-33 0 -33 33zM137 692v432q0 66 47 113t113 47t113 -47t47 -113v-432h-320zM180 1559q0 -8 8 -9h5q8 0 8 9v75q0 8 -8 8 h-5q-8 0 -8 -8v-75zM190 748h211v376q0 45 -30.5 76t-73.5 31q-45 0 -76 -31t-31 -76v-376zM336 1530v135q0 12 9 22.5t24 10.5h63q14 0 23.5 -10.5t9.5 -22.5v-135q0 -33 -33 -33h-63q-33 0 -33 33zM389 1559q0 -8 8 -9h6q8 0 9 9v75q0 8 -9 8h-6q-8 0 -8 -8v-75z" />
<glyph unicode="&#xc5;" horiz-adv-x="1705" />
<glyph unicode="&#xc6;" horiz-adv-x="1705" />
<glyph unicode="&#xc7;" horiz-adv-x="641" d="M59 236v890q0 49 18.5 91.5t51.5 75t75 51t91 18.5t91 -18.5t75 -51t51 -74.5t18 -92v-69q0 -33 -32 -33h-66q-33 0 -33 33v69q0 43 -30.5 74t-73.5 31t-74 -31t-31 -74v-890q0 -45 31 -76t74 -31t73.5 30.5t30.5 76.5v75q0 33 33 33h66q33 0 32 -33v-75 q0 -82 -48 -143.5t-122 -84.5v-102q0 -33 -32 -33h-66q-33 0 -33 33v102q-74 23 -122 84.5t-48 143.5zM115 236q0 -72 49 -125.5t121 -57.5v-116q0 -8 8 -9h4q8 0 8 9v116q37 2 67.5 17.5t54.5 40t37 56.5t13 69v45q0 8 -10 8h-4q-8 0 -8 -8v-45q0 -66 -47.5 -113 t-112.5 -47q-66 0 -113 47t-47 113v890q0 66 47 113t113 47t113 -47t47 -113v-39q0 -10 8 -10h4q10 0 10 10v39q0 76 -53 128.5t-129 52.5t-128 -52.5t-52 -128.5v-890z" />
<glyph unicode="&#xc8;" horiz-adv-x="512" d="M13 1770.5q7 11.5 26 11.5h63q16 0 36 -11.5t28 -27.5l119 -207q10 -16 3 -27.5t-26 -11.5h-63q-16 0 -36 11.5t-28 27.5l-119 207q-10 16 -3 27.5zM59 66v1230q0 27 18.5 46.5t47.5 19.5h244q14 0 23 -10.5t9 -22.5v-65q0 -33 -32 -33h-179v-486h179q33 0 32 -32v-66 q0 -12 -9 -22.5t-23 -10.5h-179v-483h179q14 0 23 -10t9 -23v-65q0 -33 -32 -33h-244q-29 0 -47.5 18.5t-18.5 47.5zM92 1720l90 -161q6 -6 15 -7h8q6 0 4 7l-90 161q-4 6 -15 6h-8q-8 0 -4 -6zM115 66q0 -12 10 -13h213q8 0 8 8v7q0 8 -8 8h-201v594h201q8 0 8 8v6 q0 8 -8 8h-201v592h201q8 0 8 8v6q0 8 -8 9h-213q-10 0 -10 -11v-1230z" />
<glyph unicode="&#xc9;" horiz-adv-x="550" d="M59 66v1230q0 27 18.5 46.5t47.5 19.5h244q14 0 23 -10.5t9 -22.5v-65q0 -33 -32 -33h-179v-486h179q33 0 32 -32v-66q0 -12 -9 -22.5t-23 -10.5h-179v-483h179q14 0 23 -10t9 -23v-65q0 -33 -32 -33h-244q-29 0 -47.5 18.5t-18.5 47.5zM115 66q0 -12 10 -13h213q8 0 8 8 v7q0 8 -8 8h-201v594h201q8 0 8 8v6q0 8 -8 8h-201v592h201q8 0 8 8v6q0 8 -8 9h-213q-10 0 -10 -11v-1230zM163 1508.5q-7 11.5 3 27.5l119 207q8 16 27.5 27.5t35.5 11.5h66q16 0 23 -11.5t-3 -27.5l-117 -207q-10 -16 -28.5 -27.5t-36.5 -11.5h-64q-18 0 -25 11.5z M242 1559q-4 -6 4 -7h8q10 0 14 7l90 161q2 6 -4 6h-8q-8 0 -14 -6z" />
<glyph unicode="&#xca;" horiz-adv-x="512" d="M12.5 1508.5q-6.5 11.5 1.5 27.5l119 207q8 16 25.5 25.5t34.5 13.5h75q16 -4 33.5 -13.5t26.5 -25.5l118 -207q10 -16 3 -27.5t-25 -11.5h-64q-18 0 -36.5 11.5t-28.5 27.5l-64 113l-65 -113q-10 -16 -28.5 -27.5t-37.5 -11.5h-63q-18 0 -24.5 11.5zM59 66v1230 q0 27 18.5 46.5t47.5 19.5h244q14 0 23 -10.5t9 -22.5v-65q0 -33 -32 -33h-179v-486h179q33 0 32 -32v-66q0 -12 -9 -22.5t-23 -10.5h-179v-483h179q14 0 23 -10t9 -23v-65q0 -33 -32 -33h-244q-29 0 -47.5 18.5t-18.5 47.5zM92 1561q-8 -8 4 -9h8q8 0 13 9l84 145h59 l84 -145q4 -8 12 -9h9q10 0 6 9l-92 159q-4 8 -13 9h-71q-8 0 -13 -9zM115 66q0 -12 10 -13h213q8 0 8 8v7q0 8 -8 8h-201v594h201q8 0 8 8v6q0 8 -8 8h-201v592h201q8 0 8 8v6q0 8 -8 9h-213q-10 0 -10 -11v-1230z" />
<glyph unicode="&#xcb;" horiz-adv-x="512" d="M59 66v1230q0 27 18.5 46.5t47.5 19.5h244q14 0 23 -10.5t9 -22.5v-65q0 -33 -32 -33h-179v-486h179q33 0 32 -32v-66q0 -12 -9 -22.5t-23 -10.5h-179v-483h179q14 0 23 -10t9 -23v-65q0 -33 -32 -33h-244q-29 0 -47.5 18.5t-18.5 47.5zM59 1530v135q0 33 33 33h66 q12 0 22 -9.5t10 -23.5v-135q0 -14 -10 -23.5t-22 -9.5h-66q-33 0 -33 33zM113 1561q0 -8 10 -9h4q8 0 8 9v73q0 8 -8 8h-4q-10 0 -10 -8v-73zM115 66q0 -12 10 -13h213q8 0 8 8v7q0 8 -8 8h-201v594h201q8 0 8 8v6q0 8 -8 8h-201v592h201q8 0 8 8v6q0 8 -8 9h-213 q-10 0 -10 -11v-1230zM268 1530v135q0 33 33 33h66q33 0 32 -33v-135q0 -33 -32 -33h-66q-33 0 -33 33zM324 1561q0 -8 8 -9h4q8 0 8 9v73q0 8 -8 8h-4q-8 0 -8 -8v-73z" />
<glyph unicode="&#xcc;" horiz-adv-x="301" d="M-90 1770.5q6 11.5 24 11.5h64q18 0 36.5 -11.5t28.5 -27.5l119 -209q10 -16 3 -26.5t-25 -10.5h-64q-18 0 -36.5 10.5t-28.5 26.5l-119 209q-8 16 -2 27.5zM-10 1718l90 -159q4 -8 12 -9h8q10 0 6 9l-92 159q-4 8 -12 8h-8q-12 0 -4 -8zM59 33v1294v2q0 12 9.5 22.5 t23.5 10.5h66q14 0 23 -10.5t9 -22.5v-1296q0 -33 -32 -33h-66q-33 0 -33 33zM113 61q0 -8 10 -8h4q8 0 8 8v1237q0 8 -8 9h-4q-10 0 -10 -9v-1237z" />
<glyph unicode="&#xcd;" horiz-adv-x="301" d="M57.5 1508.5q-6.5 11.5 1.5 27.5l119 207q10 16 28.5 27.5t37.5 11.5h63q18 0 25.5 -11.5t-2.5 -27.5l-119 -207q-10 -16 -28.5 -27.5t-37.5 -11.5h-63q-18 0 -24.5 11.5zM59 33v1294v2q0 12 9.5 22.5t23.5 10.5h66q14 0 23 -10.5t9 -22.5v-1296q0 -33 -32 -33h-66 q-33 0 -33 33zM113 61q0 -8 10 -8h4q8 0 8 8v1237q0 8 -8 9h-4q-10 0 -10 -9v-1237zM137 1559q-6 -6 4 -7h9q8 0 12 7l92 161q2 6 -4 6h-10q-10 0 -13 -6z" />
<glyph unicode="&#xce;" horiz-adv-x="301" d="M-94 1507.5q-6 10.5 2 26.5l119 209q20 33 59 37l12 1q13 1 27 1t25 -1l12 -1q18 -2 34.5 -11.5t24.5 -25.5l119 -209q10 -16 3 -26.5t-26 -10.5h-63q-18 0 -36.5 10.5t-29.5 26.5l-63 115l-66 -115q-10 -16 -28.5 -26.5t-36.5 -10.5h-64q-18 0 -24 10.5zM-14 1559 q-6 -6 4 -7h8q8 0 12 7l84 147h62l82 -147q2 -6 12 -7h10q6 0 4 7l-92 161q-4 8 -12 9h-72q-8 0 -12 -9zM59 33v1294v2q0 12 9.5 22.5t23.5 10.5h66q14 0 23 -10.5t9 -22.5v-1296q0 -33 -32 -33h-66q-33 0 -33 33zM113 61q0 -8 10 -8h4q8 0 8 8v1237q0 8 -8 9h-4 q-10 0 -10 -9v-1237z" />
<glyph unicode="&#xcf;" horiz-adv-x="301" d="M-45 1528v137q0 12 9 22.5t24 10.5h65q14 0 23.5 -10.5t9.5 -22.5v-137q0 -12 -9 -21.5t-24 -9.5h-65q-14 0 -23.5 9.5t-9.5 21.5zM8 1559q0 -8 10 -9h5q8 0 8 9v75q0 8 -8 8h-5q-10 0 -10 -8v-75zM59 33v1294v2q0 12 9.5 22.5t23.5 10.5h66q14 0 23 -10.5t9 -22.5v-1296 q0 -33 -32 -33h-66q-33 0 -33 33zM113 61q0 -8 10 -8h4q8 0 8 8v1237q0 8 -8 9h-4q-10 0 -10 -9v-1237zM164 1528v137q0 12 9 22.5t24 10.5h65q14 0 23.5 -10.5t9.5 -22.5v-137q0 -12 -9.5 -21.5t-23.5 -9.5h-65q-14 0 -23.5 9.5t-9.5 21.5zM219 1559q0 -8 8 -9h4q10 0 11 9 v75q0 8 -11 8h-4q-8 0 -8 -8v-75z" />
<glyph unicode="&#xd1;" horiz-adv-x="641" d="M59 33v1091q0 49 18.5 92.5t51.5 76t76 51t92 18.5t91 -18.5t75 -51t51 -75.5t18 -93v-1091q0 -33 -32 -33h-66q-33 0 -33 33v1091q0 45 -30.5 76t-73.5 31q-45 0 -76 -31t-31 -76v-1091q0 -33 -32 -33h-66q-33 0 -33 33zM115 61q0 -8 8 -8h4q10 0 10 8v1063q0 66 47 113 t113 47t113 -47t47 -113v-1063q0 -8 8 -8h4q8 0 8 8v1063q0 76 -52 129.5t-128 53.5t-129 -53.5t-53 -129.5v-1063zM125 1532v65q0 33 33 33h276q33 0 33 -33v-65q0 -33 -33 -33h-276q-33 0 -33 33zM180 1563q0 -8 8 -9h215q8 0 9 9v4q0 8 -9 8h-215q-8 0 -8 -8v-4z" />
<glyph unicode="&#xd2;" d="M59 236v888q0 49 18.5 92.5t51.5 76t76 51t92 18.5t91 -18.5t75 -51t51 -75.5t18 -93v-888q0 -49 -18 -92.5t-51 -75t-75 -50t-91 -18.5t-92 18.5t-76 50t-51.5 74.5t-18.5 93zM79 1770.5q7 11.5 25 11.5h64q18 0 36.5 -11.5t28.5 -27.5l119 -209q8 -16 2 -26.5 t-24 -10.5h-64q-18 0 -36.5 10.5t-28.5 26.5l-119 209q-10 16 -3 27.5zM115 236q0 -76 53 -129.5t129 -53.5t128 53.5t52 129.5v888q0 76 -52 129.5t-128 53.5t-129 -53.5t-53 -129.5v-888zM137 236v888q0 66 47 113t113 47t113 -47t47 -113v-888q0 -66 -47.5 -113 t-112.5 -47q-66 0 -113 47t-47 113zM158 1718l92 -159q4 -8 12 -9h8q10 0 6 9l-92 159q-4 8 -12 8h-8q-10 0 -6 -8zM190 236q0 -43 31 -74t76 -31q43 0 73.5 31t30.5 74v888q0 45 -30.5 76t-73.5 31q-45 0 -76 -31t-31 -76v-888z" />
<glyph unicode="&#xd3;" d="M59 236v888q0 49 18.5 92.5t51.5 76t76 51t92 18.5t91 -18.5t75 -51t51 -75.5t18 -93v-888q0 -49 -18 -92.5t-51 -75t-75 -50t-91 -18.5t-92 18.5t-76 50t-51.5 74.5t-18.5 93zM115 236q0 -76 53 -129.5t129 -53.5t128 53.5t52 129.5v888q0 76 -52 129.5t-128 53.5 t-129 -53.5t-53 -129.5v-888zM137 236v888q0 66 47 113t113 47t113 -47t47 -113v-888q0 -66 -47.5 -113t-112.5 -47q-66 0 -113 47t-47 113zM190 236q0 -43 31 -74t76 -31q43 0 73.5 31t30.5 74v888q0 45 -30.5 76t-73.5 31q-45 0 -76 -31t-31 -76v-888zM236.5 1506.5 q-7.5 11.5 3.5 27.5l118 209q10 16 29 26.5t37 10.5h63q18 0 24.5 -10.5t-1.5 -26.5l-119 -209q-10 -16 -28.5 -27.5t-36.5 -11.5h-64q-18 0 -25.5 11.5zM315 1559q-2 -8 7 -9h8q10 0 12 9l90 159q8 8 -4 8h-8q-8 0 -12 -8z" />
<glyph unicode="&#xd4;" horiz-adv-x="641" d="M59 236v888q0 49 18.5 92.5t51.5 76t76 51t92 18.5t91 -18.5t75 -51t51 -75.5t18 -93v-888q0 -49 -18 -92.5t-51 -75t-75 -50t-91 -18.5t-92 18.5t-76 50t-51.5 74.5t-18.5 93zM77 1507.5q-7 10.5 3 26.5l119 209q8 16 24.5 25.5t32.5 13.5h78q16 -4 32.5 -13.5 t24.5 -25.5l119 -209q10 -16 3 -26.5t-26 -10.5h-63q-16 0 -35.5 10.5t-28.5 26.5l-65 115l-66 -115q-8 -16 -27.5 -26.5t-35.5 -10.5h-64q-18 0 -25 10.5zM115 236q0 -76 53 -129.5t129 -53.5t128 53.5t52 129.5v888q0 76 -52 129.5t-128 53.5t-129 -53.5t-53 -129.5v-888z M137 236v888q0 66 47 113t113 47t113 -47t47 -113v-888q0 -66 -47.5 -113t-112.5 -47q-66 0 -113 47t-47 113zM156 1561q-4 -8 4 -9h8q6 0 14 9l82 145h62l82 -145q8 -8 14 -9h8q8 0 4 9l-90 159q-4 8 -14 9h-70q-10 0 -14 -9zM190 236q0 -43 31 -74t76 -31q43 0 73.5 31 t30.5 74v888q0 45 -30.5 76t-73.5 31q-45 0 -76 -31t-31 -76v-888z" />
<glyph unicode="&#xd5;" horiz-adv-x="1705" />
<glyph unicode="&#xd6;" d="M59 236v888q0 49 18.5 92.5t51.5 76t76 51t92 18.5t91 -18.5t75 -51t51 -75.5t18 -93v-888q0 -49 -18 -92.5t-51 -75t-75 -50t-91 -18.5t-92 18.5t-76 50t-51.5 74.5t-18.5 93zM115 236q0 -76 53 -129.5t129 -53.5t128 53.5t52 129.5v888q0 76 -52 129.5t-128 53.5 t-129 -53.5t-53 -129.5v-888zM125 1530v135q0 33 33 33h65q33 0 33 -33v-135q0 -33 -33 -33h-65q-33 0 -33 33zM137 236v888q0 66 47 113t113 47t113 -47t47 -113v-888q0 -66 -47.5 -113t-112.5 -47q-66 0 -113 47t-47 113zM180 1561q0 -10 8 -11h5q8 0 8 11v73q0 8 -8 8h-5 q-8 0 -8 -8v-73zM190 236q0 -43 31 -74t76 -31q43 0 73.5 31t30.5 74v888q0 45 -30.5 76t-73.5 31q-45 0 -76 -31t-31 -76v-888zM334 1530v135q0 14 10 23.5t23 9.5h65q33 0 33 -33v-135q0 -33 -33 -33h-65q-12 0 -22.5 9.5t-10.5 23.5zM389 1561q0 -10 8 -11h6q8 0 9 11v73 q0 8 -9 8h-6q-8 0 -8 -8v-73z" />
<glyph unicode="&#xd8;" horiz-adv-x="1705" />
<glyph unicode="&#xd9;" d="M59 236v1093q0 12 10.5 22.5t22.5 10.5h66q14 0 23 -10.5t9 -22.5v-1093q0 -43 31 -74t76 -31q43 0 73.5 31t30.5 74v1093q0 12 9.5 22.5t23.5 10.5h66q14 0 23 -10.5t9 -22.5v-1093q0 -49 -18 -92.5t-51 -75t-75 -50t-91 -18.5t-92 18.5t-76 50t-51.5 74.5t-18.5 93z M79 1769.5q7 10.5 23 10.5h66q16 0 35.5 -10.5t27.5 -26.5l119 -209q10 -16 3 -27.5t-25 -11.5h-64q-18 0 -36.5 11.5t-28.5 27.5l-117 209q-10 16 -3 26.5zM115 236q0 -76 53 -129.5t129 -53.5t129 53.5t53 129.5v1062q0 8 -10 9h-4q-8 0 -8 -9v-1062q0 -66 -47.5 -113 t-112.5 -47q-66 0 -113 47t-47 113v1062q0 8 -8 9h-6q-8 0 -8 -9v-1062zM158 1718l90 -159q2 -8 14 -9h8q6 0 4 9l-90 159q-8 8 -14 8h-8q-8 0 -4 -8z" />
<glyph unicode="&#xda;" d="M59 236v1093q0 12 10.5 22.5t22.5 10.5h66q14 0 23 -10.5t9 -22.5v-1093q0 -43 31 -74t76 -31q43 0 73.5 31t30.5 74v1093q0 12 9.5 22.5t23.5 10.5h66q14 0 23 -10.5t9 -22.5v-1093q0 -49 -18 -92.5t-51 -75t-75 -50t-91 -18.5t-92 18.5t-76 50t-51.5 74.5t-18.5 93z M115 236q0 -76 53 -129.5t129 -53.5t129 53.5t53 129.5v1062q0 8 -10 9h-4q-8 0 -8 -9v-1062q0 -66 -47.5 -113t-112.5 -47q-66 0 -113 47t-47 113v1062q0 8 -8 9h-6q-8 0 -8 -9v-1062zM226.5 1507.5q-7.5 10.5 2.5 26.5l119 209q10 16 28.5 27.5t35.5 11.5h65 q16 0 23.5 -11.5t-2.5 -27.5l-117 -209q-10 -16 -28.5 -26.5t-37.5 -10.5h-63q-18 0 -25.5 10.5zM305 1559q-4 -8 4 -9h8q10 0 15 9l90 161q2 6 -4 6h-8q-8 0 -15 -6z" />
<glyph unicode="&#xdb;" horiz-adv-x="641" d="M59 236v888q0 49 18.5 92.5t51.5 76t76 51t92 18.5t91 -18.5t75 -51t51 -75.5t18 -93v-888q0 -49 -18 -92.5t-51 -75t-75 -50t-91 -18.5t-92 18.5t-76 50t-51.5 74.5t-18.5 93zM77 1507.5q-7 10.5 3 26.5l119 209q8 16 24.5 25.5t32.5 13.5h78q16 -4 32.5 -13.5 t24.5 -25.5l119 -209q10 -16 3 -26.5t-26 -10.5h-63q-16 0 -35.5 10.5t-28.5 26.5l-65 115l-66 -115q-8 -16 -27.5 -26.5t-35.5 -10.5h-64q-18 0 -25 10.5zM115 236q0 -76 53 -129.5t129 -53.5t128 53.5t52 129.5v888q0 76 -52 129.5t-128 53.5t-129 -53.5t-53 -129.5v-888z M137 236v888q0 66 47 113t113 47t113 -47t47 -113v-888q0 -66 -47.5 -113t-112.5 -47q-66 0 -113 47t-47 113zM156 1561q-4 -8 4 -9h8q6 0 14 9l82 145h62l82 -145q8 -8 14 -9h8q8 0 4 9l-90 159q-4 8 -14 9h-70q-10 0 -14 -9zM190 236q0 -43 31 -74t76 -31q43 0 73.5 31 t30.5 74v888q0 45 -30.5 76t-73.5 31q-45 0 -76 -31t-31 -76v-888z" />
<glyph unicode="&#xdc;" d="M59 236v1093q0 12 10.5 22.5t22.5 10.5h66q14 0 23 -10.5t9 -22.5v-1093q0 -43 31 -74t76 -31q43 0 73.5 31t30.5 74v1093q0 12 9.5 22.5t23.5 10.5h66q14 0 23 -10.5t9 -22.5v-1093q0 -49 -18 -92.5t-51 -75t-75 -50t-91 -18.5t-92 18.5t-76 50t-51.5 74.5t-18.5 93z M115 236q0 -76 53 -129.5t129 -53.5t129 53.5t53 129.5v1062q0 8 -10 9h-4q-8 0 -8 -9v-1062q0 -66 -47.5 -113t-112.5 -47q-66 0 -113 47t-47 113v1062q0 8 -8 9h-6q-8 0 -8 -9v-1062zM125 1528v135q0 33 33 33h65q33 0 33 -33v-135q0 -12 -9 -22.5t-24 -10.5h-65 q-14 0 -23.5 10.5t-9.5 22.5zM180 1559q0 -8 8 -9h5q8 0 8 9v75q0 8 -8 8h-5q-8 0 -8 -8v-75zM336 1528v135q0 33 33 33h63q33 0 33 -33v-135q0 -12 -9.5 -22.5t-23.5 -10.5h-63q-14 0 -23.5 10.5t-9.5 22.5zM389 1559q0 -8 8 -9h6q8 0 9 9v75q0 8 -9 8h-6q-8 0 -8 -8v-75z " />
<glyph unicode="&#xdd;" horiz-adv-x="1705" />
<glyph unicode="&#xe0;" d="M59 33v1091q0 49 18.5 92.5t51.5 76t76 51t92 18.5t91 -18.5t75 -51t51 -75.5t18 -93v-1091q0 -33 -32 -33h-66q-33 0 -33 33v583h-211v-583q0 -33 -32 -33h-66q-12 0 -22.5 9t-10.5 24zM80 1770.5q6 11.5 24 11.5h64q18 0 36.5 -11.5t28.5 -27.5l119 -207 q10 -16 3 -27.5t-25 -11.5h-64q-18 0 -36.5 11.5t-28.5 27.5l-119 207q-8 16 -2 27.5zM115 61q0 -8 8 -8h4q10 0 10 8v609h320v-609q0 -8 8 -8h4q8 0 8 8v1063q0 76 -52 129.5t-128 53.5t-129 -53.5t-53 -129.5v-1063zM137 692v432q0 66 47 113t113 47t113 -47t47 -113v-432 h-320zM160 1720l90 -161q2 -6 12 -7h8q8 0 6 7l-92 161q-4 6 -12 6h-8q-10 0 -4 -6zM190 748h211v376q0 45 -30.5 76t-73.5 31q-45 0 -76 -31t-31 -76v-376z" />
<glyph unicode="&#xe1;" d="M59 33v1091q0 49 18.5 92.5t51.5 76t76 51t92 18.5t91 -18.5t75 -51t51 -75.5t18 -93v-1091q0 -33 -32 -33h-66q-33 0 -33 33v583h-211v-583q0 -33 -32 -33h-66q-12 0 -22.5 9t-10.5 24zM115 61q0 -8 8 -8h4q10 0 10 8v609h320v-609q0 -8 8 -8h4q8 0 8 8v1063 q0 76 -52 129.5t-128 53.5t-129 -53.5t-53 -129.5v-1063zM137 692v432q0 66 47 113t113 47t113 -47t47 -113v-432h-320zM190 748h211v376q0 45 -30.5 76t-73.5 31q-45 0 -76 -31t-31 -76v-376zM228.5 1507.5q-7.5 10.5 2.5 26.5l119 209q8 16 27.5 26.5t36.5 10.5h63 q18 0 25.5 -10.5t-2.5 -26.5l-119 -209q-8 -16 -27.5 -26.5t-36.5 -10.5h-63q-18 0 -25.5 10.5zM307 1559q-4 -8 4 -9h8q6 0 15 9l90 159q4 8 -4 8h-8q-10 0 -15 -8z" />
<glyph unicode="&#xe2;" d="M59 33v1091q0 49 18.5 92.5t51.5 76t76 51t92 18.5t91 -18.5t75 -51t51 -75.5t18 -93v-1091q0 -33 -32 -33h-66q-33 0 -33 33v583h-211v-583q0 -33 -32 -33h-66q-12 0 -22.5 9t-10.5 24zM77 1505.5q-7 10.5 3 26.5l119 209q8 14 24.5 24.5t32.5 12.5l12 1q13 1 27 1 t27 -1l12 -1q16 -2 32.5 -12.5t24.5 -24.5l119 -209q10 -16 3 -26.5t-26 -10.5h-63q-18 0 -36.5 10.5t-29.5 26.5l-63 115l-64 -115q-10 -16 -29.5 -26.5t-35.5 -10.5h-64q-18 0 -25 10.5zM115 61q0 -8 8 -8h4q10 0 10 8v609h320v-609q0 -8 8 -8h4q8 0 8 8v1063 q0 76 -52 129.5t-128 53.5t-129 -53.5t-53 -129.5v-1063zM137 692v432q0 66 47 113t113 47t113 -47t47 -113v-432h-320zM156 1559q-2 -8 4 -9h8q8 0 14 9l82 145h62l82 -145q2 -8 14 -9h8q6 0 4 9l-90 159q-8 8 -14 8h-70q-10 0 -14 -8zM190 748h211v376q0 45 -30.5 76 t-73.5 31q-45 0 -76 -31t-31 -76v-376z" />
<glyph unicode="&#xe4;" d="M59 33v1091q0 49 18.5 92.5t51.5 76t76 51t92 18.5t91 -18.5t75 -51t51 -75.5t18 -93v-1091q0 -33 -32 -33h-66q-33 0 -33 33v583h-211v-583q0 -33 -32 -33h-66q-12 0 -22.5 9t-10.5 24zM115 61q0 -8 8 -8h4q10 0 10 8v609h320v-609q0 -8 8 -8h4q8 0 8 8v1063 q0 76 -52 129.5t-128 53.5t-129 -53.5t-53 -129.5v-1063zM125 1530v135q0 12 9 22.5t24 10.5h65q14 0 23.5 -10.5t9.5 -22.5v-135q0 -33 -33 -33h-65q-33 0 -33 33zM137 692v432q0 66 47 113t113 47t113 -47t47 -113v-432h-320zM180 1559q0 -8 8 -9h5q8 0 8 9v75q0 8 -8 8 h-5q-8 0 -8 -8v-75zM190 748h211v376q0 45 -30.5 76t-73.5 31q-45 0 -76 -31t-31 -76v-376zM336 1530v135q0 12 9 22.5t24 10.5h63q14 0 23.5 -10.5t9.5 -22.5v-135q0 -33 -33 -33h-63q-33 0 -33 33zM389 1559q0 -8 8 -9h6q8 0 9 9v75q0 8 -9 8h-6q-8 0 -8 -8v-75z" />
<glyph unicode="&#xe7;" horiz-adv-x="641" d="M59 236v890q0 49 18.5 91.5t51.5 75t75 51t91 18.5t91 -18.5t75 -51t51 -74.5t18 -92v-69q0 -33 -32 -33h-66q-33 0 -33 33v69q0 43 -30.5 74t-73.5 31t-74 -31t-31 -74v-890q0 -45 31 -76t74 -31t73.5 30.5t30.5 76.5v75q0 33 33 33h66q33 0 32 -33v-75 q0 -82 -48 -143.5t-122 -84.5v-102q0 -33 -32 -33h-66q-33 0 -33 33v102q-74 23 -122 84.5t-48 143.5zM115 236q0 -72 49 -125.5t121 -57.5v-116q0 -8 8 -9h4q8 0 8 9v116q37 2 67.5 17.5t54.5 40t37 56.5t13 69v45q0 8 -10 8h-4q-8 0 -8 -8v-45q0 -66 -47.5 -113 t-112.5 -47q-66 0 -113 47t-47 113v890q0 66 47 113t113 47t113 -47t47 -113v-39q0 -10 8 -10h4q10 0 10 10v39q0 76 -53 128.5t-129 52.5t-128 -52.5t-52 -128.5v-890z" />
<glyph unicode="&#xe8;" horiz-adv-x="512" d="M13 1770.5q7 11.5 26 11.5h63q16 0 36 -11.5t28 -27.5l119 -207q10 -16 3 -27.5t-26 -11.5h-63q-16 0 -36 11.5t-28 27.5l-119 207q-10 16 -3 27.5zM59 66v1230q0 27 18.5 46.5t47.5 19.5h244q14 0 23 -10.5t9 -22.5v-65q0 -33 -32 -33h-179v-486h179q33 0 32 -32v-66 q0 -12 -9 -22.5t-23 -10.5h-179v-483h179q14 0 23 -10t9 -23v-65q0 -33 -32 -33h-244q-29 0 -47.5 18.5t-18.5 47.5zM92 1720l90 -161q6 -6 15 -7h8q6 0 4 7l-90 161q-4 6 -15 6h-8q-8 0 -4 -6zM115 66q0 -12 10 -13h213q8 0 8 8v7q0 8 -8 8h-201v594h201q8 0 8 8v6 q0 8 -8 8h-201v592h201q8 0 8 8v6q0 8 -8 9h-213q-10 0 -10 -11v-1230z" />
<glyph unicode="&#xe9;" horiz-adv-x="550" d="M59 66v1230q0 27 18.5 46.5t47.5 19.5h244q14 0 23 -10.5t9 -22.5v-65q0 -33 -32 -33h-179v-486h179q33 0 32 -32v-66q0 -12 -9 -22.5t-23 -10.5h-179v-483h179q14 0 23 -10t9 -23v-65q0 -33 -32 -33h-244q-29 0 -47.5 18.5t-18.5 47.5zM115 66q0 -12 10 -13h213q8 0 8 8 v7q0 8 -8 8h-201v594h201q8 0 8 8v6q0 8 -8 8h-201v592h201q8 0 8 8v6q0 8 -8 9h-213q-10 0 -10 -11v-1230zM163 1508.5q-7 11.5 3 27.5l119 207q8 16 27.5 27.5t35.5 11.5h66q16 0 23 -11.5t-3 -27.5l-117 -207q-10 -16 -28.5 -27.5t-36.5 -11.5h-64q-18 0 -25 11.5z M242 1559q-4 -6 4 -7h8q10 0 14 7l90 161q2 6 -4 6h-8q-8 0 -14 -6z" />
<glyph unicode="&#xea;" horiz-adv-x="512" d="M12.5 1508.5q-6.5 11.5 1.5 27.5l119 207q8 16 25.5 25.5t34.5 13.5h75q16 -4 33.5 -13.5t26.5 -25.5l118 -207q10 -16 3 -27.5t-25 -11.5h-64q-18 0 -36.5 11.5t-28.5 27.5l-64 113l-65 -113q-10 -16 -28.5 -27.5t-37.5 -11.5h-63q-18 0 -24.5 11.5zM59 66v1230 q0 27 18.5 46.5t47.5 19.5h244q14 0 23 -10.5t9 -22.5v-65q0 -33 -32 -33h-179v-486h179q33 0 32 -32v-66q0 -12 -9 -22.5t-23 -10.5h-179v-483h179q14 0 23 -10t9 -23v-65q0 -33 -32 -33h-244q-29 0 -47.5 18.5t-18.5 47.5zM92 1561q-8 -8 4 -9h8q8 0 13 9l84 145h59 l84 -145q4 -8 12 -9h9q10 0 6 9l-92 159q-4 8 -13 9h-71q-8 0 -13 -9zM115 66q0 -12 10 -13h213q8 0 8 8v7q0 8 -8 8h-201v594h201q8 0 8 8v6q0 8 -8 8h-201v592h201q8 0 8 8v6q0 8 -8 9h-213q-10 0 -10 -11v-1230z" />
<glyph unicode="&#xeb;" horiz-adv-x="512" d="M59 66v1230q0 27 18.5 46.5t47.5 19.5h244q14 0 23 -10.5t9 -22.5v-65q0 -33 -32 -33h-179v-486h179q33 0 32 -32v-66q0 -12 -9 -22.5t-23 -10.5h-179v-483h179q14 0 23 -10t9 -23v-65q0 -33 -32 -33h-244q-29 0 -47.5 18.5t-18.5 47.5zM59 1530v135q0 33 33 33h66 q12 0 22 -9.5t10 -23.5v-135q0 -14 -10 -23.5t-22 -9.5h-66q-33 0 -33 33zM113 1561q0 -8 10 -9h4q8 0 8 9v73q0 8 -8 8h-4q-10 0 -10 -8v-73zM115 66q0 -12 10 -13h213q8 0 8 8v7q0 8 -8 8h-201v594h201q8 0 8 8v6q0 8 -8 8h-201v592h201q8 0 8 8v6q0 8 -8 9h-213 q-10 0 -10 -11v-1230zM268 1530v135q0 33 33 33h66q33 0 32 -33v-135q0 -33 -32 -33h-66q-33 0 -33 33zM324 1561q0 -8 8 -9h4q8 0 8 9v73q0 8 -8 8h-4q-8 0 -8 -8v-73z" />
<glyph unicode="&#xec;" horiz-adv-x="301" d="M-90 1770.5q6 11.5 24 11.5h64q18 0 36.5 -11.5t28.5 -27.5l119 -209q10 -16 3 -26.5t-25 -10.5h-64q-18 0 -36.5 10.5t-28.5 26.5l-119 209q-8 16 -2 27.5zM-10 1718l90 -159q4 -8 12 -9h8q10 0 6 9l-92 159q-4 8 -12 8h-8q-12 0 -4 -8zM59 33v1294v2q0 12 9.5 22.5 t23.5 10.5h66q14 0 23 -10.5t9 -22.5v-1296q0 -33 -32 -33h-66q-33 0 -33 33zM113 61q0 -8 10 -8h4q8 0 8 8v1237q0 8 -8 9h-4q-10 0 -10 -9v-1237z" />
<glyph unicode="&#xed;" horiz-adv-x="301" d="M57.5 1508.5q-6.5 11.5 1.5 27.5l119 207q10 16 28.5 27.5t37.5 11.5h63q18 0 25.5 -11.5t-2.5 -27.5l-119 -207q-10 -16 -28.5 -27.5t-37.5 -11.5h-63q-18 0 -24.5 11.5zM59 33v1294v2q0 12 9.5 22.5t23.5 10.5h66q14 0 23 -10.5t9 -22.5v-1296q0 -33 -32 -33h-66 q-33 0 -33 33zM113 61q0 -8 10 -8h4q8 0 8 8v1237q0 8 -8 9h-4q-10 0 -10 -9v-1237zM137 1559q-6 -6 4 -7h9q8 0 12 7l92 161q2 6 -4 6h-10q-10 0 -13 -6z" />
<glyph unicode="&#xee;" horiz-adv-x="301" d="M-94 1507.5q-6 10.5 2 26.5l119 209q20 33 59 37l12 1q13 1 27 1t25 -1l12 -1q18 -2 34.5 -11.5t24.5 -25.5l119 -209q10 -16 3 -26.5t-26 -10.5h-63q-18 0 -36.5 10.5t-29.5 26.5l-63 115l-66 -115q-10 -16 -28.5 -26.5t-36.5 -10.5h-64q-18 0 -24 10.5zM-14 1559 q-6 -6 4 -7h8q8 0 12 7l84 147h62l82 -147q2 -6 12 -7h10q6 0 4 7l-92 161q-4 8 -12 9h-72q-8 0 -12 -9zM59 33v1294v2q0 12 9.5 22.5t23.5 10.5h66q14 0 23 -10.5t9 -22.5v-1296q0 -33 -32 -33h-66q-33 0 -33 33zM113 61q0 -8 10 -8h4q8 0 8 8v1237q0 8 -8 9h-4 q-10 0 -10 -9v-1237z" />
<glyph unicode="&#xef;" horiz-adv-x="301" d="M-45 1528v137q0 12 9 22.5t24 10.5h65q14 0 23.5 -10.5t9.5 -22.5v-137q0 -12 -9 -21.5t-24 -9.5h-65q-14 0 -23.5 9.5t-9.5 21.5zM8 1559q0 -8 10 -9h5q8 0 8 9v75q0 8 -8 8h-5q-10 0 -10 -8v-75zM59 33v1294v2q0 12 9.5 22.5t23.5 10.5h66q14 0 23 -10.5t9 -22.5v-1296 q0 -33 -32 -33h-66q-33 0 -33 33zM113 61q0 -8 10 -8h4q8 0 8 8v1237q0 8 -8 9h-4q-10 0 -10 -9v-1237zM164 1528v137q0 12 9 22.5t24 10.5h65q14 0 23.5 -10.5t9.5 -22.5v-137q0 -12 -9.5 -21.5t-23.5 -9.5h-65q-14 0 -23.5 9.5t-9.5 21.5zM219 1559q0 -8 8 -9h4q10 0 11 9 v75q0 8 -11 8h-4q-8 0 -8 -8v-75z" />
<glyph unicode="&#xf1;" horiz-adv-x="641" d="M59 33v1091q0 49 18.5 92.5t51.5 76t76 51t92 18.5t91 -18.5t75 -51t51 -75.5t18 -93v-1091q0 -33 -32 -33h-66q-33 0 -33 33v1091q0 45 -30.5 76t-73.5 31q-45 0 -76 -31t-31 -76v-1091q0 -33 -32 -33h-66q-33 0 -33 33zM115 61q0 -8 8 -8h4q10 0 10 8v1063q0 66 47 113 t113 47t113 -47t47 -113v-1063q0 -8 8 -8h4q8 0 8 8v1063q0 76 -52 129.5t-128 53.5t-129 -53.5t-53 -129.5v-1063zM125 1532v65q0 33 33 33h276q33 0 33 -33v-65q0 -33 -33 -33h-276q-33 0 -33 33zM180 1563q0 -8 8 -9h215q8 0 9 9v4q0 8 -9 8h-215q-8 0 -8 -8v-4z" />
<glyph unicode="&#xf2;" d="M59 236v888q0 49 18.5 92.5t51.5 76t76 51t92 18.5t91 -18.5t75 -51t51 -75.5t18 -93v-888q0 -49 -18 -92.5t-51 -75t-75 -50t-91 -18.5t-92 18.5t-76 50t-51.5 74.5t-18.5 93zM79 1770.5q7 11.5 25 11.5h64q18 0 36.5 -11.5t28.5 -27.5l119 -209q8 -16 2 -26.5 t-24 -10.5h-64q-18 0 -36.5 10.5t-28.5 26.5l-119 209q-10 16 -3 27.5zM115 236q0 -76 53 -129.5t129 -53.5t128 53.5t52 129.5v888q0 76 -52 129.5t-128 53.5t-129 -53.5t-53 -129.5v-888zM137 236v888q0 66 47 113t113 47t113 -47t47 -113v-888q0 -66 -47.5 -113 t-112.5 -47q-66 0 -113 47t-47 113zM158 1718l92 -159q4 -8 12 -9h8q10 0 6 9l-92 159q-4 8 -12 8h-8q-10 0 -6 -8zM190 236q0 -43 31 -74t76 -31q43 0 73.5 31t30.5 74v888q0 45 -30.5 76t-73.5 31q-45 0 -76 -31t-31 -76v-888z" />
<glyph unicode="&#xf3;" d="M59 236v888q0 49 18.5 92.5t51.5 76t76 51t92 18.5t91 -18.5t75 -51t51 -75.5t18 -93v-888q0 -49 -18 -92.5t-51 -75t-75 -50t-91 -18.5t-92 18.5t-76 50t-51.5 74.5t-18.5 93zM115 236q0 -76 53 -129.5t129 -53.5t128 53.5t52 129.5v888q0 76 -52 129.5t-128 53.5 t-129 -53.5t-53 -129.5v-888zM137 236v888q0 66 47 113t113 47t113 -47t47 -113v-888q0 -66 -47.5 -113t-112.5 -47q-66 0 -113 47t-47 113zM190 236q0 -43 31 -74t76 -31q43 0 73.5 31t30.5 74v888q0 45 -30.5 76t-73.5 31q-45 0 -76 -31t-31 -76v-888zM236.5 1506.5 q-7.5 11.5 3.5 27.5l118 209q10 16 29 26.5t37 10.5h63q18 0 24.5 -10.5t-1.5 -26.5l-119 -209q-10 -16 -28.5 -27.5t-36.5 -11.5h-64q-18 0 -25.5 11.5zM315 1559q-2 -8 7 -9h8q10 0 12 9l90 159q8 8 -4 8h-8q-8 0 -12 -8z" />
<glyph unicode="&#xf4;" horiz-adv-x="641" d="M59 236v888q0 49 18.5 92.5t51.5 76t76 51t92 18.5t91 -18.5t75 -51t51 -75.5t18 -93v-888q0 -49 -18 -92.5t-51 -75t-75 -50t-91 -18.5t-92 18.5t-76 50t-51.5 74.5t-18.5 93zM77 1507.5q-7 10.5 3 26.5l119 209q8 16 24.5 25.5t32.5 13.5h78q16 -4 32.5 -13.5 t24.5 -25.5l119 -209q10 -16 3 -26.5t-26 -10.5h-63q-16 0 -35.5 10.5t-28.5 26.5l-65 115l-66 -115q-8 -16 -27.5 -26.5t-35.5 -10.5h-64q-18 0 -25 10.5zM115 236q0 -76 53 -129.5t129 -53.5t128 53.5t52 129.5v888q0 76 -52 129.5t-128 53.5t-129 -53.5t-53 -129.5v-888z M137 236v888q0 66 47 113t113 47t113 -47t47 -113v-888q0 -66 -47.5 -113t-112.5 -47q-66 0 -113 47t-47 113zM156 1561q-4 -8 4 -9h8q6 0 14 9l82 145h62l82 -145q8 -8 14 -9h8q8 0 4 9l-90 159q-4 8 -14 9h-70q-10 0 -14 -9zM190 236q0 -43 31 -74t76 -31q43 0 73.5 31 t30.5 74v888q0 45 -30.5 76t-73.5 31q-45 0 -76 -31t-31 -76v-888z" />
<glyph unicode="&#xf6;" d="M59 236v888q0 49 18.5 92.5t51.5 76t76 51t92 18.5t91 -18.5t75 -51t51 -75.5t18 -93v-888q0 -49 -18 -92.5t-51 -75t-75 -50t-91 -18.5t-92 18.5t-76 50t-51.5 74.5t-18.5 93zM115 236q0 -76 53 -129.5t129 -53.5t128 53.5t52 129.5v888q0 76 -52 129.5t-128 53.5 t-129 -53.5t-53 -129.5v-888zM125 1530v135q0 33 33 33h65q33 0 33 -33v-135q0 -33 -33 -33h-65q-33 0 -33 33zM137 236v888q0 66 47 113t113 47t113 -47t47 -113v-888q0 -66 -47.5 -113t-112.5 -47q-66 0 -113 47t-47 113zM180 1561q0 -10 8 -11h5q8 0 8 11v73q0 8 -8 8h-5 q-8 0 -8 -8v-73zM190 236q0 -43 31 -74t76 -31q43 0 73.5 31t30.5 74v888q0 45 -30.5 76t-73.5 31q-45 0 -76 -31t-31 -76v-888zM334 1530v135q0 14 10 23.5t23 9.5h65q33 0 33 -33v-135q0 -33 -33 -33h-65q-12 0 -22.5 9.5t-10.5 23.5zM389 1561q0 -10 8 -11h6q8 0 9 11v73 q0 8 -9 8h-6q-8 0 -8 -8v-73z" />
<glyph unicode="&#xf9;" d="M59 236v1093q0 12 10.5 22.5t22.5 10.5h66q14 0 23 -10.5t9 -22.5v-1093q0 -43 31 -74t76 -31q43 0 73.5 31t30.5 74v1093q0 12 9.5 22.5t23.5 10.5h66q14 0 23 -10.5t9 -22.5v-1093q0 -49 -18 -92.5t-51 -75t-75 -50t-91 -18.5t-92 18.5t-76 50t-51.5 74.5t-18.5 93z M79 1769.5q7 10.5 23 10.5h66q16 0 35.5 -10.5t27.5 -26.5l119 -209q10 -16 3 -27.5t-25 -11.5h-64q-18 0 -36.5 11.5t-28.5 27.5l-117 209q-10 16 -3 26.5zM115 236q0 -76 53 -129.5t129 -53.5t129 53.5t53 129.5v1062q0 8 -10 9h-4q-8 0 -8 -9v-1062q0 -66 -47.5 -113 t-112.5 -47q-66 0 -113 47t-47 113v1062q0 8 -8 9h-6q-8 0 -8 -9v-1062zM158 1718l90 -159q2 -8 14 -9h8q6 0 4 9l-90 159q-8 8 -14 8h-8q-8 0 -4 -8z" />
<glyph unicode="&#xfa;" d="M59 236v1093q0 12 10.5 22.5t22.5 10.5h66q14 0 23 -10.5t9 -22.5v-1093q0 -43 31 -74t76 -31q43 0 73.5 31t30.5 74v1093q0 12 9.5 22.5t23.5 10.5h66q14 0 23 -10.5t9 -22.5v-1093q0 -49 -18 -92.5t-51 -75t-75 -50t-91 -18.5t-92 18.5t-76 50t-51.5 74.5t-18.5 93z M115 236q0 -76 53 -129.5t129 -53.5t129 53.5t53 129.5v1062q0 8 -10 9h-4q-8 0 -8 -9v-1062q0 -66 -47.5 -113t-112.5 -47q-66 0 -113 47t-47 113v1062q0 8 -8 9h-6q-8 0 -8 -9v-1062zM226.5 1507.5q-7.5 10.5 2.5 26.5l119 209q10 16 28.5 27.5t35.5 11.5h65 q16 0 23.5 -11.5t-2.5 -27.5l-117 -209q-10 -16 -28.5 -26.5t-37.5 -10.5h-63q-18 0 -25.5 10.5zM305 1559q-4 -8 4 -9h8q10 0 15 9l90 161q2 6 -4 6h-8q-8 0 -15 -6z" />
<glyph unicode="&#xfb;" d="M59 236v1093q0 12 10.5 22.5t22.5 10.5h66q14 0 23 -10.5t9 -22.5v-1093q0 -43 31 -74t76 -31q43 0 73.5 31t30.5 74v1093q0 12 9.5 22.5t23.5 10.5h66q14 0 23 -10.5t9 -22.5v-1093q0 -49 -18 -92.5t-51 -75t-75 -50t-91 -18.5t-92 18.5t-76 50t-51.5 74.5t-18.5 93z M77 1507.5q-7 10.5 3 26.5l119 209q8 16 24.5 25.5t32.5 13.5h78q16 -4 32.5 -13.5t24.5 -25.5l119 -209q10 -16 3 -26.5t-26 -10.5h-63q-16 0 -35.5 10.5t-28.5 26.5l-65 115l-64 -115q-10 -16 -28.5 -26.5t-36.5 -10.5h-64q-18 0 -25 10.5zM115 236q0 -76 53 -129.5 t129 -53.5t129 53.5t53 129.5v1062q0 8 -10 9h-4q-8 0 -8 -9v-1062q0 -66 -47.5 -113t-112.5 -47q-66 0 -113 47t-47 113v1062q0 8 -8 9h-6q-8 0 -8 -9v-1062zM156 1561q-4 -8 4 -9h8q10 0 14 9l82 145h62l82 -145q8 -8 14 -9h8q8 0 4 9l-90 159q-4 8 -14 9h-70q-6 0 -14 -9 z" />
<glyph unicode="&#xfc;" d="M59 236v1093q0 12 10.5 22.5t22.5 10.5h66q14 0 23 -10.5t9 -22.5v-1093q0 -43 31 -74t76 -31q43 0 73.5 31t30.5 74v1093q0 12 9.5 22.5t23.5 10.5h66q14 0 23 -10.5t9 -22.5v-1093q0 -49 -18 -92.5t-51 -75t-75 -50t-91 -18.5t-92 18.5t-76 50t-51.5 74.5t-18.5 93z M115 236q0 -76 53 -129.5t129 -53.5t129 53.5t53 129.5v1062q0 8 -10 9h-4q-8 0 -8 -9v-1062q0 -66 -47.5 -113t-112.5 -47q-66 0 -113 47t-47 113v1062q0 8 -8 9h-6q-8 0 -8 -9v-1062zM125 1528v135q0 33 33 33h65q33 0 33 -33v-135q0 -12 -9 -22.5t-24 -10.5h-65 q-14 0 -23.5 10.5t-9.5 22.5zM180 1559q0 -8 8 -9h5q8 0 8 9v75q0 8 -8 8h-5q-8 0 -8 -8v-75zM336 1528v135q0 33 33 33h63q33 0 33 -33v-135q0 -12 -9.5 -22.5t-23.5 -10.5h-63q-14 0 -23.5 10.5t-9.5 22.5zM389 1559q0 -8 8 -9h6q8 0 9 9v75q0 8 -9 8h-6q-8 0 -8 -8v-75z " />
<glyph unicode="&#x152;" horiz-adv-x="3411" />
<glyph unicode="&#x178;" horiz-adv-x="1705" />
<glyph unicode="&#x2c6;" horiz-adv-x="1705" />
<glyph unicode="&#x2dc;" horiz-adv-x="1705" />
<glyph unicode="&#x2000;" horiz-adv-x="891" />
<glyph unicode="&#x2001;" horiz-adv-x="1782" />
<glyph unicode="&#x2002;" horiz-adv-x="891" />
<glyph unicode="&#x2003;" horiz-adv-x="1782" />
<glyph unicode="&#x2004;" horiz-adv-x="594" />
<glyph unicode="&#x2005;" horiz-adv-x="445" />
<glyph unicode="&#x2006;" horiz-adv-x="297" />
<glyph unicode="&#x2007;" horiz-adv-x="297" />
<glyph unicode="&#x2008;" horiz-adv-x="222" />
<glyph unicode="&#x2009;" horiz-adv-x="356" />
<glyph unicode="&#x200a;" horiz-adv-x="99" />
<glyph unicode="&#x2010;" horiz-adv-x="571" d="M59 649v66q0 14 10.5 23.5t22.5 9.5h336q33 0 33 -33v-66q0 -33 -33 -33h-336q-12 0 -22.5 9.5t-10.5 23.5zM115 680q0 -8 8 -8h274q10 0 11 8v4q0 8 -11 8h-274q-8 0 -8 -8v-4z" />
<glyph unicode="&#x2011;" horiz-adv-x="571" d="M59 649v66q0 14 10.5 23.5t22.5 9.5h336q33 0 33 -33v-66q0 -33 -33 -33h-336q-12 0 -22.5 9.5t-10.5 23.5zM115 680q0 -8 8 -8h274q10 0 11 8v4q0 8 -11 8h-274q-8 0 -8 -8v-4z" />
<glyph unicode="&#x2012;" horiz-adv-x="571" d="M59 649v66q0 14 10.5 23.5t22.5 9.5h336q33 0 33 -33v-66q0 -33 -33 -33h-336q-12 0 -22.5 9.5t-10.5 23.5zM115 680q0 -8 8 -8h274q10 0 11 8v4q0 8 -11 8h-274q-8 0 -8 -8v-4z" />
<glyph unicode="&#x2013;" horiz-adv-x="1193" d="M59 649v66q0 14 26.5 23.5t57.5 9.5h856q84 0 84 -33v-66q0 -33 -84 -33h-856q-31 0 -57.5 9.5t-26.5 23.5zM202 680q0 -8 20 -8h698q25 0 28 8v4q0 8 -28 8h-698q-20 0 -20 -8v-4z" />
<glyph unicode="&#x2014;" horiz-adv-x="2217" d="M59 649v66q0 14 53.5 23.5t114.5 9.5h1712q168 0 168 -33v-66q0 -33 -168 -33h-1712q-61 0 -114.5 9.5t-53.5 23.5zM344 680q0 -8 41 -8h1396q51 0 56 8v4q0 8 -56 8h-1396q-41 0 -41 -8v-4z" />
<glyph unicode="&#x202f;" horiz-adv-x="356" />
<glyph unicode="&#x205f;" horiz-adv-x="445" />
<glyph unicode="&#x20ac;" horiz-adv-x="776" d="M59 520v66q0 12 9.5 22t21.5 10h103v130h-103q-12 0 -21.5 9t-9.5 23v66q0 14 9.5 23.5t21.5 9.5h103v247q0 49 18 92.5t51 75t75 50t91 18.5t92 -18.5t75 -50t50.5 -74.5t18.5 -93v-69q0 -33 -33 -33h-64q-33 0 -32 33v69q0 45 -31 76t-76 31q-43 0 -73.5 -31t-30.5 -76 v-247h102q33 0 33 -33v-66q0 -33 -33 -32h-102v-130h102q14 0 23.5 -10t9.5 -22v-66q0 -33 -33 -33h-102v-251q0 -43 30.5 -74t73.5 -31q45 0 76 31t31 74v77q0 12 9 22.5t23 10.5h64q14 0 23.5 -10t9.5 -23v-77q0 -49 -18.5 -91.5t-50.5 -75t-75 -51t-92 -18.5t-91 18.5 t-75 51t-51 74.5t-18 92v251h-103q-12 0 -21.5 9.5t-9.5 23.5zM113 549q0 -8 8 -8h127v-305q0 -37 14 -70t39 -57.5t57.5 -39t69.5 -14.5t70.5 14.5t58.5 39t39 57.5t14 70v47q0 8 -8 8h-6q-8 0 -8 -8v-47q0 -66 -47 -112t-113 -46t-112 46t-46 112v305h125q10 0 11 8v6 q0 8 -11 8h-125v240h125q10 0 11 8v4q0 10 -11 10h-125v301q0 33 12.5 63t34 51.5t50 33.5t61.5 12q66 0 113 -47t47 -113v-39q0 -8 8 -8h6q8 0 8 8v39q0 76 -53 129.5t-129 53.5q-37 0 -69.5 -14.5t-57.5 -39t-39 -58.5t-14 -71v-301h-127q-8 0 -8 -10v-4q0 -8 8 -8h127 v-240h-127q-8 0 -8 -8v-6z" />
<glyph unicode="&#xe000;" horiz-adv-x="1361" d="M0 0v1362h1362v-1362h-1362z" />
</font>
</defs>
</svg>
