<?xml version="1.0" encoding="UTF-8" standalone="no"?>
<!-- Created with Inkscape (http://www.inkscape.org/) -->

<svg
   xmlns:dc="http://purl.org/dc/elements/1.1/"
   xmlns:cc="http://creativecommons.org/ns#"
   xmlns:rdf="http://www.w3.org/1999/02/22-rdf-syntax-ns#"
   xmlns:svg="http://www.w3.org/2000/svg"
   xmlns="http://www.w3.org/2000/svg"
   xmlns:sodipodi="http://sodipodi.sourceforge.net/DTD/sodipodi-0.dtd"
   xmlns:inkscape="http://www.inkscape.org/namespaces/inkscape"
   width="594"
   height="148"
   id="svg4645"
   version="1.1"
   inkscape:version="0.48.3.1 r9886"
   sodipodi:docname="logo-final.svg">
  <defs
     id="defs4647">
    <filter
       id="filter4051-2-9-2"
       inkscape:label="Darken edges"
       inkscape:menu="Shadows and Glows"
       inkscape:menu-tooltip="Darken the edges with an inner blur"
       color-interpolation-filters="sRGB">
      <feGaussianBlur
         id="feGaussianBlur4053-8-2-7"
         result="result6"
         stdDeviation="1.5" />
      <feComposite
         id="feComposite4055-3-5-2"
         in2="result6"
         operator="atop"
         in="SourceGraphic"
         result="result8" />
      <feComposite
         id="feComposite4057-0-7-2"
         in2="SourceAlpha"
         in="result8"
         operator="atop"
         result="result9" />
    </filter>
    <filter
       id="filter3086"
       inkscape:label="Darken edges"
       inkscape:menu="Shadows and Glows"
       inkscape:menu-tooltip="Darken the edges with an inner blur"
       color-interpolation-filters="sRGB">
      <feGaussianBlur
         id="feGaussianBlur3088"
         result="result6"
         stdDeviation="1.5" />
      <feComposite
         id="feComposite3090"
         in2="result6"
         operator="atop"
         in="SourceGraphic"
         result="result8" />
      <feComposite
         id="feComposite3092"
         in2="SourceAlpha"
         in="result8"
         operator="atop"
         result="result9" />
    </filter>
    <filter
       id="filter3184"
       inkscape:label="Darken edges"
       inkscape:menu="Shadows and Glows"
       inkscape:menu-tooltip="Darken the edges with an inner blur"
       color-interpolation-filters="sRGB">
      <feGaussianBlur
         id="feGaussianBlur3186"
         result="result6"
         stdDeviation="1.5" />
      <feComposite
         id="feComposite3188"
         in2="result6"
         operator="atop"
         in="SourceGraphic"
         result="result8" />
      <feComposite
         id="feComposite3190"
         in2="SourceAlpha"
         in="result8"
         operator="atop"
         result="result9" />
    </filter>
  </defs>
  <sodipodi:namedview
     id="base"
     pagecolor="#ffffff"
     bordercolor="#666666"
     borderopacity="1.0"
     inkscape:pageopacity="0.0"
     inkscape:pageshadow="2"
     inkscape:zoom="1.4142136"
     inkscape:cx="522.71184"
     inkscape:cy="111.26815"
     inkscape:document-units="px"
     inkscape:current-layer="layer1"
     showgrid="true"
     fit-margin-top="0"
     fit-margin-left="0"
     fit-margin-right="0"
     fit-margin-bottom="0"
     inkscape:window-width="1680"
     inkscape:window-height="995"
     inkscape:window-x="1678"
     inkscape:window-y="-3"
     inkscape:window-maximized="1">
    <inkscape:grid
       type="xygrid"
       id="grid4683"
       empspacing="5"
       visible="true"
       enabled="true"
       snapvisiblegridlinesonly="true"
       originx="2.3536728e-14px"
       originy="8.888889e-06px" />
  </sodipodi:namedview>
  <metadata
     id="metadata4650">
    <rdf:RDF>
      <cc:Work
         rdf:about="">
        <dc:format>image/svg+xml</dc:format>
        <dc:type
           rdf:resource="http://purl.org/dc/dcmitype/StillImage" />
        <dc:title></dc:title>
      </cc:Work>
    </rdf:RDF>
  </metadata>
  <g
     inkscape:label="Capa 1"
     inkscape:groupmode="layer"
     id="layer1"
     transform="translate(-0.73370797,-333.42587)">
    <path
       inkscape:connector-curvature="0"
       id="path4696"
       style="font-size:83.45669556px;font-style:normal;font-variant:normal;font-weight:normal;font-stretch:normal;text-align:start;line-height:125%;letter-spacing:0px;word-spacing:0px;writing-mode:lr-tb;text-anchor:start;fill:#1d3951;fill-opacity:1;stroke:none;font-family:Hammersmith One;-inkscape-font-specification:Hammersmith One"
       d="m 187.73372,453.42587 -5.00002,0 0,-10 5.00002,0 0,-0.30303 c 0,-3.15147 0.50835,-6.04709 1.31841,-8.68687 0.83706,-2.66661 2.05214,-4.95618 3.64525,-6.86869 1.59311,-1.93934 3.55073,-3.44775 5.87291,-4.52525 2.34914,-1.07738 5.03583,-1.6161 8.06006,-1.61616 0.54001,6e-5 1.17455,0.0405 1.90364,0.12121 0.72901,0.0809 1.28255,0.20208 1.66061,0.36363 l 1.62011,10.31314 -0.081,0.20202 c -0.43206,-0.43092 -1.16111,-0.96628 -2.02514,-1.26263 -0.86409,-0.29624 -1.82266,-0.44439 -2.87571,-0.44444 -1.43112,5e-5 -2.7137,0.26941 -3.84776,0.80809 -1.10709,0.51183 -2.05216,1.25256 -2.83519,2.22221 -0.78308,0.94281 -1.37712,2.10106 -1.78213,3.47475 -0.40505,1.34684 -0.60756,2.84179 -0.60754,4.48485 l -0.0266,1.71717 10.32409,0 c -0.081,0.29633 -0.16204,1.34011 -0.24302,2.28283 -0.0541,0.91586 -0.0952,2.26272 -0.081,4.04041 l 0,3.67676 -10.00006,0 0,28 -9.99997,0 0,-28"
       sodipodi:nodetypes="ccccscccccccccccccccccsccccc" />
    <path
       inkscape:connector-curvature="0"
       id="path4698"
       style="font-size:83.45669556px;font-style:normal;font-variant:normal;font-weight:normal;font-stretch:normal;text-align:start;line-height:125%;letter-spacing:0px;word-spacing:0px;writing-mode:lr-tb;text-anchor:start;fill:#1d3951;fill-opacity:1;stroke:none;font-family:Hammersmith One;-inkscape-font-specification:Hammersmith One"
       d="m 214.7337,459.9555 c -1e-5,-3.12343 0.53209,-6.04319 1.59628,-8.75926 1.06417,-2.74318 2.57859,-5.1333 4.54325,-7.17037 1.96464,-2.037 4.33859,-3.63947 7.12187,-4.8074 2.78323,-1.19502 5.89392,-1.79255 9.33208,-1.7926 3.38354,5e-5 6.39874,0.55684 9.04559,1.67038 2.67407,1.08645 4.92523,2.60744 6.75348,4.56295 1.82818,1.92844 3.21981,4.2235 4.17489,6.88519 0.95499,2.6346 1.43251,5.48645 1.43256,8.55555 -5e-5,3.04199 -0.49121,5.92101 -1.47349,8.63705 -0.98236,2.68889 -2.41492,5.05186 -4.29768,7.08888 -1.88282,2.03705 -4.18856,3.65308 -6.9172,4.84814 -2.70143,1.16791 -5.78483,1.75186 -9.25024,1.75186 -3.62917,0 -6.82172,-0.58395 -9.57767,-1.75186 -2.75598,-1.16789 -5.06172,-2.7432 -6.91721,-4.72591 -1.82823,-1.98272 -3.21986,-4.2642 -4.17488,-6.84445 -0.92776,-2.58023 -1.39164,-5.29628 -1.39163,-8.14815 m 10.00001,-0.6926 c -1e-5,1.8741 0.2865,4.13215 0.85954,5.70743 0.60029,1.54817 1.6378,2.87903 2.72929,3.99259 1.09145,1.08644 2.38757,1.94199 3.88837,2.56667 1.52803,0.59754 3.23346,0.89631 5.11627,0.8963 1.77362,1e-5 3.34262,-0.29876 4.70698,-0.8963 1.3916,-0.59752 2.56494,-1.43949 3.52,-2.52593 0.95501,-1.0864 1.9516,-2.37653 2.4428,-3.87036 0.49113,-1.52098 0.73671,-3.73827 0.73675,-5.5852 -4e-5,-1.81973 -0.25927,-3.87404 -0.77768,-5.4222 -0.51849,-1.57529 -1.55601,-2.93331 -2.56559,-4.07408 -1.00964,-1.14071 -2.25119,-2.02343 -3.72465,-2.64815 -1.44622,-0.65182 -3.11072,-0.97775 -4.99348,-0.97778 -1.96468,3e-5 -3.68375,0.36671 -5.15721,1.1 -1.47352,0.70621 -2.70142,1.64325 -3.68373,2.81111 -0.98234,1.16793 -1.91069,2.4988 -2.40184,3.9926 -0.46389,1.49385 -0.69583,3.38519 -0.69582,4.9333"
       sodipodi:nodetypes="ccscccccccscsscccccccccscccccccccc" />
    <path
       inkscape:connector-curvature="0"
       id="path4700"
       style="font-size:83.45669556px;font-style:normal;font-variant:normal;font-weight:normal;font-stretch:normal;text-align:start;line-height:125%;letter-spacing:0px;word-spacing:0px;writing-mode:lr-tb;text-anchor:start;fill:#1d3951;fill-opacity:1;stroke:none;font-family:Hammersmith One;-inkscape-font-specification:Hammersmith One"
       d="m 266.73371,455.35912 c -10e-6,-2.42478 -10e-6,-4.4724 0,-6.14286 -10e-6,-1.69733 -0.0136,-3.1118 -0.0407,-4.24342 -0.0272,-1.15849 -0.0542,-2.07452 -0.0814,-2.74812 -0.0272,-0.67352 -0.0678,-1.1989 -0.12204,-1.57612 -0.0813,-0.51187 -0.17627,-1.11805 -0.28475,-1.49528 -0.10848,-0.37716 -0.21695,-0.67352 -0.32542,-0.8891 0.70508,0.0808 1.48139,0.13476 2.62037,0.16165 1.13899,4e-5 2.38644,4e-5 3.74238,0 0.461,4e-5 1.04405,4e-5 1.74915,0 0.73218,-0.0269 1.76613,-0.0673 2.74241,-0.12124 l 0,23.56107 c 0,2.07457 0.18982,3.25567 0.5695,4.54889 0.37964,1.29324 0.90845,2.31705 1.58644,3.07143 0.67794,0.7544 1.29823,1.2663 2.22028,1.53572 0.92201,0.26942 1.9254,0.40414 3.01016,0.40413 1.38303,1e-5 2.67117,-0.33677 3.86441,-1.01034 1.22031,-0.70049 2.66444,-1.71082 3.74921,-3.03101 l 0,-28.95865 10,0 0,37.22084 c -4e-5,1.21242 0.0135,2.20928 0.0407,2.99061 0.0542,0.78133 0.14911,2.115 0.28474,2.78855 l -10.32544,0 0,-3.87972 c -0.86782,0.70051 -2.00007,1.3067 -2.8136,1.81861 -0.78646,0.48497 -1.58646,0.8891 -2.4,1.2124 -0.78646,0.29637 -1.61358,0.51191 -2.48135,0.64662 -0.86782,0.13471 -1.80341,0.20207 -2.80678,0.20207 -2.22374,0 -4.24407,-0.3772 -6.061,-1.13158 -1.78985,-0.78133 -3.32205,-1.87249 -4.59661,-3.2735 -1.27458,-1.40099 -2.11869,-3.09836 -2.82376,-5.0921 -0.67797,-1.99373 -1.01695,-4.21647 -1.01695,-6.66824 l 0,-9.90131"
       sodipodi:nodetypes="cccscccccccscccccccccccccccsscccsc" />
    <path
       inkscape:connector-curvature="0"
       id="path4702"
       style="font-size:83.45669556px;font-style:normal;font-variant:normal;font-weight:normal;font-stretch:normal;text-align:start;line-height:125%;letter-spacing:0px;word-spacing:0px;writing-mode:lr-tb;text-anchor:start;fill:#1d3951;fill-opacity:1;stroke:none;font-family:Hammersmith One;-inkscape-font-specification:Hammersmith One"
       d="m 312.73371,438.42525 10,0 0,3.47386 c 1.84997,-1.55966 3.55323,-2.69523 5.40324,-3.40671 1.84998,-0.7114 3.7804,-1.06712 5.79129,-1.06717 2.19853,5e-5 4.18258,0.39682 5.95217,1.1903 1.79634,0.79357 3.3246,1.92915 4.58477,3.40672 1.26011,1.45028 2.55255,3.20152 3.22289,5.25372 0.69705,2.02492 1.0456,4.28237 1.04564,6.77239 l 0,10.05597 c -4e-5,2.46271 -4e-5,4.55598 0,6.27986 -4e-5,1.69652 0,4.04106 0,4.30969 0,1.73137 0.0819,3.95823 0.39674,5.82836 0.24126,0.27364 0.44234,0.51992 0.60326,0.73883 l -0.0804,0.16418 c -1.13201,0.008 -1.87937,-0.0631 -3.01632,-0.1115 -0.58989,-0.0274 -1.21996,0.008 -1.89022,-0.0196 -0.64351,0 -1.28698,0.008 -1.93042,0.008 -0.45584,0 -1.04569,0 -1.76957,0 -0.69713,0.0274 -1.34789,0.0684 -2.31307,0.12314 l 0,-22.53361 c -3e-5,-2.07958 -0.1743,-3.87187 -0.52282,-5.37686 -0.32178,-1.53231 -0.98478,-3.23129 -1.62824,-4.2164 -0.61668,-0.98504 -1.36741,-1.71016 -2.25216,-2.17537 -0.858,-0.46514 -1.80981,-0.69773 -2.85543,-0.69776 -1.68916,3e-5 -3.28443,0.50625 -4.78587,1.51865 -1.50146,1.01248 -2.95548,2.48135 -3.95548,4.91416 l 0,23.02611 c -2e-5,1.23135 0.0134,2.24379 0.0402,3.03732 0.0536,0.79353 0.14745,1.81968 0.28152,2.50376 l -10.32167,0 0,-43.00001"
       sodipodi:nodetypes="cccccccccccccccccscccccccccccccc" />
    <path
       inkscape:connector-curvature="0"
       id="path4704"
       style="font-size:83.45669556px;font-style:normal;font-variant:normal;font-weight:normal;font-stretch:normal;text-align:start;line-height:125%;letter-spacing:0px;word-spacing:0px;writing-mode:lr-tb;text-anchor:start;fill:#1d3951;fill-opacity:1;stroke:none;font-family:Hammersmith One;-inkscape-font-specification:Hammersmith One"
       d="m 356.7337,460.03069 c 0,-3.21197 0.57442,-6.19259 1.72329,-8.94186 1.14884,-2.77644 2.74903,-5.18544 4.80057,-7.22699 2.07887,-2.04149 4.55437,-3.63387 7.42652,-4.77716 2.89947,-1.17044 6.0725,-1.65876 9.51909,-1.65881 2.07885,5e-5 4.47898,0.17533 6.53054,0.7197 l 0,-15.71972 10,0 0,41.19792 c -4e-5,1.851 0.041,3.37533 0.1231,4.57301 0.10937,1.1977 0.28717,2.20486 0.5334,3.02145 0.24614,0.7894 0.57438,1.44269 0.98472,1.95987 0.43762,0.51719 0.70224,1.00715 1.35877,1.46989 l -7.71375,6.77786 c -1.47712,-0.78939 -2.46567,-1.85672 -3.28624,-2.99998 -1.88744,1.03437 -3.94883,1.88395 -5.86356,2.34669 -1.88743,0.43552 -3.56969,0.65329 -5.04675,0.65329 -3.25511,0 -6.18196,-0.54441 -8.78054,-1.63321 -2.59861,-1.08882 -4.81426,-2.58594 -6.64694,-4.49136 -1.83271,-1.90542 -3.24142,-4.1647 -4.22615,-6.77785 -0.95738,-2.61313 -1.43607,-5.44405 -1.43607,-8.49274 m 10.00001,-1.02076 c -10e-6,1.87822 -0.1721,3.60671 0.37499,5.18547 0.54706,1.57879 1.53085,3.32605 2.62501,4.4965 1.12149,1.17049 2.71466,2.10077 4.35591,2.75404 1.66854,0.6533 3.59698,0.97994 5.7853,0.97993 1.17618,1e-5 2.29768,-0.0953 3.3645,-0.28581 1.09412,-0.21775 2.48217,-0.558 3.49429,-1.02076 l 0,-23.69343 c -1.9695,-0.78935 -4.52008,-0.99996 -6.98188,-1 -1.96949,4e-5 -3.76116,0.29945 -5.375,0.89827 -1.58653,0.59887 -2.95421,1.42909 -4.10306,2.49066 -1.14886,1.06162 -1.91093,2.11398 -2.54006,3.61107 -0.62915,1.46992 -1.00001,3.81477 -1,5.58406"
       sodipodi:nodetypes="ccccccccccccccccsssccccccccccccccc" />
    <path
       inkscape:connector-curvature="0"
       id="path4706"
       style="font-size:83.45669556px;font-style:normal;font-variant:normal;font-weight:normal;font-stretch:normal;text-align:start;line-height:125%;letter-spacing:0px;word-spacing:0px;writing-mode:lr-tb;text-anchor:start;fill:#1d3951;fill-opacity:1;stroke:none;font-family:Hammersmith One;-inkscape-font-specification:Hammersmith One"
       d="m 405.7337,467.01479 c -10e-6,-1.74922 0.42376,-3.44462 1.27129,-5.08623 0.87486,-1.66849 2.20084,-3.13515 3.97792,-4.40001 1.77707,-1.29171 4.03258,-2.3278 6.76656,-3.10825 5.05034,-1.16629 9.11306,-1.3376 13.98424,-0.96878 -0.10939,-1.34554 -0.35545,-2.46235 -0.73818,-3.35046 -0.38277,-0.88804 -0.94324,-1.68372 -1.68138,-2.22198 -0.71086,-0.53819 -2.13253,-0.91495 -3.19874,-1.13027 -1.03894,-0.21526 -2.29656,-0.32291 -3.77288,-0.32294 -1.0936,3e-5 -2.26921,0.10768 -3.52682,0.32294 -3.18215,0.56715 -6.44961,1.77827 -8.72869,3.79629 l -0.12303,-0.0807 -1.23028,-9.2844 c 2.07779,-1.13023 4.01259,-2.03176 6.71923,-2.70459 2.73395,-0.69964 5.54993,-1.04949 8.44795,-1.04954 2.95266,5e-5 5.52258,0.3768 7.70978,1.13028 4.50763,1.35797 6.72522,4.55131 8.05679,8.35596 0.7108,2.01838 1.06621,4.29238 1.06625,6.82202 l 0,14.61284 c -4e-5,1.69543 -0.0894,2.7419 0.45741,3.73761 0.54676,0.99573 1.39428,1.77616 2.54259,2.34129 l -6,7 c -1.285,-0.64587 -2.77397,-1.14372 -3.62146,-2.30091 -1.64041,0.78042 -3.37648,1.35902 -5.2082,1.73577 -1.80444,0.37676 -3.64987,0.56514 -5.53629,0.56514 -2.76131,0 -5.23555,-0.32293 -7.42271,-0.96881 -2.15983,-0.64586 -4.00527,-1.56085 -5.53627,-2.74495 -1.50369,-1.21101 -2.66562,-2.67767 -3.48581,-4.4 -0.79286,-1.74923 -1.18928,-4.11742 -1.18927,-6.29725 m 10.04732,0.41104 c -1e-5,1.69542 0.79284,3.30885 2.37855,4.38529 1.58568,1.07647 3.90955,1.61469 6.97161,1.61468 2.21448,1e-5 4.60671,-0.21773 6.60253,-1.0789 0,0 -3e-5,-1.75167 0,-2.61284 l 0,-8.30826 c -0.49214,-0.10762 -1.53106,-0.2642 -2.29654,-0.26422 -0.7382,-0.0268 -1.42169,-0.0403 -2.05047,-0.0404 -2.10518,2e-5 -3.89593,0.17495 -5.37225,0.52478 -1.47636,0.32295 -2.6793,0.76699 -3.60883,1.33211 -0.92956,0.53824 -1.59939,1.14375 -2.00947,1.81651 -0.4101,0.64588 -0.61514,1.98536 -0.61513,2.63122"
       sodipodi:nodetypes="ccccccccccccccccccccccccsccccccsccccccccc" />
    <path
       inkscape:connector-curvature="0"
       id="path4708"
       style="font-size:83.45669556px;font-style:normal;font-variant:normal;font-weight:normal;font-stretch:normal;text-align:start;line-height:125%;letter-spacing:0px;word-spacing:0px;writing-mode:lr-tb;text-anchor:start;fill:#1d3951;fill-opacity:1;stroke:none;font-family:Hammersmith One;-inkscape-font-specification:Hammersmith One"
       d="m 455.73371,447.42589 -6,0 c 0,0 -10e-6,-0.71745 -10e-6,-1.12641 -10e-6,-0.40889 -10e-6,-0.81781 0,-1.22677 l 0,-4.53903 c -10e-6,-0.70876 0,-0.94914 10e-6,-1.41262 -10e-6,-0.46341 0.0134,-0.69513 0.0401,-0.69517 l 5.95991,0 -1e-5,-12.00002 10,0 1e-5,12.00002 10,0 -1e-5,9 -10,0 0,16.74348 c -0.0551,2.2254 0.29716,4.25874 1.56215,5.8253 0.50735,0.54524 1.03683,0.9269 1.78454,1.14498 0.77438,0.19083 1.65559,0.28625 2.64364,0.28624 2.39215,0.0231 5.32894,-0.14413 6.68922,-2 l 0.32044,0 -1.36187,9.95537 c -2.30422,1.67887 -5.31864,1.95463 -8.0511,2.04461 -2.05618,0 -3.92542,-0.28624 -5.60773,-0.85874 -1.65563,-0.59975 -3.0709,-1.51301 -4.24584,-2.73977 -1.17497,-1.25402 -2.17131,-2.84882 -2.81218,-4.78439 -0.61419,-1.96282 -0.92127,-4.29366 -0.92127,-6.99257 l 0,-18.62451"
       sodipodi:nodetypes="cccccccccccccccccccccccccsc" />
    <path
       style="font-size:83.45669556px;font-style:normal;font-variant:normal;font-weight:normal;font-stretch:normal;text-align:start;line-height:125%;letter-spacing:0px;word-spacing:0px;writing-mode:lr-tb;text-anchor:start;fill:#1d3951;fill-opacity:1;stroke:none;font-family:Hammersmith One;-inkscape-font-specification:Hammersmith One"
       d="M 490 86 C 489.14901 86.9334 488.28173 88.10006 487.15625 89.5 C 486.0582 90.90006 485.01568 92.35299 484 94 L 492 100 C 493.73177 97.3593 496.03886 94.74193 498 92 L 490 86 z M 485 105 L 485 148 L 496.15625 148 C 496.10132 147.64463 496.05875 147.12484 496.03125 146.46875 C 496.00385 145.81267 496 144.80042 496 143.40625 L 496 105 L 485 105 z "
       transform="translate(0.73370797,333.42587)"
       id="path4710" />
    <path
       inkscape:connector-curvature="0"
       id="path3989-1-6"
       d="m 66.766846,349.42583 c -3.011617,0 -5.967791,0.19127 -8.872131,0.58183 3.904275,6.06761 6.827972,12.83373 8.508309,20.07208 2.230171,0.0741 4.184769,1.29433 5.30904,3.05442 3.950205,-0.53134 7.974552,-0.79997 12.072056,-0.79997 14.239894,0 27.68554,3.32308 39.63458,9.23606 -11.52945,-19.2521 -32.579589,-32.14442 -56.651854,-32.14442 z m -11.417898,0.94543 c -15.658766,2.73292 -29.483004,10.997 -39.270757,22.69017 0.38088,0.7083 0.662358,1.48385 0.727642,2.32721 7.694058,1.07807 14.981973,3.28254 21.671501,6.54524 0.684667,-0.68458 1.647531,-1.09085 2.690771,-1.09085 1.006825,0 1.939835,0.37537 2.617941,1.01816 5.04167,-2.5281 10.326762,-4.63214 15.853963,-6.18161 0.366447,-2.45032 2.136017,-4.45583 4.435738,-5.23624 -1.703631,-7.27562 -4.703765,-14.04217 -8.726799,-20.07208 z m 28.435172,24.29013 c -3.804216,0 -7.525104,0.30018 -11.199408,0.79999 0.07217,0.38259 0.147628,0.76073 0.147628,1.16357 0,2.98207 -2.004464,5.46182 -4.726729,6.25437 0.03608,0.56342 0.07217,1.10572 0.07217,1.67269 0,6.20279 -0.904797,12.21151 -2.545112,17.89031 0.788991,0.642 1.308971,1.60291 1.308971,2.69079 0,0.53905 -0.141066,1.00534 -0.363493,1.45453 6.966414,10.6211 11.053748,23.15303 11.053748,36.65336 0,0.45989 0,0.91899 0,1.38176 1.452662,0.52228 2.52838,1.89397 2.618269,3.49079 5.047246,1.7511 10.267382,3.10629 15.634817,4.07257 1.116399,-2.0315 3.278987,-3.41805 5.745689,-3.41805 1.86799,0 3.53587,0.83927 4.72706,2.10903 10.5564,-8.14477 19.48791,-18.26396 26.2529,-29.8172 0.16074,-1.86576 0.22308,-3.76576 0.22308,-5.67257 0,-10.8682 -2.61925,-21.0672 -7.27216,-30.10809 -12.37814,-6.74372 -26.581625,-10.61785 -41.670872,-10.61785 z m -67.196448,2.98172 c -0.34053,1.02278 -0.940228,1.9339 -1.745295,2.61815 1.643268,5.41297 3.718593,10.63681 6.18136,15.63579 0.295257,-0.0813 0.625944,-0.14533 0.945477,-0.14533 0.452727,0 0.844105,0.13123 1.23614,0.291 4.380295,-4.04443 9.131301,-7.65228 14.254001,-10.76332 -0.03937,-0.22309 -0.0689,-0.4195 -0.0689,-0.6545 0,-0.20963 0.03937,-0.38181 0.0689,-0.58183 -6.446106,-3.15579 -13.455824,-5.34464 -20.871683,-6.3998 z m 43.197669,0.43636 c -5.172566,1.48376 -10.173555,3.45187 -14.908158,5.81801 0.04921,0.24605 0.0689,0.46638 0.0689,0.72722 0,0.31593 -0.0689,0.57931 -0.147628,0.8727 7.011686,4.34392 13.217322,9.75772 18.253742,16.14493 0.09186,-0.01 0.193558,0 0.291976,0 1.561908,-5.43013 2.39978,-11.15438 2.39978,-17.09032 0,-0.49296 -0.05905,-0.9643 -0.07217,-1.4545 -2.881704,-0.22702 -5.246052,-2.27709 -5.891023,-5.01804 z m -46.907076,3.27265 c -0.574438,0.19159 -1.180042,0.29067 -1.817468,0.29067 -0.330031,0 -0.630536,-0.0164 -0.945476,-0.0725 -2.4001085,4.00733 -4.3757027,8.29966 -5.8910248,12.79965 2.930585,2.98841 5.4268149,6.38642 7.4181568,10.10878 0.232925,-0.0328 0.484877,-0.0725 0.726987,-0.0725 0.847387,0 1.626863,0.20899 2.32695,0.58184 1.289287,-1.56417 2.609083,-3.10911 4.000069,-4.58168 -0.124664,-0.35845 -0.219802,-0.76434 -0.219802,-1.16359 0,-0.792 0.275573,-1.52087 0.726988,-2.10903 -2.502463,-5.04803 -4.64537,-10.3177 -6.327348,-15.78129 z m 25.744729,6.03614 c -4.892401,2.96308 -9.472813,6.34633 -13.672017,10.18149 0.259169,0.49446 0.435996,1.07376 0.435996,1.67269 0,1.03151 -0.462569,1.97694 -1.163311,2.61808 5.269344,9.11605 11.861438,17.34881 19.562384,24.43556 0.80605,-0.55687 1.784005,-0.8727 2.836103,-0.8727 1.054722,0 2.043175,0.31397 2.836431,0.8727 4.935705,-5.37652 8.920028,-11.66745 11.708233,-18.54485 -0.744046,-0.62224 -1.235812,-1.54993 -1.235812,-2.61812 0,-0.90183 0.393675,-1.70523 0.944821,-2.32715 -4.79595,-6.02154 -10.608239,-11.14517 -17.235108,-15.27227 -0.66039,0.56205 -1.538614,0.87273 -2.472609,0.87273 -0.985829,0 -1.871599,-0.39883 -2.545111,-1.01816 z m -35.1981869,9.52695 c -1.7190491,5.88317 -2.69109913,12.0335 -2.69109913,18.47212 0,3.62241 0.31165973,7.2267 0.87297513,10.69058 2.0300526,-4.68728 4.4859307,-9.15191 7.2718402,-13.38137 -0.8385286,-0.891 -1.3814726,-2.0978 -1.3814726,-3.41808 0,-1.61948 0.7653706,-3.04356 1.963784,-3.92715 -1.666559,-3.06862 -3.6900505,-5.89304 -6.0360276,-8.4361 z m 16.7987849,5.38168 c -1.298801,1.37526 -2.571685,2.76644 -3.781581,4.21798 0.536055,0.7771 0.872648,1.74671 0.872648,2.76359 0,1.6576 -0.840497,3.10054 -2.108788,3.99988 -0.03608,0.01 0.03608,0.0637 0,0.0725 1.07703,3.79106 1.672464,7.79839 1.672464,11.92688 0,5.68478 -1.089169,11.14489 -3.054265,16.14493 1.16692,0.88503 1.991014,2.14586 2.47261,3.56352 9.732639,-1.95048 18.624125,-6.19739 26.107893,-12.14505 -0.454366,-0.74626 -0.727315,-1.61629 -0.727315,-2.54542 0,-0.85353 0.265731,-1.63296 0.654157,-2.32719 -7.965037,-7.32601 -14.800552,-15.78122 -20.216869,-25.23551 -0.04593,0.002 -0.1017,0 -0.147628,0 -0.622664,0 -1.236797,-0.146 -1.744967,-0.43634 z m 44.506968,5.96344 c -0.416968,0.17093 -0.902829,0.29099 -1.381473,0.29099 -2.945019,7.26952 -7.112073,13.8371 -12.363703,19.49028 0.347747,0.67087 0.509482,1.44094 0.509482,2.25449 0,0.7683 -0.196837,1.45738 -0.509482,2.10903 6.869307,5.2804 14.398677,9.71911 22.472303,13.1632 0.452398,-0.46498 1.036022,-0.82978 1.672464,-1.01816 0,-0.4362 0,-0.8703 0,-1.30906 0,-12.87516 -3.845224,-24.81002 -10.399591,-34.98064 z m -53.888253,5.74524 c -3.3321338,5.06175 -6.133134,10.49269 -8.3629768,16.21769 0.8441056,3.67522 1.9155586,7.27798 3.3455844,10.69052 1.0494729,-0.5858 2.2692105,-0.94544 3.5627621,-0.94544 0.8332803,0 1.5829043,0.17979 2.3272773,0.43634 1.811564,-4.69355 2.836431,-9.79125 2.836431,-15.12673 0,-3.8719 -0.60429,-7.58022 -1.599962,-11.12695 -0.190276,0.0229 -0.38777,0.0725 -0.581983,0.0725 -0.533759,0 -1.047833,-0.0584 -1.527133,-0.21817 z m 121.012203,12.43594 c -6.55076,10.09822 -14.77169,19.00004 -24.28944,26.32645 0,0.0164 0,0.0535 0,0.0725 0.10498,0.25425 0.14762,0.53131 0.2198,0.79993 2.06908,0.13024 4.14934,0.21817 6.25418,0.21817 2.16916,0 4.33569,-0.086 6.47236,-0.21817 5.66334,-7.95065 9.66112,-17.17254 11.34506,-27.19908 z m -82.250598,7.70884 c -0.824422,0.65504 -1.845026,1.09089 -2.981763,1.09089 -0.96188,0 -1.853883,-0.3156 -2.617941,-0.79997 -7.807895,6.26219 -17.097648,10.73967 -27.271205,12.79958 9.84e-4,0.0505 0,0.0951 0,0.14533 0,2.75063 -1.487108,5.14075 -3.708749,6.3998 5.227353,7.30075 11.926067,13.5232 19.635214,18.18123 3.418415,0.34506 6.890303,0.50906 10.399591,0.50906 7.588749,0 14.980988,-0.8498 22.107825,-2.39993 0,-0.0981 0,-0.19159 0,-0.29066 0,-2.99577 2.386001,-5.38168 5.381542,-5.38168 0.351355,0 0.686307,0.01 1.017979,0.0725 1.402796,-4.04975 2.331542,-8.29709 2.908933,-12.65408 -1.273868,-0.62585 -2.10846,-1.96394 -2.10846,-3.49081 0,-0.26836 0.03608,-0.54603 0.0689,-0.79996 -8.204523,-3.50837 -15.851338,-8.01577 -22.834812,-13.3814 z m 30.034806,16.14495 c -0.580999,0.97181 -1.599962,1.62722 -2.763601,1.81813 -0.619383,4.60195 -1.682634,9.03876 -3.199925,13.30863 0.718458,0.49566 1.265995,1.11645 1.672793,1.89086 7.125852,-2.34261 13.871808,-5.47636 20.217526,-9.23606 -0.373335,-0.82371 -0.581655,-1.7262 -0.581655,-2.69082 0,-0.35319 0.09186,-0.679 0.147629,-1.01812 -5.326428,-0.954 -10.468813,-2.34616 -15.489814,-4.07262 z m 28.362342,5.52711 c -0.22964,3.40906 -3.00342,6.10884 -6.47236,6.10884 -1.830254,0 -3.467942,-0.75666 -4.654546,-1.96349 -6.574051,3.89558 -13.554243,7.11512 -20.943858,9.52692 0,0.0997 0.07217,0.18896 0.07217,0.29067 0,2.99572 -2.458503,5.45434 -5.454372,5.45434 -0.37432,0 -0.738798,-0.0722 -1.090809,-0.14534 -1.18037,2.17582 -2.447677,4.296 -3.85441,6.32708 0.38613,0.01 0.775869,0 1.163311,0 21.184328,0 39.993804,-10.0109 52.070134,-25.52645 -1.59341,0.0702 -3.18877,0.14534 -4.79957,0.14534 -2.02808,0 -4.03812,-0.10007 -6.03602,-0.21818 z M 65.748867,472.1855 c -7.311207,1.5852 -14.900612,2.47262 -22.689808,2.47262 -1.883736,0 -3.739916,-0.0489 -5.599704,-0.145 7.702587,3.82088 16.261417,6.22467 25.307749,6.76336 1.650812,-2.28046 3.159573,-4.64824 4.508567,-7.12703 -0.669248,-0.5128 -1.154125,-1.19522 -1.526804,-1.96356 z"
       style="fill:#376a97;fill-opacity:1;stroke:none;filter:url(#filter3184)" />
    <g
       id="g3068"
       transform="translate(7,0)">
      <path
         sodipodi:nodetypes="cccccccccccccccccccccccccccccccccc"
         d="m 214.73371,362.04126 c -8e-5,4.18359 -0.83016,7.94877 -2.49027,11.29554 -1.57724,3.26321 -3.73548,6.10801 -6.47471,8.53441 -2.65635,2.34282 -5.72769,4.22542 -9.21401,5.64778 -3.40342,1.42244 -6.97281,2.57223 -10.70817,2.90688 -1.90925,0.16737 -3.90147,0.0837 -5.97666,0 -2.07526,-0.1673 -4.27499,-0.7314 -6.59922,-1.40081 0.49802,-1.17136 1.03759,-2.38457 1.61868,-3.63967 0.66404,-1.33869 1.41112,-2.55192 2.24125,-3.63968 0.91306,-1.08767 1.90917,-2.00805 2.98832,-2.76113 1.16209,-0.753 2.44873,-1.21318 3.85992,-1.38057 1.74315,-0.1673 3.36183,-0.66932 4.85604,-1.50608 1.49411,-0.92032 2.78075,-2.04988 3.85991,-3.38866 1.16208,-1.42234 2.07518,-3.05392 2.73931,-4.89473 0.66401,-1.8407 0.99605,-3.76512 0.99611,-5.77328 -6e-5,-2.17538 -0.4151,-4.18347 -1.24514,-6.0243 -0.83014,-1.92435 -2.03377,-3.59777 -3.61089,-5.02024 -1.49421,-1.42233 -3.32041,-2.55188 -5.4786,-3.38866 -2.07527,-0.83663 -4.39953,-1.25498 -6.97277,-1.25506 -1.16216,8e-5 -2.15827,0.0419 -2.98832,0.1255 -0.74712,8e-5 -1.4942,0.0419 -2.24125,0.12551 -0.74712,8e-5 -1.5357,0.0837 -2.36575,0.25101 -0.83012,0.0838 -1.71469,0.16742 -2.79378,0.25101 l 0,79.31984 -18,0 0,-90.11336 c 3.32035,-0.5856 6.26716,-1.0458 8.84046,-1.38056 2.57326,-0.41827 4.89751,-0.71112 6.97277,-0.87855 2.15821,-0.25091 4.23343,-0.41826 6.22569,-0.50203 1.99217,-0.0835 4.10891,-0.12541 6.35018,-0.1255 5.06352,9e-5 9.75352,0.66946 14.07004,2.0081 4.31642,1.33882 8.05182,3.26324 11.20623,5.77328 3.23728,2.42653 5.76907,5.39684 7.59534,8.91093 1.82612,3.51424 2.73921,7.48859 2.73929,11.92308"
         style="font-size:125.43495178px;font-style:normal;font-variant:normal;font-weight:bold;font-stretch:normal;text-align:start;line-height:125%;letter-spacing:0px;word-spacing:0px;writing-mode:lr-tb;text-anchor:start;fill:#376a97;fill-opacity:1;stroke:none;font-family:Expletus Sans;-inkscape-font-specification:Expletus Sans Bold"
         id="path4686"
         inkscape:connector-curvature="0" />
      <path
         sodipodi:nodetypes="cccscccccccccscccccccccccccc"
         d="m 283.73371,360.53487 c -6e-5,4.12348 -1.55828,8.4156 -3.90673,12.87557 -2.2647,4.46007 -5.07453,8.87802 -8.42951,13.25386 -3.2712,4.37592 -6.75202,8.62556 -10.44251,12.74895 -3.69056,4.12344 -6.96171,7.91026 -9.81345,11.36044 l -2.01302,2.27209 2.89372,-0.61991 32.71149,0 0,14 -58,0 0,-7.4474 c 1.17425,-2.77699 2.93564,-5.7223 5.28416,-8.83591 2.3485,-3.19774 4.90672,-6.43756 7.67463,-9.71949 2.85174,-3.36602 5.74545,-6.77416 8.68112,-10.22441 2.93562,-3.45017 5.61964,-6.81623 8.05206,-10.09818 2.43236,-3.36601 4.40343,-6.56376 5.91323,-9.59326 1.5936,-3.11355 2.39042,-6.01677 2.39047,-8.70968 -5e-5,-4.03921 -1.384,-7.11073 -4.15185,-9.21458 -2.68406,-2.18787 -6.08102,-3.28183 -10.1909,-3.28191 -1.92916,8e-5 -4.23573,0.2946 -6.91973,0.88359 -2.68404,0.58914 -5.54592,1.81073 -8.73318,3.24123 l -5,-11.82468 c 4.19377,-1.9354 8.49093,-3.28182 12.09761,-4.03928 3.60662,-0.75727 6.87777,-1.13595 9.81344,-1.13604 4.86475,9e-5 9.22629,0.54708 13.08461,1.64095 3.9421,1.09406 7.29712,2.69294 10.06506,4.79664 2.76785,2.10387 4.86475,4.62841 6.29068,7.57364 1.50971,2.94537 2.64854,6.31101 2.6486,10.09777"
         style="font-size:125.43495178px;font-style:normal;font-variant:normal;font-weight:bold;font-stretch:normal;text-align:start;line-height:125%;letter-spacing:0px;word-spacing:0px;writing-mode:lr-tb;text-anchor:start;fill:#376a97;fill-opacity:1;stroke:none;font-family:Expletus Sans;-inkscape-font-specification:Expletus Sans Bold"
         id="path4688"
         inkscape:connector-curvature="0" />
      <path
         inkscape:connector-curvature="0"
         id="path3003"
         style="font-size:125.43495178px;font-style:normal;font-variant:normal;font-weight:bold;font-stretch:normal;text-align:start;line-height:125%;letter-spacing:0px;word-spacing:0px;writing-mode:lr-tb;text-anchor:start;fill:#376a97;fill-opacity:1;stroke:none;font-family:Expletus Sans;-inkscape-font-specification:Expletus Sans Bold"
         d="m 365.73371,362.04126 c -8e-5,4.18359 -0.83016,7.94877 -2.49027,11.29554 -1.57724,3.26321 -3.73548,6.10801 -6.47471,8.53441 -2.65635,2.34282 -5.72769,4.22542 -9.21401,5.64778 -3.40342,1.42244 -6.97281,2.57223 -10.70817,2.90688 -1.90925,0.16737 -3.90147,0.0837 -5.97666,0 -2.07526,-0.1673 -4.27499,-0.7314 -6.59922,-1.40081 0.49802,-1.17136 1.03759,-2.38457 1.61868,-3.63967 0.66404,-1.33869 1.41112,-2.55192 2.24125,-3.63968 0.91306,-1.08767 1.90917,-2.00805 2.98832,-2.76113 1.16209,-0.753 2.44873,-1.21318 3.85992,-1.38057 1.74315,-0.1673 3.36183,-0.66932 4.85604,-1.50608 1.49411,-0.92032 2.78075,-2.04988 3.85991,-3.38866 1.16208,-1.42234 2.07518,-3.05392 2.73931,-4.89473 0.66401,-1.8407 0.99605,-3.76512 0.99611,-5.77328 -6e-5,-2.17538 -0.4151,-4.18347 -1.24514,-6.0243 -0.83014,-1.92435 -2.03377,-3.59777 -3.61089,-5.02024 -1.49421,-1.42233 -3.32041,-2.55188 -5.4786,-3.38866 -2.07527,-0.83663 -4.39953,-1.25498 -6.97277,-1.25506 -1.16216,8e-5 -2.15827,0.0419 -2.98832,0.1255 -0.74712,8e-5 -1.4942,0.0419 -2.24125,0.12551 -0.74712,8e-5 -1.5357,0.0837 -2.36575,0.25101 -0.83012,0.0838 -1.71469,0.16742 -2.79378,0.25101 l 0,79.31984 -18,0 0,-90.11336 c 3.32035,-0.5856 6.26716,-1.0458 8.84046,-1.38056 2.57326,-0.41827 4.89751,-0.71112 6.97277,-0.87855 2.15821,-0.25091 4.23343,-0.41826 6.22569,-0.50203 1.99217,-0.0835 4.10891,-0.12541 6.35018,-0.1255 5.06352,9e-5 9.75352,0.66946 14.07004,2.0081 4.31642,1.33882 8.05182,3.26324 11.20623,5.77328 3.23728,2.42653 5.76907,5.39684 7.59534,8.91093 1.82612,3.51424 2.73921,7.48859 2.73929,11.92308"
         sodipodi:nodetypes="cccccccccccccccccccccccccccccccccc" />
    </g>
    <path
       sodipodi:nodetypes="ccscccccccscsscccccccccscccccccccc"
       d="m 505.34208,459.9555 c -1e-5,-3.12343 0.53209,-6.04319 1.59628,-8.75926 1.06417,-2.74318 2.57859,-5.1333 4.54325,-7.17037 1.96464,-2.037 4.33859,-3.63947 7.12187,-4.8074 2.78323,-1.19502 5.89392,-1.79255 9.33208,-1.7926 3.38354,5e-5 6.39874,0.55684 9.04559,1.67038 2.67407,1.08645 4.92523,2.60744 6.75348,4.56295 1.82818,1.92844 3.21981,4.2235 4.17489,6.88519 0.95499,2.6346 1.43251,5.48645 1.43256,8.55555 -5e-5,3.04199 -0.49121,5.92101 -1.47349,8.63705 -0.98236,2.68889 -2.41492,5.05186 -4.29768,7.08888 -1.88282,2.03705 -4.18856,3.65308 -6.9172,4.84814 -2.70143,1.16791 -5.78483,1.75186 -9.25024,1.75186 -3.62917,0 -6.82172,-0.58395 -9.57767,-1.75186 -2.75598,-1.16789 -5.06172,-2.7432 -6.91721,-4.72591 -1.82823,-1.98272 -3.21986,-4.2642 -4.17488,-6.84445 -0.92776,-2.58023 -1.39164,-5.29628 -1.39163,-8.14815 m 10.00001,-0.6926 c -10e-6,1.8741 0.2865,4.13215 0.85954,5.70743 0.60029,1.54817 1.6378,2.87903 2.72929,3.99259 1.09145,1.08644 2.38757,1.94199 3.88837,2.56667 1.52803,0.59754 3.23346,0.89631 5.11627,0.8963 1.77362,1e-5 3.34262,-0.29876 4.70698,-0.8963 1.3916,-0.59752 2.56494,-1.43949 3.52,-2.52593 0.95501,-1.0864 1.9516,-2.37653 2.4428,-3.87036 0.49113,-1.52098 0.73671,-3.73827 0.73675,-5.5852 -4e-5,-1.81973 -0.25927,-3.87404 -0.77768,-5.4222 -0.51849,-1.57529 -1.55601,-2.93331 -2.56559,-4.07408 -1.00964,-1.14071 -2.25119,-2.02343 -3.72465,-2.64815 -1.44622,-0.65182 -3.11072,-0.97775 -4.99348,-0.97778 -1.96468,3e-5 -3.68375,0.36671 -5.15721,1.1 -1.47352,0.70621 -2.70142,1.64325 -3.68373,2.81111 -0.98234,1.16793 -1.91069,2.4988 -2.40184,3.9926 -0.46389,1.49385 -0.69583,3.38519 -0.69582,4.9333"
       style="font-size:83.45669556px;font-style:normal;font-variant:normal;font-weight:normal;font-stretch:normal;text-align:start;line-height:125%;letter-spacing:0px;word-spacing:0px;writing-mode:lr-tb;text-anchor:start;fill:#1d3951;fill-opacity:1;stroke:none;font-family:Hammersmith One;-inkscape-font-specification:Hammersmith One"
       id="path3035"
       inkscape:connector-curvature="0" />
    <path
       sodipodi:nodetypes="cccccccccccccccccscccccccccccccc"
       d="m 557.73371,438.42525 10,0 0,3.47386 c 1.84997,-1.55966 3.55323,-2.69523 5.40324,-3.40671 1.84998,-0.7114 3.7804,-1.06712 5.79129,-1.06717 2.19853,5e-5 4.18258,0.39682 5.95217,1.1903 1.79634,0.79357 3.3246,1.92915 4.58477,3.40672 1.26011,1.45028 2.55255,3.20152 3.22289,5.25372 0.69705,2.02492 1.0456,4.28237 1.04564,6.77239 l 0,10.05597 c -4e-5,2.46271 -4e-5,4.55598 0,6.27986 -4e-5,1.69652 0,4.04106 0,4.30969 0,1.73137 0.0819,3.95823 0.39674,5.82836 0.24126,0.27364 0.44234,0.51992 0.60326,0.73883 l -0.0804,0.16418 c -1.13201,0.008 -1.87937,-0.0631 -3.01632,-0.1115 -0.58989,-0.0274 -1.21996,0.008 -1.89022,-0.0196 -0.64351,0 -1.28698,0.008 -1.93042,0.008 -0.45584,0 -1.04569,0 -1.76957,0 -0.69713,0.0274 -1.34789,0.0684 -2.31307,0.12314 l 0,-22.53361 c -3e-5,-2.07958 -0.1743,-3.87187 -0.52282,-5.37686 -0.32178,-1.53231 -0.98478,-3.23129 -1.62824,-4.2164 -0.61668,-0.98504 -1.36741,-1.71016 -2.25216,-2.17537 -0.858,-0.46514 -1.80981,-0.69773 -2.85543,-0.69776 -1.68916,3e-5 -3.28443,0.50625 -4.78587,1.51865 -1.50146,1.01248 -2.95548,2.48135 -3.95548,4.91416 l 0,23.02611 c -2e-5,1.23135 0.0134,2.24379 0.0402,3.03732 0.0536,0.79353 0.14745,1.81968 0.28152,2.50376 l -10.32167,0 0,-43.00001"
       style="font-size:83.45669556px;font-style:normal;font-variant:normal;font-weight:normal;font-stretch:normal;text-align:start;line-height:125%;letter-spacing:0px;word-spacing:0px;writing-mode:lr-tb;text-anchor:start;fill:#1d3951;fill-opacity:1;stroke:none;font-family:Hammersmith One;-inkscape-font-specification:Hammersmith One"
       id="path3084"
       inkscape:connector-curvature="0" />
  </g>
</svg>
